<svg width="500" height="500" viewBox="0 0 500 500" fill="none" xmlns="http://www.w3.org/2000/svg">
<path d="M250 0L466.506 125V375L250 500L33.4937 375V125L250 0Z" fill="#D9D9D9"/>
<path d="M34 374.711L249.5 499.134V416.289L34 291.866V374.711Z" fill="#073B3A" stroke="black"/>
<path d="M466.001 374.71L250.5 499.134V416.29L466.494 291.869L466.001 374.71Z" fill="#073B3A" stroke="black"/>
<path d="M34 291.038L249.506 415.137L249.999 333.288L34 208.865V291.038Z" fill="#00614D" stroke="black"/>
<path d="M466.498 290.736L250.505 415.131L250.998 333.288L466.005 208.365L466.498 290.736Z" fill="#00614D" stroke="black"/>
<path d="M34 207.711L249.995 332.447L249.502 250.289L34 125.865V207.711Z" fill="#148664" stroke="black"/>
<path d="M466 207.212L250.994 332.461L250.501 250.287L466 125.865V207.212Z" fill="#148664" stroke="black"/>
<path d="M465.5 125L250 249.423L34.499 125L250 0.576172L465.5 125Z" fill="#148664" stroke="black"/>
</svg>
