<svg width="700" height="700" viewBox="0 0 700 700" fill="none" xmlns="http://www.w3.org/2000/svg">
<path d="M133.5 475.741L348.5 600V516.265L133.5 393V475.741Z" fill="#073B3A"/>
<path d="M565.5 475.734L350.5 600V516.245L565.5 393V475.734Z" fill="#073B3A"/>
<path d="M133.5 390.738L348.5 514V431.262L133.5 308V390.738Z" fill="#00614D"/>
<path d="M565.502 390.738L350.5 514V431.266L565.502 308V390.738Z" fill="#00614D"/>
<path d="M133.5 306.338L348.5 429V350.639L133.5 226V306.338Z" fill="#148664"/>
<path d="M565.5 306.338L350.5 429V350.639L565.5 226V306.338Z" fill="#148664"/>
<path d="M565.5 224.005L349.5 349L133.5 224.005L349.5 100L565.5 224.005Z" fill="#148664"/>
</svg>
