<svg width="700" height="700" viewBox="0 0 700 700" fill="none" xmlns="http://www.w3.org/2000/svg">
<rect width="700" height="700" rx="10" fill="white"/>
<path d="M566.007 225.288V474.711L350 599.423L133.994 474.711V225.288L350 100.576L566.007 225.288Z" fill="#D9D9D9" stroke="black"/>
<path d="M134 474.711L349.5 599.134V515.289L134 391.861V474.711Z" fill="#073B3A" stroke="black"/>
<path d="M566 474.711L350.5 599.134V515.289L566 391.861V474.711Z" fill="#073B3A" stroke="black"/>
<path d="M134 390.71L349.5 514.138V431.289L134 307.861V390.71Z" fill="#00614D" stroke="black"/>
<path d="M566 390.71L350.5 514.138V431.289L566 307.861V390.71Z" fill="#00614D" stroke="black"/>
<path d="M134 306.71L349.5 430.138V351.288L134 225.87V306.71Z" fill="#148664" stroke="black"/>
<path d="M566 306.71L350.502 430.138V351.288L566 225.87V306.71Z" fill="#148664" stroke="black"/>
<path d="M565.502 225.001L350 350.42L134.497 225.001L350 100.576L565.502 225.001Z" fill="#148664" stroke="black"/>
<path d="M566 225.5V474.5H565V225.5H566Z" fill="black" stroke="black"/>
<path d="M135.001 225.5V474.5H134.001V225.5H135.001Z" fill="black" stroke="black"/>
<path d="M350.384 598.048L564.517 474.569L565.445 475.033L350.45 599.164L350.384 598.048Z" fill="black" stroke="black"/>
<path d="M349.416 597.939L135.391 474.686L134.58 475.055L349.458 599.116L349.416 597.939Z" fill="black" stroke="black"/>
<path d="M565.823 225.183L565.323 226.049L349.683 101.549L350.183 100.683L565.823 225.183Z" fill="black" stroke="black"/>
<path d="M134.099 225.231L134.41 226.203L350.029 101.715L349.715 100.742L134.099 225.231Z" fill="black" stroke="black"/>
</svg>
