<svg width="500" height="500" viewBox="0 0 500 500" fill="none" xmlns="http://www.w3.org/2000/svg">
<path d="M466.007 125.288V374.711L250 499.423L33.9941 374.711V125.288L250 0.576172L466.007 125.288Z" fill="#D9D9D9" stroke="white"/>
<path d="M34 374.711L249.5 499.134V415.289L34 291.861V374.711Z" fill="#073B3A" stroke="white"/>
<path d="M466 374.711L250.5 499.134V415.289L466 291.861V374.711Z" fill="#073B3A" stroke="white"/>
<path d="M34 290.71L249.5 414.138V331.289L34 207.861V290.71Z" fill="#00614D" stroke="white"/>
<path d="M466 290.71L250.5 414.138V331.289L466 207.861V290.71Z" fill="#00614D" stroke="white"/>
<path d="M34 206.71L249.5 330.138V251.288L34 125.87V206.71Z" fill="#148664" stroke="white"/>
<path d="M466 206.71L250.502 330.138V251.288L466 125.87V206.71Z" fill="#148664" stroke="white"/>
<path d="M465.502 125.001L250 250.42L34.4971 125.001L250 0.576172L465.502 125.001Z" fill="#148664" stroke="white"/>
<path d="M466 125.5V374.5H465V125.5H466Z" fill="black" stroke="white"/>
<path d="M35.001 125.5V374.5H34.001V125.5H35.001Z" fill="black" stroke="white"/>
<path d="M250.384 498.048L464.517 374.569L465.445 375.033L250.45 499.164L250.384 498.048Z" fill="black" stroke="white"/>
<path d="M249.416 497.939L35.3909 374.686L34.5803 375.055L249.458 499.116L249.416 497.939Z" fill="black" stroke="white"/>
<path d="M465.823 125.183L465.323 126.049L249.683 1.54904L250.183 0.683013L465.823 125.183Z" fill="black" stroke="white"/>
<path d="M34.0995 125.231L34.4103 126.203L250.029 1.71505L249.715 0.742095L34.0995 125.231Z" fill="black" stroke="white"/>
</svg>
