<svg width="700" height="700" viewBox="0 0 700 700" fill="none" xmlns="http://www.w3.org/2000/svg">
<g clip-path="url(#clip0_95_13)">
<path d="M690 0H10C4.47715 0 0 4.47715 0 10V690C0 695.523 4.47715 700 10 700H690C695.523 700 700 695.523 700 690V10C700 4.47715 695.523 0 690 0Z" fill="white"/>
<path d="M350 100L566.506 225V475L350 600L133.494 475V225L350 100Z" fill="#D9D9D9"/>
<path d="M133.75 474.855L349.75 599.567V516.145L133.75 391.433V474.855Z" fill="#073B3A" stroke="white"/>
<path d="M566.25 474.855L350.25 599.567V516.145L566.747 391.434L566.25 474.855Z" fill="#073B3A" stroke="white"/>
<path d="M133.75 391.182L349.753 515.569L350.25 433.143L133.75 308.432V391.182Z" fill="#00614D" stroke="white"/>
<path d="M566.749 390.88L350.252 515.565L350.749 433.144L566.252 307.933L566.749 390.88Z" fill="#00614D" stroke="white"/>
<path d="M133.75 307.854L350.248 432.881L349.751 350.145L133.75 225.433V307.854Z" fill="#148664" stroke="white"/>
<path d="M566.25 307.355L350.747 432.895L350.25 350.144L566.25 225.433V307.355Z" fill="#148664" stroke="white"/>
<path d="M565.499 225L349.999 349.423L134.498 225L349.999 100.576L565.499 225Z" fill="#148664" stroke="white"/>
</g>
<defs>
<clipPath id="clip0_95_13">
<rect width="700" height="700" fill="white"/>
</clipPath>
</defs>
</svg>
