<svg width="500" height="500" viewBox="0 0 500 500" fill="none" xmlns="http://www.w3.org/2000/svg">
<path d="M33.5 375.741L248.5 500V416.265L33.5 293V375.741Z" fill="#073B3A"/>
<path d="M466.5 375.741L250.5 500V416.265L466.5 293V375.741Z" fill="#073B3A"/>
<path d="M33.5 290.738L248.5 414V331.262L33.5 208V290.738Z" fill="#00614D"/>
<path d="M466.5 290.738L250.5 414V331.262L466.5 208V290.738Z" fill="#00614D"/>
<path d="M33.5 206.338L248.5 329V250.639L33.5 126V206.338Z" fill="#148664"/>
<path d="M465.5 206.338L250.5 329V250.639L465.5 126V206.338Z" fill="#148664"/>
<path d="M465.5 124.005L249.5 249L33.5 124.005L249.5 0L465.5 124.005Z" fill="#148664"/>
</svg>
