<svg width="800" height="900" viewBox="0 0 800 900" fill="none" xmlns="http://www.w3.org/2000/svg">
<rect width="800" height="900" rx="5" fill="white"/>
<path d="M269.28 629.096L251.872 696.04C247.52 712.595 238.603 720.872 225.12 720.872H201.696C188.128 720.872 179.211 712.595 174.944 696.04L157.792 629.096H176.224L192.736 692.968C194.613 700.477 198.453 704.232 204.256 704.232H222.56C228.533 704.232 232.459 700.477 234.336 692.968L250.72 629.096H269.28ZM388.67 720.872H307.902C304.147 720.872 300.649 720.275 297.406 719.08C294.163 717.8 291.305 716.093 288.83 713.96C286.441 711.741 284.521 709.139 283.07 706.152C281.705 703.08 281.022 699.709 281.022 696.04V653.8C281.022 650.387 281.79 647.187 283.326 644.2C284.862 641.213 286.867 638.611 289.342 636.392C291.902 634.088 294.761 632.296 297.918 631.016C301.161 629.736 304.489 629.096 307.902 629.096H388.67V645.48H307.902C306.707 645.48 305.555 645.693 304.446 646.12C303.337 646.547 302.313 647.144 301.374 647.912C300.521 648.68 299.795 649.576 299.198 650.6C298.686 651.624 298.43 652.691 298.43 653.8V666.6H388.67V683.496H298.43V696.04C298.43 701.501 301.587 704.232 307.902 704.232H388.67V720.872ZM515.51 696.04C515.51 699.709 514.785 703.08 513.334 706.152C511.883 709.139 509.921 711.741 507.446 713.96C505.057 716.093 502.241 717.8 498.998 719.08C495.755 720.275 492.342 720.872 488.758 720.872H403.382V629.096H488.758C492.086 629.096 495.371 629.779 498.614 631.144C501.857 632.424 504.715 634.216 507.19 636.52C509.665 638.739 511.67 641.341 513.206 644.328C514.742 647.315 515.51 650.472 515.51 653.8V696.04ZM498.23 653.8C498.23 652.691 497.931 651.624 497.334 650.6C496.822 649.576 496.097 648.68 495.158 647.912C494.305 647.144 493.281 646.547 492.086 646.12C490.977 645.693 489.867 645.48 488.758 645.48H420.662V704.232H488.758C495.073 704.232 498.23 701.501 498.23 696.04V653.8ZM639.414 721H620.982L611.382 683.496H563.254L567.222 666.6H606.902L603.446 653.928C601.91 648.381 598.838 645.608 594.23 645.608H573.11C568.246 645.608 565.089 648.381 563.638 653.928L546.358 721H527.926L545.206 653.928C549.387 637.459 558.305 629.224 571.958 629.224H595.254C608.993 629.224 617.953 637.459 622.134 653.928L639.414 721Z" fill="black"/>
<path d="M97.72 766.56H83.192V762.784H116.536V766.56H102.072V804H97.72V766.56ZM152.653 800.288V804H123.469V762.784H151.757V766.56H127.821V781.216H149.197V784.928H127.821V800.288H152.653ZM169.506 801.696C166.178 799.84 163.618 797.344 161.762 794.144C159.906 790.944 158.946 787.36 158.946 783.392C158.946 779.488 159.906 775.904 161.762 772.704C163.618 769.504 166.242 767.008 169.506 765.152C172.833 763.36 176.482 762.464 180.578 762.464C183.65 762.464 186.466 762.976 189.026 764C191.65 765.024 193.826 766.496 195.682 768.48L192.866 771.232C189.666 767.968 185.57 766.368 180.706 766.368C177.442 766.368 174.498 767.072 171.81 768.608C169.122 770.08 167.074 772.128 165.538 774.688C164.002 777.312 163.298 780.192 163.298 783.392C163.298 786.656 164.002 789.536 165.538 792.16C167.074 794.72 169.122 796.768 171.81 798.24C174.498 799.776 177.442 800.48 180.706 800.48C185.634 800.48 189.729 798.88 192.866 795.552L195.682 798.304C193.826 800.288 191.65 801.76 189.026 802.848C186.402 803.872 183.586 804.384 180.514 804.384C176.418 804.384 172.77 803.488 169.506 801.696ZM239.402 762.784V804H235.05V784.992H209.258V804H204.906V762.784H209.258V781.216H235.05V762.784H239.402ZM287.215 762.784V804H283.567L257.071 770.592V804H252.719V762.784H256.367L282.863 796.256V762.784H287.215ZM307.443 801.632C304.179 799.84 301.555 797.344 299.699 794.144C297.843 790.944 296.883 787.36 296.883 783.392C296.883 779.488 297.843 775.904 299.699 772.704C301.555 769.504 304.179 767.008 307.443 765.216C310.771 763.36 314.483 762.464 318.579 762.464C322.675 762.464 326.323 763.36 329.587 765.152C332.915 767.008 335.475 769.504 337.331 772.704C339.251 775.904 340.211 779.488 340.211 783.392C340.211 787.36 339.251 790.944 337.331 794.144C335.475 797.344 332.915 799.84 329.587 801.696C326.323 803.488 322.675 804.384 318.579 804.384C314.483 804.384 310.771 803.488 307.443 801.632ZM327.411 798.304C330.035 796.832 332.083 794.784 333.619 792.16C335.091 789.536 335.795 786.656 335.795 783.392C335.795 780.192 335.091 777.312 333.619 774.688C332.083 772.064 330.035 770.016 327.411 768.544C324.787 767.072 321.843 766.368 318.579 766.368C315.315 766.368 312.371 767.072 309.683 768.544C307.059 770.016 305.011 772.064 303.475 774.688C301.939 777.312 301.235 780.192 301.235 783.392C301.235 786.656 301.939 789.536 303.475 792.16C305.011 794.784 307.059 796.832 309.683 798.304C312.371 799.776 315.315 800.48 318.579 800.48C321.843 800.48 324.787 799.776 327.411 798.304ZM349.906 762.784H354.258V800.288H377.362V804H349.906V762.784ZM390.568 801.632C387.304 799.84 384.68 797.344 382.824 794.144C380.968 790.944 380.008 787.36 380.008 783.392C380.008 779.488 380.968 775.904 382.824 772.704C384.68 769.504 387.304 767.008 390.568 765.216C393.896 763.36 397.608 762.464 401.704 762.464C405.8 762.464 409.448 763.36 412.712 765.152C416.04 767.008 418.6 769.504 420.456 772.704C422.376 775.904 423.336 779.488 423.336 783.392C423.336 787.36 422.376 790.944 420.456 794.144C418.6 797.344 416.04 799.84 412.712 801.696C409.448 803.488 405.8 804.384 401.704 804.384C397.608 804.384 393.896 803.488 390.568 801.632ZM410.536 798.304C413.16 796.832 415.208 794.784 416.744 792.16C418.216 789.536 418.92 786.656 418.92 783.392C418.92 780.192 418.216 777.312 416.744 774.688C415.208 772.064 413.16 770.016 410.536 768.544C407.912 767.072 404.968 766.368 401.704 766.368C398.44 766.368 395.496 767.072 392.808 768.544C390.184 770.016 388.136 772.064 386.6 774.688C385.064 777.312 384.36 780.192 384.36 783.392C384.36 786.656 385.064 789.536 386.6 792.16C388.136 794.784 390.184 796.832 392.808 798.304C395.496 799.776 398.44 800.48 401.704 800.48C404.968 800.48 407.912 799.776 410.536 798.304ZM462.087 783.392H466.247V799.136C464.327 800.864 462.087 802.144 459.463 803.04C456.775 803.936 454.023 804.384 451.143 804.384C446.983 804.384 443.271 803.488 440.007 801.696C436.679 799.84 434.119 797.344 432.263 794.144C430.343 790.944 429.383 787.36 429.383 783.392C429.383 779.488 430.343 775.904 432.263 772.704C434.119 769.504 436.679 767.008 440.007 765.152C443.271 763.36 447.047 762.464 451.207 762.464C454.343 762.464 457.223 762.976 459.847 763.936C462.471 764.96 464.711 766.432 466.503 768.416L463.815 771.168C460.551 767.968 456.391 766.368 451.399 766.368C448.007 766.368 444.999 767.072 442.311 768.544C439.623 770.016 437.511 772.064 435.975 774.688C434.439 777.312 433.735 780.192 433.735 783.392C433.735 786.656 434.439 789.536 435.975 792.16C437.511 794.72 439.623 796.768 442.311 798.24C444.999 799.776 447.943 800.48 451.335 800.48C455.559 800.48 459.143 799.456 462.087 797.344V783.392ZM478.531 762.784H482.883V804H478.531V762.784ZM525.465 800.288V804H496.281V762.784H524.569V766.56H500.633V781.216H522.009V784.928H500.633V800.288H525.465ZM538.216 802.912C535.464 801.952 533.288 800.608 531.752 799.008L533.416 795.68C534.952 797.152 536.936 798.368 539.368 799.264C541.864 800.224 544.424 800.672 547.048 800.672C550.76 800.672 553.512 799.968 555.368 798.624C557.16 797.28 558.12 795.552 558.12 793.376C558.12 791.712 557.608 790.432 556.584 789.408C555.624 788.448 554.408 787.68 552.936 787.168C551.464 786.656 549.48 786.08 546.856 785.44C543.784 784.672 541.288 783.904 539.432 783.136C537.576 782.432 536.04 781.344 534.696 779.808C533.416 778.336 532.712 776.288 532.712 773.792C532.712 771.68 533.288 769.824 534.376 768.096C535.464 766.368 537.192 765.024 539.432 764C541.736 762.976 544.552 762.464 547.944 762.464C550.312 762.464 552.616 762.784 554.856 763.424C557.096 764.064 559.08 764.96 560.68 766.112L559.208 769.568C557.48 768.48 555.688 767.584 553.704 767.008C551.72 766.432 549.8 766.176 547.944 766.176C544.296 766.176 541.608 766.88 539.752 768.288C537.96 769.632 537.064 771.424 537.064 773.664C537.064 775.328 537.512 776.608 538.536 777.632C539.56 778.656 540.776 779.36 542.312 779.936C543.784 780.448 545.832 781.024 548.392 781.664C551.4 782.432 553.896 783.136 555.752 783.84C557.608 784.608 559.144 785.696 560.488 787.168C561.768 788.64 562.408 790.624 562.408 793.12C562.408 795.232 561.832 797.088 560.744 798.816C559.592 800.544 557.928 801.888 555.56 802.912C553.256 803.872 550.44 804.384 547.048 804.384C543.976 804.384 541.032 803.872 538.216 802.912ZM574.95 798.816C575.526 799.456 575.845 800.16 575.845 801.056C575.845 801.568 575.782 802.08 575.59 802.592C575.462 803.168 575.27 803.808 575.014 804.512L572.518 812.64H569.702L571.686 804.064C571.046 803.872 570.598 803.552 570.15 802.976C569.766 802.464 569.574 801.824 569.574 801.056C569.574 800.16 569.894 799.456 570.47 798.816C571.046 798.24 571.814 797.92 572.71 797.92C573.606 797.92 574.374 798.24 574.95 798.816ZM601.031 762.784H605.383V804H601.031V762.784ZM653.277 762.784V804H649.629L623.133 770.592V804H618.781V762.784H622.429L648.925 796.256V762.784H653.277ZM673.506 801.696C670.178 799.84 667.618 797.344 665.762 794.144C663.906 790.944 662.946 787.36 662.946 783.392C662.946 779.488 663.906 775.904 665.762 772.704C667.618 769.504 670.242 767.008 673.506 765.152C676.833 763.36 680.482 762.464 684.578 762.464C687.65 762.464 690.466 762.976 693.026 764C695.65 765.024 697.826 766.496 699.682 768.48L696.866 771.232C693.666 767.968 689.57 766.368 684.706 766.368C681.442 766.368 678.498 767.072 675.81 768.608C673.122 770.08 671.074 772.128 669.538 774.688C668.002 777.312 667.298 780.192 667.298 783.392C667.298 786.656 668.002 789.536 669.538 792.16C671.074 794.72 673.122 796.768 675.81 798.24C678.498 799.776 681.442 800.48 684.706 800.48C689.634 800.48 693.729 798.88 696.866 795.552L699.682 798.304C697.826 800.288 695.65 801.76 693.026 802.848C690.402 803.872 687.586 804.384 684.514 804.384C680.418 804.384 676.77 803.488 673.506 801.696ZM707.157 803.36C706.517 802.784 706.197 802.016 706.197 801.056C706.197 800.16 706.517 799.456 707.157 798.816C707.733 798.24 708.501 797.92 709.333 797.92C710.229 797.92 710.933 798.24 711.573 798.816C712.213 799.456 712.533 800.16 712.533 801.056C712.533 802.016 712.213 802.784 711.573 803.36C710.933 804 710.229 804.32 709.333 804.32C708.501 804.32 707.733 804 707.157 803.36Z" fill="black"/>
<path d="M184.5 429.741L399.5 554V470.265L184.5 347V429.741Z" fill="#073B3A"/>
<path d="M616.5 429.734L401.5 554V470.245L616.5 347V429.734Z" fill="#073B3A"/>
<path d="M184.5 344.738L399.5 468V385.262L184.5 262V344.738Z" fill="#00614D"/>
<path d="M616.502 344.738L401.5 468V385.266L616.502 262V344.738Z" fill="#00614D"/>
<path d="M184.5 260.338L399.5 383V304.639L184.5 180V260.338Z" fill="#148664"/>
<path d="M616.5 260.338L401.5 383V304.639L616.5 180V260.338Z" fill="#148664"/>
<path d="M616.5 178.005L400.5 303L184.5 178.005L400.5 54L616.5 178.005Z" fill="#148664"/>
</svg>
