<?xml version="1.0" encoding="UTF-8" standalone="no"?>
<!-- Created with Inkscape (http://www.inkscape.org/) -->

<svg
   version="1.1"
   id="svg1"
   width="626.0647"
   height="625.75537"
   viewBox="0 0 626.0647 625.75537"
   sodipodi:docname="graph.svg"
   inkscape:version="1.4.3 (0d15f75, 2025-12-25)"
   xmlns:inkscape="http://www.inkscape.org/namespaces/inkscape"
   xmlns:sodipodi="http://sodipodi.sourceforge.net/DTD/sodipodi-0.dtd"
   xmlns="http://www.w3.org/2000/svg"
   xmlns:svg="http://www.w3.org/2000/svg">
  <defs
     id="defs1" />
  <sodipodi:namedview
     id="namedview1"
     pagecolor="#505050"
     bordercolor="#eeeeee"
     borderopacity="1"
     inkscape:showpageshadow="0"
     inkscape:pageopacity="0"
     inkscape:pagecheckerboard="0"
     inkscape:deskcolor="#d1d1d1"
     inkscape:zoom="0.96489505"
     inkscape:cx="164.26657"
     inkscape:cy="273.08669"
     inkscape:window-width="1920"
     inkscape:window-height="994"
     inkscape:window-x="1440"
     inkscape:window-y="30"
     inkscape:window-maximized="0"
     inkscape:current-layer="g1" />
  <g
     inkscape:groupmode="layer"
     inkscape:label="Image"
     id="g1"
     transform="translate(-33.909368,-37.092201)">
    <path
       style="fill:#eeffcc;fill-opacity:1;stroke-width:4;stroke-dasharray:none;stroke:#112318;stroke-opacity:1"
       d="m 56.400693,642.85205 c -3.68849,-1.7859 -5.81878,-6.5846 -5.81878,-13.1072 0,-7.1101 2.26745,-11.5111 6.92454,-13.4401 3.37856,-1.3995 4.39054,-1.2631 7.42193,1.0002 6.79231,5.0712 7.21847,19.2999 0.73088,24.4031 -3.81447,3.0004 -5.09733,3.159 -9.25857,1.144 z m 111.054537,-20.8788 c -1.58403,-1.7504 -2.20665,-4.9208 -2.20665,-11.2366 0,-7.9168 0.35197,-9.0751 3.51315,-11.5617 4.61355,-3.629 7.88262,-3.4888 11.88079,0.5093 2.62101,2.621 3.27273,4.6299 3.27273,10.0877 0,6.7156 -1.65905,11.7002 -4.53294,13.6192 -2.77963,1.856 -9.70982,1.0321 -11.92708,-1.4179 z m 199.12667,-0.2284 c -2.07853,-2.0785 -2.66667,-4.4444 -2.66667,-10.7272 0,-6.7804 0.51979,-8.5804 3.27273,-11.3334 3.99818,-3.9981 7.26724,-4.1383 11.8808,-0.5093 3.14428,2.4733 3.51314,3.6633 3.51314,11.3334 0,9.929 -2.66788,13.9032 -9.33333,13.9032 -2.22223,0 -5.18519,-1.1852 -6.66667,-2.6667 z m 104.09678,-0.8464 c -3.00609,-3.8217 -3.71249,-12.4838 -1.49393,-18.319 2.40963,-6.3378 10.2933,-7.7479 15.30392,-2.7373 3.17304,3.173 2.92255,19.4056 -0.34509,22.3628 -3.80161,3.4404 -10.22093,2.8175 -13.4649,-1.3065 z M 53.788563,602.93825 c -1.94798,-2.1525 -2.53998,-4.8215 -2.53998,-11.4512 0,-7.4761 0.42541,-8.9889 3.14771,-11.1933 1.73124,-1.4019 4.51477,-2.5489 6.18562,-2.5489 1.67085,0 4.45438,1.147 6.18562,2.5489 2.73926,2.2181 3.14771,3.704 3.14771,11.4511 0,7.7471 -0.40845,9.2331 -3.14771,11.4512 -4.14002,3.3524 -9.81379,3.2397 -12.97897,-0.2578 z m 114.378097,-18.5786 c -4.09703,-3.817 -4.26143,-18.6048 -0.25141,-22.6148 3.83669,-3.8367 9.85554,-3.4518 13.23656,0.8465 4.16493,5.2949 3.88833,16.8165 -0.50929,21.2141 -3.98426,3.9843 -8.57517,4.1882 -12.47586,0.5542 z M 56.400693,566.85205 c -6.20062,-3.0023 -8.01552,-16.6215 -3.05534,-22.9274 3.31801,-4.2181 10.31972,-4.8062 13.63308,-1.1449 5.41342,5.9817 3.83453,21.2168 -2.49783,24.102 -3.92894,1.7902 -4.32459,1.7887 -8.07991,-0.03 z m -2.47322,-39.7603 c -2.90523,-3.2103 -4.12147,-13.9451 -2.15605,-19.0299 1.72597,-4.4653 6.6991,-6.9687 11.46669,-5.7721 7.09902,1.7818 9.64515,18.5622 3.79699,25.0244 -2.96138,3.2722 -10.0539,3.1519 -13.10763,-0.2224 z m 417.260487,-19.2863 c -2.66825,-2.6682 -3.27272,-4.6052 -3.27272,-10.4868 0,-8.945 3.50668,-14.2404 9.4301,-14.2404 6.58741,0 9.23656,4.0153 9.23656,14 0,6.8889 -0.547,9.2136 -2.66666,11.3333 -3.60365,3.6036 -8.76327,3.3579 -12.72728,-0.6061 z M 54.495713,489.94315 c -4.56259,-3.6945 -5.32655,-16.7382 -1.28061,-21.8649 3.44813,-4.3692 10.39154,-5.0243 13.76333,-1.2985 5.45331,6.0258 3.74454,21.9636 -2.61402,24.3812 -4.69759,1.786 -6.42202,1.5732 -9.8687,-1.2178 z m 312.692247,-10.1377 c -3.01224,-3.0122 -3.27273,-4.274 -3.27273,-15.8523 0,-14.6701 1.94475,-18.6527 9.10835,-18.6527 7.96293,0 9.55832,3.0969 9.55832,18.5543 0,13.2085 -0.12518,13.7951 -3.51314,16.46 -4.61356,3.629 -7.88262,3.4889 -11.8808,-0.5093 z m 106.12874,-7.9745 c -3.9664,-2.183 -5.18483,-5.0141 -5.30775,-12.3326 -0.13239,-7.8829 1.70307,-11.7363 6.5457,-13.7422 3.73157,-1.5457 4.59435,-1.4426 7.77884,0.9294 3.20185,2.385 3.62275,3.6516 3.96835,11.9421 0.3152,7.5614 -0.0542,9.6615 -2,11.3713 -3.63469,3.1939 -7.37681,3.818 -10.98514,1.832 z M 53.927473,451.09175 c -2.90523,-3.2103 -4.12147,-13.9451 -2.15605,-19.0299 1.72597,-4.4653 6.6991,-6.9687 11.46669,-5.7721 7.09902,1.7818 9.64515,18.5622 3.79699,25.0243 -2.96138,3.2723 -10.0539,3.152 -13.10763,-0.2223 z m 113.987777,-9.3469 c -4.01002,-4.01 -3.84562,-18.7977 0.25141,-22.6147 3.90069,-3.634 8.4916,-3.4301 12.47586,0.5541 4.39762,4.3976 4.67422,15.9193 0.50929,21.2142 -3.38102,4.2982 -9.39987,4.6831 -13.23656,0.8464 z M 54.396293,413.86265 c -2.7223,-2.2044 -3.14771,-3.7171 -3.14771,-11.1933 0,-10.2945 2.59446,-14.2578 9.33333,-14.2578 5.36043,0 8.29147,3.184 9.41838,10.2314 2.15581,13.4817 -6.87387,22.289 -15.604,15.2197 z m -0.46882,-133.4376 c -2.90523,-3.2102 -4.12147,-13.9451 -2.15605,-19.0299 1.72597,-4.4653 6.6991,-6.9687 11.46669,-5.7721 7.09902,1.7818 9.64515,18.5622 3.79699,25.0244 -2.96138,3.2723 -10.0539,3.1519 -13.10763,-0.2224 z m 113.527757,0.2148 c -1.58403,-1.7503 -2.20665,-4.9208 -2.20665,-11.2365 0,-21.0987 18.66667,-17.1593 18.66667,-0.9648 0,6.7157 -1.65905,11.7003 -4.53294,13.6192 -2.77963,1.8561 -9.70982,1.0322 -11.92708,-1.4179 z M 54.396293,243.19595 c -2.7223,-2.2044 -3.14771,-3.7171 -3.14771,-11.1933 0,-10.29446 2.59446,-14.25781 9.33333,-14.25781 5.36043,0 8.29147,3.18405 9.41838,10.23139 2.15581,13.48172 -6.87387,22.28902 -15.604,15.21972 z m 17.91719,-35.82496 c -15.86794,-0.36465 0,0 0,0 z M 167.91525,176.4115 c -2.11966,-2.11966 -2.66667,-4.44444 -2.66667,-11.33333 0,-6.88889 0.54701,-9.21368 2.66667,-11.33334 3.60364,-3.60364 8.76326,-3.35794 12.72727,0.60607 4.39762,4.39761 4.67422,15.91927 0.50929,21.21412 -3.38102,4.29827 -9.39987,4.68317 -13.23656,0.84648 z m 83.33331,-40 -15.02436,-14.66667 h -26.15447 -26.15448 v 6.51896 c 0,10.89599 -7.77465,16.52183 -14.98953,10.8466 -2.88941,-2.27281 -3.61464,-4.06496 -3.94229,-9.74203 l -0.40152,-6.95686 -54.52351,-0.66667 -54.523507,-0.66666 -2.67343,-3.58175 c -2.31563,-3.1024 -2.45656,-4.1053 -1.05303,-7.49371 0.89121,-2.15158 3.10806,-4.58979 4.92634,-5.41825 4.63069,-2.10989 183.449767,-2.13575 187.601447,-0.0271 4.18083,2.12342 30.07406,27.84186 32.33959,32.12129 2.67624,5.05523 2.39218,7.368 -1.36664,11.12682 -5.51554,5.51554 -7.89113,4.39058 -24.06061,-11.39394 z"
       id="path1"
       sodipodi:nodetypes="sssssssssssssssssssssssssssssssssssssscsssccsssssssssssssssssssssssssssssssssssssssssssssssssssssssssssssssssssccccssscccsssssssc" />
    <path
       style="fill:#89a257;stroke:#112318;stroke-width:10;stroke-linecap:square;stroke-dasharray:none;paint-order:markers stroke fill;fill-opacity:1"
       d="m 445.98425,19.799336 c 0,18.799369 0,37.598737 0,56.398107 5.365,1.694091 12.14977,1.131791 17.87987,3.269421 45.14536,11.171367 81.13594,52.491686 85.59791,98.865426 9.87043,2.05086 21.17637,0.26453 31.59034,0.86247 8.71107,-0.63203 18.5691,1.2475 26.58495,-0.90685 C 603.77133,135.70921 584.66713,93.905923 552.66583,64.922041 531.22708,44.621742 504.60218,30.24818 475.92934,23.275 466.3046,21.196531 455.61223,17.253613 446.1365,19.647088 Z"
       id="path2"
       transform="translate(33.909368,37.092201)" />
    <path
       style="fill:#eeffcc;fill-opacity:1;stroke:#112318;stroke-width:10;stroke-linecap:square;stroke-dasharray:none;paint-order:markers stroke fill"
       d="m 380.17007,57.936191 c -51.99256,4.735673 -99.67606,37.028684 -126.85965,81.098929 -17.6981,29.14841 -26.99603,63.52773 -24.44202,97.67699 1.52362,38.1043 17.36949,75.5066 42.56251,103.81027 13.29165,-12.96891 27.28186,-25.76697 39.03031,-40.27114 -2.45366,-6.70015 -8.58496,-12.35722 -11.51153,-19.14473 -19.51757,-36.29146 -17.5372,-82.97192 5.86609,-116.97556 13.17828,-20.83364 34.10177,-35.62365 57.19421,-43.69333 8.83852,-3.36855 17.88264,-5.72775 27.25474,-6.25543 2.11953,-7.2315 0.27944,-15.985252 0.89671,-23.794283 -0.27062,-10.948264 0.54428,-22.153361 -0.40281,-32.941569 -3.12225,-0.336578 -6.41831,0.411772 -9.58856,0.489853 z"
       id="path3"
       transform="translate(33.909368,37.092201)" />
    <path
       style="fill:#4d8061;fill-opacity:1;stroke:#112318;stroke-width:10;stroke-linecap:square;stroke-dasharray:none;paint-order:markers stroke fill"
       d="m 511.92622,238.71808 c -4.75705,38.98006 -29.32608,75.8595 -65.93318,91.58677 -25.63124,11.88402 -55.71048,13.35411 -82.50832,4.60447 -13.48023,-4.75613 -26.26038,-11.4581 -37.75508,-19.96453 -7.02974,4.312 -12.41117,12.11896 -18.8173,17.75321 -6.56899,7.28063 -15.03783,13.7612 -20.41434,21.54418 8.736,10.24733 21.66827,16.53326 33.12116,23.54287 19.61124,10.06986 41.11977,17.31346 63.15583,19.13556 24.55232,0.47649 49.72983,-2.1e-4 72.90321,-9.1477 37.62674,-12.87115 68.82326,-40.96765 89.87174,-74.24302 13.5944,-22.49777 21.15545,-48.42891 23.16678,-74.56082 -4.97301,-2.52381 -12.62283,-0.36386 -18.61439,-1.08293 -12.39678,0 -24.79355,0 -37.19033,0 l -0.79203,0.66842 z"
       id="path4"
       transform="translate(33.909368,37.092201)" />
    <path
       style="fill:#89a257;fill-opacity:1;stroke:#112318;stroke-width:10;stroke-linecap:square;stroke-dasharray:none;paint-order:markers stroke fill"
       d="m 56.519262,351.85174 c 0.68877,6.05891 -1.352562,13.24867 0.999947,18.61844 40.764364,0 81.528731,0 122.293091,0 2.34537,-5.37273 0.31278,-12.55886 0.99994,-18.61844 -6.06104,-2.35165 -13.93746,-0.32061 -20.6912,-0.99995 -34.20061,0 -68.401221,0 -102.601831,0 l -0.732833,0.73283 z"
       id="path5"
       transform="translate(33.909368,37.092201)" />
    <path
       style="fill:#bedc7f;fill-opacity:1;stroke:#112318;stroke-width:10;stroke-linecap:square;stroke-dasharray:none;paint-order:markers stroke fill"
       d="m 19.209505,313.5056 c 0.68877,6.05891 -1.352563,13.24867 0.999947,18.61844 31.436924,0 62.87385,0 94.310778,0 2.34537,-5.37273 0.31278,-12.55886 0.99994,-18.61844 -6.06105,-2.35165 -13.93747,-0.3206 -20.691204,-0.99995 -24.873172,0 -49.746343,0 -74.619514,0 l -0.732833,0.73283 z"
       id="path6"
       transform="translate(33.909368,37.092201)" />
    <path
       style="fill:#bedc7f;fill-opacity:1;stroke:#112318;stroke-width:10;stroke-linecap:square;stroke-dasharray:none;paint-order:markers stroke fill"
       d="m 133.21154,455.48995 c 1.18183,5.4199 -2.47199,14.5641 2.03633,17.58206 40.07344,0 80.14688,0 120.22033,0 1.88208,-5.17708 1.27772,-12.95079 0.26711,-18.31489 -40.28678,-0.62296 -81.05292,-0.0886 -121.52382,-0.26712 l -0.73284,0.73284 z"
       id="path7"
       transform="translate(33.909368,37.092201)" />
    <path
       style="fill:#89a257;fill-opacity:1;stroke:#112318;stroke-width:10;stroke-linecap:square;stroke-dasharray:none;paint-order:markers stroke fill"
       d="m 133.21154,494.87247 c 1.24325,5.02731 -2.54591,13.93035 2.03633,16.54568 59.07378,0 118.14756,0 177.22135,0 1.81809,-4.82237 1.33088,-12.27635 0.26711,-17.27851 -59.28698,-0.62329 -119.05345,-0.089 -178.52484,-0.26712 l -0.73284,0.73284 z"
       id="path8"
       transform="translate(33.909368,37.092201)" />
    <path
       style="fill:#4d8061;fill-opacity:1;stroke:#112318;stroke-width:10;stroke-linecap:square;stroke-dasharray:none;paint-order:markers stroke fill"
       d="m 236.84975,532.18223 c 1.24325,5.02731 -2.54591,13.93035 2.03633,16.54568 59.41925,0 118.83849,0 178.25773,0 1.8181,-4.82237 1.33088,-12.27635 0.26712,-17.27851 -59.63255,-0.62305 -119.74448,-0.0888 -179.56123,-0.26712 l -0.73283,0.73283 z"
       id="path9"
       transform="translate(33.909368,37.092201)" />
    <path
       style="fill:#89a257;fill-opacity:1;stroke:#112318;stroke-width:10;stroke-linecap:square;stroke-dasharray:none;paint-order:markers stroke fill"
       d="m 56.519262,190.17612 c 1.181835,5.4199 -2.471994,14.5641 2.036329,17.58206 17.963957,0 35.927914,0 53.891869,0 1.88208,-5.17708 1.27773,-12.95078 0.26712,-18.31489 -18.177395,-0.62274 -36.834192,-0.0881 -55.195371,-0.26711 l -0.732833,0.73283 z"
       id="path10"
       transform="translate(33.909368,37.092201)" />
    <path
       style="fill:#bedc7f;fill-opacity:1;stroke:#112318;stroke-width:10;stroke-linecap:square;stroke-dasharray:none;paint-order:markers stroke fill"
       d="m 19.209505,152.86637 c 1.181835,5.4199 -2.471994,14.5641 2.036329,17.58206 17.963957,0 35.927914,0 53.891871,0 1.882077,-5.17709 1.277728,-12.95079 0.267114,-18.3149 -18.177391,-0.62273 -36.834188,-0.0881 -55.195367,-0.26711 l -0.732833,0.73283 z"
       id="path11"
       transform="translate(33.909368,37.092201)" />
  </g>
</svg>
