<?xml version="1.0" encoding="UTF-8" standalone="no"?>
<!-- Created with Inkscape (http://www.inkscape.org/) -->

<svg
   width="134.02698mm"
   height="149.19328mm"
   viewBox="0 0 134.02698 149.19328"
   version="1.1"
   id="svg1"
   sodipodi:docname="hexley.svg"
   inkscape:version="1.4.3 (0d15f75, 2025-12-25)"
   xmlns:inkscape="http://www.inkscape.org/namespaces/inkscape"
   xmlns:sodipodi="http://sodipodi.sourceforge.net/DTD/sodipodi-0.dtd"
   xmlns="http://www.w3.org/2000/svg"
   xmlns:svg="http://www.w3.org/2000/svg">
  <sodipodi:namedview
     id="namedview1"
     pagecolor="#505050"
     bordercolor="#eeeeee"
     borderopacity="1"
     inkscape:showpageshadow="0"
     inkscape:pageopacity="0"
     inkscape:pagecheckerboard="0"
     inkscape:deskcolor="#d1d1d1"
     inkscape:document-units="mm"
     inkscape:zoom="0.96043081"
     inkscape:cx="179.0863"
     inkscape:cy="223.33727"
     inkscape:window-width="1920"
     inkscape:window-height="994"
     inkscape:window-x="1440"
     inkscape:window-y="30"
     inkscape:window-maximized="0"
     inkscape:current-layer="layer1" />
  <defs
     id="defs1">
    <inkscape:path-effect
       effect="simplify"
       id="path-effect7"
       is_visible="true"
       lpeversion="1.3"
       threshold="4.081633"
       steps="1"
       smooth_angles="360"
       helper_size="0"
       simplify_individual_paths="false"
       simplify_just_coalesce="false" />
  </defs>
  <g
     inkscape:label="Layer 1"
     inkscape:groupmode="layer"
     id="layer1"
     transform="translate(-34.655818,-65.962046)">
    <path
       style="fill:#000000;stroke-width:0.264583"
       d="m 115.51417,214.82789 c -0.78506,-0.45847 -1.06145,-1.75762 -0.66674,-3.13391 0.17983,-0.62703 0.21596,-1.08172 0.0803,-1.01042 -3.4766,1.82697 -6.37978,2.42852 -8.16055,1.6909 -0.58217,-0.24114 -1.15385,-0.73887 -1.27039,-1.10606 -0.16778,-0.52861 -0.55585,-0.66874 -1.86382,-0.67302 -2.04339,-0.007 -2.62206,-0.35203 -2.62206,-1.56484 0,-1.20336 1.49726,-2.78264 3.59464,-3.79158 0.88486,-0.42566 2.28866,-1.20256 3.11957,-1.72645 l 1.51074,-0.95251 -1.67463,-0.93597 -1.67463,-0.93597 -3.1875,0.89339 c -1.75312,0.49137 -5.330623,1.3594 -7.949996,1.92896 -6.67469,1.45136 -7.44941,1.63813 -11.81806,2.84916 -2.94599,0.81665 -4.07171,0.99144 -4.67431,0.72575 -0.91188,-0.40205 -1.05009,-1.60607 -0.30626,-2.66785 0.46601,-0.66519 0.419,-0.69037 -1.06677,-0.57146 -1.41223,0.11302 -2.6449,-0.35109 -2.52843,-0.95198 0.0246,-0.12691 -0.0877,-0.53677 -0.24947,-0.9108 -0.3882,-0.89737 0.78152,-2.94775 2.26197,-3.96495 0.61192,-0.42044 2.33899,-1.27208 3.83793,-1.89252 1.49894,-0.62045 2.79514,-1.19291 2.88044,-1.27215 0.0853,-0.0792 -0.19341,-0.38817 -0.61937,-0.68652 -1.30069,-0.91104 -1.93566,-2.53622 -1.69031,-4.32627 0.25221,-1.8401 1.48523,-4.14759 4.43149,-8.29318 l 2.09312,-2.94515 -0.58768,-2.08072 c -0.41311,-1.46263 -0.58172,-3.39063 -0.56762,-6.49043 0.022,-4.82549 0.72462,-7.90481 2.91811,-12.78819 0.58828,-1.30969 0.98417,-2.38125 0.87976,-2.38125 -0.10441,0 -2.12183,0.25472 -4.48316,0.56605 -6.65839,0.87786 -10.34089,0.33389 -17.52682,-2.58904 -2.98356,-1.2136 -3.4876,-1.32134 -4.64111,-0.99215 -0.71172,0.20312 -1.36937,0.44868 -1.46144,0.54569 -0.0921,0.097 -0.0156,1.84327 0.17,3.88056 0.30775,3.37869 0.4191,3.76972 1.26721,4.45025 0.92243,0.74015 0.93325,0.80468 1.36081,8.11389 0.23704,4.05229 0.44353,7.3678 0.45886,7.3678 0.0153,0 1.35451,0.0173 2.97595,0.0385 10.61424,0.13862 15.50337,7.36315 10.40499,15.37516 -1.39957,2.1994 -5.38767,5.92272 -7.94346,7.41607 -5.6125,3.2794 -10.83391,4.64889 -16.9701,4.45099 -3.62016,-0.11675 -4.4032,-0.25637 -6.25489,-1.11523 -3.883342,-1.8012 -5.622011,-4.23475 -5.604881,-7.84495 0.02482,-5.22993 4.995721,-11.2241 12.374601,-14.9219 2.09632,-1.05054 2.17722,-1.14033 2.02406,-2.24646 -0.0877,-0.6337 -0.47537,-4.15479 -0.86138,-7.82465 -0.69907,-6.64608 -0.69908,-6.67713 -0.005,-7.85376 0.67086,-1.13703 0.6775,-1.32907 0.17708,-5.12316 -0.28596,-2.16802 -0.51991,-3.99164 -0.51991,-4.05248 0,-0.0608 -0.21046,-0.11063 -0.46768,-0.11063 -1.00871,0 -2.16226,-1.75512 -2.1578,-3.28308 0.003,-1.12139 -0.19076,-1.63502 -0.80177,-2.12238 -0.93087,-0.7425 -1.0819,-2.39313 -0.27986,-3.05877 0.45851,-0.38052 0.4131,-0.57118 -0.35277,-1.48137 -0.48346,-0.57455 -0.87901,-1.27569 -0.87901,-1.55807 0,-1.04955 1.00272,-2.86086 1.97636,-3.57011 l 1.00514,-0.73219 -2.05167,-16.87965 c -1.12842,-9.28381 -2.12897,-17.21692 -2.22344,-17.62914 -0.0945,-0.41222 -0.55644,-0.92475 -1.02658,-1.13897 -0.68281,-0.31111 -0.8559,-0.65718 -0.86021,-1.719952 -0.009,-2.143638 -0.28922,-2.338628 -2.953844,-2.053272 l -2.332424,0.249782 v 1.898039 c 0,1.897113 -6.62e-4,1.898233 -1.361147,2.305843 -1.163597,0.34863 -1.501068,0.31613 -2.325227,-0.22388 -0.530245,-0.34743 -1.090386,-0.9639 -1.244759,-1.36993 -0.21417,-0.563308 -0.791504,-6.837192 -0.878383,-9.545396 -0.0062,-0.194027 0.941182,-0.459306 2.105349,-0.589508 1.904296,-0.212976 2.177821,-0.159885 2.726184,0.529167 0.335234,0.421243 0.613046,1.065631 0.617361,1.431975 0.0072,0.610458 0.205703,0.645806 2.377354,0.423315 1.30323,-0.133522 2.415376,-0.288631 2.471436,-0.344694 0.12068,-0.120681 -0.60393,-7.385001 -0.751361,-7.532428 -0.05564,-0.05564 -0.958867,0.02154 -2.007177,0.171512 l -1.906019,0.272671 -0.105017,1.611091 -0.105017,1.611092 -2.233356,0.44392 c -3.797684,0.754859 -4.006432,0.39088 -4.129529,-7.200334 l -0.07437,-4.586111 2.169235,-0.104824 c 2.570991,-0.124238 3.509309,0.286884 3.660855,1.603994 0.103523,0.899722 0.214247,0.9624 1.522751,0.861983 2.789627,-0.214079 2.768986,-0.188747 2.523186,-3.096563 l -0.219559,-2.597383 1.317638,-1.381384 c 2.6127,-2.739116 7.76991,-2.93209 9.10988,-0.340876 0.73432,1.420007 2.88239,27.652334 2.336,28.527251 -0.2482,0.39742 -0.26679,1.45598 -0.0562,3.20107 0.33599,2.78435 3.15093,31.93712 3.16621,32.79069 0.005,0.27955 0.8051,1.04829 1.77799,1.70832 0.97289,0.66004 2.08689,1.64665 2.47555,2.19248 0.98171,1.37869 2.56368,1.71849 8.01131,1.72077 l 4.68923,0.002 6.77605,-2.2603 c 3.72683,-1.24316 7.92699,-2.53463 9.33369,-2.86992 2.363413,-0.56332 2.558233,-0.67967 2.565393,-1.53206 0.004,-0.50734 0.32176,-1.61446 0.70555,-2.46027 0.45701,-1.00714 0.69519,-2.28541 0.69021,-3.70417 l -0.008,-2.16634 -2.26968,-1.84217 c -1.248333,-1.0132 -3.030853,-2.8547 -3.961153,-4.09223 -1.24807,-1.66022 -2.45519,-2.73351 -4.6049,-4.09433 -4.16304,-2.63533 -5.7477,-5.06425 -4.64915,-7.12608 1.19124,-2.23578 3.20791,-2.33294 5.45379,-0.26275 0.98111,0.90435 1.57962,1.25717 1.57962,0.93117 0,-0.28868 0.39688,-1.1097 0.88195,-1.82449 1.09409,-1.61224 1.09338,-1.68398 -0.0126,-1.2635 -0.68485,0.26038 -0.94025,0.22095 -1.08959,-0.16822 -0.10729,-0.27958 -0.0825,-0.69047 0.0551,-0.91308 0.3956,-0.64008 4.20458,-2.32237 6.795333,-3.00124 1.30111,-0.34094 2.50447,-0.74154 2.67413,-0.89024 0.16966,-0.14868 0.67624,-1.82988 1.12573,-3.735991 0.79772,-3.382827 0.80156,-3.48253 0.16074,-4.171804 -1.25835,-1.353484 -3.51092,-6.025428 -4.08491,-8.472302 -1.022473,-4.358694 0.0127,-8.712699 2.52749,-10.630825 0.64758,-0.493936 2.412183,-1.31007 3.921343,-1.813632 2.39859,-0.800341 3.34924,-0.918113 7.55381,-0.935811 l 4.80989,-0.02013 0.81656,-1.539238 c 1.25267,-2.361299 3.76379,-4.987151 4.76924,-4.987151 1.18432,0 1.79671,0.840095 3.64764,5.003976 l 1.60834,3.618135 5.87622,-0.109497 c 3.65602,-0.06813 6.65495,0.0515 7.93728,0.316616 4.77992,0.988225 10.96907,5.212608 14.97446,10.220769 1.96087,2.451782 4.7388,7.767867 5.11948,9.797071 l 0.23142,1.233598 2.54864,-0.192751 c 1.43441,-0.108485 3.33179,-0.529659 4.34,-0.963383 0.98526,-0.423846 1.94603,-0.67505 2.13504,-0.558234 0.58956,0.364366 0.79772,2.76904 0.41506,4.794811 -0.79513,4.209433 -4.22546,9.187283 -7.54446,10.948013 -1.46402,0.77666 -1.60086,0.97265 -1.96254,2.81104 -0.51128,2.59879 -2.4652,6.62663 -4.08363,8.41804 -1.65877,1.83606 -4.4607,3.59451 -10.73916,6.73973 l -5.03672,2.52316 0.238,2.00709 c 0.46161,3.8928 1.94027,8.11533 3.94811,11.27436 0.64983,1.02241 1.18151,2.0867 1.18151,2.36509 0,0.76491 -2.99028,2.88986 -5.01132,3.56114 -2.19376,0.72865 -5.61834,0.53714 -7.54718,-0.42207 -0.98729,-0.49097 -1.4482,-1.01637 -1.79719,-2.04868 -0.51893,-1.535 -1.15882,-7.88618 -1.16351,-11.54843 l -0.003,-2.35346 -3.88047,1.01809 c -3.99456,1.04801 -5.02075,1.44897 -6.0855,2.37773 -1.21407,1.059 -0.75293,1.91352 2.21234,4.09958 3.71974,2.74227 9.97465,9.23434 12.28447,12.75024 1.81674,2.76537 3.23027,6.37463 3.23027,8.2481 0,3.4473 -3.18239,7.49056 -6.96736,8.85209 -1.21267,0.43622 -2.20486,0.84885 -2.20486,0.91695 0,0.0681 0.47098,0.88926 1.04662,1.8248 3.56966,5.80142 4.0648,10.39791 1.71376,15.90898 -0.67743,1.58797 -0.63689,2.20581 0.21851,3.33029 0.46773,0.61487 0.68967,0.57006 4.76176,-0.96146 7.60716,-2.86105 10.57683,-3.5517 15.1899,-3.53268 5.99195,0.0247 9.84064,1.19021 10.60967,3.21292 1.18375,3.11348 -4.56441,7.80039 -11.81381,9.63269 -5.85424,1.47967 -14.30427,1.54943 -19.66066,0.16231 -1.09517,-0.28361 -2.08432,-0.51565 -2.19812,-0.51565 -0.1138,0 -0.11421,0.67632 -7.9e-4,1.50295 0.27865,2.03298 -0.2989,3.96192 -1.95211,6.51975 -1.96502,3.04027 -3.86572,5.03902 -5.49934,5.78302 -1.53492,0.69906 -3.54307,0.8338 -4.45854,0.29916 z m 4.95387,-1.55992 c 2.69837,-1.7034 4.18048,-5.3118 2.64665,-6.44361 -0.86631,-0.63926 -2.62914,-0.32537 -4.38002,0.7799 -2.4605,1.55325 -4.01638,5.38202 -2.60907,6.42049 0.85981,0.63446 2.62624,0.32661 4.34244,-0.75678 z m -7.90367,-2.44424 c 2.24666,-1.05525 3.08434,-1.99039 2.93686,-3.27855 -0.10353,-0.90438 -0.25988,-1.01185 -1.61463,-1.10985 -2.5649,-0.18555 -7.93526,3.21704 -7.37635,4.67356 0.34232,0.89207 3.90505,0.72426 6.05412,-0.28516 z m -7.58472,-1.29263 c 1.52124,-0.44377 4.78999,-3.25392 4.44128,-3.81815 -0.73793,-1.19399 -5.96024,0.47267 -7.14452,2.28011 -1.09324,1.66848 0.042,2.31438 2.70324,1.53804 z m 21.45603,-5.70061 c 0.15831,-2.1887 -0.4355,-4.30731 -1.64769,-5.87862 l -0.64097,-0.83086 -1.4698,0.74983 c -0.80838,0.41241 -1.46979,0.60712 -1.46979,0.43269 0,-0.17443 0.50792,-0.52754 1.12871,-0.78468 2.09307,-0.86697 5.44533,-4.56557 6.88609,-7.59752 1.20201,-2.52951 1.33264,-3.09845 1.44836,-6.30805 0.16246,-4.50588 -0.3079,-5.80727 -4.39891,-12.17083 -3.91111,-6.08372 -4.95323,-7.98558 -5.24448,-9.57113 -0.17847,-0.97154 -0.61933,-1.56789 -1.82558,-2.46945 -1.67506,-1.25194 -4.30328,-4.50194 -5.43571,-6.72168 -0.7947,-1.55776 -0.81326,-1.69885 -0.22343,-1.69885 0.24692,0 0.76286,0.5909 1.14653,1.31311 1.6528,3.11118 6.83792,7.63629 12.07431,10.53738 1.01845,0.56424 1.85189,1.14496 1.85208,1.29048 8e-4,0.59471 -1.37802,0.17635 -3.83784,-1.16444 -1.43191,-0.78051 -2.67153,-1.35106 -2.75469,-1.26789 -0.28745,0.28745 0.95327,2.78855 2.93064,5.90773 1.83182,2.88958 2.05627,3.11403 2.91173,2.91176 1.8519,-0.43787 4.61958,-1.95011 5.5136,-3.0126 3.52491,-4.18911 3.00794,-8.57103 -1.782,-15.10442 -3.91008,-5.33328 -12.51635,-12.83717 -14.65336,-12.77641 -0.67062,0.0191 -1.02772,-0.14645 -1.02772,-0.47635 0,-0.30409 0.35148,-0.50557 0.88195,-0.50557 0.73989,0 0.88194,-0.16634 0.88194,-1.03273 0,-0.6953 0.30349,-1.27145 0.92884,-1.76336 0.9649,-0.75898 4.84245,-2.09385 8.30539,-2.85918 l 2.00228,-0.44251 0.18766,-1.62541 c 0.10322,-0.89398 0.28559,-2.73667 0.40527,-4.09487 0.23358,-2.65062 1.47631,-9.17351 3.52857,-18.52083 1.37676,-6.27065 1.67854,-10.423704 0.93967,-12.93134 -1.06648,-3.619524 -5.2979,-8.094455 -10.43103,-11.031333 l -1.9621,-1.122597 -3.57109,0.392954 c -3.68845,0.405867 -7.43075,1.374976 -8.59388,2.225472 -0.58006,0.424152 -0.61343,0.636531 -0.25956,1.651657 0.49977,1.433649 0.52902,3.176301 0.0533,3.176301 -0.19402,0 -0.35277,-0.562843 -0.35277,-1.25076 0,-0.848384 -0.27122,-1.52197 -0.84306,-2.093808 -1.91772,-1.917725 -4.65221,0.441567 -6.39339,5.516162 l -0.52586,1.532572 0.67856,-0.872082 c 0.37321,-0.479645 0.60895,-0.984721 0.52386,-1.122389 -0.19086,-0.308824 1.25808,-1.356918 1.87588,-1.356918 0.24787,0 0.76817,0.3175 1.15623,0.705556 0.57591,0.575905 0.70547,1.175536 0.7051,3.263194 -5.3e-4,2.782588 -1.28557,8.724339 -2.49485,11.535389 -0.8819,2.05004 -2.37398,3.51737 -2.83572,2.7887 -0.16644,-0.26266 -0.30505,-0.66384 -0.30802,-0.89151 -0.003,-0.22768 -0.561023,-1.14186 -1.240123,-2.03153 -1.37797,-1.80523 -1.47015,-2.03244 -0.70556,-1.73904 0.36117,0.13859 0.52917,-0.0199 0.52917,-0.49925 0,-0.6811 -0.0768,-0.68768 -2.54314,-0.21775 -3.761803,0.71678 -6.088403,1.45885 -7.028073,2.2416 -0.97203,0.8097 -0.52818,0.92215 0.75176,0.19047 0.48508,-0.27729 1.25263,-0.50979 1.70568,-0.51666 0.77383,-0.0118 0.73781,0.0851 -0.59455,1.59875 -1.52746,1.73529 -2.15142,3.48863 -1.47908,4.15625 0.70739,0.70244 5.268603,0.34174 8.470953,-0.66988 4.788833,-1.51279 5.738263,-1.12659 10.928013,4.44527 2.02684,2.17607 4.19515,4.16957 4.81845,4.43001 0.62331,0.26043 3.00387,0.80841 5.29015,1.21774 2.28628,0.40933 4.76438,0.98731 5.5069,1.28441 2.68166,1.07298 3.49025,3.4728 1.94953,5.78597 -0.91705,1.37681 -4.11793,3.58746 -9.43215,6.51419 -3.67747,2.02532 -5.55359,3.24308 -9.0549,5.87737 -1.00263,0.75434 -2.40628,1.5326 -3.11923,1.72946 -1.13101,0.31228 -1.55019,0.23098 -3.28795,-0.63776 -1.09542,-0.54762 -2.100803,-1.04462 -2.234163,-1.10444 -0.4178,-0.18742 -5.135443,7.25665 -7.343133,11.58689 -2.54305,4.98803 -3.96941,8.61047 -4.98442,12.65864 -1.40171,5.59045 -0.44311,12.28501 2.60419,18.18691 2.14501,4.15438 6.702413,8.63053 11.071486,10.87409 1.77706,0.91255 3.44394,1.65508 3.70416,1.65008 0.26022,-0.005 0.77206,-0.65683 1.13741,-1.44851 0.36536,-0.79167 1.58386,-2.57352 2.70779,-3.95965 2.6092,-3.2179 9.05371,-9.61483 9.36886,-9.29968 0.13208,0.13208 -1.45336,1.99304 -3.5232,4.13545 -5.82841,6.03278 -8.67716,10.29113 -8.68512,12.98263 -0.004,1.49292 1.54156,2.96384 4.22786,4.02264 1.59225,0.62759 2.68938,0.76819 6.08745,0.78014 2.27982,0.008 4.14514,0.12404 4.14514,0.25781 0,0.42495 -4.53043,0.74738 -7.34307,0.5226 -2.04801,-0.16368 -2.92681,-0.0911 -3.59305,0.29672 -0.48506,0.28236 -0.6835,0.51902 -0.44097,0.52589 0.24254,0.007 0.75348,0.32501 1.13544,0.70697 0.69077,0.69077 0.7043,0.68991 2.54276,-0.16187 1.89773,-0.87922 2.76319,-0.86499 1.54549,0.0254 -0.6586,0.48158 -0.65161,0.50033 0.18664,0.50033 1.15772,0 2.43898,0.93304 2.43898,1.77612 0,0.61915 0.13821,0.59013 1.59767,-0.33543 2.91232,-1.84694 5.50209,-1.715 6.27001,0.31945 l 0.39549,1.04777 0.7006,-1.10653 c 0.418,-0.66019 0.7611,-1.9429 0.85059,-3.18001 z m -12.15006,-84.75316 c -2.32163,-1.01044 -4.0143,-4.50795 -4.0143,-8.2946 0,-5.16481 2.79712,-10.558 6.51393,-12.559623 0.69821,-0.376018 1.24718,-0.943946 1.24718,-1.290267 0,-1.37532 5.07787,-1.334733 7.03126,0.0562 1.48216,1.055393 2.73878,3.75783 3.0284,6.5128 0.40839,3.88463 -1.20442,9.22913 -3.74984,12.4261 l -1.08531,1.36312 2.12699,0.20877 c 1.16984,0.11483 2.5481,0.4847 3.06279,0.82194 1.12735,0.73866 0.92491,1.15969 -0.24171,0.50274 -1.14868,-0.64684 -6.63213,-0.54252 -9.40732,0.17898 -2.66098,0.6918 -3.07658,0.6986 -4.51207,0.0738 z m 4.54589,-0.76852 c 1.20974,-0.31336 2.42175,-0.63501 2.69335,-0.71476 0.37969,-0.1115 0.31659,-0.33366 -0.27301,-0.96126 -2.09981,-2.23514 -1.51956,-6.49828 1.06648,-7.83558 1.05786,-0.54704 2.63297,-0.54746 3.88431,-0.001 0.80598,0.35194 1.11433,-0.75994 1.09678,-3.95476 -0.0411,-7.480441 -6.18916,-9.772036 -12.03876,-4.48727 -1.63666,1.47862 -3.02921,3.97825 -3.74301,6.71872 -1.1069,4.24968 -0.3914,8.07455 1.94811,10.41405 1.57824,1.57824 2.12351,1.66177 5.36575,0.82192 z m 4.62236,-6.87908 c 0.63217,-0.90255 0.38823,-1.72339 -0.51216,-1.72339 -0.75463,0 -1.90939,1.54792 -1.56748,2.10115 0.38246,0.61884 1.52725,0.41089 2.07964,-0.37776 z m 7.65314,-5.72299 c -0.17244,-0.45354 -0.49409,-2.39822 -0.7148,-4.32153 -0.81959,-7.142222 -1.93474,-8.964979 -5.48471,-8.964979 -1.03964,0 -2.29184,0.152686 -2.78267,0.339299 -0.57191,0.217442 -0.96788,0.217204 -1.10253,-5.29e-4 -0.4607,-0.745432 3.89413,-1.759575 5.82957,-1.35758 1.56966,0.326022 3.32833,2.307542 3.81348,4.296712 0.19917,0.816602 0.47492,3.23098 0.61278,5.365287 0.13786,2.13431 0.38504,4.23774 0.5493,4.67431 0.18552,0.49308 0.16502,0.79375 -0.0541,0.79375 -0.19403,0 -0.49386,-0.37108 -0.66629,-0.82461 z m -48.612436,99.93148 c 4.35138,-1.111 5.55174,-1.93721 5.55174,-3.82128 0,-1.85937 -3.24588,-1.66241 -6.45996,0.39199 -1.50237,0.96031 -3.41782,3.13905 -3.41782,3.88763 0,0.44935 1.31782,0.30973 4.32604,-0.45834 z m 12.10239,-2.98538 c 7.803226,-1.67815 10.500256,-2.52572 10.235176,-3.2165 -0.11289,-0.29421 -0.20586,-1.11726 -0.20659,-1.82899 -0.001,-1.21473 -0.10397,-1.33481 -1.67569,-1.95861 -5.860753,-2.3261 -10.923546,-7.00714 -14.028896,-12.97104 l -1.47588,-2.83445 -2.15801,3.49174 c -2.56124,4.14417 -3.23798,5.66464 -3.23798,7.27494 0,1.65654 0.97371,2.74028 3.79331,4.22194 3.61387,1.89903 7.36586,2.82944 11.464323,2.84289 3.647403,0.012 4.504023,0.37595 1.82891,0.77711 -3.46687,0.51989 -10.320723,-0.66305 -13.633393,-2.35304 -1.20314,-0.6138 -1.56539,-0.65827 -2.43336,-0.29875 -1.31007,0.54265 -1.29623,1.23408 0.0385,1.92431 0.58208,0.30101 1.05833,0.72181 1.05833,0.93511 0,0.38178 1.25027,0.26319 2.55764,-0.24259 0.90826,-0.35138 0.75275,0.36909 -0.17639,0.8172 -0.77947,0.37592 -0.7763,0.38324 0.17639,0.40669 1.84092,0.0453 2.89999,1.92322 2.01606,3.57484 -0.20085,0.3753 -0.26781,0.68237 -0.14878,0.68237 0.11902,0 2.82185,-0.56033 6.00629,-1.24517 z m -16.39288,0.12885 c 1.75823,-0.60227 5.07973,-2.87741 5.07973,-3.47949 0,-0.92139 -2.19006,-0.82905 -4.25092,0.17924 -1.75708,0.85966 -3.68658,2.63147 -3.68658,3.3853 0,0.45002 1.41899,0.40779 2.85777,-0.0851 z m -17.70014,-1.17133 c 5.9089,-1.24298 11.56162,-4.28339 15.2913,-8.22469 2.60376,-2.75149 3.77636,-5.21221 3.78096,-7.93436 0.009,-5.27108 -4.41683,-8.36442 -11.96722,-8.36442 -2.07113,0 -2.43562,0.0944 -2.58605,0.66963 -0.41563,1.58939 -3.59967,2.65658 -6.36268,2.13259 -1.64334,-0.31165 -1.88211,-0.2521 -4.54663,1.13414 -1.80475,0.93894 -3.80911,2.40089 -5.59496,4.08089 -6.472341,6.08871 -7.011908,12.44456 -1.31338,15.471 2.88794,1.53377 8.75682,1.99062 13.29866,1.03522 z m -4.91547,-2.25268 c -2.69995,-0.89036 -4.68525,-2.68441 -5.10985,-4.61757 -0.13721,-0.62471 7.9e-4,-1.86521 0.33566,-3.01708 1.58504,-5.45235 10.82693,-10.6279 17.6377,-9.87729 11.02254,1.21478 8.72202,12.42558 -3.41957,16.66415 -2.71612,0.94818 -7.76508,1.40143 -9.44394,0.84779 z m 8.64534,-2.22484 c 5.53698,-1.82124 9.70139,-5.85204 9.70139,-9.39014 0,-2.75883 -2.46801,-4.29975 -6.89324,-4.30384 -7.15856,-0.007 -14.97899,5.37886 -14.97899,10.31515 0,3.87269 5.78595,5.47896 12.17084,3.37883 z m 80.266206,3.92521 c 5.77552,-0.71584 9.82055,-2.18787 13.15741,-4.78811 2.51705,-1.9614 3.36685,-4.01024 2.16276,-5.21433 -0.7494,-0.7494 -3.58411,-1.54493 -7.0316,-1.97333 -2.27728,-0.28299 -3.53576,-0.24525 -5.9685,0.17899 -3.01398,0.52559 -9.98876,2.68265 -13.3793,4.13776 l -1.70135,0.73016 0.9958,0.82163 c 1.24111,1.02402 3.99244,1.89163 5.99872,1.89163 0.83791,0 1.52347,0.14902 1.52347,0.33116 0,0.56349 -2.90755,0.79589 -4.75114,0.37977 -2.19658,-0.49581 -3.59477,-1.35302 -5.39834,-3.30967 l -1.41559,-1.53573 -1.83935,1.90553 -1.83934,1.90554 0.90111,1.36167 c 0.73328,1.10807 1.31714,1.50012 3.13482,2.10501 4.1424,1.3785 9.80773,1.7717 15.45042,1.07232 z m 7.39908,-4.32112 c 0,-0.25206 0.58015,-0.66808 1.28923,-0.92449 0.70907,-0.2564 1.97907,-1.17599 2.82222,-2.04352 0.84314,-0.86754 1.53299,-1.46244 1.53299,-1.32201 0,0.7789 -1.73475,2.85244 -3.12289,3.73277 -1.73743,1.10184 -2.52155,1.27513 -2.52155,0.55725 z m -72.564326,1.49514 c 2.19782,-1.04176 2.21048,-1.77817 0.0148,-0.86076 -1.68791,0.70526 -3.52566,2.10651 -4.05164,3.08931 -0.3496,0.65323 -0.23233,0.61679 0.78901,-0.24522 0.65981,-0.55688 2.12133,-1.44937 3.24783,-1.98333 z m -16.33568,-19.64642 c 1.42911,-0.71392 1.3495,0.04 0.93001,-8.8072 l -0.30471,-6.42651 -1.0579,0.54707 c -1.41318,0.73077 -4.53258,1.0235 -5.88455,0.5522 -1.32649,-0.46242 -1.30372,-0.70904 -0.56915,6.16384 0.8369,7.83042 0.84881,7.88784 1.70752,8.23387 1.2896,0.51969 3.87452,0.38828 5.17878,-0.26327 z m -1.70677,-15.214 c 0.12843,-0.12071 -0.14619,-4.34697 -0.61028,-9.3917 -0.46408,-5.04472 -0.84698,-9.37066 -0.85087,-9.61319 -0.004,-0.26737 -0.28484,-0.16321 -0.71264,0.26458 -0.38806,0.38806 -0.94368,0.70556 -1.23472,0.70556 -0.29104,0 -0.52917,0.1598 -0.52917,0.35511 0,0.19531 -0.39955,0.70251 -0.88788,1.12712 l -0.88789,0.77201 1.46247,1.49014 c 1.20938,1.23228 1.42245,1.64956 1.23125,2.41136 -0.1643,0.65463 -0.52984,0.98094 -1.26317,1.12761 -0.88643,0.17728 -1.00874,0.33747 -0.86729,1.13583 0.0906,0.51118 0.39981,2.90405 0.68721,5.31748 0.3119,2.61918 0.70086,4.49893 0.9649,4.66312 0.46347,0.28821 3.09526,0.0136 3.49808,-0.36503 z m 27.18962,-9.23391 2.02313,-0.42944 1.96918,-3.72055 c 1.08305,-2.0463 2.998973,-5.22871 4.257603,-7.072 l 2.28843,-3.35145 -1.38001,-1.38001 -1.38002,-1.38002 -4.018783,1.07662 c -2.21032,0.59214 -6.40002,1.8976 -9.31044,2.90102 l -5.29167,1.8244 -4.93889,0.0424 c -6.42143,0.0551 -7.0756,-0.10425 -9.33961,-2.27496 -2.76343,-2.64955 -3.32328,-2.96104 -4.03781,-2.24651 -1.03966,1.03967 -1.96841,3.2696 -1.96841,4.72618 0,2.11489 1.10306,1.9676 2.53675,-0.33872 1.16894,-1.88044 1.53213,-2.20743 1.1642,-1.04819 -0.12494,0.39363 -0.11714,1.74301 0.0173,2.99861 0.22711,2.12076 0.30585,2.28291 1.10852,2.28291 0.47522,0 1.18947,-0.17417 1.58722,-0.38703 0.57091,-0.30555 0.68988,-0.28698 0.56503,0.0882 -0.087,0.26137 -0.78004,0.71335 -1.54013,1.00439 -1.36601,0.52306 -1.38073,0.54852 -1.27445,2.20486 0.0591,0.92164 0.19948,1.6757 0.31186,1.6757 0.11237,0 0.79933,-0.17827 1.52657,-0.39616 1.21075,-0.36275 1.62689,-0.27123 4.93497,1.08528 6.09865,2.50081 7.9339,2.8699 13.4038,2.69565 2.61938,-0.0834 5.67291,-0.34497 6.78563,-0.58115 z m -31.45122,-2.45084 c 0.79638,0 0.20517,-1.45763 -0.99118,-2.44376 -1.6391,-1.35109 -2.91823,-1.45231 -2.91823,-0.23093 0,0.4692 0.10313,1.12185 0.22918,1.45034 0.2671,0.69604 2.20168,1.62622 2.88648,1.38787 0.2584,-0.0899 0.61559,-0.16352 0.79375,-0.16352 z m 83.488376,-3.53795 c 3.14407,-1.5711 3.18696,-1.67756 1.72968,-4.29269 -0.68148,-1.22294 -1.68015,-3.49353 -2.21926,-5.04575 -0.89324,-2.57179 -0.9814,-3.27613 -0.99352,-7.9375 -0.009,-3.53415 0.12447,-5.33337 0.4324,-5.82083 0.37512,-0.59385 0.40955,-0.35425 0.21744,1.51322 l -0.22825,2.21877 1.01728,-0.45488 c 2.42874,-1.08604 8.95323,-4.71571 10.89506,-6.06108 2.48934,-1.72471 4.4009,-4.37256 5.44492,-7.54219 1.07638,-3.26783 1.01319,-3.60857 -0.66919,-3.60857 -2.96742,0 -6.47987,-2.03275 -7.73201,-4.47472 -0.51133,-0.99722 -0.50774,-4.25583 0.006,-5.79139 0.89084,-2.660727 2.76874,-4.389694 5.52907,-5.090567 1.61285,-0.409522 1.61975,-0.41759 0.75896,-0.887447 -0.47779,-0.260795 -1.5037,-0.59535 -2.27981,-0.743456 -1.2139,-0.23165 -1.14687,-0.248361 0.47962,-0.119562 1.0399,0.08235 2.44897,0.479094 3.13127,0.88166 0.68229,0.402564 1.30031,0.672156 1.37338,0.599094 0.0731,-0.07306 -0.1641,-0.995895 -0.52702,-2.050738 -2.14694,-6.240234 -6.76788,-11.704072 -13.18279,-15.587461 -3.64532,-2.206763 -5.25184,-2.543525 -12.08834,-2.533974 -3.29847,0.0046 -6.59824,0.131936 -7.33283,0.28295 l -1.33561,0.274572 2.21756,1.46256 c 2.93665,1.936834 8.81141,7.883777 11.13043,11.267188 2.25376,3.28822 4.78792,8.459888 4.57832,9.343385 -0.14209,0.598987 -0.17212,0.59468 -0.42693,-0.06126 -4.32071,-11.12212 -14.61367,-21.08452 -24.37357,-23.590802 -5.79934,-1.489235 -13.53686,-0.745647 -17.151083,1.648248 -3.83617,2.540901 -3.90607,9.677624 -0.15923,16.255457 1.259563,2.211229 1.301473,2.212131 1.982313,0.04265 1.12827,-3.595235 3.66002,-6.526389 5.63707,-6.526389 0.40185,0 1.32275,-0.391841 2.04644,-0.870757 1.58832,-1.051099 4.73043,-2.168242 7.03407,-2.500885 2.82546,-0.407993 2.80133,-0.688953 -0.13632,-1.587773 -4.06291,-1.243107 -8.95545,-1.20008 -12.09213,0.106344 -2.11248,0.879843 -3.321613,1.020015 -2.12356,0.246179 1.51875,-0.980972 5.2558,-1.823184 8.017,-1.806775 9.22351,0.05481 21.29645,6.866545 24.80632,13.996103 1.98918,4.0406 1.85795,6.903596 -0.90221,19.683086 -2.00707,9.29274 -2.61506,13.53437 -2.87987,20.09134 -0.21434,5.30721 0.17758,11.03254 0.94024,13.73559 0.3057,1.08349 0.61077,1.38336 1.85582,1.82424 2.54492,0.90116 5.12957,0.73555 7.57249,-0.48519 z M 56.031724,146.0141 c 0.73499,-0.89928 0.77161,-1.38974 0.16566,-2.21844 -0.3808,-0.52076 -0.72541,-0.57186 -2.195,-0.32549 -1.38862,0.23281 -1.85295,0.49266 -2.28232,1.27728 -0.51167,0.93501 -0.49468,1.02141 0.33476,1.70234 1.08925,0.89421 3.06708,0.67753 3.9769,-0.43569 z m -0.0882,-4.20498 c 0.38806,-0.38806 0.70556,-0.8553 0.70556,-1.03833 0,-0.57436 -1.52537,-1.43111 -2.54794,-1.43111 -0.74466,0 -0.97984,-0.16936 -0.97984,-0.70556 0,-0.90329 -0.2877,-0.88968 -1.30018,0.0615 -1.004,0.9432 -1.11751,2.90311 -0.19913,3.43802 1.0927,0.63644 3.5447,0.45231 4.32153,-0.32452 z m 50.406386,-1.08326 c 0.65663,-0.40032 2.49092,-1.70941 4.0762,-2.9091 1.58528,-1.19969 4.87542,-3.27537 7.31141,-4.61263 6.59644,-3.62116 8.26221,-4.95828 8.91746,-7.15808 0.16599,-0.55724 -0.0432,-1.0711 -0.75702,-1.85967 -1.02219,-1.12923 -2.24941,-1.50917 -9.80582,-3.03583 l -2.82222,-0.57019 -4.50825,-4.54102 c -5.57429,-5.6148 -5.54063,-5.60325 -11.366753,-3.90164 -1.3582,0.39668 -3.293233,0.84534 -4.300093,0.99703 l -1.83064,0.27578 2.62861,2.965 c 1.445733,1.63075 2.541673,3.05193 2.435433,3.15817 -0.10625,0.10625 -2.610323,-2.22019 -5.564613,-5.16986 -5.68438,-5.67551 -6.47986,-6.15223 -7.81115,-4.68117 -0.88009,0.97249 -0.44816,2.47005 1.14075,3.95518 2.02955,1.89697 2.86896,2.36898 1.36348,0.76668 -0.9285,-0.98821 -1.22278,-1.52366 -0.9351,-1.70145 0.58449,-0.36124 4.1703,3.23861 6.71101,6.73726 3.24009,4.46175 7.425293,7.77702 11.430616,9.05468 2.7422,0.87472 8.52562,0.93404 11.95745,0.12263 1.9938,-0.47141 7.42119,-2.45914 7.97434,-2.92054 0.35897,-0.29941 -0.74636,-0.94283 -1.95804,-1.13978 -1.52247,-0.24747 -2.0768,-1.09263 -0.71664,-1.09263 2.31013,0 4.46209,1.81127 4.46209,3.75567 0,1.41979 -0.61199,1.58906 -0.77032,0.21308 -0.0614,-0.53358 -0.3058,-0.97014 -0.54312,-0.97014 -0.46421,0 -7.19622,5.21278 -11.1761,8.65396 -5.40269,4.6714 -9.26182,5.05376 -12.396543,1.22824 -1.42449,-1.73839 -1.44213,-1.88711 -0.51374,-4.32974 0.89894,-2.36514 0.89889,-3.4838 -1.8e-4,-3.96496 -0.65123,-0.34853 -0.70556,-0.26829 -0.70556,1.04213 0,0.78086 -0.31742,2.25488 -0.70537,3.27561 -1.02151,2.68761 -0.91923,3.24393 0.96996,5.27615 3.511743,3.77759 5.426693,4.53322 7.808463,3.08118 z m -1.259,-20.10493 c -1.54033,-0.58252 -1.7885,-2.44792 -0.32567,-2.44792 0.94281,0 2.26344,0.89078 1.88367,1.27055 -0.14845,0.14845 -0.45776,0.082 -0.68736,-0.14754 -0.2296,-0.2296 -0.64327,-0.41746 -0.91926,-0.41746 -0.40605,0 -0.41801,0.10098 -0.0626,0.52917 0.24154,0.29104 0.65786,0.52917 0.92514,0.52917 0.51565,0 0.66629,0.55774 0.22139,0.8197 -0.14552,0.0857 -0.61139,0.0246 -1.03527,-0.13567 z m -46.919286,17.60968 0.99337,-1.43506 -1.617,-16.63141 c -0.88935,-9.14727 -1.70358,-17.05622 -1.80941,-17.57542 -0.17825,-0.87454 -0.26859,-0.91747 -1.22734,-0.58324 -0.56921,0.19843 -1.82928,0.30573 -2.80015,0.23846 -0.97087,-0.0673 -1.76512,-0.005 -1.765,0.13932 2e-4,0.23471 3.57753,29.7872 4.16912,34.44125 0.2243,1.76461 0.32551,1.92505 1.47554,2.33916 0.6791,0.24453 1.3141,0.45752 1.41111,0.47331 0.097,0.0158 0.62341,-0.61708 1.16976,-1.40637 z m 49.026946,-0.70089 c 3.86769,-1.95728 4.29555,-2.93468 1.92622,-4.40031 -0.82462,-0.51011 -2.05493,-1.43864 -2.73403,-2.06342 -0.78694,-0.72399 -1.87441,-1.27584 -2.99861,-1.52166 -0.97014,-0.21214 -2.0417,-0.4932 -2.38125,-0.62459 -0.46759,-0.18093 -0.61736,-0.0595 -0.61736,0.50063 0,0.40673 -0.31742,1.57465 -0.705383,2.59538 -0.38795,1.02073 -0.70545,2.05385 -0.70555,2.29583 -2.5e-4,0.60249 2.457253,3.2766 3.340103,3.6345 1.29494,0.52497 3.36505,0.3482 4.87586,-0.41636 z m 10.57888,-8.21284 c 0.73288,-0.55644 1.2744,-1.06982 1.20337,-1.14085 -0.071,-0.071 -1.72622,0.28941 -3.6782,0.80098 -3.81722,1.0004 -4.32575,1.42921 -4.32575,3.64763 0,2.22592 0.28169,2.21649 2.94241,-0.0985 1.38911,-1.20863 3.12528,-2.65277 3.85817,-3.20921 z m 42.41299,-20.08656 c 2.14679,-0.99971 4.94239,-3.96544 6.22245,-6.60111 1.10325,-2.27161 1.8372,-5.538258 1.52439,-6.784625 l -0.22307,-0.888746 -1.64575,0.760669 c -1.44913,0.66979 -2.27796,0.762151 -6.93742,0.773067 -5.65818,0.01326 -6.5425,0.227971 -8.18525,1.987368 -1.77968,1.906057 -2.44906,5.909237 -1.34507,8.044107 1.57363,3.04307 6.93011,4.41348 10.58972,2.70927 z m -58.58696,-6.11854 c 0.52034,-0.44757 1.30961,-0.81377 1.75393,-0.81377 0.71874,0 0.87223,-0.29297 1.39144,-2.655861 1.00012,-4.551516 0.58551,-7.704264 -0.93638,-7.120263 -0.86596,0.332301 -2.30836,2.731358 -3.25486,5.413616 -0.861163,2.440398 -1.138933,6.004048 -0.615033,7.890288 0.222633,0.80154 0.266383,0.75513 0.479903,-0.50915 0.14693,-0.87002 0.5893,-1.6959 1.181,-2.20486 z m 0.74834,1.49062 c 0.62744,-1.50168 0.62979,-1.59884 0.0386,-1.59884 -0.49381,0 -1.29134,1.42644 -1.29134,2.30966 0,0.94349 0.736,0.52587 1.25272,-0.71082 z M 40.84468,98.872797 c 0.10471,-1.993371 0.118508,-2.016591 1.340521,-2.255661 0.679098,-0.132858 2.306285,-0.350395 3.615973,-0.48342 2.34489,-0.238173 2.38125,-0.257696 2.38125,-1.27884 0,-0.890629 -0.11202,-1.012954 -0.79375,-0.866769 -2.11713,0.453982 -5.99133,0.892344 -6.284596,0.711097 -0.181493,-0.112171 -0.332419,-0.47239 -0.33539,-0.800487 -0.01,-1.102069 -0.534781,-1.533432 -1.554282,-1.277554 -0.914957,0.229638 -0.953752,0.324147 -0.768668,1.872541 0.107206,0.896882 0.296562,2.702256 0.42079,4.011943 0.208203,2.195013 0.290255,2.381253 1.04911,2.381253 0.753988,0 0.832143,-0.16944 0.929042,-2.014103 z m 13.622224,1.307893 c 1.51073,-0.685604 1.52052,-0.701863 1.32334,-2.197113 -0.10926,-0.828522 -0.51501,-5.713275 -0.90167,-10.855012 -0.38667,-5.141735 -0.79332,-10.022413 -0.90369,-10.84595 l -0.20066,-1.497339 -1.12521,0.590068 c -1.22154,0.640587 -4.48606,0.828066 -5.85101,0.336019 -0.82811,-0.298521 -0.84035,-0.274033 -0.6035,1.207111 0.14807,0.926031 0.5781,1.82354 1.10983,2.31633 0.73789,0.683852 0.86809,1.124512 0.86809,2.938028 0,1.921508 -0.0725,2.133512 -0.72933,2.133512 -0.52513,0 -0.68103,0.172846 -0.55681,0.617361 0.0949,0.339548 0.2817,2.043835 0.41515,3.7873 0.20003,2.61351 0.39066,3.345871 1.08597,4.172207 0.99595,1.183619 1.21151,3.770352 0.31419,3.770352 -0.3814,0 -0.52917,0.390597 -0.52917,1.398699 0,1.463566 0.40903,1.881161 2.44884,2.500117 1.44456,0.43834 2.21531,0.36365 3.83564,-0.37169 z M 38.187572,99.387594 C 38.079994,98.757002 37.88697,96.87806 37.758631,95.212167 l -0.233344,-3.028897 1.46722,-0.322493 c 1.288665,-0.283244 1.411218,-0.39148 1.007041,-0.889402 -0.340243,-0.419155 -0.862119,-0.523364 -2.002358,-0.399828 l -1.542178,0.167082 0.25485,4.280384 c 0.140168,2.354213 0.403171,4.558197 0.584451,4.897747 0.557743,1.04468 1.106315,0.71971 0.893259,-0.529166 z m 9.024712,-6.438196 c -0.10257,-0.410269 0.0991,-0.407755 -3.174999,-0.0396 -1.613398,0.181416 -2.557639,0.445791 -2.557639,0.7161 0,0.331922 0.655994,0.34373 2.910416,0.05239 1.600732,-0.206865 2.870732,-0.534866 2.822222,-0.728895 z m -10.593288,-9.965971 0.09815,-4.850694 1.330303,-0.10993 c 1.906408,-0.157538 1.25218,-0.772015 -0.821956,-0.772015 h -1.743069 l 0.0048,4.497917 c 0.0026,2.473854 0.100539,4.855104 0.217534,5.291667 0.504093,1.88102 0.822677,0.467275 0.914221,-4.056945 z m 2.699886,4.630209 c 1.030378,-0.206076 1.10243,-0.32 1.10243,-1.74307 0,-0.83742 0.144789,-1.612066 0.321752,-1.721436 0.176963,-0.109369 1.78201,-0.302505 3.566771,-0.429191 l 3.245019,-0.230338 -0.18572,-1.384653 c -0.10215,-0.761558 -0.26744,-1.466372 -0.36732,-1.566253 -0.0999,-0.09988 -1.66104,0.03049 -3.469247,0.289719 -1.808204,0.259226 -3.446393,0.47312 -3.640421,0.475319 -0.194028,0.0022 -0.300676,-0.591313 -0.236995,-1.318917 0.110912,-1.267267 0.0701,-1.322917 -0.970139,-1.322917 H 37.59909 l -0.0048,3.792362 c -0.0026,2.085798 -0.100539,4.149548 -0.217534,4.586111 -0.233318,0.870623 0.04483,0.952726 1.942143,0.573264 z m 6.024272,-7.931743 c 0.54411,-0.176755 -0.0759,-0.210093 -1.570453,-0.08445 -1.358194,0.114174 -2.707569,0.351628 -2.998611,0.527674 -0.62041,0.375277 3.186172,0.006 4.569064,-0.443222 z m 78.247766,-4.839959 c 0.33583,-0.213214 0.10522,-1.060643 -0.95189,-3.497933 -2.3566,-5.433414 -2.61095,-5.595932 -4.88939,-3.124117 -1.19305,1.29431 -2.89221,3.982757 -2.89221,4.57612 0,0.08769 0.59531,0.264118 1.32292,0.392064 0.7276,0.127947 2.19604,0.604317 3.26319,1.058601 2.04028,0.868543 3.40778,1.064817 4.14738,0.595265 z M 51.392974,74.378611 c 1.24453,-0.417966 2.43389,-1.269913 2.43389,-1.743411 0,-1.547334 -4.36007,-1.939119 -6.38602,-0.573832 -1.42355,0.959333 -1.5208,1.654236 -0.31675,2.263385 1.10168,0.557361 2.70927,0.577643 4.26888,0.05386 z"
       id="path1" />
    <path
       style="fill:#4d8061;stroke:#112318;stroke-width:10;stroke-linecap:square;paint-order:markers stroke fill;fill-opacity:1;stroke-opacity:1"
       d="m 281.56979,28.4353 c -14.71254,0.978097 -32.06421,1.705128 -42.9292,13.052798 -11.95644,15.625226 -6.63992,37.630446 1.39045,53.790417 2.34816,2.732511 3.24487,9.720785 7.49328,9.440835 3.85266,-6.219171 5.2077,-14.04017 10.18769,-19.801524 5.53725,-10.144865 18.13888,-10.576547 27.10141,-16.097125 8.84776,-3.824747 18.24305,-6.237684 27.64108,-7.732689 1.31079,-4.02306 -5.90779,-4.273758 -8.47166,-5.603264 -17.10871,-4.820897 -35.59147,-3.406913 -52.18586,2.647392 -3.5,-0.01744 3.71179,-2.841697 4.67092,-2.898319 34.80418,-11.346499 72.20307,3.66765 99.33939,25.63597 15.64717,12.313006 27.1256,31.884729 23.40713,52.327299 -5.4714,43.64617 -20.1624,86.34124 -18.25278,130.82623 0.8276,14.60481 -1.72619,30.49019 4.81134,44.08025 7.54279,9.50392 22.00104,7.30614 32.11174,3.71786 4.08381,-2.34045 10.95137,-3.69966 12.35526,-8.6305 -4.66075,-15.02524 -14.91977,-28.62634 -14.69531,-44.99409 -0.0666,-11.29361 -1.18435,-23.91131 1.05779,-34.47604 1.07791,4.26393 -2.45674,10.71913 0.61004,13.3889 17.77132,-7.8519 35.16707,-17.39091 50.2245,-29.76129 9.51654,-8.68964 15.4919,-21.3803 17.00777,-34.02706 -4.03519,-4.80949 -12.02182,-2.66774 -17.28862,-5.73908 -9.4988,-3.7838 -19.00605,-12.03764 -17.67538,-23.33159 -1.27601,-13.48836 6.45673,-27.68143 20.22608,-30.79954 2.77395,0.1955 6.8542,-3.43651 2.82005,-5.02544 -5.12702,-1.80836 -0.9085,-0.95327 1.86468,-0.20949 2.80418,0.30354 8.42508,5.30818 9.03336,0.47653 -8.15912,-30.046102 -31.76838,-54.427078 -59.17497,-68.169215 -16.79098,-7.894494 -35.97955,-4.764529 -53.91934,-5.283274 -5.39065,0.327093 -11.15727,0.155293 -16.20434,2.018924 4.21658,4.890569 11.59315,7.965703 16.3672,13.170664 18.14755,16.194445 35.22678,34.277537 45.38842,56.692881 2.03726,4.41216 4.50164,8.68405 5.26716,13.49249 C 392.46448,105.26596 384.72736,89.118348 372.78973,75.865067 350.16632,49.439357 317.8737,26.693412 281.56979,28.4353 Z"
       id="path2"
       transform="matrix(0.26458333,0,0,0.26458333,34.655818,65.962046)" />
    <path
       style="fill:#ffffff;fill-opacity:1;stroke:#112318;stroke-width:10;stroke-linecap:square;stroke-opacity:1;paint-order:markers stroke fill"
       d="m 327.55514,118.72116 c -20.85197,2.07745 -35.48979,21.8687 -38.49712,41.51884 -1.89001,12.04792 -0.90881,26.09428 8.92875,34.65178 3.04892,4.35445 7.10101,6.78912 12.40511,4.95225 6.51914,-1.1023 13.30159,-2.37739 19.30364,-4.94701 -3.254,-5.72784 -7.81082,-12.02277 -6.42988,-19.27391 0.73132,-9.0211 9.71715,-17.08518 18.93971,-14.17371 2.86512,0.69675 7.70903,1.29393 7.72061,-2.9948 1.4428,-12.60429 1.40292,-28.8014 -10.61796,-36.49139 -3.50402,-2.1585 -7.61378,-3.44194 -11.75286,-3.24205 z"
       id="path3"
       transform="matrix(0.26458333,0,0,0.26458333,34.655818,65.962046)" />
    <path
       style="fill:#ffffff;fill-opacity:1;stroke:#112318;stroke-width:10;stroke-linecap:square;stroke-opacity:1;paint-order:markers stroke fill"
       d="m 262.25256,99.978847 c -6.36517,2.623273 -8.56519,10.344413 -11.62415,15.979403 -4.43196,10.51662 -6.27958,22.50725 -4.40423,33.74422 2.8241,2.53464 3.34428,-2.97433 4.09191,-4.73192 2.19166,-4.61267 6.93076,-6.5316 11.38388,-8.06664 4.21957,-5.24406 3.83332,-12.81997 5.21631,-19.14801 0.0864,-5.69342 2.12619,-13.75072 -3.27353,-17.62142 -0.44192,-0.163708 -0.92302,-0.215129 -1.39019,-0.155633 z"
       id="path4"
       transform="matrix(0.26458333,0,0,0.26458333,34.655818,65.962046)" />
    <path
       style="fill:#89a257;fill-opacity:1;stroke:#112318;stroke-width:10;stroke-linecap:square;stroke-opacity:1;paint-order:markers stroke fill"
       d="m 187.28503,162.39786 c -5.86774,0.59368 -9.21698,8.29181 -5.09389,12.84928 1.82507,2.29608 4.24396,6.69037 7.1993,5.97698 -0.54547,-2.58451 -0.23726,-5.314 2.23306,-2.42367 20.12076,17.45623 32.81104,43.56832 57.91443,55.02736 17.48529,7.6578 37.61751,6.83266 55.88946,2.6475 9.10248,-3.06081 18.89833,-5.52381 26.88415,-10.91874 0.0555,-3.50652 -5.67233,-3.52943 -7.9862,-4.8893 -1.02531,-0.16744 -5.80486,-2.39577 -2.99199,-2.54607 8.85573,-0.72765 18.4699,6.61927 16.91495,16.09307 -1.5409,2.12592 -1.35843,-4.00283 -2.67898,-4.65672 -2.83004,-2.64862 -6.0673,2.45243 -8.6367,3.45931 -17.46704,12.05935 -32.39676,27.58456 -50.66037,38.44301 -6.35953,3.85139 -14.50986,4.48477 -21.41135,1.84432 -5.72057,-3.49866 -12.0496,-8.5596 -13.42984,-15.3901 0.61894,-7.28308 6.46893,-14.74003 3.44839,-22.08229 -1.36882,-2.79244 -4.96834,-1.59416 -4.67771,1.41992 -0.4405,8.44799 -5.47091,16.17651 -4.97848,24.6441 3.48293,9.31151 11.99459,15.8346 20.02759,21.20621 6.15727,4.62524 14.06668,1.86768 19.42354,-2.54986 17.43138,-13.13204 36.21707,-24.09422 55.08059,-35.02164 7.49928,-4.98871 17.50733,-10.5901 18.44504,-20.50905 -3.46287,-10.38695 -16.19078,-11.27629 -25.16508,-13.7174 -8.5583,-2.17999 -17.76543,-3.03202 -25.93936,-5.88073 -12.06086,-11.18223 -22.93347,-23.95555 -36.31191,-33.57214 -10.22192,-3.6648 -20.88975,2.01573 -30.9533,3.75109 -5.05949,1.52372 -10.54358,2.12898 -15.40587,3.92036 4.46923,7.50825 11.92856,13.61979 16.93418,21.11527 -13.73434,-11.90708 -25.53827,-26.06201 -40.09541,-37.00725 -1.20408,-0.71088 -2.55817,-1.259 -3.97824,-1.23282 z m 77.77415,35.6223 c 2.34751,0.13287 5.98652,1.39608 6.40191,3.5638 -1.7641,-0.5738 -7.05619,-3.10725 -5.50833,0.82188 0.95341,1.6068 3.47392,1.92015 4.39267,3.08991 -3.98346,2.96799 -11.25312,-3.93054 -6.99471,-7.23252 0.5394,-0.21791 1.13246,-0.26231 1.70846,-0.24307 z"
       id="path5"
       transform="matrix(0.26458333,0,0,0.26458333,34.655818,65.962046)" />
    <path
       style="fill:none;stroke:#000000;stroke-width:0.5;stroke-linecap:butt;stroke-linejoin:miter;stroke-opacity:1;stroke-dasharray:none"
       d="m 110.34044,139.4699 c -0.15137,0.18931 -0.36865,0.30924 -0.52523,0.49551 -0.0528,0.0628 -0.0295,0.18129 0.0551,0.18968 0.0886,0.009 0.14772,-0.0779 0.1911,-0.14249 0.12151,-0.18106 0.32533,-0.79792 0.28609,-0.58478 -0.0349,0.18935 -0.11797,0.36803 -0.20759,0.53781 -0.15339,0.29059 -0.40275,0.54224 -0.47579,0.86352 -0.023,0.10118 0.0746,0.20624 0.0191,0.29954 -0.0444,0.0746 -0.14599,-0.044 -0.18675,0.0233 -0.0534,0.0881 0.0187,0.18379 0.0186,0.27685 -1.7e-4,0.12232 -0.16949,0.13073 -0.18673,0.24801 -0.0176,0.11965 0.0384,0.24069 -0.0112,0.3598 -0.0541,0.13002 -0.16075,0.23944 -0.15803,0.39301 0.002,0.1261 0.0634,0.26083 0.0135,0.37934 -0.0393,0.0934 -0.17546,0.11477 -0.18616,0.22602 -0.0106,0.10997 0.0439,0.21801 -0.002,0.32965 -0.0482,0.11603 -0.15363,0.21339 -0.15922,0.3425 -0.004,0.10199 0.0701,0.22251 -0.007,0.30831 -0.0604,0.067 -0.16029,0.10656 -0.16979,0.21226 -0.013,0.14473 0.10101,0.30546 0.0182,0.43295 -0.0525,0.0809 -0.15564,0.11097 -0.19064,0.21078 -0.0572,0.16321 0.0761,0.32547 0.0109,0.4918 -0.0473,0.12078 -0.15806,0.22011 -0.16382,0.35322 -0.004,0.102 0.0712,0.22348 -0.007,0.30832 -0.0624,0.0675 -0.16181,0.10916 -0.17194,0.21655 -0.0135,0.14361 0.13735,0.32957 0.0204,0.42866 -0.0546,0.0463 -0.17806,-0.0722 -0.19246,0.0516 -0.0115,0.0992 0.0829,0.20753 0.0176,0.29593 -0.0515,0.0697 -0.15595,0.0954 -0.17015,0.19497 -0.016,0.11235 -0.0191,0.22975 0.0137,0.33735 0.0231,0.0761 -6.1e-4,0.16248 -0.0749,0.19937 -0.0846,0.042 -0.11181,0.13001 -0.11201,0.22193 -5e-4,0.22552 0.0705,0.45473 0.0233,0.67603 -0.034,0.1593 -0.18096,0.27371 -0.18508,0.44433 -0.004,0.15918 0.062,0.32471 -0.0115,0.47915 -0.0636,0.13359 -0.16196,0.25603 -0.16282,0.41416 -9.7e-4,0.1788 0.0818,0.36513 0.0171,0.53634 -0.0333,0.088 -0.16802,0.0963 -0.17335,0.20362 -0.0138,0.27736 -0.0443,0.56008 0.007,0.83268 0.0137,0.0724 -10e-5,0.14416 -0.0334,0.21101 -0.0582,0.11671 -0.14429,0.22492 -0.14854,0.36314 -0.01,0.31585 0.0131,0.63131 0.013,0.94727 -3.5e-4,1.00122 0.013,2.00254 -5.3e-4,3.00366 -0.003,0.20664 -0.0651,0.42284 -0.003,0.62022 0.0308,0.0982 0.19637,0.11706 0.18215,0.23097 -0.01,0.0793 -0.0108,0.15902 -0.0111,0.23905 -7.7e-4,0.24919 0.0124,0.4988 -0.001,0.74758 -0.006,0.10234 -0.0981,0.27652 0.007,0.31089 0.062,0.0203 0.16717,-0.0793 0.17543,0.0505 0.019,0.29943 -0.0381,0.59851 -0.021,0.8979 0.01,0.17084 0.19072,0.28379 0.18492,0.45506 -0.003,0.10217 -0.0337,0.20431 0.006,0.30722 0.0876,0.22895 0.29163,0.41158 0.32595,0.65619 0.0153,0.1091 -0.0662,0.23088 0.009,0.32911 0.0496,0.0648 0.19635,0.1029 0.1576,0.19376 -0.0338,0.0793 1.4e-4,0.16364 0.0777,0.20029 0.0818,0.0387 0.0735,0.1169 0.0713,0.20488 -0.003,0.11075 0.14453,-0.0129 0.17436,0.0385 0.0671,0.11556 -0.0595,0.25935 0.0185,0.36848 0.0489,0.0684 0.18716,0.0945 0.1656,0.19135 -0.0174,0.0782 -0.006,0.13456 0.0688,0.1862 0.0663,0.0456 0.0992,0.11677 0.0832,0.20466 -0.0164,0.09 0.0732,0.15317 0.13483,0.20182 0.0776,0.0613 0.21375,0.11023 0.20997,0.21473 -0.002,0.0526 -0.0406,0.21115 0.0428,0.15709 0.0677,-0.0439 0.16013,-0.0179 0.12447,0.0806 -0.0279,0.077 0.0191,0.15191 0.0517,0.21858 0.0606,0.12416 0.13547,0.24366 0.24816,0.32948 0.0987,0.0752 0.2587,0.16829 0.22371,0.29987 -0.0162,0.0611 -0.0757,0.11534 0.0134,0.1646 0.0692,0.0383 0.13753,0.0861 0.22647,0.0611 0.0872,-0.0245 0.13823,0.0744 0.18704,0.12889 0.0583,0.0651 0.20173,0.12079 0.16822,0.20245 -0.0222,0.054 -0.17968,-0.0416 -0.15778,0.0761 0.0262,0.14088 0.14553,0.23258 0.24277,0.32577 0.19126,0.1833 0.42228,0.33596 0.56348,0.56084 0.0502,0.0799 0.14152,0.0117 0.21092,0.0412 0.0687,0.0293 0.0857,0.11601 0.10957,0.17999 0.0239,0.064 0.036,0.19284 0.10955,0.17996 0.0743,-0.013 0.15171,-0.0323 0.21089,0.0412 0.0598,0.0743 0.12273,0.14628 0.20086,0.20173 0.0656,0.0466 0.0807,0.12567 0.0682,0.20413 -0.0116,0.0733 0.0404,0.13776 0.0703,0.2024 0.0462,0.1 0.0916,0.21159 0.19249,0.2664 0.0774,0.042 0.0592,0.12369 0.0616,0.20346 0.003,0.0961 0.11565,0.12774 0.16572,0.19572 0.0999,0.13568 0.11748,0.3244 0.25988,0.43055 0.12587,0.0938 0.17379,0.25004 0.23578,0.38702 0.059,0.13034 0.1992,0.24298 0.18686,0.38683 -0.006,0.0708 -0.03,0.15147 0.0416,0.20397 0.0695,0.0509 0.12998,0.11186 0.1674,0.19209 0.0599,0.12842 0.10868,0.26821 0.22825,0.35907 0.0964,0.0732 0.22735,0.14458 0.23806,0.27994 0.008,0.10277 -0.0679,0.22477 0.004,0.30975 0.0542,0.0643 0.15778,0.0907 0.1642,0.19243 0.007,0.11302 -0.0366,0.22676 0.009,0.33933 0.043,0.10728 0.16839,0.19341 0.15385,0.31039 -0.008,0.0684 -0.009,0.13401 0.0217,0.20161 0.046,0.10103 0.16984,0.19051 0.14514,0.30098 -0.0163,0.0728 -0.0212,0.15507 0.0547,0.202 0.0667,0.0412 0.13125,0.10396 0.10898,0.19553 -0.0193,0.0796 0.0243,0.15475 0.0507,0.22732 0.042,0.11551 0.11626,0.46841 0.12825,0.34626 0.007,-0.0716 -0.0823,-0.22436 -0.007,-0.22128 0.0727,0.003 0.0981,0.13462 0.14527,0.18971 0.0516,0.0602 -0.004,0.1364 0.0174,0.20175 0.0807,0.2454 0.34148,0.4312 0.33925,0.68998 -5.9e-4,0.0677 -0.0153,0.13372 0.0179,0.20124 0.0604,0.12273 0.1612,0.23647 0.15004,0.38521 -0.007,0.0915 -0.0513,0.20907 0.0268,0.27839 0.058,0.0515 0.1744,0.0967 0.14037,0.19134 -0.0257,0.0714 0.008,0.14189 0.0456,0.20147 0.0639,0.10102 0.12523,0.20796 0.13194,0.33198 0.0112,0.20697 -0.0767,0.42109 0.004,0.62199 0.043,0.1073 0.16839,0.19344 0.15381,0.31043 -0.009,0.0684 -0.0112,0.13502 0.0217,0.20157 0.0644,0.13034 0.16541,0.25266 0.15683,0.40855 -0.008,0.14895 -0.0615,0.31025 0.0186,0.45032 0.0597,0.10445 0.13515,0.20451 0.14607,0.33059 0.0182,0.21043 -0.0857,0.43088 0.001,0.63189 0.0552,0.12744 0.16413,0.23403 0.16333,0.38377 -8.2e-4,0.15367 -0.0632,0.31599 0.0118,0.46326 0.0611,0.11994 0.15948,0.23081 0.15695,0.37362 -0.002,0.11797 -0.0118,0.23548 -0.0118,0.35376 0,1.30235 0,2.6047 0,3.90705"
       id="path7"
       inkscape:path-effect="#path-effect7"
       inkscape:original-d="m 110.34044,139.4699 c -0.16744,0.22326 -0.72559,0.50233 -0.50233,0.66978 0.22326,0.16744 0.57002,-0.94052 0.50233,-0.66978 -0.12108,0.48432 -0.46702,0.88336 -0.66977,1.33955 -0.0453,0.10201 0.0789,0.25596 0,0.33489 -0.0395,0.0395 -0.12798,-0.0395 -0.16745,0 -0.0789,0.0789 0.0499,0.23504 0,0.33489 -0.0353,0.0706 -0.14248,0.0926 -0.16744,0.16744 -0.0353,0.1059 0.0271,0.22659 0,0.33489 -0.0303,0.12108 -0.12798,0.21649 -0.16744,0.33489 -0.0384,0.11517 0.0494,0.40353 0,0.50233 -0.0353,0.0706 -0.13215,0.0968 -0.16745,0.16744 -0.0499,0.0999 0.0353,0.22899 0,0.33489 -0.0395,0.1184 -0.12797,0.21649 -0.16744,0.33489 -0.0353,0.1059 0.0499,0.23504 0,0.33488 -0.0353,0.0706 -0.13215,0.0968 -0.16745,0.16745 -0.067,0.13395 0.067,0.36838 0,0.50233 -0.0353,0.0706 -0.14248,0.0926 -0.16744,0.16745 -0.1059,0.15025 0.0529,0.34348 0,0.50233 -0.0395,0.1184 -0.12798,0.21648 -0.16744,0.33488 -0.0353,0.1059 0.0499,0.23505 0,0.33489 -0.0353,0.0706 -0.13215,0.0968 -0.16745,0.16744 -0.0749,0.14977 0.0749,0.35257 0,0.50234 -0.0249,0.0499 -0.12798,-0.0395 -0.16744,0 -0.0789,0.0789 0.0499,0.23504 0,0.33489 -0.0353,0.0706 -0.14248,0.0925 -0.16744,0.16744 -0.0353,0.1059 0,0.22326 0,0.33489 0,0.0558 0.025,0.11752 0,0.16744 -0.0353,0.0706 -0.13215,0.0968 -0.16745,0.16744 -0.0533,0.10655 0.0483,0.69246 0,0.83722 -0.0395,0.1184 -0.13717,0.21381 -0.16744,0.33489 -0.0406,0.16245 0.053,0.34348 0,0.50233 -0.0395,0.1184 -0.12798,0.21649 -0.16745,0.33489 -0.0593,0.17793 0.0593,0.49185 0,0.66978 -0.0249,0.0749 -0.14248,0.0926 -0.16744,0.16744 -0.0256,0.0767 0,0.74376 0,0.83722 0,0.0558 0.0177,0.11449 0,0.16744 -0.0395,0.1184 -0.12798,0.21649 -0.16744,0.33489 -0.0351,0.10539 0,0.68629 0,0.83722 0,0.55815 0,1.11629 0,1.67444 0,0.50233 0,1.00466 0,1.50699 0,0.0876 -0.022,0.62575 0,0.66978 0.0353,0.0706 0.13214,0.0968 0.16744,0.16744 0.025,0.0499 0,0.11163 0,0.16745 0,0.27907 0,0.55814 0,0.83721 0,0.11164 -0.0499,0.23505 0,0.33489 0.025,0.0499 0.14248,-0.0499 0.16744,0 0.0578,0.11557 -0.0415,0.83858 0,1.00467 0.0303,0.12107 0.12798,0.21648 0.16745,0.33488 0.0353,0.10591 -0.0353,0.22899 0,0.33489 0.0789,0.2368 0.25595,0.43297 0.33489,0.66978 0.0353,0.1059 -0.0499,0.23504 0,0.33489 0.0353,0.0706 0.13214,0.0968 0.16744,0.16744 0.025,0.0499 -0.025,0.11752 0,0.16744 0.0353,0.0706 0.13214,0.0969 0.16744,0.16745 0.025,0.0499 -0.0395,0.12797 0,0.16744 0.0395,0.0395 0.14248,-0.0499 0.16745,0 0.0499,0.0999 -0.0353,0.22899 0,0.33489 0.025,0.0749 0.13214,0.0968 0.16744,0.16744 0.025,0.0499 0,0.11163 0,0.16745 0.0558,0.0558 0.13214,0.0968 0.16744,0.16744 0.025,0.0499 -0.0249,0.11752 0,0.16744 0.0706,0.1412 0.26429,0.19369 0.33489,0.33489 0.025,0.0499 -0.0395,0.12798 0,0.16744 0.0395,0.0395 0.12798,-0.0395 0.16745,0 0.0395,0.0395 -0.0177,0.1145 0,0.16745 0.0395,0.1184 0.0982,0.23104 0.16744,0.33489 0.0876,0.13135 0.26429,0.19368 0.33489,0.33489 0.11548,0.23096 -0.20279,0.14977 0.16744,0.33488 0.0499,0.025 0.12798,-0.0395 0.16744,0 0.65349,0.65349 -0.0387,0.0899 0.16745,0.50233 0.0447,0.0894 0.41418,0.41418 0.50233,0.50234 0.0558,0.0558 0.11163,0.11162 0.16745,0.16744 0.0558,0.0558 0.0968,0.13214 0.16744,0.16744 0.0499,0.025 0.12798,-0.0395 0.16744,0 0.0883,0.0883 0.0792,0.24664 0.16745,0.33489 0.0395,0.0395 0.11752,-0.0249 0.16744,0 0.0706,0.0353 0.11163,0.11163 0.16744,0.16744 0.0558,0.0558 0.13215,0.0969 0.16745,0.16745 0.0249,0.0499 0,0.11163 0,0.16744 0.0558,0.11163 0.0982,0.23105 0.16744,0.33489 0.0438,0.0657 0.13215,0.0968 0.16745,0.16744 0.025,0.0499 -0.0249,0.11753 0,0.16745 0.0353,0.0706 0.12366,0.10176 0.16744,0.16744 0.0692,0.10385 0.0982,0.23105 0.16744,0.33489 0.0438,0.0657 0.12366,0.10177 0.16745,0.16744 0.0692,0.10385 0.11163,0.22326 0.16744,0.33489 0.0558,0.11163 0.12798,0.21649 0.16745,0.33489 0.0176,0.053 -0.025,0.11752 0,0.16744 0.0353,0.0706 0.12365,0.10177 0.16744,0.16745 0.0692,0.10384 0.0982,0.23104 0.16744,0.33489 0.0876,0.13135 0.28497,0.18512 0.33489,0.33488 0.0353,0.1059 -0.0353,0.22899 0,0.33489 0.025,0.0749 0.14248,0.0926 0.16744,0.16744 0.0353,0.1059 -0.0271,0.2266 0,0.33489 0.0303,0.12108 0.12798,0.21649 0.16745,0.33489 0.0177,0.0529 -0.0177,0.11449 0,0.16744 0.0395,0.1184 0.12797,0.21649 0.16744,0.33489 0.0177,0.0529 -0.0249,0.11752 0,0.16744 0.0353,0.0706 0.13215,0.0968 0.16745,0.16745 0.025,0.0499 -0.0177,0.11449 0,0.16744 0.40428,1.21287 -0.0483,-0.26399 0.33488,0.50233 0.025,0.0499 -0.0176,0.1145 0,0.16745 0.0789,0.2368 0.25596,0.43297 0.33489,0.66977 0.0177,0.0529 -0.0177,0.1145 0,0.16745 0.0395,0.1184 0.13718,0.21381 0.16744,0.33488 0.0271,0.1083 -0.0353,0.22899 0,0.33489 0.025,0.0749 0.13215,0.0968 0.16745,0.16745 0.025,0.0499 -0.0177,0.11449 0,0.16744 0.0395,0.1184 0.13717,0.21381 0.16744,0.33489 0.0542,0.21659 -0.0541,0.45318 0,0.66977 0.0303,0.12108 0.12798,0.21649 0.16745,0.33489 0.0176,0.053 -0.0177,0.1145 0,0.16744 0.0395,0.1184 0.12797,0.21649 0.16744,0.33489 0.0529,0.15885 -0.0406,0.33989 0,0.50233 0.0303,0.12108 0.13717,0.21381 0.16745,0.33489 0.0541,0.21659 -0.0542,0.45318 0,0.66978 0.0303,0.12108 0.13717,0.21381 0.16744,0.33489 0.0406,0.16244 -0.0529,0.34348 0,0.50233 0.0395,0.1184 0.13717,0.21381 0.16744,0.33488 0.0271,0.1083 0,0.22326 0,0.33489 0,0.33489 0,0.66978 0,1.00466 0,1.00467 0,2.00933 0,3.014" />
    <path
       style="fill:#e6e6e6;fill-opacity:1;stroke:none;stroke-width:1.88977;stroke-linecap:square;stroke-dasharray:none;stroke-opacity:1;paint-order:markers stroke fill"
       d="m 282.187,280.96454 c -4.55261,2.11265 -8.28404,6.16946 -13.20599,7.54239 -5.7426,2.35119 -12.33511,1.22327 -17.1564,-2.64639 -2.5342,-1.11317 -5.53558,-5.179 -8.48055,-3.14081 -16.52861,23.18568 -30.70693,48.30085 -40.35463,75.15198 -4.08176,11.15478 -7.01395,22.82517 -6.71087,34.78793 -0.56362,16.06369 3.64061,32.12715 10.48453,46.58014 11.90808,23.35495 33.129,41.89612 57.82623,50.6324 3.595,-1.22482 4.46909,-5.97334 6.7823,-8.67688 10.02523,-16.35582 24.72515,-29.15158 37.51112,-43.14578 -0.0225,-11.59895 -1.79077,-23.25299 -5.77062,-34.14229 -3.30883,-7.13062 -5.48661,-14.81408 -9.9873,-21.37999 -1.2097,-3.35439 -3.9737,-5.47384 -6.64502,-7.67218 -1.73361,-2.07512 -3.30481,-3.88683 -4.51282,-6.32611 -3.72767,-5.81287 -7.38838,-12.12087 -7.57824,-19.13162 -1.33093,-1.80517 0.1335,-4.36835 -0.79231,-6.4695 -0.33155,-9.79187 -0.81455,-19.8244 1.81329,-29.34635 0.31903,-4.10697 0.9954,-8.25464 2.91956,-11.89329 -0.21851,-2.06306 1.04161,-3.67264 1.07042,-5.57212 0.33589,-1.23359 1.36428,-2.72042 1.08772,-4.30146 1.67651,-2.82619 1.34936,-6.4649 3.05799,-9.26422 0.21175,-0.84608 -0.45546,-1.72704 -1.35841,-1.58585 z"
       id="path8"
       transform="matrix(0.26458333,0,0,0.26458333,34.655818,65.962046)" />
    <path
       id="path9"
       style="fill:#112318;fill-opacity:1;stroke:#112318;stroke-width:1.8897638;stroke-linecap:square;stroke-dasharray:none;stroke-opacity:1;paint-order:markers stroke fill"
       d="M 322.39844 65.072266 L 314.28711 66.107423 C 302.91396 67.540359 290.98683 69.477201 281.25586 75.896485 C 278.91781 79.384228 282.26724 83.50843 282.03907 87.300782 C 282.12687 88.663833 282.20788 91.041318 281.64258 91.859376 C 281.01785 86.952386 280.05727 79.465705 274.11524 78.556642 C 265.7098 80.044387 259.75209 87.644119 256.92383 95.201173 C 257.4556 98.408359 260.89939 95.218262 262.79883 95.726564 C 269.26052 96.594311 271.95787 104.30861 271.43946 110.0586 C 271.09065 118.79642 270.47818 127.8704 267.13477 136.03125 C 261.23862 144.53742 260.65947 156.21657 252.54297 163.25196 C 250.29568 165.32 249.41746 161.72274 248.81641 160.15235 C 247.57059 156.85045 245.37899 154.00925 242.58985 152.00196 C 242.22499 149.94551 239.89365 147.67675 240.50391 145.79492 C 242.10076 144.06763 240.75491 140.58157 238.13867 141.88281 C 226.8577 144.42101 214.62434 145.76617 204.97071 152.63672 C 203.2675 154.4439 206.32918 155.57655 207.64063 154.30274 C 210.7366 153.10588 213.82027 151.15493 217.25391 151.43946 C 213.45417 157.37961 206.48324 162.76538 207.1211 170.58399 C 208.80372 175.75401 215.44986 174.2928 219.51758 173.53321 C 231.62565 171.61423 243.33776 166.27056 255.67188 166.5625 C 263.90495 166.69483 269.93978 173.94053 275.98438 178.84766 C 279.11278 181.36415 281.7228 184.80937 285.36914 186.5586 C 287.88295 185.74668 285.10808 182.75363 285.27149 180.92188 C 280.60937 157.44323 290.86367 130.64655 312.32813 118.87305 C 315.69002 116.37136 319.22785 113.87081 323.65821 114.11524 C 331.39226 113.59275 339.51513 115.39337 345.10547 121.15039 C 354.5767 129.78888 355.43676 143.6971 354.47461 155.70508 C 354.32578 159.28541 353.58426 163.15293 350.53907 165.40235 C 347.3717 170.75786 345.98262 177.02954 342.44922 182.24219 C 340.35128 186.41169 336.80918 189.77789 334.75196 193.89063 C 338.10549 195.85189 342.84975 195.07086 346.72461 196.20899 C 349.88134 196.9145 353.33611 197.59429 355.74415 199.92383 C 349.31888 197.18157 342.05792 197.37912 335.20899 197.625 C 328.70777 199.66929 322.33011 202.10024 315.56055 203.40235 C 313.4168 206.39574 319.82479 205.65133 321.68555 206.56641 C 329.48652 208.74254 337.96941 209.73242 344.875 214.24024 C 349.35343 217.55689 354.05385 223.04198 351.7168 228.98633 C 348.4512 239.1759 338.55213 244.88456 330.11133 250.28907 C 315.85215 258.94521 301.06636 266.91083 287.6836 276.89649 C 284.9491 280.20324 282.95551 284.39176 282.08985 288.60157 C 281.19496 292.55021 280.196 296.51451 279.02149 300.39844 C 278.60839 304.95063 275.69958 308.79229 275.85938 313.48438 C 275.3095 316.34544 275.05061 319.14601 274.06836 321.84766 C 273.65263 330.39581 273.36452 339.067 274.21875 347.57813 C 275.84475 349.81041 274.44494 352.78396 275.84766 355.23438 C 277.45669 360.82169 280.58995 365.80245 284.01953 370.33594 C 286.23594 372.44076 286.95119 375.6309 289.94922 377.06446 C 293.78097 380.78181 294.99411 386.55241 298.5625 390.39844 C 300.4271 398.18969 305.19898 405.46123 306.35352 413.64454 C 308.60158 420.99387 309.17814 428.82279 308.71485 436.54297 C 309.19074 439.03273 312.37423 435.73185 312.58204 435.66993 L 312.58399 435.66993 L 312.58594 435.66993 L 312.58789 435.67188 L 312.58985 435.67383 L 312.58985 435.67579 L 312.58985 435.67774 L 312.58985 435.67969 C 312.57806 435.73739 312.34066 436.04914 311.77149 436.78321 C 310.11272 438.11172 309.5692 440.72507 308.20508 441.89649 C 298.01171 451.25456 288.70679 461.67144 280.22071 472.61133 C 274.76236 480.49187 268.22786 488.85017 267.78907 498.80469 C 268.71748 506.1073 276.13776 510.15324 282.08594 513.16602 C 293.16202 518.5768 305.86123 516.4261 317.72461 517.63477 C 319.04525 517.6394 320.082 517.71834 320.16602 517.83399 L 320.16797 517.83594 L 320.16797 517.8379 C 320.16828 517.83869 320.16971 517.84296 320.16993 517.84376 L 320.16993 517.84571 L 320.16993 517.84766 C 320.16988 517.84847 320.17007 517.85271 320.16993 517.85352 L 320.16797 517.85548 L 320.16797 517.85743 C 320.12791 517.93698 319.65826 518.03392 318.57032 518.13673 C 306.57807 519.75501 294.32701 517.72149 282.36914 519.61329 C 280.05332 519.92524 279.35608 522.72224 281.58203 523.82618 C 284.0534 525.81711 287.11077 529.43493 290.48633 526.89258 C 293.92536 525.58032 297.34852 523.6262 300.91211 522.95704 C 298.2633 524.35334 296.26225 527.33383 300.97657 527.34571 C 304.89714 527.84761 308.68264 530.25256 309.55469 534.29298 C 311.08882 537.13323 314.15593 533.35823 315.9961 532.75782 C 321.82199 529.30007 329.72698 525.75452 336.07422 529.90821 C 338.67121 531.58217 338.90879 534.92714 340.60352 537.19337 C 343.25829 537.20887 343.80433 533.35335 345.09766 531.49415 C 349.77267 519.69078 347.47228 505.14535 338.97266 495.62501 C 335.71711 495.27909 332.39778 498.39626 329.24414 499.19727 C 339.5019 493.89877 347.59074 485.09821 353.94141 475.5879 C 359.53671 466.94854 363.70547 457.04753 363.3379 446.57227 C 363.87433 436.82619 363.55952 426.57376 358.41602 417.94727 C 349.29876 400.26371 336.4385 384.58299 328.43946 366.38868 C 327.08377 362.02025 325.80602 357.36746 321.89063 354.51758 C 312.37238 345.62367 303.15242 335.71591 297.80079 323.70118 C 296.95904 322.13961 298.04647 321.7198 299.03711 323.07813 C 303.5783 328.22958 306.50488 334.67646 311.79493 339.23829 C 323.53718 351.15956 337.40885 360.67125 351.72266 369.20899 C 352.33148 369.5944 355.47388 371.78844 352.92188 371.17579 C 345.11552 369.01272 338.2927 363.8268 330.64063 361.36133 C 328.29393 363.07255 331.20849 366.3998 331.7461 368.43946 C 336.58283 377.65713 341.37561 387.22186 348.45704 394.93165 C 352.09947 397.39356 356.47966 394.13135 360.06836 392.98829 C 368.28543 389.35373 376.07411 383.67262 379.44141 375.01563 C 384.56775 364.25414 382.08731 351.61953 376.34375 341.63672 C 366.83 322.93058 351.47484 308.04166 336.13282 294.07618 C 328.71978 288.0575 321.45546 280.99333 312.17579 278.03907 C 310.92754 277.6206 308.22181 277.89257 307.66407 276.46875 C 309.60901 274.65455 313.95067 276.06007 314.38672 272.44141 C 314.01446 268.13349 316.92603 264.4348 320.81055 262.88868 C 332.09798 257.92459 344.25729 255.24737 355.98047 252.04102 C 357.53658 240.29009 357.69279 228.05044 359.9336 216.28711 C 364.3082 187.40023 371.89943 158.99224 375.00586 129.89649 C 377.15284 113.32057 368.12313 97.297017 355.89063 86.742189 C 345.78982 78.046793 334.4037 70.757006 322.39844 65.072266 z M 345.69336 96.623048 C 350.38505 96.773132 354.60982 99.478533 357.39063 103.26563 C 363.87707 111.14745 363.08871 122.07594 364.44532 131.63086 C 364.90096 138.43234 365.83728 146.06007 366.84961 152.31641 C 363.43394 147.93523 364.06339 141.66896 362.89258 136.42578 C 361.05477 125.68186 361.02166 113.65116 354.26563 104.54883 C 348.41931 97.77474 338.20977 98.907095 330.37696 100.68555 C 329.53865 100.8596 325.79463 101.7599 327.98243 100.15039 C 332.64345 97.38208 338.3497 96.913546 343.65625 96.718751 C 344.3427 96.631536 345.02312 96.601607 345.69336 96.623048 z M 232.19922 267.14649 C 232.1346 267.15001 232.06675 267.17142 231.99219 267.21485 C 208.07626 273.472 184.65691 281.40563 161.24219 289.29297 C 147.68071 288.71432 133.99143 289.69671 120.54102 287.95703 C 111.76182 285.80926 106.47905 277.2622 99.181642 272.43164 C 96.495112 269.34648 92.518941 271.90037 90.953126 274.73438 C 87.135342 279.95263 84.875027 286.30036 85.789064 292.81446 C 85.279773 295.62927 88.545491 297.97531 90.703126 295.70899 C 94.214805 292.78051 96.391951 288.65492 99.115236 285.05274 C 98.703055 291.50733 98.804973 298.25861 100.60938 304.48243 C 103.62944 307.02569 108.38098 305.24447 111.33203 304.0293 C 108.46483 307.235 102.45402 307.45199 100.92578 311.81836 C 100.91678 315.34189 100.29798 319.62334 102.33203 322.625 C 106.85757 323.46369 111.46744 319.79556 116.03516 321.93555 C 132.96407 327.5687 149.45219 336.69629 167.81055 336.03516 C 182.02557 335.97036 196.4745 335.77573 210.35547 332.44727 C 215.88883 325.78391 218.87343 317.28438 223.55078 310.02149 C 229.3805 299.50851 236.57704 289.68969 242.75782 279.50391 C 239.75128 275.58958 235.47399 272.23724 233.10938 267.64258 C 232.77459 267.60478 232.54817 267.12746 232.19922 267.14649 z M 199.50977 430.24415 C 199.31715 430.25388 199.10985 430.31596 198.87696 430.40821 C 191.95088 441.91957 183.66681 452.9606 179.33594 465.80665 C 177.10657 471.88829 179.49295 478.88579 184.89649 482.42774 C 199.93915 493.05607 218.3617 498.05312 236.65039 498.54493 C 240.20879 498.73563 244.12368 498.86044 247.4336 499.26954 C 233.51484 502.08151 219.12776 499.28573 205.56446 495.93946 C 198.83238 494.58424 192.78254 490.71684 186.13281 489.15626 C 183.48754 489.99919 179.22266 490.77849 178.57422 493.95118 C 179.5516 498.22744 185.1028 498.87299 187.22071 502.48633 C 190.5389 504.21666 194.32703 501.47414 197.84766 501.4043 C 196.32891 502.68856 191.84669 505.23937 196.20117 505.77149 C 201.5877 505.59893 206.21109 511.11034 204.42969 516.33008 C 203.99277 517.96815 201.97993 521.45209 205.00977 521.53907 C 221.24512 518.84058 237.33159 515.03363 253.27735 510.93165 C 257.42575 509.5211 262.45849 508.8062 265.53321 505.61329 C 264.8831 501.32049 266.19307 496.04719 263.48633 492.33985 C 257.69453 488.53016 250.72901 486.81424 244.95117 482.88087 C 224.72548 471.11468 210.37705 451.60674 200.39063 430.72266 C 200.10951 430.35629 199.8308 430.22792 199.50977 430.24415 z M 436.19922 463.96485 C 418.97393 465.17731 402.41551 470.80576 386.10352 476.12696 C 379.58385 478.60344 372.6328 480.66776 366.72852 484.26368 C 369.24159 488.30502 374.26777 490.6259 378.71485 492.39258 C 384.82036 494.97937 391.79256 494.81384 397.93751 496.22462 C 387.30244 498.86043 375.1224 497.1006 366.89258 489.41212 C 362.74017 486.17342 359.49577 481.69589 355.22266 478.76954 C 350.17929 483.25408 345.01892 488.16762 341.17969 493.7168 C 344.02141 499.39914 348.63268 504.94156 355.16993 506.57423 C 380.67607 515.05152 408.5204 513.69493 434.40626 507.68165 C 448.83991 503.87943 463.24256 496.91659 472.84571 485.18165 C 475.61827 481.6729 477.39245 476.12099 473.52149 472.68165 C 466.20115 467.11325 456.48982 466.44059 447.71094 464.91797 C 443.89096 464.4514 440.05801 463.88346 436.19922 463.96485 z M 463.08985 480.11524 L 462.86133 480.51368 C 458.37867 486.91118 452.31169 493.31312 444.38477 495.00587 C 442.61526 493.97175 446.07677 492.66421 446.78516 492.09766 C 452.94525 489.16525 457.95436 484.48124 463.08985 480.11524 z "
       transform="matrix(0.26458333,0,0,0.26458333,34.655818,65.962046)" />
    <path
       style="fill:#4d8061;fill-opacity:1;stroke:none;stroke-width:1.88977;stroke-linecap:square;stroke-dasharray:none;stroke-opacity:1;paint-order:markers stroke fill"
       d="m 321.49222,2.109941 c -5.96627,2.2144383 -9.40705,8.325566 -13.29992,13.009449 -2.09942,3.189101 -4.65307,6.394005 -5.58943,10.084949 5.62863,2.339704 11.9888,3.325103 17.54699,5.827986 3.97613,1.359373 8.08978,4.498707 12.37412,2.316361 2.46314,-0.231636 5.41269,-2.067533 3.95784,-4.884878 -3.44928,-8.580357 -6.69819,-17.535457 -12.28883,-24.9818491 -0.74012,-0.6871408 -1.59876,-1.5138776 -2.70077,-1.3720179 z"
       id="path10"
       transform="matrix(0.26458333,0,0,0.26458333,34.655818,65.962046)" />
    <path
       style="fill:#4d8061;fill-opacity:1;stroke:none;stroke-width:1.88977;stroke-linecap:square;stroke-dasharray:none;stroke-opacity:1;paint-order:markers stroke fill"
       d="m 501.71851,109.78491 c -5.16824,1.28603 -9.75656,4.87032 -15.37471,4.18961 -10.2406,0.83535 -20.64795,0.0481 -30.79184,1.82626 -5.53754,2.45354 -12.12825,3.45576 -15.84619,8.80564 -5.91383,7.15141 -7.32074,17.41711 -5.10984,26.23026 4.16749,9.31947 14.60399,13.94905 24.25011,15.08478 7.00135,2.47811 14.50251,-0.91692 20.44924,-4.57957 11.51543,-8.77338 20.56538,-21.09385 23.79525,-35.35728 0.98293,-4.95317 2.33095,-10.50531 0.54756,-15.38019 -0.43368,-0.60134 -1.19524,-0.87884 -1.91958,-0.81951 z"
       id="path11"
       transform="matrix(0.26458333,0,0,0.26458333,34.655818,65.962046)" />
    <path
       style="fill:#89a257;fill-opacity:1;stroke:#112318;stroke-width:1.88977;stroke-linecap:square;stroke-dasharray:none;stroke-opacity:1;paint-order:markers stroke fill"
       d="m 180.31405,501.19071 c -10.85366,-0.009 -21.20165,6.44317 -27.1264,15.29862 -0.12178,3.29976 4.60647,2.46953 6.7439,2.31265 8.65473,-1.60657 16.48739,-6.67702 22.76561,-12.69672 2.53298,-2.22479 1.15137,-5.52462 -2.38311,-4.91455 z"
       id="path12"
       transform="matrix(0.26458333,0,0,0.26458333,34.655818,65.962046)" />
    <path
       style="fill:#89a257;fill-opacity:1;stroke:#112318;stroke-width:1.88977;stroke-linecap:square;stroke-dasharray:none;stroke-opacity:1;paint-order:markers stroke fill"
       d="m 194.18255,508.15339 c -12.29813,1.09985 -23.15704,9.40952 -29.79256,19.4876 -1.78797,2.25363 1.33155,3.89711 3.34599,3.30397 9.89863,-1.01582 19.79067,-3.61446 28.76294,-7.93298 4.68175,-2.08536 8.43619,-9.24577 4.04189,-13.29745 -1.77802,-1.40512 -4.16856,-1.65991 -6.35826,-1.56114 z"
       id="path13"
       transform="matrix(0.26458333,0,0,0.26458333,34.655818,65.962046)" />
    <path
       style="fill:#89a257;fill-opacity:1;stroke:#112318;stroke-width:1.88977;stroke-linecap:square;stroke-dasharray:none;stroke-opacity:1;paint-order:markers stroke fill"
       d="m 298.78099,530.27749 c -10.05682,0.98867 -19.68215,6.27583 -26.33903,13.80176 -2.30513,2.01266 -2.06141,6.6151 1.53394,6.81435 10.97457,1.05431 23.28424,-1.4298 30.78759,-10.09978 2.71982,-3.31988 1.97124,-9.99442 -3.10497,-10.37665 -0.94965,-0.16024 -1.91716,-0.1821 -2.87753,-0.13968 z"
       id="path14"
       transform="matrix(0.26458333,0,0,0.26458333,34.655818,65.962046)" />
    <path
       style="fill:#89a257;fill-opacity:1;stroke:#112318;stroke-width:1.88977;stroke-linecap:square;stroke-dasharray:none;stroke-opacity:1;paint-order:markers stroke fill"
       d="m 277.68159,526.02424 c -8.27539,0.90935 -16.92192,4.1122 -22.54807,10.45823 -2.39395,2.21672 -2.40696,7.26014 1.53889,7.57824 9.4955,1.54371 17.67925,-5.15545 24.04121,-11.33584 1.6313,-1.79846 4.81816,-5.73475 0.47959,-6.25936 -1.11614,-0.41997 -2.33137,-0.47995 -3.51162,-0.44127 z"
       id="path15"
       transform="matrix(0.26458333,0,0,0.26458333,34.655818,65.962046)" />
    <path
       style="fill:#89a257;fill-opacity:1;stroke:#112318;stroke-width:1.88977;stroke-linecap:square;stroke-dasharray:none;stroke-opacity:1;paint-order:markers stroke fill"
       d="m 329.20147,530.47279 c -11.81079,1.49672 -22.51678,11.5906 -23.80018,23.57893 -0.98823,4.90965 4.50377,8.55744 8.93542,7.10483 10.54158,-1.81474 19.9631,-10.3291 22.61852,-20.71995 1.49223,-5.12869 -2.15445,-10.53295 -7.75376,-9.96381 z"
       id="path16"
       transform="matrix(0.26458333,0,0,0.26458333,34.655818,65.962046)" />
    <path
       style="fill:#89a257;fill-opacity:1;stroke:#112318;stroke-width:1.88976;stroke-linecap:square;stroke-dasharray:none;stroke-opacity:1;paint-order:markers stroke fill"
       d="m 174.22286,494.12719 c -1.6984,0.1072 -3.31146,0.72923 -4.88875,1.32474 -4.26326,1.70002 -8.22318,4.13145 -11.75639,7.05323 -1.8005,1.53988 -3.56916,3.20421 -4.75975,5.27654 -0.34919,0.7162 -0.85911,1.43185 -0.83724,2.26023 0.0312,0.75621 0.93313,1.20649 1.58522,0.87009 1.03438,-0.52048 1.88455,-1.33409 2.79166,-2.04125 1.81439,-1.55684 3.78479,-2.91762 5.82231,-4.16423 2.58091,-1.62132 5.29539,-3.03003 8.03982,-4.38057 1.88275,-0.99227 3.86193,-1.95938 5.3117,-3.5613 0.51091,-0.53565 0.77866,-1.44683 0.25606,-2.06402 -0.37202,-0.46471 -0.99834,-0.59434 -1.56464,-0.57346 z"
       id="path17"
       transform="matrix(0.26458333,0,0,0.26458333,34.655818,65.962046)" />
    <path
       style="fill:#112318;fill-opacity:1;stroke:#112318;stroke-width:1.88976;stroke-linecap:square;stroke-dasharray:none;stroke-opacity:1;paint-order:markers stroke fill"
       d="m 68.594906,271.67408 c -6.042268,2.44263 -10.606478,13.00912 -3.785098,17.13456 6.053369,1.71963 15.338627,1.47485 18.249103,-5.18618 0.104986,-5.33218 -7.048921,-6.29312 -11.087072,-7.18369 -2.420043,-0.40818 -0.407589,-4.79873 -3.376933,-4.76469 z"
       id="path18"
       transform="matrix(0.26458333,0,0,0.26458333,34.655818,65.962046)" />
    <path
       style="fill:#112318;fill-opacity:1;stroke:#112318;stroke-width:1.88976;stroke-linecap:square;stroke-dasharray:none;stroke-opacity:1;paint-order:markers stroke fill"
       d="m 75.636987,292.16725 c -5.381231,0.0716 -13.124967,3.00703 -12.616438,9.40277 4.547425,8.40966 20.224852,5.68302 20.28326,-4.26656 -0.07836,-3.93854 -4.29798,-5.50428 -7.666822,-5.13621 z"
       id="path19"
       transform="matrix(0.26458333,0,0,0.26458333,34.655818,65.962046)" />
    <path
       style="fill:#112318;fill-opacity:1;stroke:#112318;stroke-width:1.88976;stroke-linecap:square;stroke-dasharray:none;stroke-opacity:1;paint-order:markers stroke fill"
       d="m 72.240062,310.16979 c -4.322994,1.05745 -3.289856,7.58026 -1.186176,10.40569 3.388314,4.15491 10.88455,6.38862 15.190372,2.65223 0.229854,-4.94263 -4.946509,-8.38684 -8.491481,-11.09873 -1.676875,-0.95855 -3.52692,-1.98888 -5.512715,-1.95919 z"
       id="path20"
       transform="matrix(0.26458333,0,0,0.26458333,34.655818,65.962046)" />
    <path
       style="fill:#eeffcc;fill-opacity:1;stroke:#112318;stroke-width:1.88977;stroke-linecap:square;stroke-dasharray:none;stroke-opacity:1;paint-order:markers stroke fill"
       d="m 250.05117,239.33639 c -0.37955,2.20861 -0.38141,4.51776 -1.06984,6.6896 -0.90553,3.76482 -2.6076,7.3188 -3.28288,11.13552 -0.0119,2.27701 1.58609,4.1803 2.92338,5.88271 2.41662,2.66812 5.26517,5.04168 8.51092,6.62746 3.73628,1.54495 7.96479,1.25274 11.83888,0.44004 4.68383,-1.25498 8.57528,-4.32703 12.56893,-6.93737 1.84407,-1.33501 3.79754,-2.54583 5.53265,-4.01753 0.76092,-1.31424 -0.72204,-2.51161 -1.53145,-3.37897 -3.27962,-2.7359 -7.06722,-4.79483 -10.36787,-7.51322 -2.17552,-1.47582 -3.84207,-3.64938 -6.19656,-4.85204 -2.67193,-0.91854 -5.55679,-0.97942 -8.27683,-1.74073 -3.2899,-0.69874 -6.5033,-1.70887 -9.66264,-2.7403 -0.43445,-0.10906 -0.67779,0.14611 -0.98669,0.40483 z"
       id="path21"
       transform="matrix(0.26458333,0,0,0.26458333,34.655818,65.962046)" />
    <path
       style="fill:#eeffcc;fill-opacity:1;stroke:#112318;stroke-width:1.88977;stroke-linecap:square;stroke-dasharray:none;stroke-opacity:1;paint-order:markers stroke fill"
       d="m 307.70881,240.13897 c -5.66526,1.32521 -11.46995,2.32831 -17.28826,2.99243 -1.58771,0.92317 -2.27702,2.91203 -2.54619,4.66951 -0.28534,2.882 -0.46984,5.83449 -0.0334,8.70688 0.24053,1.1544 1.71119,1.10236 2.34457,0.32127 6.18394,-4.91686 12.35215,-9.86273 18.36295,-14.98891 0.62448,-0.64084 0.0397,-1.80385 -0.83963,-1.70118 z"
       id="path22"
       transform="matrix(0.26458333,0,0,0.26458333,34.655818,65.962046)" />
    <path
       id="path23"
       style="fill:#bedc7f;fill-opacity:1;stroke:#112318;stroke-width:1.88976;stroke-linecap:square;stroke-dasharray:none;stroke-opacity:1;paint-order:markers stroke fill"
       d="M 59.220704 19.492188 C 53.674753 20.149132 46.660778 21.727109 43.748047 26.935547 C 43.921587 33.238939 51.955132 33.644334 56.701173 33.322266 C 62.423574 32.633674 70.474844 31.292495 72.56836 25.078125 C 72.130315 19.434291 63.158199 19.560277 59.220704 19.492188 z M 71.962892 33.230469 C 71.804361 33.228837 71.646763 33.25858 71.507813 33.322266 C 63.140531 37.908679 52.793252 37.980159 43.791016 35.882813 C 41.185131 38.013015 43.702931 42.397183 44.341797 45.123047 C 46.582693 50.147113 51.567847 54.190147 50.425782 60.271485 C 49.99813 63.347446 51.846859 68.6749 47.400391 69.058595 C 43.800756 71.819174 47.265496 77.381087 46.763672 81.044923 C 47.87451 88.962833 47.615829 97.604182 52.63086 104.30274 C 53.858795 107.55322 56.00503 112.246 53.66211 115.26172 C 49.287915 116.36709 50.342962 122.90178 51.531251 126.12695 C 57.673928 132.9183 68.991142 133.51169 76.689454 128.89258 C 79.979817 128.01194 81.360061 125.12486 80.51172 121.92774 C 77.853477 92.661248 76.084902 63.302298 72.957032 34.082032 C 72.923545 33.530065 72.438483 33.235365 71.962892 33.230469 z M 12.386719 47.080079 C 9.3830909 48.431558 11.543137 53.439945 10.679688 56.117188 C 10.569825 64.874514 9.9666463 73.691876 10.515625 82.421876 C 13.357716 84.285359 17.575655 82.295307 20.511719 81.148439 C 23.557658 78.082946 21.294178 72.580118 23.613282 69.41211 C 31.953042 67.607713 40.777818 68.058999 48.996094 66.328126 C 48.25521 62.940124 49.378778 57.620918 46.400391 55.173829 C 37.513209 53.650495 28.409202 57.489284 19.734375 56.949219 C 18.927854 53.333211 21.612344 46.931818 15.636719 47.462891 C 14.562085 47.284452 13.480801 47.072042 12.386719 47.080079 z M 78.220704 135.33008 C 78.029569 135.33289 77.840474 135.34444 77.666017 135.35156 C 70.96998 136.56154 64.046156 136.81301 57.394532 137.26953 C 61.37583 174.6347 66.31269 212.16965 70.740235 249.5918 C 72.34487 258.18126 71.95605 267.53659 75.753907 275.53125 C 78.14667 277.57481 81.775164 277.97873 84.714845 278.79883 C 88.236128 275.69988 90.75302 271.30633 93.207032 267.39453 C 88.71603 223.59331 85.196515 179.64413 79.677735 135.97461 C 79.388859 135.39971 78.79411 135.32164 78.220704 135.33008 z "
       transform="matrix(0.26458333,0,0,0.26458333,34.655818,65.962046)" />
    <path
       style="fill:#bedc7f;fill-opacity:1;stroke:#112318;stroke-width:1.88976;stroke-linecap:square;stroke-dasharray:none;stroke-opacity:1;paint-order:markers stroke fill"
       d="m 94.362403,295.08264 c -2.537803,1.32068 -4.428203,3.84371 -7.416862,4.33231 -2.172534,1.01413 -2.692892,3.70297 -4.603525,5.07044 -1.237628,1.37646 -3.015705,2.33531 -3.882459,3.9744 1.474175,2.59975 4.135763,4.44822 6.044436,6.78402 2.004863,2.2449 5.175567,5.07295 3.687324,8.48051 -0.936828,3.55031 -5.839084,2.305 -7.612562,5.01068 -0.67857,3.5702 0.618999,7.23755 0.83417,10.82229 1.407173,9.52477 1.948385,19.24595 4.43657,28.5802 0.290211,1.62492 1.662886,2.78865 3.345272,2.46331 3.913477,-0.11838 8.17605,0.17113 11.754423,-1.64965 1.28118,-1.6028 0.31691,-4.00027 0.51683,-5.89592 -1.33753,-22.07318 -3.41762,-44.10014 -5.513823,-66.11008 -0.124767,-0.83643 -0.460109,-2.09411 -1.589794,-1.86251 z"
       id="path24"
       transform="matrix(0.26458333,0,0,0.26458333,34.655818,65.962046)" />
    <path
       style="fill:#bedc7f;fill-opacity:1;stroke:#112318;stroke-width:1.88976;stroke-linecap:square;stroke-dasharray:none;stroke-opacity:1;paint-order:markers stroke fill"
       d="m 108.9978,367.44335 c -4.50823,2.56894 -9.529801,4.27543 -14.701693,4.54097 -4.363883,0.47801 -8.935134,0.20633 -13.203806,-1.15104 -1.785922,-0.57042 -2.789889,1.39153 -2.559192,2.91513 0.297552,12.59852 2.170969,25.10127 3.492796,37.62024 0.779871,4.68399 0.746747,9.67372 2.729514,14.05744 2.036698,2.75426 5.963991,2.85569 9.078991,3.1962 5.913124,0.16736 12.32993,-0.71691 17.12761,-4.41571 2.05722,-2.83051 1.01144,-6.65853 1.28086,-9.91167 -0.27453,-15.42713 -1.18164,-30.89444 -1.92785,-46.26742 -0.0669,-0.57022 -0.85968,-0.79647 -1.31723,-0.58414 z"
       id="path25"
       transform="matrix(0.26458333,0,0,0.26458333,34.655818,65.962046)" />
    <path
       style="fill:#bedc7f;fill-opacity:1;stroke:#112318;stroke-width:1.88976;stroke-linecap:square;stroke-dasharray:none;stroke-opacity:1;paint-order:markers stroke fill"
       d="m 122.16283,419.31608 c -2.70055,0.18477 -6.79585,-0.55047 -7.99411,2.66426 -1.99875,4.91101 -7.57561,6.86129 -12.40456,7.73471 -4.749932,0.83114 -9.511447,0.34317 -14.230208,-0.41504 -5.811307,-0.41499 -10.826018,3.22913 -15.788474,5.69858 -13.456789,7.84115 -25.668751,18.41538 -33.905951,31.74627 -5.146059,8.58384 -8.259337,19.57601 -4.083411,29.17951 4.324108,9.84955 14.675127,15.52804 24.859033,17.44349 7.379325,1.63005 14.941137,2.16788 22.483623,1.80843 16.520877,-0.0587 32.658428,-5.26574 47.286368,-12.67039 14.31963,-7.46201 27.68428,-17.75197 36.35285,-31.56769 6.24368,-9.96289 8.22961,-23.40841 2.18441,-33.9332 -5.69711,-9.95324 -17.05823,-14.81032 -27.90009,-16.67336 -5.55702,-1.01935 -11.22937,-1.03462 -16.85948,-1.01557 z m 0.6219,19.3545 c 9.36344,0.0759 19.76198,2.31987 26.45287,9.50717 5.07307,5.53951 5.54719,13.8165 2.96438,20.50505 -4.78771,12.53725 -16.05166,21.54536 -27.79783,27.36022 -11.5204,5.88556 -24.559149,8.09876 -37.364698,8.04428 -3.905519,0.27394 -7.847231,-0.42449 -11.386666,-2.20593 -5.627024,-2.32728 -10.51807,-6.41063 -13.656904,-11.63292 -2.64722,-4.74316 -1.329715,-9.96636 -0.02758,-14.93224 3.592071,-10.7541 12.549792,-18.60702 21.803368,-24.53396 11.659611,-7.24821 25.18214,-12.15491 39.01307,-12.11167 z"
       id="path26"
       transform="matrix(0.26458333,0,0,0.26458333,34.655818,65.962046)" />
    <path
       style="fill:#bedc7f;fill-opacity:1;stroke:#112318;stroke-width:1.88977;stroke-linecap:square;stroke-dasharray:none;stroke-opacity:1;paint-order:markers stroke fill"
       d="m 39.464316,50.272982 c -2.634665,0.03642 -5.262496,0.274955 -7.880116,0.563467 -2.470179,0.29872 -4.944781,0.638771 -7.357759,1.259216 -0.695252,0.210156 -1.459193,0.376775 -1.997452,0.898422 -0.459412,0.44316 -0.440113,1.268921 0.07508,1.661197 0.558788,0.425738 1.304499,0.403804 1.972647,0.437338 2.263516,0.0172 4.519984,-0.219964 6.766149,-0.476293 3.0466,-0.37864 6.095591,-0.835084 9.059976,-1.650105 0.58693,-0.191394 1.241354,-0.320387 1.700582,-0.762156 0.456162,-0.44506 0.369216,-1.277408 -0.173067,-1.614575 -0.549658,-0.339113 -1.229168,-0.285085 -1.849154,-0.31544 -0.105626,-0.0011 -0.211258,-0.0014 -0.31689,-0.0011 z"
       id="path27"
       transform="matrix(0.26458333,0,0,0.26458333,34.655818,65.962046)" />
    <path
       style="fill:#bedc7f;fill-opacity:1;stroke:#112318;stroke-width:1.88976;stroke-linecap:square;stroke-dasharray:none;stroke-opacity:1;paint-order:markers stroke fill"
       d="M 2.6839691,41.995588 C 1.9156433,43.543677 2.54612,45.440201 2.3418844,47.127671 2.4543745,57.320139 2.0493362,67.542427 2.8832802,77.71182 c 0.338964,1.942967 0.389686,4.327093 1.942283,5.728879 1.6573979,0.664694 2.2362939,-1.565922 2.4413631,-2.766788 1.0617148,-7.438206 0.891627,-14.988655 1.1762184,-22.4824 C 8.5476412,54.400539 8.5607648,50.603979 8.8202348,46.81935 11.669553,46.394292 14.807215,46.74179 17.401014,45.319154 18.61067,44.375656 17.453324,42.76446 16.228494,42.594226 12.047476,41.422775 7.6309047,41.854235 3.3415708,41.748931 3.1223703,41.83115 2.9031697,41.913369 2.6839691,41.995588 Z"
       id="path28"
       transform="matrix(0.26458333,0,0,0.26458333,34.655818,65.962046)" />
    <path
       style="fill:#bedc7f;fill-opacity:1;stroke:#112318;stroke-width:1.88976;stroke-linecap:square;stroke-dasharray:none;stroke-opacity:1;paint-order:markers stroke fill"
       d="m 19.0745,99.70655 c -2.086864,0.100794 -4.986445,0.49702 -5.705966,2.8136 -0.574065,3.68205 0.475392,7.39503 0.678951,11.07406 0.665678,5.38924 0.917958,10.85722 1.916034,16.20087 0.367153,1.76923 1.861044,3.4116 3.805491,3.06702 1.541624,0.0435 3.443088,-0.47438 3.756567,-2.23117 1.024946,-4.12698 0.447394,-8.51288 1.569062,-12.60965 1.063115,-1.1525 2.867748,-1.00431 4.288139,-1.41153 6.511928,-1.17507 13.162879,-1.48559 19.686641,-2.66552 1.763091,-0.31118 3.117706,-1.91409 2.898234,-3.73956 0.01443,-1.70875 0.336593,-4.23265 -1.505163,-5.13828 -2.534823,-0.41809 -5.018235,0.67597 -7.503753,0.90803 -6.005185,0.88213 -12.009022,1.89747 -18.09005,1.81645 -1.064827,-0.86786 -0.736326,-2.63437 -1.080403,-3.85724 -0.253958,-2.43336 -2.112016,-4.497571 -4.713784,-4.22708 z"
       id="path29"
       transform="matrix(0.26458333,0,0,0.26458333,34.655818,65.962046)" />
    <path
       style="fill:#bedc7f;fill-opacity:1;stroke:#112318;stroke-width:1.88977;stroke-linecap:square;stroke-dasharray:none;stroke-opacity:1;paint-order:markers stroke fill"
       d="m 45.725322,99.87487 c -3.740716,0.19293 -7.45555,0.71992 -11.177354,1.12491 -2.695637,0.36315 -5.446161,0.6904 -7.992453,1.69571 -0.938935,0.35037 -1.951007,1.24759 -1.625352,2.35645 0.350758,1.18431 1.762219,1.39009 2.819943,1.42895 3.766526,-0.0187 7.51079,-0.54735 11.23284,-1.08144 2.778572,-0.46893 5.611444,-0.88801 8.234005,-1.96079 0.82722,-0.27695 1.348773,-1.17456 1.086527,-2.02567 -0.142055,-0.9504 -1.055002,-1.559719 -1.976811,-1.528503 -0.200249,-0.01123 -0.400851,-0.01252 -0.601345,-0.0096 z"
       id="path30"
       transform="matrix(0.26458333,0,0,0.26458333,34.655818,65.962046)" />
    <path
       style="fill:#bedc7f;fill-opacity:1;stroke:#112318;stroke-width:1.88976;stroke-linecap:square;stroke-dasharray:none;stroke-opacity:1;paint-order:markers stroke fill"
       d="m 15.049673,92.022884 c -2.801301,0.163145 -5.6451795,0.365537 -8.3745531,1.012036 -1.2710127,1.412406 -0.2092158,3.627826 -0.4207896,5.359367 0.6716186,9.534393 0.8627559,19.151713 2.5071219,28.582923 0.4797838,1.84755 1.5441768,4.29413 3.6440938,4.57672 2.503448,-0.84454 1.814352,-4.11623 1.653713,-6.13648 -1.016843,-8.50283 -1.693358,-17.06552 -2.280757,-25.593691 3.069401,-0.99859 6.559416,-1.026754 9.351013,-2.722905 1.578932,-1.829972 -0.888603,-3.99563 -2.576151,-4.541775 -1.105414,-0.456515 -2.318645,-0.561273 -3.503691,-0.536195 z"
       id="path31"
       transform="matrix(0.26458333,0,0,0.26458333,34.655818,65.962046)" />
  </g>
</svg>
