<?xml version="1.0" encoding="UTF-8" standalone="no"?>
<!-- Created with Inkscape (http://www.inkscape.org/) -->

<svg
   width="134.75174mm"
   height="150mm"
   viewBox="0 0 134.75174 150"
   version="1.1"
   id="svg1"
   sodipodi:docname="hexley.svg"
   inkscape:version="1.4.3 (0d15f75, 2025-12-25)"
   xmlns:inkscape="http://www.inkscape.org/namespaces/inkscape"
   xmlns:sodipodi="http://sodipodi.sourceforge.net/DTD/sodipodi-0.dtd"
   xmlns="http://www.w3.org/2000/svg"
   xmlns:svg="http://www.w3.org/2000/svg">
  <sodipodi:namedview
     id="namedview1"
     pagecolor="#505050"
     bordercolor="#eeeeee"
     borderopacity="1"
     inkscape:showpageshadow="0"
     inkscape:pageopacity="0"
     inkscape:pagecheckerboard="0"
     inkscape:deskcolor="#d1d1d1"
     inkscape:document-units="mm"
     inkscape:zoom="0.96043081"
     inkscape:cx="358.6932"
     inkscape:cy="223.33728"
     inkscape:window-width="1920"
     inkscape:window-height="994"
     inkscape:window-x="1440"
     inkscape:window-y="30"
     inkscape:window-maximized="0"
     inkscape:current-layer="layer1" />
  <defs
     id="defs1">
    <inkscape:path-effect
       effect="simplify"
       id="path-effect7"
       is_visible="true"
       lpeversion="1.3"
       threshold="4.081633"
       steps="1"
       smooth_angles="360"
       helper_size="0"
       simplify_individual_paths="false"
       simplify_just_coalesce="false" />
  </defs>
  <g
     inkscape:label="Layer 1"
     inkscape:groupmode="layer"
     id="layer1"
     transform="translate(-34.655808,-65.962027)">
    <path
       style="fill:#000000;stroke-width:0.264583"
       d="m 115.95139,215.63284 c -0.78931,-0.46095 -1.06719,-1.76712 -0.67035,-3.15086 0.18081,-0.63042 0.21713,-1.08756 0.0807,-1.01588 -3.4954,1.83685 -6.41428,2.44165 -8.20468,1.70004 -0.58532,-0.24244 -1.16009,-0.74286 -1.27726,-1.11204 -0.16868,-0.53147 -0.55885,-0.67235 -1.8739,-0.67666 -2.05443,-0.007 -2.63623,-0.35393 -2.63623,-1.5733 0,-1.20986 1.50535,-2.79768 3.61407,-3.81208 0.88965,-0.42796 2.30104,-1.20906 3.13644,-1.73578 l 1.51891,-0.95767 -1.68368,-0.94103 -1.68369,-0.94103 -3.20474,0.89822 c -1.76259,0.49403 -5.359442,1.36675 -7.992978,1.93939 -6.710782,1.45921 -7.489691,1.64699 -11.881963,2.86457 -2.961919,0.82107 -4.093726,0.9968 -4.699585,0.72967 -0.916811,-0.40422 -1.055768,-1.61475 -0.307916,-2.68227 0.46853,-0.66879 0.421266,-0.6941 -1.072538,-0.57455 -1.419866,0.11363 -2.659202,-0.35299 -2.542102,-0.95713 0.02473,-0.1276 -0.08817,-0.53967 -0.250819,-0.91572 -0.390299,-0.90223 0.785746,-2.96369 2.274201,-3.98639 0.615229,-0.42272 2.351638,-1.27896 3.858683,-1.90276 1.507045,-0.6238 2.810254,-1.19936 2.896015,-1.27903 0.08576,-0.0796 -0.194456,-0.39026 -0.622719,-0.69023 -1.307723,-0.91596 -1.946127,-2.54993 -1.69945,-4.34966 0.253574,-1.85005 1.493261,-4.17002 4.455452,-8.33802 l 2.104438,-2.96108 -0.590858,-2.09197 c -0.415344,-1.47054 -0.584865,-3.40896 -0.570689,-6.52552 0.02212,-4.85159 0.728538,-7.94756 2.933889,-12.85734 0.591461,-1.31677 0.989491,-2.39413 0.884517,-2.39413 -0.104975,0 -2.133304,0.2561 -4.507402,0.56911 -6.694393,0.88261 -10.396805,0.3357 -17.621591,-2.60304 -2.999692,-1.22016 -3.506458,-1.32848 -4.666205,-0.99751 -0.715569,0.20422 -1.376775,0.4511 -1.469342,0.54864 -0.0926,0.0975 -0.01568,1.85324 0.170919,3.90154 0.309414,3.39696 0.421366,3.79011 1.274062,4.47432 0.927418,0.74415 0.938296,0.80903 1.368168,8.15776 0.238322,4.0742 0.445928,7.40764 0.461341,7.40764 0.01538,0 1.361834,0.0174 2.992042,0.0387 10.671633,0.13937 15.5872,7.40296 10.461252,15.45829 -1.407138,2.2113 -5.416803,5.95475 -7.986412,7.45617 -5.642848,3.29714 -10.892491,4.67403 -17.061861,4.47506 -3.639735,-0.11738 -4.427009,-0.25776 -6.288711,-1.12126 -3.90434,-1.81094 -5.652411,-4.25765 -5.635188,-7.88737 0.02495,-5.25821 5.022734,-11.28479 12.441513,-15.00258 2.107655,-1.05623 2.188992,-1.1465 2.035004,-2.25861 -0.08817,-0.63713 -0.47794,-4.17726 -0.866037,-7.86696 -0.70285,-6.68202 -0.70286,-6.71324 -0.005,-7.89623 0.674487,-1.14318 0.681163,-1.33625 0.178037,-5.15086 -0.287506,-2.17974 -0.522721,-4.01322 -0.522721,-4.07439 0,-0.0611 -0.211598,-0.11123 -0.470209,-0.11123 -1.014164,0 -2.173952,-1.76461 -2.169468,-3.30083 0.003,-1.12746 -0.191791,-1.64386 -0.806105,-2.13386 -0.935903,-0.74651 -1.08775,-2.40607 -0.281373,-3.07531 0.460989,-0.38258 0.415333,-0.57427 -0.354678,-1.48938 -0.486074,-0.57766 -0.883763,-1.28259 -0.883763,-1.56649 0,-1.05523 1.008142,-2.87633 1.987047,-3.58942 l 1.010575,-0.73615 -2.062764,-16.97092 c -1.134522,-9.33401 -2.140482,-17.31001 -2.235463,-17.72446 -0.09501,-0.41445 -0.559448,-0.92975 -1.03213,-1.14513 -0.686503,-0.31279 -0.860529,-0.66074 -0.864862,-1.729254 -0.009,-2.155229 -0.290784,-2.351273 -2.969816,-2.064374 l -2.345036,0.251132 v 1.908302 c 0,1.907374 -6.65e-4,1.908494 -1.368507,2.318314 -1.169889,0.35051 -1.509184,0.31784 -2.3378,-0.22509 -0.533112,-0.34931 -1.096282,-0.96911 -1.251489,-1.37734 -0.215328,-0.566354 -0.795784,-6.874163 -0.883133,-9.59701 -0.0062,-0.195076 0.946271,-0.46179 2.116733,-0.592696 1.914593,-0.214127 2.189597,-0.160749 2.740925,0.532028 0.337047,0.423521 0.616361,1.071394 0.620699,1.439718 0.0072,0.613759 0.206816,0.649298 2.390209,0.425604 1.310277,-0.134244 2.428437,-0.290191 2.4848,-0.346557 0.121332,-0.121334 -0.607196,-7.424934 -0.755424,-7.573158 -0.05594,-0.05594 -0.964052,0.02166 -2.01803,0.17244 l -1.916325,0.274145 -0.105585,1.619802 -0.105585,1.619804 -2.245432,0.44632 c -3.818219,0.758941 -4.028096,0.392994 -4.151859,-7.239267 l -0.07477,-4.610909 2.180965,-0.105391 c 2.584893,-0.12491 3.528284,0.288435 3.68065,1.612667 0.104083,0.904587 0.215405,0.967604 1.530985,0.866644 2.804711,-0.215237 2.783958,-0.189768 2.536829,-3.113307 l -0.220746,-2.611427 1.324762,-1.388854 c 2.626828,-2.753927 7.811924,-2.947944 9.159139,-0.342719 0.738291,1.427685 2.897976,27.801856 2.348632,28.681503 -0.249542,0.39957 -0.268233,1.46385 -0.0565,3.21838 0.337807,2.7994 3.167967,32.10981 3.18333,32.968 0.005,0.28106 0.809453,1.05395 1.787604,1.71755 0.978151,0.66361 2.098174,1.65556 2.488936,2.20434 0.987018,1.38614 2.577542,1.72778 8.054629,1.73007 l 4.714585,0.002 6.81269,-2.27252 c 3.746981,-1.24988 7.969852,-2.54833 9.384159,-2.88544 2.376192,-0.56636 2.572066,-0.68334 2.579264,-1.54034 0.004,-0.51008 0.3235,-1.62319 0.709365,-2.47357 0.459482,-1.01259 0.698949,-2.29777 0.693943,-3.7242 l -0.008,-2.17806 -2.281952,-1.85213 c -1.255083,-1.01868 -3.047242,-2.87013 -3.982572,-4.11436 -1.254819,-1.66919 -2.468466,-2.74829 -4.6298,-4.11646 -4.18555,-2.64958 -5.778779,-5.09164 -4.674289,-7.16462 1.197682,-2.24787 3.225256,-2.34555 5.48328,-0.26417 0.986415,0.90924 1.588161,1.26397 1.588161,0.93621 0,-0.29024 0.399026,-1.1157 0.886719,-1.83436 1.100006,-1.62096 1.099292,-1.69308 -0.01267,-1.27033 -0.688553,0.26179 -0.945334,0.22214 -1.095481,-0.16913 -0.107871,-0.28109 -0.08295,-0.6942 0.0554,-0.91802 0.397739,-0.64354 4.227315,-2.33492 6.832076,-3.01747 1.308146,-0.34278 2.518012,-0.74554 2.68859,-0.89505 0.170577,-0.14948 0.679896,-1.83977 1.131817,-3.756191 0.802032,-3.401119 0.805902,-3.501361 0.161609,-4.194362 -1.265154,-1.360803 -3.529904,-6.058009 -4.106998,-8.518113 -1.028002,-4.382263 0.01277,-8.759811 2.541157,-10.688308 0.651081,-0.496607 2.425224,-1.317154 3.942554,-1.823439 2.41155,-0.804669 3.36735,-0.923078 7.59465,-0.940871 l 4.8359,-0.02024 0.82097,-1.547561 c 1.25945,-2.374067 3.78415,-5.014118 4.79503,-5.014118 1.19073,0 1.80643,0.844638 3.66737,5.031034 l 1.61703,3.637699 5.908,-0.110089 c 3.67578,-0.0685 6.69093,0.05178 7.98019,0.318328 4.80577,0.993568 11.02839,5.240793 15.05543,10.276035 1.97148,2.465039 4.76443,7.809869 5.14717,9.850045 l 0.23267,1.240269 2.56242,-0.193794 c 1.44216,-0.109071 3.3498,-0.532523 4.36347,-0.968592 0.99058,-0.426138 1.95655,-0.6787 2.14658,-0.561252 0.59275,0.366336 0.80203,2.784012 0.4173,4.820737 -0.79942,4.232193 -4.2483,9.236963 -7.58525,11.007213 -1.47194,0.78086 -1.60952,0.97791 -1.97315,2.82624 -0.51405,2.61284 -2.47853,6.66246 -4.10571,8.46356 -1.66774,1.84599 -4.48482,3.61394 -10.79723,6.77617 l -5.06396,2.5368 0.23929,2.01795 c 0.46411,3.91385 1.95076,8.15921 3.96946,11.33532 0.65334,1.02794 1.1879,2.09798 1.1879,2.37788 0,0.76904 -3.00645,2.90548 -5.03842,3.58039 -2.20562,0.73259 -5.64872,0.54005 -7.58799,-0.42435 -0.99263,-0.49362 -1.45603,-1.02186 -1.80691,-2.05976 -0.52173,-1.5433 -1.16508,-7.92882 -1.1698,-11.61087 l -0.003,-2.36619 -3.90146,1.0236 c -4.01616,1.05367 -5.04789,1.4568 -6.1184,2.39059 -1.22064,1.06472 -0.757,1.92386 2.2243,4.12174 3.73985,2.7571 10.02859,9.28427 12.3509,12.81919 1.82656,2.78032 3.24773,6.40909 3.24773,8.29269 0,3.46594 -3.1996,7.53107 -7.00503,8.89996 -1.21923,0.43858 -2.21678,0.85344 -2.21678,0.92191 0,0.0685 0.47352,0.89407 1.05228,1.83466 3.58896,5.83279 4.08677,10.45414 1.72302,15.99501 -0.68109,1.59655 -0.64033,2.21773 0.21969,3.3483 0.47026,0.61819 0.6934,0.57314 4.78751,-0.96666 7.64829,-2.87652 10.63402,-3.57091 15.27204,-3.55179 6.02435,0.0248 9.89385,1.19665 10.66703,3.2303 1.19016,3.13031 -4.58909,7.84257 -11.87768,9.68477 -5.8859,1.48767 -14.38162,1.55781 -19.76697,0.16319 -1.1011,-0.28514 -2.09559,-0.51844 -2.21001,-0.51844 -0.11442,0 -0.11483,0.67998 -7.9e-4,1.51108 0.28015,2.04397 -0.30052,3.98334 -1.96267,6.555 -1.97564,3.05671 -3.88662,5.06627 -5.52908,5.81429 -1.54322,0.70284 -3.56222,0.83831 -4.48264,0.30078 z m 4.98066,-1.56835 c 2.71296,-1.71262 4.20308,-5.34053 2.66096,-6.47846 -0.871,-0.64271 -2.64336,-0.32713 -4.40371,0.78412 -2.4738,1.56165 -4.03809,5.41112 -2.62318,6.45521 0.86446,0.63789 2.64045,0.32837 4.36593,-0.76087 z m -7.94641,-2.45746 c 2.25881,-1.06096 3.10102,-2.00115 2.95274,-3.29628 -0.10409,-0.90927 -0.26129,-1.01732 -1.62336,-1.11585 -2.57877,-0.18655 -7.97817,3.23443 -7.41624,4.69883 0.34417,0.89689 3.92617,0.72818 6.08686,-0.2867 z m -7.62573,-1.29962 c 1.52946,-0.44617 4.81589,-3.27152 4.46529,-3.8388 -0.74192,-1.20044 -5.99247,0.47523 -7.18315,2.29244 -1.09915,1.6775 0.0422,2.3269 2.71786,1.54636 z m 21.57204,-5.73144 c 0.15917,-2.20053 -0.43785,-4.3306 -1.6566,-5.9104 l -0.64443,-0.83535 -1.47775,0.75388 c -0.81275,0.41464 -1.47774,0.6104 -1.47774,0.43503 0,-0.17537 0.51067,-0.53039 1.13482,-0.78892 2.10438,-0.87166 5.47477,-4.59026 6.92332,-7.6386 1.20851,-2.54319 1.33985,-3.11521 1.45619,-6.34216 0.16334,-4.53025 -0.30956,-5.83867 -4.42269,-12.23664 -3.93226,-6.11662 -4.98002,-8.02876 -5.27284,-9.62289 -0.17944,-0.97679 -0.62268,-1.57636 -1.83545,-2.4828 -1.68412,-1.25871 -4.32655,-4.52628 -5.4651,-6.75803 -0.799,-1.56618 -0.81766,-1.70803 -0.22464,-1.70803 0.24825,0 0.76698,0.59409 1.15273,1.32021 1.66173,3.128 6.87489,7.67758 12.13959,10.59436 1.02396,0.56729 1.86191,1.15115 1.8621,1.29745 8e-4,0.59793 -1.38547,0.17731 -3.85859,-1.17073 -1.43966,-0.78473 -2.68598,-1.35837 -2.76959,-1.27475 -0.289,0.28901 0.95843,2.80363 2.94649,5.93968 1.84172,2.9052 2.06739,3.13087 2.92747,2.9275 1.86192,-0.44024 4.64456,-1.96065 5.54342,-3.02889 3.54397,-4.21176 3.0242,-8.61737 -1.79164,-15.18609 -3.93122,-5.36212 -12.58403,-12.90658 -14.73259,-12.8455 -0.67425,0.0192 -1.03328,-0.14724 -1.03328,-0.47892 0,-0.30574 0.35338,-0.50831 0.88672,-0.50831 0.74389,0 0.88671,-0.16723 0.88671,-1.03831 0,-0.69906 0.30513,-1.27832 0.93386,-1.77289 0.97012,-0.76309 4.86863,-2.10518 8.3503,-2.87464 l 2.01311,-0.44491 0.18867,-1.6342 c 0.10378,-0.89881 0.28713,-2.75146 0.40746,-4.11701 0.23484,-2.66495 1.48429,-9.22311 3.54765,-18.62097 1.38421,-6.30456 1.68762,-10.480071 0.94475,-13.001266 -1.07224,-3.639095 -5.32654,-8.138223 -10.48743,-11.090982 l -1.97271,-1.128667 -3.5904,0.395079 c -3.70839,0.408062 -7.47093,1.382411 -8.64035,2.237506 -0.58319,0.426445 -0.61674,0.639973 -0.26096,1.660588 0.50247,1.441401 0.53188,3.193475 0.0536,3.193475 -0.19507,0 -0.35468,-0.565886 -0.35468,-1.257523 0,-0.852971 -0.27269,-1.530199 -0.84762,-2.105129 -1.92809,-1.928095 -4.67736,0.443954 -6.42796,5.545989 l -0.5287,1.540859 0.68223,-0.876798 c 0.37522,-0.482238 0.61224,-0.990045 0.52669,-1.128458 -0.19189,-0.310494 1.26488,-1.364255 1.88602,-1.364255 0.24921,0 0.77233,0.319217 1.16248,0.709371 0.57903,0.579019 0.70929,1.181892 0.70892,3.280839 -5.4e-4,2.797634 -1.29252,8.771512 -2.50834,11.597762 -0.88667,2.06113 -2.38682,3.53639 -2.85106,2.80378 -0.16734,-0.26408 -0.3067,-0.66743 -0.30968,-0.89633 -0.003,-0.22891 -0.56406,-1.14803 -1.246831,-2.04252 -1.385421,-1.81499 -1.4781,-2.04343 -0.709375,-1.74844 0.363123,0.13934 0.532031,-0.02 0.532031,-0.50195 0,-0.68478 -0.07722,-0.6914 -2.556891,-0.21893 -3.782144,0.72066 -6.121324,1.46674 -7.066075,2.25373 -0.977286,0.81407 -0.531036,0.92713 0.755825,0.19149 0.487702,-0.27878 1.259403,-0.51254 1.714902,-0.51945 0.778015,-0.0119 0.7418,0.0856 -0.597764,1.6074 -1.53572,1.74467 -2.163054,3.50749 -1.487078,4.17872 0.711215,0.70624 5.297091,0.34359 8.516757,-0.6735 4.814729,-1.52097 5.769289,-1.13268 10.987099,4.4693 2.0378,2.18784 4.21784,4.19212 4.84451,4.45397 0.62668,0.26184 3.02011,0.81278 5.31875,1.22432 2.29865,0.41155 4.79015,0.99265 5.53668,1.29136 2.69616,1.07878 3.50912,3.49158 1.96007,5.81725 -0.92201,1.38426 -4.14019,3.60686 -9.48315,6.54942 -3.69735,2.03627 -5.58362,3.26061 -9.10386,5.90915 -1.00805,0.75842 -2.41929,1.54088 -3.1361,1.73881 -1.13712,0.31397 -1.55857,0.23223 -3.30573,-0.64121 -1.10134,-0.55058 -2.11216,-1.05027 -2.24624,-1.11041 -0.420059,-0.18844 -5.163211,7.29589 -7.382839,11.64954 -2.556801,5.015 -3.990873,8.65703 -5.011372,12.72709 -1.409289,5.62068 -0.445506,12.35144 2.618272,18.28525 2.156608,4.17684 6.738654,8.6772 11.131349,10.93289 1.78667,0.91748 3.46256,1.66403 3.72419,1.659 0.26163,-0.005 0.77624,-0.66038 1.14356,-1.45634 0.36734,-0.79595 1.59243,-2.58744 2.72243,-3.98106 2.62331,-3.2353 9.10267,-9.66682 9.41952,-9.34997 0.1328,0.1328 -1.46122,2.00382 -3.54225,4.15781 -5.85992,6.0654 -8.72408,10.34678 -8.73208,13.05283 -0.004,1.50099 1.5499,2.97987 4.25072,4.04439 1.60086,0.63099 2.70392,0.77235 6.12037,0.78436 2.29214,0.008 4.16755,0.12471 4.16755,0.25921 0,0.42724 -4.55493,0.75142 -7.38277,0.52542 -2.05909,-0.16456 -2.94264,-0.0916 -3.61248,0.29833 -0.48769,0.28388 -0.6872,0.52182 -0.44336,0.52873 0.24385,0.007 0.75756,0.32677 1.14158,0.71079 0.69451,0.69451 0.70811,0.69364 2.55651,-0.16274 1.90799,-0.88398 2.77813,-0.86967 1.55385,0.0255 -0.66216,0.48419 -0.65514,0.50304 0.18765,0.50304 1.16398,0 2.45217,0.93809 2.45217,1.78572 0,0.6225 0.13895,0.59332 1.6063,-0.33724 2.92807,-1.85693 5.53184,-1.72427 6.30392,0.32118 l 0.39763,1.05343 0.70438,-1.11251 c 0.42026,-0.66376 0.76522,-1.95341 0.85519,-3.19721 z M 114.7162,119.36454 c -2.33419,-1.01591 -4.03601,-4.53233 -4.03601,-8.33945 0,-5.19274 2.81224,-10.61509 6.54915,-12.627539 0.70199,-0.378051 1.25393,-0.94905 1.25393,-1.297243 0,-1.382757 5.10532,-1.34195 7.06927,0.0565 1.49018,1.061099 2.75359,3.778152 3.04478,6.548022 0.4106,3.90563 -1.21093,9.27903 -3.77012,12.49329 l -1.09117,1.37049 2.13849,0.2099 c 1.17616,0.11545 2.56187,0.48732 3.07935,0.82638 1.13344,0.74266 0.92991,1.16596 -0.24302,0.50546 -1.15489,-0.65034 -6.66799,-0.54545 -9.45819,0.17995 -2.67537,0.69554 -3.09321,0.70238 -4.53646,0.0742 z m 4.57047,-0.77268 c 1.21628,-0.31505 2.43484,-0.63844 2.70791,-0.71862 0.38174,-0.11211 0.3183,-0.33547 -0.27449,-0.96646 -2.11116,-2.24723 -1.52777,-6.53342 1.07225,-7.87795 1.06358,-0.55 2.64721,-0.55042 3.90531,-0.001 0.81034,0.35384 1.12036,-0.76405 1.10271,-3.97615 -0.0413,-7.520888 -6.22262,-9.824874 -12.10385,-4.51153 -1.64551,1.48661 -3.04559,3.99976 -3.76325,6.75505 -1.11289,4.27266 -0.39352,8.11821 1.95864,10.47036 1.58678,1.58677 2.13499,1.67075 5.39477,0.82636 z m 4.64735,-6.91627 c 0.63559,-0.90743 0.39033,-1.73271 -0.51493,-1.73271 -0.75871,0 -1.91971,1.55629 -1.57595,2.11251 0.38452,0.62218 1.5355,0.41311 2.09088,-0.3798 z m 7.69452,-5.75394 c -0.17337,-0.45599 -0.49676,-2.41119 -0.71866,-4.3449 -0.82402,-7.180839 -1.9452,-9.013452 -5.51437,-9.013452 -1.04526,0 -2.30423,0.153512 -2.79772,0.341134 -0.575,0.218618 -0.97311,0.218378 -1.10849,-5.32e-4 -0.46319,-0.749463 3.91519,-1.769089 5.86109,-1.364921 1.57815,0.327785 3.34633,2.32002 3.8341,4.319945 0.20025,0.821018 0.47749,3.248451 0.6161,5.394296 0.1386,2.14585 0.38712,4.26066 0.55227,4.69959 0.18652,0.49574 0.16591,0.79804 -0.0544,0.79804 -0.19508,0 -0.49654,-0.37309 -0.6699,-0.82907 z M 82.753249,206.39348 c 4.374909,-1.11701 5.581759,-1.94769 5.581759,-3.84194 0,-1.86943 -3.263431,-1.6714 -6.49489,0.39411 -1.510494,0.9655 -3.436301,3.15602 -3.436301,3.90865 0,0.45178 1.324946,0.3114 4.349432,-0.46082 z m 12.16783,-3.00152 c 7.845421,-1.68723 10.557031,-2.53938 10.290521,-3.2339 -0.1135,-0.2958 -0.20697,-1.1233 -0.20771,-1.83888 -0.001,-1.22129 -0.10453,-1.34202 -1.68475,-1.9692 -5.892442,-2.33867 -10.982611,-7.04502 -14.104752,-13.04117 l -1.483861,-2.84978 -2.169678,3.51062 c -2.57509,4.16658 -3.255489,5.69527 -3.255489,7.31428 0,1.6655 0.978975,2.7551 3.813821,4.24477 3.633411,1.9093 7.405689,2.84474 11.526313,2.85826 3.667126,0.0121 4.528376,0.37798 1.8388,0.78131 -3.485616,0.5227 -10.37653,-0.66663 -13.707112,-2.36576 -1.209646,-0.61712 -1.573854,-0.66183 -2.446518,-0.30037 -1.317153,0.54559 -1.303239,1.24076 0.03871,1.93472 0.585227,0.30264 1.064052,0.72571 1.064052,0.94016 0,0.38385 1.257031,0.26462 2.57147,-0.2439 0.913171,-0.35328 0.75682,0.37109 -0.177344,0.82162 -0.783685,0.37795 -0.780498,0.38531 0.177344,0.40889 1.850874,0.0455 2.915671,1.93362 2.026961,3.59417 -0.201936,0.37733 -0.269258,0.68606 -0.149584,0.68606 0.119663,0 2.837108,-0.56336 6.038767,-1.2519 z m -16.48152,0.12954 c 1.767738,-0.60552 5.107198,-2.89297 5.107198,-3.4983 0,-0.92637 -2.201903,-0.83353 -4.273906,0.18021 -1.766581,0.86431 -3.706514,2.6457 -3.706514,3.4036 0,0.45246 1.426663,0.41 2.873222,-0.0856 z m -17.795848,-1.17766 c 5.940851,-1.2497 11.624136,-4.30655 15.373983,-8.26916 2.617839,-2.76637 3.79678,-5.2404 3.801405,-7.97727 0.009,-5.29958 -4.440713,-8.40964 -12.031929,-8.40964 -2.082329,0 -2.44879,0.0949 -2.600034,0.67325 -0.417877,1.59798 -3.619134,2.67094 -6.397084,2.14412 -1.652226,-0.31334 -1.892287,-0.25346 -4.571214,1.14027 -1.814509,0.94402 -3.829707,2.41387 -5.625214,4.10296 -6.507338,6.12163 -7.049822,12.51185 -1.320481,15.55465 2.903555,1.54207 8.80417,2.00139 13.370568,1.04082 z m -4.942049,-2.26486 c -2.714549,-0.89518 -4.710584,-2.69893 -5.13748,-4.64254 -0.137952,-0.62809 7.95e-4,-1.87529 0.337475,-3.03339 1.593611,-5.48183 10.885474,-10.68537 17.733071,-9.9307 11.082141,1.22135 8.769182,12.49277 -3.43806,16.75426 -2.730807,0.9533 -7.807068,1.409 -9.495006,0.85237 z m 8.692087,-2.23687 c 5.56692,-1.83109 9.753848,-5.88368 9.753848,-9.44092 0,-2.77374 -2.481355,-4.32299 -6.930513,-4.32711 -7.197268,-0.007 -15.059985,5.40795 -15.059985,10.37093 0,3.89363 5.817236,5.50859 12.23665,3.3971 z m 80.700221,3.94643 c 5.80675,-0.71971 9.87365,-2.1997 13.22856,-4.814 2.53066,-1.972 3.38505,-4.03192 2.17445,-5.24252 -0.75345,-0.75345 -3.60349,-1.55329 -7.06962,-1.984 -2.28959,-0.28452 -3.55488,-0.24658 -6.00077,0.17996 -3.03028,0.52843 -10.04278,2.69715 -13.45165,4.16013 l -1.71055,0.73411 1.00119,0.82607 c 1.24782,1.02956 4.01402,1.90186 6.03115,1.90186 0.84244,0 1.53171,0.14982 1.53171,0.33295 0,0.56654 -2.92327,0.80019 -4.77683,0.38182 -2.20846,-0.49849 -3.61421,-1.36033 -5.42753,-3.32756 l -1.42324,-1.54404 -1.8493,1.91584 -1.84929,1.91584 0.90599,1.36903 c 0.73724,1.11406 1.32426,1.50823 3.15177,2.1164 4.1648,1.38595 9.86076,1.78128 15.53396,1.07811 z m 7.43909,-4.34448 c 0,-0.25342 0.58329,-0.67169 1.2962,-0.92949 0.7129,-0.25779 1.98977,-1.18235 2.83748,-2.05457 0.8477,-0.87223 1.54128,-1.47035 1.54128,-1.32916 0,0.78311 -1.74413,2.86787 -3.13978,3.75296 -1.74682,1.10779 -2.53518,1.28202 -2.53518,0.56026 z m -72.956697,1.50322 c 2.209704,-1.04739 2.222433,-1.78778 0.01488,-0.86541 -1.697037,0.70907 -3.544724,2.1179 -4.073548,3.10601 -0.35149,0.65677 -0.233586,0.62013 0.793277,-0.24654 0.663377,-0.55989 2.1328,-1.45721 3.265391,-1.99406 z m -16.42401,-19.75265 c 1.436838,-0.71778 1.356797,0.0402 0.935039,-8.85482 l -0.306358,-6.46126 -1.06362,0.55003 c -1.420821,0.73472 -4.557089,1.02903 -5.916369,0.55518 -1.333663,-0.46492 -1.31077,-0.71287 -0.572228,6.19717 0.841426,7.87276 0.8534,7.93049 1.716753,8.27839 1.296573,0.5225 3.895471,0.39038 5.206783,-0.26469 z m -1.715999,-15.29626 c 0.129125,-0.12137 -0.14698,-4.37048 -0.61358,-9.44249 -0.466589,-5.07199 -0.851559,-9.42133 -0.855471,-9.66517 -0.004,-0.26881 -0.28638,-0.16409 -0.716493,0.26601 -0.390158,0.39016 -0.948783,0.70938 -1.241396,0.70938 -0.292614,0 -0.532032,0.16066 -0.532032,0.35703 0,0.19636 -0.40171,0.70631 -0.892681,1.13321 l -0.892691,0.77619 1.470378,1.49819 c 1.21592,1.23895 1.430142,1.65848 1.237908,2.4244 -0.165188,0.65817 -0.532705,0.98625 -1.27,1.13371 -0.891223,0.17824 -1.014195,0.3393 -0.87198,1.14197 0.09109,0.51395 0.401972,2.91976 0.690926,5.34624 0.313586,2.63334 0.70465,4.52325 0.970117,4.68833 0.465976,0.28977 3.111997,0.0137 3.516995,-0.367 z m 27.33664,-9.28384 2.034069,-0.43177 1.979828,-3.74066 c 1.088906,-2.05737 3.015189,-5.25699 4.280625,-7.11024 l 2.300804,-3.36958 -1.387472,-1.38747 -1.387482,-1.38748 -4.040514,1.08244 c -2.222271,0.59534 -6.434626,1.90786 -9.360783,2.91671 l -5.320283,1.83426 -4.965596,0.0426 c -6.456152,0.0554 -7.113859,-0.10481 -9.390111,-2.28726 -2.778372,-2.66388 -3.341249,-2.97705 -4.059643,-2.25866 -1.045282,1.0453 -1.979054,3.28728 -1.979054,4.75174 0,2.12633 1.109025,1.97824 2.550467,-0.34055 1.175261,-1.89061 1.540415,-2.21937 1.170495,-1.05386 -0.125615,0.39576 -0.117773,1.75244 0.01739,3.01482 0.228338,2.13223 0.307503,2.29526 1.114514,2.29526 0.477789,0 1.195901,-0.17511 1.595802,-0.38912 0.573997,-0.30721 0.69361,-0.28854 0.568085,0.0887 -0.08747,0.26279 -0.784257,0.71721 -1.548457,1.00982 -1.373397,0.52589 -1.388196,0.55149 -1.281342,2.21679 0.05942,0.92662 0.200559,1.68476 0.313547,1.68476 0.112977,0 0.803652,-0.17924 1.534824,-0.39831 1.217297,-0.36471 1.635687,-0.27269 4.961654,1.09115 6.131627,2.51434 7.976801,2.88542 13.476277,2.71023 2.633544,-0.0838 5.703585,-0.34684 6.822322,-0.58429 z m -31.621283,-2.4641 c 0.800686,0 0.206279,-1.46551 -0.99654,-2.45697 -1.647963,-1.3584 -2.934009,-1.46016 -2.934009,-0.23218 0,0.47174 0.103688,1.12792 0.230419,1.45818 0.268544,0.69981 2.213585,1.63502 2.902088,1.39538 0.259797,-0.0904 0.618919,-0.16441 0.798042,-0.16441 z m 83.939819,-3.55708 c 3.16107,-1.57959 3.20419,-1.68663 1.73903,-4.3159 -0.68517,-1.22955 -1.68924,-3.51242 -2.23126,-5.07303 -0.89807,-2.5857 -0.98671,-3.29385 -0.99889,-7.98042 -0.009,-3.55326 0.12514,-5.36221 0.43473,-5.85231 0.37715,-0.59706 0.41177,-0.35616 0.21862,1.52141 l -0.22948,2.23076 1.02278,-0.45734 c 2.44187,-1.09191 9.00164,-4.7412 10.95397,-6.09385 2.5028,-1.73403 4.42469,-4.3962 5.47436,-7.58297 1.0822,-3.2855 1.01867,-3.62808 -0.67281,-3.62808 -2.98346,0 -6.51491,-2.04374 -7.77382,-4.49892 -0.51409,-1.00261 -0.51048,-4.27884 0.006,-5.8227 0.89565,-2.675118 2.78371,-4.413434 5.55896,-5.118097 1.62157,-0.411736 1.62851,-0.419848 0.76307,-0.892245 -0.48038,-0.262206 -1.51184,-0.59857 -2.29214,-0.747476 -1.22047,-0.232903 -1.15307,-0.249704 0.48221,-0.120209 1.04552,0.08279 2.46221,0.481685 3.1482,0.886427 0.68598,0.404741 1.30734,0.675791 1.38081,0.602334 0.0735,-0.07345 -0.16499,-1.00128 -0.52987,-2.061827 -2.15855,-6.273976 -6.80448,-11.767358 -13.25407,-15.671746 -3.66503,-2.218695 -5.28024,-2.557278 -12.15371,-2.547675 -3.3163,0.0046 -6.63391,0.132649 -7.37248,0.28448 l -1.34283,0.276056 2.22955,1.470469 c 2.95253,1.947307 8.85906,7.926406 11.19062,11.328112 2.26594,3.306 4.81381,8.505632 4.60307,9.393906 -0.14286,0.602226 -0.17305,0.597896 -0.42924,-0.06159 -4.34407,-11.18226 -14.69268,-21.198528 -24.50536,-23.718362 -5.8307,-1.497288 -13.61006,-0.749679 -17.243821,1.65716 -3.856913,2.55464 -3.927191,9.729953 -0.160091,16.343354 1.266372,2.223185 1.308512,2.224092 1.993032,0.04288 1.13437,-3.614675 3.67981,-6.561678 5.66755,-6.561678 0.40402,0 1.3299,-0.39396 2.05751,-0.875465 1.5969,-1.056783 4.756,-2.179967 7.0721,-2.514408 2.84074,-0.410199 2.81648,-0.692679 -0.13706,-1.596359 -4.08488,-1.249828 -9.00387,-1.206569 -12.15751,0.106919 -2.1239,0.884601 -3.33957,1.025531 -2.13504,0.24751 1.52696,-0.986276 5.28422,-1.833042 8.06035,-1.816544 9.27338,0.05511 21.4116,6.903674 24.94045,14.071783 1.99993,4.062448 1.868,6.940921 -0.90709,19.789511 -2.01792,9.34299 -2.6292,13.60756 -2.89544,20.19998 -0.2155,5.33591 0.17854,11.0922 0.94532,13.80986 0.30736,1.08935 0.61407,1.39084 1.86586,1.83411 2.55868,0.90603 5.1573,0.73952 7.61343,-0.48782 z m -84.944221,-2.14639 c 0.738964,-0.90414 0.775782,-1.39725 0.166556,-2.23044 -0.382859,-0.52357 -0.729333,-0.57495 -2.206869,-0.32725 -1.396129,0.23407 -1.862969,0.49533 -2.294661,1.28419 -0.514437,0.94007 -0.497355,1.02693 0.33657,1.71155 1.09514,0.89904 3.083665,0.68119 3.998404,-0.43805 z m -0.08868,-4.22772 c 0.390158,-0.39016 0.709375,-0.85992 0.709375,-1.04394 0,-0.57747 -1.533618,-1.43885 -2.561717,-1.43885 -0.748686,0 -0.985138,-0.17028 -0.985138,-0.70938 0,-0.90817 -0.289256,-0.89449 -1.30721,0.0618 -1.009429,0.9483 -1.123553,2.91881 -0.200207,3.45661 1.098608,0.63988 3.563867,0.45475 4.344897,-0.32628 z m 50.678951,-1.08911 c 0.66018,-0.40249 2.50438,-1.71866 4.09824,-2.92483 1.59385,-1.20618 4.90178,-3.29309 7.35094,-4.63758 6.63211,-3.64074 8.30689,-4.98509 8.96568,-7.19678 0.16689,-0.56025 -0.0434,-1.07689 -0.76111,-1.86973 -1.02772,-1.13533 -2.26158,-1.51733 -9.85885,-3.05224 l -2.83748,-0.57328 -4.53262,-4.56557 c -5.60443,-5.64516 -5.57059,-5.63355 -11.428222,-3.92274 -1.365544,0.39883 -3.31104,0.84991 -4.323344,1.00242 l -1.840539,0.27728 2.642823,2.98103 c 1.453551,1.63957 2.555417,3.06843 2.448602,3.17525 -0.106824,0.10682 -2.624437,-2.2322 -5.594702,-5.19782 -5.715116,-5.7062 -6.514898,-6.1855 -7.853386,-4.70648 -0.884849,0.97775 -0.450583,2.4834 1.146918,3.97656 2.040524,1.90723 2.884473,2.38179 1.370853,0.77083 -0.933521,-0.99355 -1.229392,-1.5319 -0.940156,-1.71065 0.58765,-0.36319 4.192849,3.25612 6.747297,6.77369 3.25761,4.48588 7.465443,7.81907 11.492426,9.10364 2.75703,0.87945 8.57172,0.93909 12.02211,0.12329 2.00458,-0.47396 7.46132,-2.47243 8.01746,-2.93633 0.36091,-0.30103 -0.7504,-0.94793 -1.96863,-1.14594 -1.5307,-0.24881 -2.08803,-1.09854 -0.72052,-1.09854 2.32262,0 4.48622,1.82106 4.48622,3.77598 0,1.42747 -0.6153,1.59765 -0.77448,0.21423 -0.0617,-0.53646 -0.30746,-0.97539 -0.54606,-0.97539 -0.46672,0 -7.23513,5.24097 -11.23653,8.70076 -5.43191,4.69666 -9.3119,5.08109 -12.463579,1.23488 -1.432193,-1.74779 -1.449928,-1.89731 -0.516518,-4.35315 0.903807,-2.37793 0.903757,-3.50264 -1.81e-4,-3.9864 -0.654751,-0.35042 -0.709375,-0.26974 -0.709375,1.04776 0,0.78509 -0.319136,2.26708 -0.709184,3.29333 -1.027034,2.70214 -0.924201,3.26147 0.975205,5.30467 3.530732,3.79802 5.456042,4.55774 7.850692,3.09785 z m -1.26581,-20.21365 c -1.54866,-0.58567 -1.79817,-2.46115 -0.32743,-2.46115 0.9479,0 2.27568,0.89559 1.89385,1.27742 -0.14925,0.14925 -0.46023,0.0824 -0.69107,-0.14834 -0.23085,-0.23084 -0.64675,-0.41972 -0.92423,-0.41972 -0.40825,0 -0.42028,0.10153 -0.0629,0.53203 0.24284,0.29262 0.66141,0.53204 0.93014,0.53204 0.51844,0 0.66989,0.56075 0.22259,0.82413 -0.14631,0.0862 -0.6147,0.0247 -1.04087,-0.13641 z m -47.172993,17.7049 0.998741,-1.44282 -1.625743,-16.72134 c -0.894159,-9.19673 -1.712792,-17.14844 -1.819194,-17.67045 -0.179214,-0.87927 -0.270042,-0.92243 -1.233976,-0.58639 -0.572288,0.1995 -1.839172,0.30738 -2.815291,0.23975 -0.97612,-0.0677 -1.774665,-0.005 -1.774544,0.14007 2.01e-4,0.23598 3.596874,29.94826 4.191663,34.62748 0.225513,1.77415 0.32727,1.93546 1.483519,2.35181 0.682772,0.24585 1.321205,0.45999 1.41874,0.47587 0.09752,0.0159 0.626781,-0.62042 1.176085,-1.41398 z m 49.292043,-0.70468 c 3.88861,-1.96786 4.31878,-2.95055 1.93664,-4.4241 -0.82908,-0.51287 -2.06604,-1.44642 -2.74881,-2.07458 -0.7912,-0.7279 -1.88455,-1.28274 -3.01483,-1.52989 -0.97538,-0.21328 -2.05274,-0.49586 -2.39412,-0.62796 -0.47012,-0.18191 -0.6207,-0.0598 -0.6207,0.50333 0,0.40893 -0.31914,1.58317 -0.7092,2.60942 -0.39005,1.02625 -0.709266,2.06495 -0.709367,2.30824 -2.51e-4,0.60575 2.470547,3.29432 3.358167,3.65415 1.30194,0.52781 3.38325,0.35009 4.90222,-0.41861 z m 10.63609,-8.25725 c 0.73684,-0.55944 1.28129,-1.0756 1.20987,-1.14701 -0.0714,-0.0714 -1.73555,0.29097 -3.69809,0.80531 -3.83786,1.00581 -4.34914,1.43694 -4.34914,3.66735 0,2.23796 0.28322,2.22848 2.95832,-0.099 1.39663,-1.21517 3.14218,-2.66712 3.87904,-3.22657 z m 42.64232,-20.19517 c 2.1584,-1.00511 4.96912,-3.98688 6.2561,-6.6368 1.10921,-2.28389 1.84713,-5.568205 1.53263,-6.821312 l -0.22428,-0.893551 -1.65464,0.764782 c -1.45697,0.673411 -2.29028,0.766272 -6.97494,0.777247 -5.68877,0.01333 -6.57787,0.229204 -8.22951,1.998114 -1.7893,1.91636 -2.4623,5.94119 -1.35234,8.0876 1.58214,3.05953 6.96758,4.43735 10.64698,2.72392 z m -58.90375,-6.15162 c 0.52315,-0.44999 1.31669,-0.81817 1.76341,-0.81817 0.72263,0 0.87695,-0.29456 1.39897,-2.670223 1.00553,-4.576127 0.58867,-7.745923 -0.94144,-7.158764 -0.87065,0.334098 -2.32085,2.746127 -3.27246,5.442888 -0.86582,2.453599 -1.145099,6.036509 -0.61836,7.932949 0.22383,0.80588 0.26782,0.75922 0.48249,-0.5119 0.14773,-0.87472 0.59249,-1.70507 1.18739,-2.21678 z m 0.75239,1.49868 c 0.63083,-1.5098 0.63319,-1.60749 0.0388,-1.60749 -0.49648,0 -1.29833,1.43416 -1.29833,2.32215 0,0.94859 0.73998,0.52872 1.2595,-0.71466 z M 40.878146,99.050754 c 0.105276,-2.004149 0.119149,-2.027495 1.347769,-2.267857 0.68277,-0.133577 2.318756,-0.35229 3.635525,-0.486034 2.35757,-0.239461 2.394126,-0.25909 2.394126,-1.285755 0,-0.895445 -0.112625,-1.018431 -0.798042,-0.871456 -2.128577,0.456437 -6.023726,0.897169 -6.318578,0.714942 -0.182474,-0.112778 -0.334216,-0.474944 -0.337203,-0.804815 -0.01005,-1.108028 -0.537673,-1.541724 -1.562687,-1.284462 -0.919904,0.230879 -0.958909,0.325899 -0.772824,1.882666 0.107786,0.901731 0.298166,2.716867 0.423065,4.033636 0.209329,2.206881 0.291825,2.394131 1.054783,2.394131 0.758065,0 0.836643,-0.17036 0.934066,-2.024996 z m 13.695882,1.314966 c 1.518899,-0.689312 1.528742,-0.705659 1.330495,-2.208994 -0.10985,-0.833002 -0.517794,-5.744168 -0.906545,-10.913707 -0.388761,-5.169537 -0.79761,-10.076606 -0.908577,-10.904596 l -0.201745,-1.505436 -1.131294,0.593259 c -1.228145,0.644051 -4.510317,0.832544 -5.882647,0.337836 -0.832588,-0.300135 -0.844894,-0.275515 -0.606764,1.213638 0.148871,0.931038 0.581226,1.8334 1.115831,2.328855 0.74188,0.68755 0.872784,1.130592 0.872784,2.953914 0,1.931898 -0.07289,2.145049 -0.733273,2.145049 -0.52797,0 -0.684713,0.17378 -0.559821,0.620699 0.09541,0.341384 0.283223,2.054886 0.417395,3.807779 0.201111,2.627641 0.392772,3.363962 1.091842,4.194767 1.001335,1.190019 1.218061,3.790739 0.315889,3.790739 -0.383463,0 -0.532032,0.392709 -0.532032,1.406262 0,1.471479 0.411242,1.891336 2.462082,2.513636 1.452371,0.44071 2.227288,0.36562 3.85638,-0.3737 z M 38.20667,99.568335 c -0.10816,-0.634002 -0.302227,-2.523103 -0.43126,-4.198004 l -0.234606,-3.045275 1.475154,-0.324237 c 1.295633,-0.284775 1.418848,-0.393597 1.012486,-0.894211 -0.342083,-0.421422 -0.866781,-0.526194 -2.013185,-0.40199 l -1.550517,0.167985 0.256228,4.303529 c 0.140926,2.366943 0.405351,4.582844 0.587611,4.924228 0.560759,1.05033 1.112297,0.7236 0.898089,-0.532025 z m 9.073511,-6.473009 c -0.103125,-0.412487 0.09963,-0.409959 -3.192167,-0.03981 -1.622122,0.182397 -2.571469,0.448202 -2.571469,0.719972 0,0.333717 0.659541,0.345589 2.926153,0.05267 1.609388,-0.207984 2.886255,-0.537758 2.837483,-0.732837 z M 36.629613,83.075467 36.728293,78.198545 38.06579,78.08802 c 1.916716,-0.158389 1.25895,-0.776189 -0.826401,-0.776189 h -1.752494 l 0.0048,4.522238 c 0.0026,2.487231 0.101083,4.881357 0.21871,5.32028 0.506819,1.891191 0.827125,0.469802 0.919164,-4.078882 z m 2.714484,4.655246 c 1.03595,-0.20719 1.108391,-0.32173 1.108391,-1.752495 0,-0.841948 0.145572,-1.620783 0.323492,-1.730744 0.17792,-0.109961 1.791646,-0.304141 3.586057,-0.431512 l 3.262566,-0.231584 -0.186724,-1.39214 c -0.102703,-0.765676 -0.268886,-1.474301 -0.369306,-1.574722 -0.100441,-0.10042 -1.670022,0.03066 -3.488006,0.291286 -1.817982,0.260628 -3.465029,0.475678 -3.660106,0.477889 -0.195077,0.0022 -0.302302,-0.59451 -0.238276,-1.326049 0.111511,-1.274119 0.07048,-1.33007 -0.975385,-1.33007 h -1.091794 l -0.0048,3.812868 c -0.0026,2.097076 -0.101082,4.171986 -0.21871,4.610909 -0.23458,0.875331 0.04507,0.957878 1.952645,0.576364 z m 6.056847,-7.974632 c 0.547052,-0.17771 -0.07631,-0.211229 -1.578945,-0.08491 -1.365538,0.114791 -2.722209,0.353529 -3.014825,0.530527 -0.623765,0.377306 3.2034,0.006 4.59377,-0.445619 z m 78.670866,-4.866129 c 0.33765,-0.214367 0.10579,-1.066378 -0.95704,-3.516847 -2.36934,-5.462794 -2.62506,-5.626191 -4.91582,-3.14101 -1.1995,1.301309 -2.90785,4.004293 -2.90785,4.600864 0,0.08816 0.59853,0.265546 1.33007,0.394184 0.73154,0.128639 2.20792,0.607585 3.28084,1.064325 2.05131,0.873239 3.4262,1.070575 4.1698,0.598484 z M 51.483476,74.424124 c 1.25126,-0.420227 2.447051,-1.27678 2.447051,-1.752838 0,-1.555701 -4.383646,-1.949605 -6.420551,-0.576935 -1.431247,0.96452 -1.529023,1.663181 -0.318462,2.275623 1.107637,0.560375 2.723919,0.580767 4.291962,0.05415 z"
       id="path1" />
    <path
       style="fill:#4d8061;fill-opacity:1;stroke:#112318;stroke-width:2.64583;stroke-linecap:square;stroke-opacity:1;paint-order:markers stroke fill"
       d="m 109.55732,73.526233 c -3.91374,0.260188 -8.52953,0.453588 -11.419769,3.472227 -3.18058,4.156529 -1.766311,10.010225 0.369879,14.309003 0.624644,0.726886 0.863181,2.585865 1.99332,2.511394 1.02486,-1.654386 1.38532,-3.734881 2.71007,-5.267482 1.47298,-2.698676 4.82519,-2.813509 7.20935,-4.28206 2.35363,-1.017437 4.85291,-1.659312 7.35291,-2.057004 0.34869,-1.07019 -1.57155,-1.136879 -2.25358,-1.490546 -4.55115,-1.282426 -9.46783,-0.906287 -13.88217,0.704243 -0.93104,-0.0046 0.98739,-0.755931 1.24253,-0.770993 9.2584,-3.018328 19.20703,0.975646 26.42567,6.819526 4.16237,3.275432 7.21579,8.481784 6.22663,13.919789 -1.45547,11.6105 -5.36349,22.96798 -4.8555,34.80161 0.22015,3.88508 -0.45919,8.11082 1.27988,11.72596 2.00649,2.52818 5.85259,1.94354 8.54218,0.98901 1.08635,-0.6226 2.91321,-0.98417 3.28667,-2.29584 -1.23983,-3.99692 -3.96887,-7.615 -3.90916,-11.96905 -0.0177,-3.00426 -0.31505,-6.36075 0.28139,-9.17111 0.28674,1.13426 -0.65353,2.85143 0.16228,3.56163 4.72742,-2.08871 9.35493,-4.62622 13.36042,-7.91692 2.53153,-2.31156 4.12106,-5.68746 4.5243,-9.05167 -1.07342,-1.27939 -3.19797,-0.70966 -4.59901,-1.52668 -2.52682,-1.00654 -5.05588,-3.20218 -4.7019,-6.20653 -0.33944,-3.58809 1.71758,-7.363644 5.38042,-8.193105 0.73791,0.05201 1.82331,-0.914159 0.75017,-1.336837 -1.36386,-0.481049 -0.24167,-0.253583 0.49603,-0.05573 0.74595,0.08075 2.24119,1.41205 2.403,0.126763 -2.17044,-7.992683 -8.45083,-14.478363 -15.74137,-18.133964 -4.46663,-2.100046 -9.57106,-1.267431 -14.3433,-1.405425 -1.43399,0.08701 -2.96799,0.04131 -4.31058,0.537062 1.12167,1.30096 3.08394,2.118989 4.35391,3.503581 4.8275,4.307949 9.37081,9.118304 12.07395,15.081099 0.54194,1.173696 1.1975,2.310079 1.40114,3.589191 -2.31022,-4.083115 -4.36841,-8.378606 -7.54398,-11.904164 -6.01815,-7.029608 -14.60843,-13.080347 -24.26578,-12.616981 z"
       id="path2" />
    <path
       style="fill:#ffffff;fill-opacity:1;stroke:#112318;stroke-width:2.64583;stroke-linecap:square;stroke-opacity:1;paint-order:markers stroke fill"
       d="m 121.79006,97.543534 c -5.54691,0.552631 -9.44078,5.817376 -10.24077,11.044596 -0.50277,3.20491 -0.24175,6.94144 2.37517,9.21785 0.81106,1.15835 1.88897,1.806 3.29994,1.31737 1.73418,-0.29323 3.53841,-0.63242 5.13504,-1.31597 -0.86561,-1.52369 -2.07779,-3.19823 -1.71044,-5.12713 0.19454,-2.39974 2.5849,-4.5449 5.03823,-3.77041 0.76216,0.18535 2.0507,0.34421 2.05379,-0.79666 0.3838,-3.35291 0.37319,-7.66157 -2.82453,-9.707215 -0.93212,-0.574191 -2.02537,-0.915604 -3.12643,-0.862431 z"
       id="path3" />
    <path
       style="fill:#ffffff;fill-opacity:1;stroke:#112318;stroke-width:2.64583;stroke-linecap:square;stroke-opacity:1;paint-order:markers stroke fill"
       d="m 104.41867,92.557817 c -1.69323,0.697827 -2.27847,2.751758 -3.09219,4.250745 -1.17896,2.797568 -1.670457,5.987238 -1.17159,8.976438 0.75125,0.67425 0.88963,-0.79122 1.08851,-1.25876 0.58301,-1.22704 1.84368,-1.7375 3.02827,-2.14584 1.12246,-1.39499 1.01972,-3.410291 1.38761,-5.093638 0.023,-1.51453 0.5656,-3.657884 -0.8708,-4.687544 -0.11756,-0.04355 -0.24554,-0.05723 -0.36981,-0.0414 z"
       id="path4" />
    <path
       style="fill:#89a257;fill-opacity:1;stroke:#112318;stroke-width:2.64583;stroke-linecap:square;stroke-opacity:1;paint-order:markers stroke fill"
       d="m 84.476254,109.16215 c -1.560901,0.15792 -2.451845,2.20573 -1.355046,3.41809 0.485494,0.61078 1.128953,1.77973 1.915115,1.58996 -0.145103,-0.68752 -0.06311,-1.4136 0.594025,-0.64473 5.352403,4.6436 8.728195,11.58978 15.406052,14.63804 4.65133,2.03708 10.00678,1.81759 14.86737,0.70427 2.42139,-0.81421 5.02722,-1.46941 7.15156,-2.90453 0.0148,-0.93279 -1.50892,-0.93888 -2.12444,-1.30063 -0.27274,-0.0445 -1.54417,-0.6373 -0.79591,-0.67729 2.35575,-0.19356 4.91325,1.76082 4.49961,4.28099 -0.4099,0.56552 -0.36136,-1.06481 -0.71264,-1.23876 -0.75283,-0.70457 -1.61399,0.65238 -2.29748,0.92023 -4.64648,3.20795 -8.618,7.33788 -13.47637,10.22638 -1.69173,1.02452 -3.85983,1.19301 -5.69572,0.49061 -1.52175,-0.93069 -3.205362,-2.27697 -3.572525,-4.09398 0.164647,-1.9374 1.720825,-3.92105 0.91732,-5.8742 -0.364125,-0.74283 -1.321648,-0.42407 -1.244336,0.37772 -0.117179,2.24728 -1.455339,4.30318 -1.324345,6.55568 0.926508,2.47699 3.190726,4.21222 5.327616,5.64114 1.63792,1.23038 3.74194,0.49683 5.16694,-0.67829 4.63699,-3.49331 9.63424,-6.4094 14.6522,-9.31625 1.99492,-1.32707 4.6572,-2.81712 4.90664,-5.45569 -0.92117,-2.76308 -4.30697,-2.99966 -6.69426,-3.64902 -2.27663,-0.57991 -4.72585,-0.80656 -6.90023,-1.56436 -3.20836,-2.97463 -6.10063,-6.37251 -9.65948,-8.93066 -2.71917,-0.97489 -5.556966,0.53621 -8.234011,0.99784 -1.345895,0.40533 -2.804739,0.56634 -4.098176,1.04287 1.188877,1.9973 3.173163,3.62306 4.504728,5.61696 -3.653526,-3.16745 -6.793537,-6.93286 -10.665939,-9.84445 -0.320302,-0.1891 -0.680509,-0.33491 -1.058268,-0.32794 z m 20.689016,9.47603 c 0.62447,0.0353 1.59249,0.37137 1.70299,0.94802 -0.46927,-0.15264 -1.87704,-0.82657 -1.46529,0.21863 0.25362,0.42743 0.92411,0.51079 1.16851,0.82196 -1.05965,0.78953 -2.99349,-1.04558 -1.86069,-1.92395 0.14349,-0.058 0.30125,-0.0698 0.45448,-0.0647 z"
       id="path5" />
    <path
       style="fill:none;stroke:#000000;stroke-width:0.497311;stroke-linecap:butt;stroke-linejoin:miter;stroke-dasharray:none;stroke-opacity:1"
       d="m 110.34044,139.4699 c -0.15137,0.18931 -0.36865,0.30924 -0.52523,0.49551 -0.0528,0.0628 -0.0295,0.18129 0.0551,0.18968 0.0886,0.009 0.14772,-0.0779 0.1911,-0.14249 0.12151,-0.18106 0.32533,-0.79792 0.28609,-0.58478 -0.0349,0.18935 -0.11797,0.36803 -0.20759,0.53781 -0.15339,0.29059 -0.40275,0.54224 -0.47579,0.86352 -0.023,0.10118 0.0746,0.20624 0.0191,0.29954 -0.0444,0.0746 -0.14599,-0.044 -0.18675,0.0233 -0.0534,0.0881 0.0187,0.18379 0.0186,0.27685 -1.7e-4,0.12232 -0.16949,0.13073 -0.18673,0.24801 -0.0176,0.11965 0.0384,0.24069 -0.0112,0.3598 -0.0541,0.13002 -0.16075,0.23944 -0.15803,0.39301 0.002,0.1261 0.0634,0.26083 0.0135,0.37934 -0.0393,0.0934 -0.17546,0.11477 -0.18616,0.22602 -0.0106,0.10997 0.0439,0.21801 -0.002,0.32965 -0.0482,0.11603 -0.15363,0.21339 -0.15922,0.3425 -0.004,0.10199 0.0701,0.22251 -0.007,0.30831 -0.0604,0.067 -0.16029,0.10656 -0.16979,0.21226 -0.013,0.14473 0.10101,0.30546 0.0182,0.43295 -0.0525,0.0809 -0.15564,0.11097 -0.19064,0.21078 -0.0572,0.16321 0.0761,0.32547 0.0109,0.4918 -0.0473,0.12078 -0.15806,0.22011 -0.16382,0.35322 -0.004,0.102 0.0712,0.22348 -0.007,0.30832 -0.0624,0.0675 -0.16181,0.10916 -0.17194,0.21655 -0.0135,0.14361 0.13735,0.32957 0.0204,0.42866 -0.0546,0.0463 -0.17806,-0.0722 -0.19246,0.0516 -0.0115,0.0992 0.0829,0.20753 0.0176,0.29593 -0.0515,0.0697 -0.15595,0.0954 -0.17015,0.19497 -0.016,0.11235 -0.0191,0.22975 0.0137,0.33735 0.0231,0.0761 -6.1e-4,0.16248 -0.0749,0.19937 -0.0846,0.042 -0.11181,0.13001 -0.11201,0.22193 -5e-4,0.22552 0.0705,0.45473 0.0233,0.67603 -0.034,0.1593 -0.18096,0.27371 -0.18508,0.44433 -0.004,0.15918 0.062,0.32471 -0.0115,0.47915 -0.0636,0.13359 -0.16196,0.25603 -0.16282,0.41416 -9.7e-4,0.1788 0.0818,0.36513 0.0171,0.53634 -0.0333,0.088 -0.16802,0.0963 -0.17335,0.20362 -0.0138,0.27736 -0.0443,0.56008 0.007,0.83268 0.0137,0.0724 -10e-5,0.14416 -0.0334,0.21101 -0.0582,0.11671 -0.14427,0.22492 -0.14854,0.36314 -0.01,0.31547 0.0131,0.63054 0.013,0.94611 -3.5e-4,1.00161 0.013,2.00331 -5.3e-4,3.00482 -0.003,0.20664 -0.0651,0.42284 -0.003,0.62022 0.0308,0.0982 0.19634,0.11706 0.18215,0.23097 -0.01,0.0791 -0.0108,0.15858 -0.0111,0.2384 -7.7e-4,0.2494 0.0124,0.49923 -0.001,0.74823 -0.006,0.10234 -0.0951,0.26849 0.007,0.31089 0.0583,0.0242 0.16489,-0.0788 0.17407,0.0399 0.0183,0.23683 -0.0127,0.47394 -0.0206,0.71072 -0.004,0.12307 -0.006,0.25144 0.0583,0.36412 0.0595,0.10481 0.14605,0.21143 0.12363,0.34173 -0.0152,0.088 -0.0206,0.17768 0.014,0.2651 0.0887,0.22416 0.28788,0.40461 0.32165,0.64534 0.0153,0.1091 -0.0662,0.23088 0.009,0.32911 0.0496,0.0648 0.19635,0.1029 0.1576,0.19376 -0.0338,0.0793 1.4e-4,0.16364 0.0777,0.20029 0.0818,0.0387 0.0735,0.1169 0.0713,0.20488 -0.003,0.11075 0.14453,-0.0129 0.17436,0.0385 0.0671,0.11556 -0.0595,0.25935 0.0185,0.36848 0.0489,0.0684 0.18716,0.0945 0.1656,0.19135 -0.0174,0.0782 -0.006,0.13456 0.0688,0.1862 0.0663,0.0456 0.0992,0.11677 0.0832,0.20466 -0.0164,0.09 0.0732,0.15317 0.13483,0.20182 0.0776,0.0613 0.21375,0.11023 0.20997,0.21473 -0.002,0.0526 -0.0414,0.20984 0.0428,0.15709 0.0598,-0.0375 0.16617,-0.0229 0.12723,0.0691 -0.0323,0.0765 0.0116,0.15214 0.0439,0.21938 0.0615,0.12789 0.13727,0.25186 0.25315,0.34011 0.0987,0.0752 0.2587,0.16829 0.22371,0.29987 -0.0162,0.0611 -0.0757,0.11534 0.0134,0.1646 0.0692,0.0383 0.13837,0.0889 0.22647,0.0611 0.0821,-0.0259 0.13011,0.0665 0.17568,0.11713 0.0621,0.069 0.21515,0.12753 0.17958,0.21421 -0.0222,0.054 -0.17968,-0.0416 -0.15778,0.0761 0.0262,0.14088 0.14553,0.23258 0.24277,0.32577 0.19126,0.1833 0.42228,0.33596 0.56348,0.56084 0.0502,0.0799 0.14152,0.0117 0.21092,0.0412 0.0687,0.0293 0.0857,0.11601 0.10957,0.17999 0.0239,0.064 0.036,0.19284 0.10955,0.17996 0.0743,-0.013 0.15171,-0.0323 0.21089,0.0412 0.0598,0.0743 0.12273,0.14628 0.20086,0.20173 0.0656,0.0466 0.0807,0.12567 0.0682,0.20413 -0.0116,0.0733 0.0404,0.13776 0.0703,0.2024 0.0462,0.1 0.0916,0.21159 0.19249,0.2664 0.0774,0.042 0.0592,0.12369 0.0616,0.20346 0.003,0.0961 0.11565,0.12774 0.16572,0.19572 0.0999,0.13568 0.11748,0.3244 0.25988,0.43055 0.12587,0.0938 0.17379,0.25004 0.23578,0.38702 0.059,0.13034 0.1992,0.24298 0.18686,0.38683 -0.006,0.0708 -0.03,0.15147 0.0416,0.20397 0.0695,0.0509 0.12998,0.11186 0.1674,0.19209 0.0599,0.12842 0.10868,0.26821 0.22825,0.35907 0.0964,0.0732 0.22735,0.14458 0.23806,0.27994 0.008,0.10277 -0.0679,0.22477 0.004,0.30975 0.0542,0.0643 0.15778,0.0907 0.1642,0.19243 0.007,0.11302 -0.0366,0.22676 0.009,0.33933 0.043,0.10728 0.16839,0.19341 0.15385,0.31039 -0.008,0.0684 -0.009,0.13401 0.0217,0.20161 0.046,0.10103 0.16984,0.19051 0.14514,0.30098 -0.0163,0.0728 -0.0212,0.15507 0.0547,0.202 0.0667,0.0412 0.13125,0.10396 0.10898,0.19553 -0.0193,0.0796 0.0243,0.15475 0.0507,0.22732 0.042,0.11551 0.11626,0.46841 0.12825,0.34626 0.007,-0.0716 -0.0823,-0.22436 -0.007,-0.22128 0.0727,0.003 0.0981,0.13462 0.14527,0.18971 0.0516,0.0602 -0.004,0.1364 0.0174,0.20175 0.0807,0.2454 0.34148,0.4312 0.33925,0.68998 -5.9e-4,0.0677 -0.0153,0.13372 0.0179,0.20124 0.0604,0.12273 0.1612,0.23647 0.15004,0.38521 -0.007,0.0915 -0.0513,0.20907 0.0268,0.27839 0.058,0.0515 0.1744,0.0967 0.14037,0.19134 -0.0257,0.0714 0.008,0.14189 0.0456,0.20147 0.0639,0.10102 0.12523,0.20796 0.13194,0.33198 0.0112,0.20697 -0.0767,0.42109 0.004,0.62199 0.043,0.1073 0.16839,0.19344 0.15381,0.31043 -0.009,0.0684 -0.0112,0.13502 0.0217,0.20157 0.0644,0.13034 0.16541,0.25266 0.15683,0.40855 -0.008,0.14895 -0.0615,0.31025 0.0186,0.45032 0.0597,0.10445 0.13515,0.20451 0.14607,0.33059 0.0182,0.21043 -0.0857,0.43088 0.001,0.63189 0.0552,0.12744 0.16413,0.23403 0.16333,0.38377 -8.2e-4,0.15367 -0.0632,0.31599 0.0118,0.46326 0.0611,0.11994 0.15945,0.23081 0.15695,0.37362 -0.002,0.11777 -0.0118,0.23507 -0.0118,0.35315 0,1.30256 0,2.60511 0,3.90766"
       id="path7"
       inkscape:path-effect="#path-effect7"
       inkscape:original-d="m 110.34044,139.4699 c -0.16744,0.22326 -0.72559,0.50233 -0.50233,0.66978 0.22326,0.16744 0.57002,-0.94052 0.50233,-0.66978 -0.12108,0.48432 -0.46702,0.88336 -0.66977,1.33955 -0.0453,0.10201 0.0789,0.25596 0,0.33489 -0.0395,0.0395 -0.12798,-0.0395 -0.16745,0 -0.0789,0.0789 0.0499,0.23504 0,0.33489 -0.0353,0.0706 -0.14248,0.0926 -0.16744,0.16744 -0.0353,0.1059 0.0271,0.22659 0,0.33489 -0.0303,0.12108 -0.12798,0.21649 -0.16744,0.33489 -0.0384,0.11517 0.0494,0.40353 0,0.50233 -0.0353,0.0706 -0.13215,0.0968 -0.16745,0.16744 -0.0499,0.0999 0.0353,0.22899 0,0.33489 -0.0395,0.1184 -0.12797,0.21649 -0.16744,0.33489 -0.0353,0.1059 0.0499,0.23504 0,0.33488 -0.0353,0.0706 -0.13215,0.0968 -0.16745,0.16745 -0.067,0.13395 0.067,0.36838 0,0.50233 -0.0353,0.0706 -0.14248,0.0926 -0.16744,0.16745 -0.1059,0.15025 0.0529,0.34348 0,0.50233 -0.0395,0.1184 -0.12798,0.21648 -0.16744,0.33488 -0.0353,0.1059 0.0499,0.23505 0,0.33489 -0.0353,0.0706 -0.13215,0.0968 -0.16745,0.16744 -0.0749,0.14977 0.0749,0.35257 0,0.50234 -0.0249,0.0499 -0.12798,-0.0395 -0.16744,0 -0.0789,0.0789 0.0499,0.23504 0,0.33489 -0.0353,0.0706 -0.14248,0.0925 -0.16744,0.16744 -0.0353,0.1059 0,0.22326 0,0.33489 0,0.0558 0.025,0.11752 0,0.16744 -0.0353,0.0706 -0.13215,0.0968 -0.16745,0.16744 -0.0533,0.10655 0.0483,0.69246 0,0.83722 -0.0395,0.1184 -0.13717,0.21381 -0.16744,0.33489 -0.0406,0.16245 0.053,0.34348 0,0.50233 -0.0395,0.1184 -0.12798,0.21649 -0.16745,0.33489 -0.0593,0.17793 0.0593,0.49185 0,0.66978 -0.0249,0.0749 -0.14248,0.0926 -0.16744,0.16744 -0.0256,0.0767 0,0.74376 0,0.83722 0,0.0558 0.0177,0.11449 0,0.16744 -0.0395,0.1184 -0.12798,0.21649 -0.16744,0.33489 -0.0351,0.10539 0,0.68629 0,0.83722 0,0.55815 0,1.11629 0,1.67444 0,0.50233 0,1.00466 0,1.50699 0,0.0876 -0.022,0.62575 0,0.66978 0.0353,0.0706 0.13214,0.0968 0.16744,0.16744 0.025,0.0499 0,0.11163 0,0.16745 0,0.27907 0,0.55814 0,0.83721 0,0.11164 -0.0499,0.23505 0,0.33489 0.025,0.0499 0.14248,-0.0499 0.16744,0 0.0578,0.11557 -0.0415,0.83858 0,1.00467 0.0303,0.12107 0.12798,0.21648 0.16745,0.33488 0.0353,0.10591 -0.0353,0.22899 0,0.33489 0.0789,0.2368 0.25595,0.43297 0.33489,0.66978 0.0353,0.1059 -0.0499,0.23504 0,0.33489 0.0353,0.0706 0.13214,0.0968 0.16744,0.16744 0.025,0.0499 -0.025,0.11752 0,0.16744 0.0353,0.0706 0.13214,0.0969 0.16744,0.16745 0.025,0.0499 -0.0395,0.12797 0,0.16744 0.0395,0.0395 0.14248,-0.0499 0.16745,0 0.0499,0.0999 -0.0353,0.22899 0,0.33489 0.025,0.0749 0.13214,0.0968 0.16744,0.16744 0.025,0.0499 0,0.11163 0,0.16745 0.0558,0.0558 0.13214,0.0968 0.16744,0.16744 0.025,0.0499 -0.0249,0.11752 0,0.16744 0.0706,0.1412 0.26429,0.19369 0.33489,0.33489 0.025,0.0499 -0.0395,0.12798 0,0.16744 0.0395,0.0395 0.12798,-0.0395 0.16745,0 0.0395,0.0395 -0.0177,0.1145 0,0.16745 0.0395,0.1184 0.0982,0.23104 0.16744,0.33489 0.0876,0.13135 0.26429,0.19368 0.33489,0.33489 0.11548,0.23096 -0.20279,0.14977 0.16744,0.33488 0.0499,0.025 0.12798,-0.0395 0.16744,0 0.65349,0.65349 -0.0387,0.0899 0.16745,0.50233 0.0447,0.0894 0.41418,0.41418 0.50233,0.50234 0.0558,0.0558 0.11163,0.11162 0.16745,0.16744 0.0558,0.0558 0.0968,0.13214 0.16744,0.16744 0.0499,0.025 0.12798,-0.0395 0.16744,0 0.0883,0.0883 0.0792,0.24664 0.16745,0.33489 0.0395,0.0395 0.11752,-0.0249 0.16744,0 0.0706,0.0353 0.11163,0.11163 0.16744,0.16744 0.0558,0.0558 0.13215,0.0969 0.16745,0.16745 0.0249,0.0499 0,0.11163 0,0.16744 0.0558,0.11163 0.0982,0.23105 0.16744,0.33489 0.0438,0.0657 0.13215,0.0968 0.16745,0.16744 0.025,0.0499 -0.0249,0.11753 0,0.16745 0.0353,0.0706 0.12366,0.10176 0.16744,0.16744 0.0692,0.10385 0.0982,0.23105 0.16744,0.33489 0.0438,0.0657 0.12366,0.10177 0.16745,0.16744 0.0692,0.10385 0.11163,0.22326 0.16744,0.33489 0.0558,0.11163 0.12798,0.21649 0.16745,0.33489 0.0176,0.053 -0.025,0.11752 0,0.16744 0.0353,0.0706 0.12365,0.10177 0.16744,0.16745 0.0692,0.10384 0.0982,0.23104 0.16744,0.33489 0.0876,0.13135 0.28497,0.18512 0.33489,0.33488 0.0353,0.1059 -0.0353,0.22899 0,0.33489 0.025,0.0749 0.14248,0.0926 0.16744,0.16744 0.0353,0.1059 -0.0271,0.2266 0,0.33489 0.0303,0.12108 0.12798,0.21649 0.16745,0.33489 0.0177,0.0529 -0.0177,0.11449 0,0.16744 0.0395,0.1184 0.12797,0.21649 0.16744,0.33489 0.0177,0.0529 -0.0249,0.11752 0,0.16744 0.0353,0.0706 0.13215,0.0968 0.16745,0.16745 0.025,0.0499 -0.0177,0.11449 0,0.16744 0.40428,1.21287 -0.0483,-0.26399 0.33488,0.50233 0.025,0.0499 -0.0176,0.1145 0,0.16745 0.0789,0.2368 0.25596,0.43297 0.33489,0.66977 0.0177,0.0529 -0.0177,0.1145 0,0.16745 0.0395,0.1184 0.13718,0.21381 0.16744,0.33488 0.0271,0.1083 -0.0353,0.22899 0,0.33489 0.025,0.0749 0.13215,0.0968 0.16745,0.16745 0.025,0.0499 -0.0177,0.11449 0,0.16744 0.0395,0.1184 0.13717,0.21381 0.16744,0.33489 0.0542,0.21659 -0.0541,0.45318 0,0.66977 0.0303,0.12108 0.12798,0.21649 0.16745,0.33489 0.0176,0.053 -0.0177,0.1145 0,0.16744 0.0395,0.1184 0.12797,0.21649 0.16744,0.33489 0.0529,0.15885 -0.0406,0.33989 0,0.50233 0.0303,0.12108 0.13717,0.21381 0.16745,0.33489 0.0541,0.21659 -0.0542,0.45318 0,0.66978 0.0303,0.12108 0.13717,0.21381 0.16744,0.33489 0.0406,0.16244 -0.0529,0.34348 0,0.50233 0.0395,0.1184 0.13717,0.21381 0.16744,0.33488 0.0271,0.1083 0,0.22326 0,0.33489 0,0.33489 0,0.66978 0,1.00466 0,1.00467 0,2.00933 0,3.014"
       transform="matrix(1.0054072,0,0,1.0054072,-0.18738965,-0.35666751)" />
    <path
       style="fill:#e6e6e6;fill-opacity:1;stroke:none;stroke-width:0.500003;stroke-linecap:square;stroke-dasharray:none;stroke-opacity:1;paint-order:markers stroke fill"
       d="m 109.7215,140.70254 c -1.21105,0.562 -2.20367,1.64116 -3.51297,2.00638 -1.52761,0.62545 -3.28131,0.32541 -4.56385,-0.70397 -0.67413,-0.29612 -1.47254,-1.37769 -2.25594,-0.8355 -4.396841,6.16771 -8.168473,12.8487 -10.734896,19.99147 -1.085805,2.96733 -1.865809,6.07182 -1.785185,9.25408 -0.149931,4.27317 0.968453,8.54627 2.789031,12.39097 3.167716,6.21274 8.812778,11.14495 15.38259,13.46892 0.95632,-0.32581 1.18884,-1.58899 1.80418,-2.30817 2.66685,-4.35087 6.57724,-7.75472 9.97849,-11.47738 -0.006,-3.08548 -0.47637,-6.18562 -1.53507,-9.08232 -0.8802,-1.89685 -1.45952,-3.94076 -2.65676,-5.68738 -0.3218,-0.89232 -1.05706,-1.45612 -1.76767,-2.04091 -0.46116,-0.55201 -0.87913,-1.03395 -1.20047,-1.68283 -0.99162,-1.54631 -1.96542,-3.22432 -2.01592,-5.08928 -0.35405,-0.4802 0.0355,-1.16204 -0.21077,-1.72098 -0.0882,-2.60477 -0.21668,-5.27356 0.48236,-7.80654 0.0849,-1.09251 0.26479,-2.19585 0.77665,-3.16378 -0.0581,-0.5488 0.27708,-0.97697 0.28474,-1.48226 0.0894,-0.32815 0.36292,-0.72367 0.28935,-1.14425 0.44598,-0.7518 0.35895,-1.71975 0.81347,-2.46441 0.0563,-0.22507 -0.12116,-0.45942 -0.36136,-0.42186 z"
       id="path8" />
    <path
       id="path9"
       style="fill:#112318;fill-opacity:1;stroke:#112318;stroke-width:0.5;stroke-linecap:square;stroke-dasharray:none;stroke-opacity:1;paint-order:markers stroke fill"
       d="m 120.41831,83.272178 -2.15773,0.275367 c -3.02541,0.381181 -6.1982,0.896408 -8.78677,2.604027 -0.62196,0.927788 0.26904,2.024884 0.20834,3.033702 0.0234,0.362591 0.0449,0.995035 -0.10547,1.21265 -0.16619,-1.305328 -0.42171,-3.29689 -2.00238,-3.538713 -2.23596,0.395761 -3.82079,2.417396 -4.57315,4.427678 0.14146,0.853156 1.05755,0.0045 1.56283,0.139761 1.7189,0.230833 2.43643,2.282944 2.29853,3.812522 -0.0928,2.324382 -0.25571,4.738188 -1.14511,6.909088 -1.56846,2.26276 -1.72252,5.36958 -3.88162,7.24109 -0.59781,0.55013 -0.83143,-0.40679 -0.99132,-0.82454 -0.3314,-0.87835 -0.9144,-1.63415 -1.65635,-2.16812 -0.09706,-0.54704 -0.717227,-1.15056 -0.55489,-1.65116 0.424785,-0.45948 0.06677,-1.38682 -0.629187,-1.04067 -3.000895,0.67519 -6.25514,1.03303 -8.823141,2.86069 -0.453077,0.48073 0.361372,0.78203 0.710236,0.44318 0.823572,-0.31838 1.643871,-0.83736 2.557267,-0.76167 -1.010784,1.58016 -2.865149,3.01285 -2.695469,5.09271 0.447601,1.3753 2.215567,0.9866 3.297637,0.78454 3.220916,-0.51048 6.336501,-1.93197 9.617547,-1.85431 2.19011,0.0352 3.79546,1.96266 5.40341,3.26802 0.8322,0.66943 1.5265,1.5859 2.49648,2.05122 0.66871,-0.21598 -0.0695,-1.01217 -0.026,-1.49944 -1.24019,-6.24565 1.4876,-13.37395 7.19744,-16.505861 0.89431,-0.665484 1.83543,-1.330666 3.01396,-1.265644 2.05737,-0.138989 4.21817,0.340001 5.70527,1.871448 2.51948,2.297957 2.74827,5.997737 2.49233,9.192027 -0.0396,0.95242 -0.23685,1.98124 -1.04691,2.57961 -0.84257,1.42464 -1.21208,3.093 -2.15202,4.47964 -0.55808,1.10914 -1.50032,2.0046 -2.04757,3.09864 0.89208,0.52173 2.15412,0.31396 3.18489,0.61672 0.83973,0.18768 1.75875,0.36851 2.39932,0.9882 -1.70921,-0.72948 -3.64073,-0.67693 -5.46264,-0.61152 -1.72941,0.54381 -3.42596,1.19048 -5.22676,1.53685 -0.57026,0.79629 1.13435,0.59826 1.62934,0.84169 2.07517,0.57888 4.33173,0.8422 6.16872,2.04134 1.19132,0.88228 2.4417,2.34139 1.82001,3.92267 -0.86869,2.71057 -3.50199,4.22915 -5.74736,5.66683 -3.79314,2.30265 -7.72636,4.42162 -11.28637,7.07794 -0.72741,0.87965 -1.25773,1.99385 -1.48801,3.11372 -0.23805,1.05039 -0.50379,2.10495 -0.81623,3.13813 -0.10989,1.21095 -0.88367,2.23288 -0.84116,3.48104 -0.14628,0.76109 -0.21515,1.50608 -0.47644,2.22475 -0.11059,2.27393 -0.18723,4.58059 0.04,6.84467 0.43253,0.59382 0.0602,1.38482 0.43331,2.03667 0.42802,1.4863 1.26151,2.81125 2.17383,4.01722 0.5896,0.55991 0.77986,1.40854 1.57738,1.78988 1.0193,0.98887 1.34201,2.52393 2.29125,3.54703 0.49601,2.07258 1.7654,4.00691 2.07252,6.18379 0.59802,1.95502 0.75139,4.03762 0.62815,6.0913 0.12659,0.66231 0.97345,-0.21577 1.02873,-0.23224 h 5.3e-4 5.3e-4 l 5.3e-4,5.3e-4 5.4e-4,5.3e-4 v 5.3e-4 5.4e-4 5.3e-4 c -0.003,0.0153 -0.0663,0.0983 -0.2177,0.29355 -0.44126,0.3534 -0.58584,1.04859 -0.94871,1.3602 -2.71158,2.48938 -5.18682,5.26042 -7.44424,8.17058 -1.452,2.09633 -3.19026,4.31976 -3.30699,6.9678 0.24697,1.9426 2.22087,3.01887 3.80317,3.82032 2.94639,1.43934 6.32456,0.86722 9.48038,1.18875 0.35131,0.001 0.6271,0.0222 0.64945,0.053 l 5.3e-4,5.3e-4 v 5.3e-4 c 9e-5,2.1e-4 5.4e-4,0.001 5.4e-4,0.002 v 5.3e-4 5.3e-4 c -2e-5,2.2e-4 3e-5,0.001 0,0.002 l -5.4e-4,5.3e-4 v 5.3e-4 c -0.0107,0.0212 -0.13559,0.047 -0.42499,0.0743 -3.19011,0.43049 -6.44906,-0.11046 -9.63002,0.39279 -0.61604,0.083 -0.80152,0.82702 -0.20938,1.12069 0.65741,0.52961 1.47072,1.492 2.36866,0.8157 0.91483,-0.34908 1.82544,-0.8689 2.77341,-1.04691 -0.70462,0.37144 -1.23693,1.16429 0.0172,1.16745 1.04293,0.13351 2.04993,0.77326 2.2819,1.84807 0.4081,0.75555 1.224,-0.24866 1.71351,-0.40837 1.54977,-0.91981 3.65261,-1.86298 5.34106,-0.75804 0.69084,0.4453 0.75404,1.33511 1.20486,1.93796 0.7062,0.004 0.85146,-1.0215 1.1955,-1.51608 1.24362,-3.13986 0.63168,-7.00915 -1.62933,-9.54169 -0.86603,-0.092 -1.74901,0.73719 -2.58793,0.95027 2.72871,-1.40947 4.88046,-3.75055 6.56982,-6.28042 1.48843,-2.29819 2.59738,-4.932 2.4996,-7.71856 0.1427,-2.5926 0.059,-5.31989 -1.30929,-7.61465 -2.42532,-4.70408 -5.84633,-8.87537 -7.97418,-13.71531 -0.36064,-1.16206 -0.70053,-2.39977 -1.74208,-3.15788 -2.53199,-2.3659 -4.98463,-5.00151 -6.40824,-8.19759 -0.22391,-0.4154 0.0654,-0.52708 0.32888,-0.16574 1.20802,1.37036 1.98653,3.08532 3.39376,4.29883 3.1236,3.17122 6.81366,5.70146 10.62133,7.97262 0.16196,0.10253 0.99788,0.68617 0.31901,0.5232 -2.0766,-0.57541 -3.89156,-1.95494 -5.92712,-2.61079 -0.62426,0.45521 0.15106,1.34031 0.29407,1.88289 1.28664,2.45203 2.56158,4.99638 4.44534,7.04729 0.96894,0.6549 2.13413,-0.21289 3.08878,-0.51696 2.18585,-0.96685 4.25775,-2.4781 5.1535,-4.78098 1.36368,-2.86271 0.70385,-6.22369 -0.82402,-8.87926 -2.53079,-4.97609 -6.61548,-8.93675 -10.69667,-12.65177 -1.97197,-1.60105 -3.90438,-3.48022 -6.37291,-4.26609 -0.33205,-0.11132 -1.05181,-0.039 -1.20018,-0.41773 0.51738,-0.4826 1.67233,-0.10871 1.78832,-1.07133 -0.099,-1.14596 0.67549,-2.12987 1.70883,-2.54116 3.00261,-1.32051 6.23716,-2.03269 9.35569,-2.88563 0.41395,-3.12591 0.4555,-6.38183 1.05159,-9.51104 1.1637,-7.68431 3.18308,-15.24123 4.00943,-22.98111 0.57113,-4.409425 -1.8309,-8.671914 -5.08492,-11.479646 -2.68702,-2.31331 -5.71588,-4.252495 -8.90945,-5.764716 z m 6.19677,8.39295 c 1.24806,0.03992 2.37191,0.759598 3.11164,1.767019 1.72549,2.096675 1.51577,5.003806 1.87665,7.545543 0.1212,1.80929 0.37028,3.83838 0.63957,5.50265 -0.90861,-1.16545 -0.74117,-2.83237 -1.05262,-4.22713 -0.48889,-2.858032 -0.49769,-6.058367 -2.29489,-8.479714 -1.5552,-1.802002 -4.27109,-1.50078 -6.35472,-1.027686 -0.223,0.0463 -1.21897,0.285792 -0.63698,-0.14236 1.2399,-0.736409 2.75784,-0.861046 4.16945,-0.912864 0.18261,-0.0232 0.36361,-0.03116 0.5419,-0.02546 z M 96.424057,137.02675 c -0.01718,0.001 -0.03524,0.007 -0.05507,0.0182 -6.361972,1.66449 -12.591846,3.77495 -18.820489,5.87309 -3.607544,-0.15393 -7.249083,0.1074 -10.827081,-0.35538 -2.335389,-0.57133 -3.74068,-2.84497 -5.681893,-4.12997 -0.714654,-0.82069 -1.772371,-0.14132 -2.1889,0.61256 -1.015584,1.38813 -1.616859,3.07671 -1.373713,4.80956 -0.135478,0.74878 0.733248,1.37285 1.30721,0.76998 0.934155,-0.77901 1.513307,-1.87648 2.237738,-2.83471 -0.109646,1.71701 -0.08253,3.51295 0.397464,5.16857 0.803378,0.67654 2.067354,0.20271 2.852374,-0.12054 -0.762715,0.85276 -2.361674,0.91048 -2.768208,2.072 -0.0024,0.93731 -0.167003,2.07623 0.374083,2.87472 1.203856,0.2231 2.430146,-0.75267 3.645224,-0.18341 4.503326,1.4985 8.889397,3.92657 13.772977,3.7507 3.781394,-0.0172 7.625012,-0.069 11.317544,-0.95443 1.471951,-1.77255 2.265896,-4.03354 3.510137,-5.96557 1.550787,-2.7966 3.465167,-5.40855 5.109341,-8.11811 -0.799782,-1.04126 -1.937601,-1.93303 -2.56662,-3.15528 -0.08906,-0.01 -0.14929,-0.13702 -0.242115,-0.13196 z M 87.728206,180.413 c -0.05124,0.003 -0.106384,0.0191 -0.168336,0.0436 -1.842434,3.06218 -4.046113,5.99925 -5.198185,9.41648 -0.593043,1.6178 0.04177,3.47923 1.479184,4.42144 4.001558,2.82728 8.902214,4.15657 13.767261,4.2874 0.946584,0.0507 1.988,0.0839 2.86848,0.19275 -3.70258,0.74803 -7.529744,0.004 -11.137772,-0.88584 -1.790827,-0.36051 -3.400169,-1.38929 -5.16909,-1.80443 -0.703679,0.22423 -1.838197,0.43154 -2.010691,1.27552 0.259997,1.13754 1.736694,1.30927 2.300087,2.27046 0.882685,0.4603 1.890381,-0.26925 2.826917,-0.28783 -0.404008,0.34163 -1.596341,1.02018 -0.437989,1.16173 1.432892,-0.0459 2.662779,1.42021 2.188901,2.80874 -0.116226,0.43575 -0.65167,1.36252 0.15431,1.38566 4.31883,-0.71784 8.598056,-1.73054 12.839847,-2.82172 1.10354,-0.37523 2.44232,-0.5654 3.26023,-1.41476 -0.17293,-1.14195 0.17554,-2.54472 -0.54449,-3.53092 -1.5407,-1.01343 -3.39363,-1.46989 -4.930616,-2.51622 -5.380317,-3.12997 -9.1972,-8.31936 -11.853727,-13.87481 -0.07478,-0.0975 -0.148923,-0.13161 -0.234321,-0.1273 z m 62.962704,8.97018 c -4.58217,0.32253 -8.98694,1.81978 -13.32616,3.23529 -1.73432,0.65878 -3.5834,1.20792 -5.15402,2.16448 0.66851,1.07506 2.00555,1.69244 3.18853,2.16241 1.62415,0.68812 3.47886,0.64408 5.1135,1.01937 -2.82908,0.70116 -6.06914,0.23303 -8.25839,-1.81222 -1.1046,-0.86154 -1.96765,-2.05262 -3.10436,-2.83107 -1.34161,1.19295 -2.71434,2.50002 -3.73562,3.97618 0.75593,1.51158 1.98259,2.98594 3.72159,3.42025 6.78499,2.25508 14.19198,1.89421 21.07798,0.29459 3.83955,-1.01144 7.67086,-2.86365 10.22543,-5.98531 0.73754,-0.93338 1.20949,-2.41026 0.17976,-3.32518 -1.94731,-1.48127 -4.53066,-1.66021 -6.86596,-2.06524 -1.01617,-0.12412 -2.03579,-0.2752 -3.06228,-0.25355 z m 7.15328,4.29623 -0.0608,0.10599 c -1.19245,1.70183 -2.80635,3.40483 -4.91502,3.85513 -0.47072,-0.27509 0.45009,-0.62292 0.63854,-0.77363 1.63867,-0.78006 2.97116,-2.02607 4.33727,-3.18749 z" />
    <path
       style="fill:#4d8061;fill-opacity:1;stroke:none;stroke-width:0.500003;stroke-linecap:square;stroke-dasharray:none;stroke-opacity:1;paint-order:markers stroke fill"
       d="m 120.17724,66.52332 c -1.58711,0.589071 -2.5024,2.214717 -3.53796,3.460695 -0.55848,0.848346 -1.23778,1.700895 -1.48687,2.682738 1.4973,0.622394 3.18919,0.884523 4.66775,1.550325 1.0577,0.361613 2.15199,1.196719 3.29169,0.616185 0.65523,-0.06162 1.43985,-0.549993 1.05284,-1.299446 -0.91756,-2.282495 -1.78182,-4.664677 -3.269,-6.645521 -0.19689,-0.182789 -0.4253,-0.402713 -0.71845,-0.364976 z"
       id="path10" />
    <path
       style="fill:#4d8061;fill-opacity:1;stroke:none;stroke-width:0.500003;stroke-linecap:square;stroke-dasharray:none;stroke-opacity:1;paint-order:markers stroke fill"
       d="m 168.11996,95.166367 c -1.37483,0.342102 -2.59539,1.295573 -4.08989,1.114495 -2.72414,0.222214 -5.49265,0.01279 -8.19106,0.48581 -1.47307,0.652676 -3.22629,0.919281 -4.21531,2.342424 -1.57316,1.902374 -1.94742,4.633194 -1.35929,6.977614 1.10861,2.47911 3.88487,3.71064 6.45087,4.01276 1.86246,0.65922 3.85787,-0.24391 5.43978,-1.21823 3.06327,-2.33384 5.47068,-5.61125 6.32987,-9.405526 0.26148,-1.317613 0.62007,-2.79456 0.14566,-4.091346 -0.11536,-0.159965 -0.31795,-0.233784 -0.51063,-0.218001 z"
       id="path11" />
    <path
       style="fill:#89a257;fill-opacity:1;stroke:#112318;stroke-width:0.500003;stroke-linecap:square;stroke-dasharray:none;stroke-opacity:1;paint-order:markers stroke fill"
       d="m 82.621876,199.28578 c -2.887225,-0.002 -5.639935,1.71397 -7.216002,4.06965 -0.03239,0.87778 1.225386,0.65693 1.793972,0.6152 2.302279,-0.42737 4.385876,-1.77619 6.055971,-3.37751 0.673808,-0.59182 0.30628,-1.46963 -0.633941,-1.30734 z"
       id="path12" />
    <path
       style="fill:#89a257;fill-opacity:1;stroke:#112318;stroke-width:0.500003;stroke-linecap:square;stroke-dasharray:none;stroke-opacity:1;paint-order:markers stroke fill"
       d="m 86.311091,201.13795 c -3.271475,0.29258 -6.160096,2.50307 -7.925237,5.18398 -0.475626,0.59949 0.35421,1.03668 0.89008,0.8789 2.633174,-0.27022 5.264595,-0.9615 7.651344,-2.11029 1.245411,-0.55473 2.244144,-2.4595 1.075199,-3.5373 -0.472978,-0.37378 -1.108895,-0.44156 -1.691386,-0.41529 z"
       id="path13" />
    <path
       style="fill:#89a257;fill-opacity:1;stroke:#112318;stroke-width:0.500003;stroke-linecap:square;stroke-dasharray:none;stroke-opacity:1;paint-order:markers stroke fill"
       d="m 114.13574,207.02327 c -2.67526,0.263 -5.23573,1.66946 -7.00655,3.67146 -0.6132,0.5354 -0.54837,1.75971 0.40805,1.81272 2.91939,0.28046 6.19393,-0.38035 8.18993,-2.68669 0.72351,-0.88313 0.52437,-2.65865 -0.82597,-2.76033 -0.25262,-0.0426 -0.50999,-0.0484 -0.76546,-0.0372 z"
       id="path14" />
    <path
       style="fill:#89a257;fill-opacity:1;stroke:#112318;stroke-width:0.500003;stroke-linecap:square;stroke-dasharray:none;stroke-opacity:1;paint-order:markers stroke fill"
       d="m 108.523,205.89185 c -2.20137,0.2419 -4.50146,1.0939 -5.9981,2.78203 -0.63682,0.58968 -0.64028,1.9313 0.40937,2.01592 2.52593,0.41065 4.70292,-1.37142 6.3953,-3.01549 0.43394,-0.47842 1.28169,-1.52552 0.12757,-1.66508 -0.29691,-0.11172 -0.62017,-0.12767 -0.93414,-0.11738 z"
       id="path15" />
    <path
       style="fill:#89a257;fill-opacity:1;stroke:#112318;stroke-width:0.500003;stroke-linecap:square;stroke-dasharray:none;stroke-opacity:1;paint-order:markers stroke fill"
       d="m 122.22801,207.07522 c -3.14183,0.39815 -5.98978,3.08327 -6.33118,6.27233 -0.26288,1.30603 1.19807,2.2764 2.37695,1.88998 2.8042,-0.48274 5.31046,-2.74768 6.01684,-5.51179 0.39695,-1.36431 -0.57311,-2.80192 -2.06261,-2.65052 z"
       id="path16" />
    <path
       style="fill:#89a257;fill-opacity:1;stroke:#112318;stroke-width:0.5;stroke-linecap:square;stroke-dasharray:none;stroke-opacity:1;paint-order:markers stroke fill"
       d="m 81.001534,197.40679 c -0.451798,0.0285 -0.880894,0.19398 -1.300475,0.3524 -1.134087,0.45222 -2.187481,1.09902 -3.127365,1.87625 -0.478958,0.40963 -0.949446,0.85237 -1.26616,1.40364 -0.09289,0.19052 -0.228535,0.38089 -0.222717,0.60125 0.0083,0.20116 0.248225,0.32094 0.421691,0.23146 0.275159,-0.13846 0.501316,-0.35489 0.74262,-0.54301 0.482653,-0.41414 1.006807,-0.77612 1.548816,-1.10774 0.686558,-0.43129 1.408648,-0.80603 2.138705,-1.16529 0.500837,-0.26396 1.027327,-0.52122 1.412986,-0.94736 0.135909,-0.14249 0.207134,-0.38487 0.06812,-0.54906 -0.09896,-0.12361 -0.265573,-0.1581 -0.416217,-0.15254 z"
       id="path17" />
    <path
       style="fill:#112318;fill-opacity:1;stroke:#112318;stroke-width:0.5;stroke-linecap:square;stroke-dasharray:none;stroke-opacity:1;paint-order:markers stroke fill"
       d="m 52.903022,138.23115 c -1.607328,0.64977 -2.821471,3.46061 -1.006889,4.55803 1.610281,0.45745 4.080289,0.39233 4.854516,-1.37959 0.02793,-1.41844 -1.875111,-1.67406 -2.949316,-1.91097 -0.643765,-0.10858 -0.108424,-1.27653 -0.898311,-1.26747 z"
       id="path18" />
    <path
       style="fill:#112318;fill-opacity:1;stroke:#112318;stroke-width:0.5;stroke-linecap:square;stroke-dasharray:none;stroke-opacity:1;paint-order:markers stroke fill"
       d="m 54.776314,143.68262 c -1.431483,0.0191 -3.491425,0.79991 -3.356149,2.50127 1.209679,2.23708 5.380093,1.51176 5.395631,-1.13497 -0.02085,-1.0477 -1.143323,-1.46421 -2.039482,-1.3663 z"
       id="path19" />
    <path
       style="fill:#112318;fill-opacity:1;stroke:#112318;stroke-width:0.5;stroke-linecap:square;stroke-dasharray:none;stroke-opacity:1;paint-order:markers stroke fill"
       d="m 53.872684,148.47155 c -1.149976,0.28129 -0.875147,2.01645 -0.315539,2.76806 0.901339,1.10526 2.895442,1.69946 4.040851,0.70553 0.06114,-1.31481 -1.31584,-2.23102 -2.258852,-2.95242 -0.446073,-0.25499 -0.93821,-0.52907 -1.46646,-0.52117 z"
       id="path20" />
    <path
       style="fill:#eeffcc;fill-opacity:1;stroke:#112318;stroke-width:0.500003;stroke-linecap:square;stroke-dasharray:none;stroke-opacity:1;paint-order:markers stroke fill"
       d="m 101.17292,129.62887 c -0.10096,0.58752 -0.10146,1.20179 -0.28459,1.77953 -0.24088,1.00149 -0.69366,1.9469 -0.87329,2.9622 -0.003,0.60572 0.42192,1.11202 0.77766,1.56489 0.64286,0.70975 1.40061,1.34115 2.26402,1.76299 0.99391,0.41098 2.11875,0.33325 3.14931,0.11706 1.24597,-0.33384 2.28115,-1.15105 3.34351,-1.84544 0.49055,-0.35513 1.0102,-0.67722 1.47177,-1.06872 0.20241,-0.3496 -0.19208,-0.66812 -0.40739,-0.89885 -0.87243,-0.72779 -1.87998,-1.27549 -2.758,-1.99862 -0.57872,-0.39259 -1.02204,-0.97079 -1.64837,-1.29071 -0.71077,-0.24435 -1.47819,-0.26054 -2.20175,-0.46306 -0.87516,-0.18588 -1.72997,-0.45458 -2.5704,-0.72896 -0.11557,-0.029 -0.1803,0.0389 -0.26248,0.10769 z"
       id="path21" />
    <path
       style="fill:#eeffcc;fill-opacity:1;stroke:#112318;stroke-width:0.500003;stroke-linecap:square;stroke-dasharray:none;stroke-opacity:1;paint-order:markers stroke fill"
       d="m 116.51066,129.84237 c -1.50704,0.35252 -3.05116,0.61936 -4.59892,0.79603 -0.42235,0.24557 -0.60571,0.77464 -0.67732,1.24215 -0.0759,0.76665 -0.12498,1.55206 -0.009,2.31615 0.064,0.30709 0.4552,0.29325 0.62369,0.0855 1.64501,-1.30796 3.28584,-2.62363 4.8848,-3.98726 0.16612,-0.17048 0.0106,-0.47985 -0.22336,-0.45254 z"
       id="path22" />
    <path
       id="path23"
       style="fill:#bedc7f;fill-opacity:1;stroke:#112318;stroke-width:0.5;stroke-linecap:square;stroke-dasharray:none;stroke-opacity:1;paint-order:markers stroke fill"
       d="m 50.409353,71.147241 c -1.4753,0.174756 -3.341116,0.59452 -4.115943,1.980037 0.04616,1.67679 2.183199,1.784631 3.445713,1.698957 1.522238,-0.183175 3.663989,-0.539948 4.220893,-2.193057 -0.116526,-1.501339 -2.503234,-1.467825 -3.550663,-1.485937 z m 3.3896,3.654574 c -0.04217,-4.25e-4 -0.08409,0.0075 -0.121057,0.02442 -2.225814,1.22005 -4.978335,1.239065 -7.373056,0.681142 -0.693201,0.566663 -0.02343,1.732913 0.146516,2.458031 0.59611,1.336472 1.92223,2.411975 1.618425,4.029696 -0.113761,0.818249 0.378026,2.235426 -0.804796,2.337495 -0.957554,0.734352 -0.03588,2.213899 -0.169376,3.18853 0.295498,2.106275 0.226685,4.404995 1.560754,6.186904 0.326647,0.864673 0.897576,2.113018 0.274326,2.915242 -1.163597,0.294044 -0.882939,2.032363 -0.566838,2.890303 1.634038,1.806592 4.644575,1.964442 6.692434,0.735692 0.875282,-0.23426 1.242447,-1.002262 1.016776,-1.852741 -0.70713,-7.785295 -1.177595,-15.595186 -2.009653,-23.368185 -0.0089,-0.146831 -0.137941,-0.225225 -0.264455,-0.226528 z m -15.848095,3.68419 c -0.799007,0.359513 -0.224404,1.691813 -0.454094,2.403998 -0.02922,2.329571 -0.189679,4.675112 -0.04364,6.997414 0.756036,0.495713 1.878067,-0.03367 2.659101,-0.338752 0.810262,-0.815464 0.208145,-2.279293 0.825059,-3.122027 2.218493,-0.479995 4.566007,-0.359947 6.752183,-0.820383 -0.197086,-0.901256 0.101799,-2.316239 -0.690493,-2.967199 -2.364115,-0.405228 -4.785908,0.615943 -7.093533,0.472278 -0.214546,-0.961908 0.499566,-2.664768 -1.090034,-2.523495 -0.285868,-0.04747 -0.573504,-0.103972 -0.864546,-0.101834 z m 17.512761,23.475735 c -0.05085,8e-4 -0.101147,0.004 -0.147555,0.006 -1.781239,0.32187 -3.623073,0.38876 -5.392498,0.51021 1.059081,9.93965 2.372355,19.92447 3.550143,29.87929 0.426856,2.28492 0.323424,4.77356 1.333707,6.90026 0.636509,0.54361 1.601739,0.65106 2.383735,0.86922 0.936711,-0.82437 1.606239,-1.99311 2.259041,-3.03371 -1.19467,-11.65173 -2.13091,-23.34283 -3.598983,-34.95953 -0.07684,-0.15293 -0.235056,-0.1737 -0.38759,-0.17146 z" />
    <path
       style="fill:#bedc7f;fill-opacity:1;stroke:#112318;stroke-width:0.5;stroke-linecap:square;stroke-dasharray:none;stroke-opacity:1;paint-order:markers stroke fill"
       d="m 59.757536,144.45815 c -0.675091,0.35132 -1.177964,1.02248 -1.972989,1.15246 -0.577924,0.26977 -0.716347,0.98504 -1.224602,1.34881 -0.329226,0.36615 -0.802219,0.62122 -1.032788,1.05724 0.392151,0.69157 1.100171,1.18329 1.607905,1.80465 0.533321,0.59717 1.376773,1.34947 0.980879,2.25593 -0.249209,0.94443 -1.553278,0.61316 -2.025048,1.33291 -0.180509,0.94972 0.164663,1.92529 0.221901,2.87888 0.374328,2.53372 0.518298,5.11969 1.18019,7.60273 0.0772,0.43226 0.442351,0.74182 0.889889,0.65528 1.04104,-0.0315 2.174944,0.0455 3.126841,-0.43883 0.340812,-0.42637 0.0843,-1.06413 0.137484,-1.5684 -0.355802,-5.87177 -0.909135,-11.73125 -1.466754,-17.5862 -0.03319,-0.2225 -0.122396,-0.55707 -0.422908,-0.49546 z"
       id="path24" />
    <path
       style="fill:#bedc7f;fill-opacity:1;stroke:#112318;stroke-width:0.5;stroke-linecap:square;stroke-dasharray:none;stroke-opacity:1;paint-order:markers stroke fill"
       d="m 63.650757,163.70711 c -1.199253,0.68338 -2.535061,1.13733 -3.910856,1.20797 -1.160854,0.12715 -2.376871,0.0549 -3.512397,-0.3062 -0.47508,-0.15174 -0.74215,0.37017 -0.680781,0.77547 0.07915,3.35138 0.577508,6.67729 0.929132,10.00751 0.207457,1.246 0.198646,2.57334 0.726089,3.73947 0.54179,0.73268 1.586505,0.75966 2.415139,0.85024 1.572974,0.0445 3.279934,-0.19071 4.556184,-1.17464 0.547249,-0.75296 0.269057,-1.77127 0.340726,-2.63665 -0.07303,-4.10383 -0.314333,-8.21835 -0.512835,-12.30778 -0.0178,-0.15168 -0.228687,-0.21187 -0.350401,-0.15539 z"
       id="path25" />
    <path
       style="fill:#bedc7f;fill-opacity:1;stroke:#112318;stroke-width:0.5;stroke-linecap:square;stroke-dasharray:none;stroke-opacity:1;paint-order:markers stroke fill"
       d="m 67.152839,177.50599 c -0.718384,0.0491 -1.807791,-0.14644 -2.126545,0.70873 -0.531696,1.30639 -2.015219,1.82519 -3.299787,2.05754 -1.263548,0.22109 -2.530178,0.0913 -3.785434,-0.11041 -1.545889,-0.11039 -2.879872,0.85899 -4.199955,1.5159 -3.579694,2.08586 -6.828246,4.89875 -9.019457,8.44495 -1.368923,2.28343 -2.197099,5.2075 -1.086244,7.76216 1.150273,2.62012 3.903789,4.13068 6.61285,4.64021 1.963004,0.43362 3.974551,0.57669 5.980958,0.48107 4.394784,-0.0156 8.687599,-1.40076 12.578835,-3.3705 3.809222,-1.985 7.364406,-4.72227 9.670366,-8.39745 1.660907,-2.65026 2.189192,-6.22696 0.581084,-9.0267 -1.515511,-2.6477 -4.537728,-3.93975 -7.421814,-4.43535 -1.478245,-0.27116 -2.987169,-0.27522 -4.484857,-0.27015 z m 0.165434,5.14856 c 2.490806,0.0202 5.256963,0.61712 7.036833,2.52904 1.349507,1.47359 1.47563,3.67539 0.788566,5.45463 -1.273597,3.33509 -4.269965,5.73137 -7.394611,7.2782 -3.064587,1.56565 -6.533077,2.15439 -9.939532,2.13989 -1.038923,0.0729 -2.087473,-0.11292 -3.029012,-0.5868 -1.496867,-0.61909 -2.797954,-1.70532 -3.632928,-3.09452 -0.704197,-1.26175 -0.353722,-2.65119 -0.0073,-3.97219 0.955541,-2.86074 3.33842,-4.94972 5.8,-6.52637 3.10162,-1.92813 6.698802,-3.23338 10.378022,-3.22188 z"
       id="path26" />
    <path
       style="fill:#bedc7f;fill-opacity:1;stroke:#112318;stroke-width:0.500003;stroke-linecap:square;stroke-dasharray:none;stroke-opacity:1;paint-order:markers stroke fill"
       d="m 45.153878,79.335362 c -0.700858,0.0097 -1.399898,0.07314 -2.096221,0.14989 -0.657102,0.07946 -1.315381,0.169922 -1.957267,0.334969 -0.184947,0.0559 -0.388166,0.100228 -0.53135,0.238993 -0.12221,0.117887 -0.117076,0.337551 0.01997,0.441902 0.148646,0.113252 0.347015,0.107417 0.524752,0.116338 0.602127,0.0046 1.202379,-0.05851 1.79989,-0.126701 0.810438,-0.100723 1.621512,-0.222144 2.41008,-0.438951 0.156132,-0.05091 0.330218,-0.08523 0.452379,-0.202744 0.121345,-0.118392 0.09822,-0.339808 -0.04604,-0.4295 -0.146217,-0.09021 -0.326976,-0.07584 -0.491901,-0.08391 -0.0281,-2.93e-4 -0.0562,-3.72e-4 -0.0843,-2.93e-4 z"
       id="path27" />
    <path
       style="fill:#bedc7f;fill-opacity:1;stroke:#112318;stroke-width:0.5;stroke-linecap:square;stroke-dasharray:none;stroke-opacity:1;paint-order:markers stroke fill"
       d="m 35.369791,77.13346 c -0.204385,0.411813 -0.03667,0.916315 -0.091,1.365205 0.02992,2.711339 -0.07782,5.430611 0.144019,8.135812 0.09017,0.516856 0.103662,1.151067 0.516674,1.523961 0.440891,0.176818 0.594886,-0.416557 0.649437,-0.736004 0.282431,-1.978667 0.237185,-3.987192 0.312891,-5.980633 0.0278,-1.008451 0.03129,-2.018389 0.100311,-3.025153 0.757958,-0.113072 1.59262,-0.02063 2.282607,-0.399073 0.321785,-0.250984 0.01391,-0.679585 -0.311907,-0.724869 -1.112209,-0.311623 -2.287079,-0.196848 -3.428101,-0.224861 -0.05831,0.02187 -0.116621,0.04374 -0.174932,0.06561 z"
       id="path28" />
    <path
       style="fill:#bedc7f;fill-opacity:1;stroke:#112318;stroke-width:0.5;stroke-linecap:square;stroke-dasharray:none;stroke-opacity:1;paint-order:markers stroke fill"
       d="m 39.729902,92.485382 c -0.555135,0.02681 -1.326464,0.132214 -1.517867,0.748457 -0.152709,0.979477 0.126461,1.967181 0.18061,2.945855 0.17708,1.433613 0.24419,2.888172 0.509692,4.309656 0.09767,0.47064 0.495064,0.90754 1.012314,0.81587 0.410094,0.0116 0.91591,-0.12619 0.999299,-0.59352 0.27265,-1.097835 0.119013,-2.264545 0.417393,-3.354344 0.282803,-0.306581 0.762861,-0.26716 1.140705,-0.375486 1.732264,-0.312585 3.50151,-0.395188 5.236921,-0.709066 0.469007,-0.08278 0.829354,-0.509175 0.770971,-0.994775 0.0038,-0.454552 0.08954,-1.125944 -0.400394,-1.366854 -0.674299,-0.111218 -1.334921,0.179817 -1.996103,0.241548 -1.597464,0.234659 -3.194568,0.504754 -4.812207,0.483201 -0.283258,-0.230863 -0.195873,-0.700779 -0.287402,-1.026079 -0.06756,-0.647308 -0.561826,-1.196417 -1.253932,-1.124463 z"
       id="path29" />
    <path
       style="fill:#bedc7f;fill-opacity:1;stroke:#112318;stroke-width:0.500003;stroke-linecap:square;stroke-dasharray:none;stroke-opacity:1;paint-order:markers stroke fill"
       d="m 46.819393,92.530158 c -0.995083,0.05132 -1.983281,0.191508 -2.973333,0.299241 -0.717077,0.0966 -1.448754,0.183657 -2.126104,0.451083 -0.24977,0.0932 -0.518995,0.331876 -0.432366,0.626849 0.09331,0.315043 0.468775,0.369783 0.750144,0.38012 1.001949,-0.005 1.997975,-0.145602 2.988093,-0.287678 0.739139,-0.124742 1.492722,-0.236223 2.19036,-0.521597 0.220052,-0.07367 0.358793,-0.31245 0.289031,-0.538857 -0.03779,-0.25282 -0.280645,-0.414907 -0.525859,-0.406603 -0.05327,-0.003 -0.106632,-0.0033 -0.159966,-0.0026 z"
       id="path30" />
    <path
       style="fill:#bedc7f;fill-opacity:1;stroke:#112318;stroke-width:0.5;stroke-linecap:square;stroke-dasharray:none;stroke-opacity:1;paint-order:markers stroke fill"
       d="m 38.659241,90.44142 c -0.745185,0.0434 -1.501696,0.09724 -2.227748,0.269215 -0.338107,0.37572 -0.05565,0.965053 -0.111936,1.425667 0.17866,2.536282 0.229505,5.094623 0.66693,7.603457 0.127629,0.491471 0.410772,1.142301 0.96938,1.217471 0.665952,-0.22466 0.482643,-1.094974 0.43991,-1.632389 -0.270494,-2.261872 -0.450456,-4.539667 -0.606713,-6.80828 0.816504,-0.265638 1.744897,-0.27313 2.4875,-0.72433 0.420018,-0.486799 -0.23638,-1.062894 -0.685292,-1.208176 -0.294055,-0.121439 -0.616792,-0.149306 -0.932031,-0.142635 z"
       id="path31" />
  </g>
</svg>
