<?xml version="1.0" encoding="UTF-8" standalone="no"?>
<svg
   width="123.91233"
   height="149.99992"
   viewBox="0 0 123.91233 149.99992"
   fill="none"
   version="1.1"
   id="svg8"
   sodipodi:docname="linux.svg"
   inkscape:version="1.4.3 (0d15f75, 2025-12-25)"
   xmlns:inkscape="http://www.inkscape.org/namespaces/inkscape"
   xmlns:sodipodi="http://sodipodi.sourceforge.net/DTD/sodipodi-0.dtd"
   xmlns="http://www.w3.org/2000/svg"
   xmlns:svg="http://www.w3.org/2000/svg">
  <defs
     id="defs8" />
  <sodipodi:namedview
     id="namedview8"
     pagecolor="#505050"
     bordercolor="#eeeeee"
     borderopacity="1"
     inkscape:showpageshadow="0"
     inkscape:pageopacity="0"
     inkscape:pagecheckerboard="0"
     inkscape:deskcolor="#d1d1d1"
     inkscape:zoom="1.1142265"
     inkscape:cx="267.45011"
     inkscape:cy="178.15049"
     inkscape:window-width="1920"
     inkscape:window-height="994"
     inkscape:window-x="1440"
     inkscape:window-y="30"
     inkscape:window-maximized="0"
     inkscape:current-layer="svg8" />
  <path
     d="m 119.41304,118.33686 c -1.07413,-1.20302 -1.56823,-3.42647 -2.11604,-5.8003 -0.53706,-2.36308 -1.14932,-4.90877 -3.09349,-6.55219 v -0.0107 c -0.70936,-0.61462 -1.51968,-1.10163 -2.39531,-1.43933 2.70681,-8.00227 1.64342,-15.972313 -1.07413,-23.168982 C 107.38278,72.52523 101.55026,64.82372 97.092623,59.560484 92.108661,53.266084 87.232112,47.293922 87.318042,38.475317 87.46842,25.00573 88.800341,0.03222389 65.105039,0 64.138322,0 63.139381,0.0429654 62.097476,0.12889578 35.609436,2.2556619 42.634245,30.236742 42.236817,39.603153 c -0.483359,6.852948 -1.868986,12.24508 -6.584416,18.947649 -5.531768,6.584416 -13.319209,17.229041 -17.014194,28.324802 -1.74009,5.231012 -2.577911,10.569436 -1.804538,15.617846 -0.247049,0.21483 -0.472617,0.44039 -0.687443,0.6767 -1.621936,1.72935 -2.824961,3.83464 -4.167623,5.2525 -1.245991,1.24599 -3.0290458,1.7186 -4.983962,2.41679 -1.9656574,0.70892 -4.1139169,1.74009 -5.4136161,4.24281 v 0.0107 c -0.5766186,1.12526 -0.86103528,2.37748 -0.82708204,3.6413 0,1.16006 0.17186076,2.33086 0.34372154,3.4587 0.3652041,2.36308 0.7304082,4.58653 0.2470498,6.09031 -1.54674639,4.24282 -1.75082932,7.16445 -0.65521698,9.29123 1.09561238,2.13752 3.32980438,3.07201 5.87549188,3.59833 5.0806339,1.07413 11.9658049,0.8056 17.3901389,3.67353 5.800301,3.03978 11.697273,4.11391 16.39122,3.05052 1.64127,-0.32224 3.183291,-1.02708 4.501033,-2.05738 1.317528,-1.03031 2.373612,-2.35665 3.082323,-3.87181 3.673524,-0.0215 7.701511,-1.56823 14.15703,-1.93344 4.38245,-0.34372 9.860511,1.55749 16.14417,1.21377 0.162839,0.6825 0.40817,1.34245 0.730409,1.96566 l 0.01074,0.0107 c 2.438275,4.88729 6.981843,7.11074 11.815427,6.73479 4.833584,-0.38668 9.96792,-3.23313 14.12481,-8.18487 3.97428,-4.8121 10.54795,-6.79924 14.90892,-9.43086 2.18048,-1.32117 3.95279,-2.96459 4.08169,-5.3599 0.13964,-2.38457 -1.26747,-5.05915 -4.48986,-8.64675 z"
     fill="#073B3A"
     id="path1"
     style="fill:#112318;fill-opacity:1;stroke-width:1" />
  <path
     d="m 121.91576,126.87619 c -0.0752,1.47156 -1.14932,2.57792 -3.11498,3.75946 -3.95279,2.38457 -10.94538,4.4469 -15.40302,9.86051 -3.888345,4.61876 -8.614516,7.14296 -12.78214,7.47594 -4.156882,0.32224 -7.744475,-1.39637 -9.871252,-5.64992 v -0.0215 c -1.32118,-2.50272 -0.773373,-6.44478 0.33298,-10.60166 1.106354,-4.15689 2.696066,-8.43192 2.910892,-11.90136 0.214826,-4.45764 0.472617,-8.34599 1.224508,-11.34281 0.751891,-3.00756 1.922692,-5.02693 4.006504,-6.17625 0.09581,-0.0518 0.192484,-0.10182 0.290015,-0.15037 0.236308,3.85612 2.148259,7.78744 5.521027,8.636 3.684265,0.96672 9.001206,-2.19123 11.246136,-4.77988 l 1.31044,-0.043 c 1.9764,-0.0537 3.61982,0.0644 5.31694,1.536 1.2997,1.09561 1.92269,3.19017 2.45976,5.51029 0.53706,2.33086 0.96671,4.8658 2.56717,6.67034 3.08275,3.43722 4.08169,5.73586 3.98502,7.21815 z m -74.963514,10.90242 v 0.0322 c -0.365204,4.67246 -3.007563,7.21815 -7.046291,8.1419 -4.049469,0.92375 -9.538272,0 -15.016334,-2.85719 -6.068855,-3.22239 -13.287006,-2.90015 -17.9057643,-3.86686 -2.3201202,-0.48336 -3.8346432,-1.21377 -4.5220862,-2.55643 -0.6874387,-1.35341 -0.7089213,-3.70575 0.7626321,-7.73374 v -0.0107 l 0.010741,-0.0215 c 0.7304083,-2.24493 0.1933434,-4.70469 -0.1611194,-7.01407 -0.3544629,-2.29864 -0.5263236,-4.40393 0.2577911,-5.86475 l 0.010741,-0.0107 c 1.009682,-1.94417 2.491981,-2.64236 4.3287429,-3.29758 1.8260206,-0.66596 4.0065038,-1.18154 5.7251108,-2.90015 l 0.01074,-0.0107 c 1.589712,-1.68638 2.803478,-3.79168 4.199847,-5.28472 1.181543,-1.25673 2.363085,-2.09455 4.135421,-2.10529 h 0.05371 c 0.334699,0.003 0.668539,0.0318 0.998941,0.0859 2.363086,0.35446 4.414673,2.00862 6.401813,4.69395 l 5.725112,10.4298 v 0.0107 c 1.525264,3.17942 4.736912,6.68109 7.465202,10.2472 2.728289,3.57685 4.833584,7.1537 4.56505,9.89273 z"
     fill="#009868"
     id="path2"
     style="fill:#89a257;fill-opacity:1;stroke-width:1" />
  <path
     d="m 75.502615,40.516164 c -0.461876,-0.902269 -1.396369,-1.761573 -3.007563,-2.416792 -3.329803,-1.428593 -4.769137,-1.525265 -6.627381,-2.72829 -3.007563,-1.944175 -5.510286,-2.620876 -7.583356,-2.620876 -0.995289,0.0047 -1.982629,0.175512 -2.921633,0.504841 -2.534946,0.859303 -4.210589,2.685324 -5.263236,3.673523 -0.214826,0.204085 -0.472617,0.375946 -1.117095,0.859304 -0.644477,0.461876 -1.611194,1.181543 -3.007563,2.23419 -1.256732,0.923752 -1.65416,2.148259 -1.224508,3.566111 0.429652,1.417851 1.793797,3.06127 4.296519,4.479121 1.557488,0.91301 2.631618,2.148259 3.856126,3.125717 0.615047,0.511286 1.298193,0.934278 2.030105,1.256732 0.773374,0.33298 1.675643,0.558548 2.792738,0.622995 2.663841,0.16112 4.618757,-0.644477 6.337365,-1.621936 1.718608,-0.988199 3.179424,-2.191224 4.855067,-2.73903 3.437215,-1.07413 5.896972,-3.233131 6.670345,-5.29546 0.195062,-0.461231 0.288512,-0.958983 0.273689,-1.459528 -0.01482,-0.500544 -0.137489,-0.991851 -0.359619,-1.440622 z"
     fill="#009868"
     id="path3"
     style="fill:#89a257;fill-opacity:1;stroke-width:1" />
  <path
     d="m 66.780681,45.586056 c -2.739031,1.428593 -5.929196,3.157942 -9.334187,3.157942 -3.39425,0 -6.079575,-1.56823 -8.002267,-3.104235 -0.966717,-0.751891 -1.750831,-1.525265 -2.341603,-2.073071 -1.031164,-0.805597 -0.902269,-1.944175 -0.483358,-1.911951 0.708926,0.08593 0.816339,1.020423 1.256732,1.439334 0.601512,0.558548 1.353403,1.288956 2.266413,2.008623 1.826021,1.450075 4.264296,2.857185 7.304083,2.857185 3.050528,0 6.595156,-1.783056 8.764899,-3.007563 1.235249,-0.687444 2.792737,-1.922693 4.070951,-2.857186 0.966717,-0.719667 0.934493,-1.57897 1.74009,-1.482299 0.805598,0.09667 0.214826,0.955976 -0.91301,1.933434 -1.127836,0.988199 -2.90015,2.298638 -4.328743,3.039787 z"
     fill="#202020"
     id="path4"
     style="stroke-width:1" />
  <path
     d="m 108.661,103.95427 c -0.3723,-0.0112 -0.7448,-0.0112 -1.1171,0 h -0.10741 c 0.94523,-2.97534 -1.13858,-5.155826 -6.67035,-7.658548 -5.735846,-2.524205 -10.311639,-2.277156 -11.085012,2.846443 -0.05371,0.268536 -0.09667,0.537066 -0.118155,0.816336 -0.444904,0.157689 -0.875845,0.351669 -1.288955,0.580029 -2.706807,1.47156 -4.178365,4.14614 -4.994704,7.43298 -0.816338,3.2761 -1.052647,7.23964 -1.278214,11.70802 -0.139637,2.23419 -1.063389,5.26323 -1.997881,8.48562 -9.398636,6.70257 -22.449312,9.60272 -33.534331,2.04085 -0.751891,-1.18155 -1.611195,-2.36309 -2.502723,-3.52315 -0.565851,-0.73943 -1.138792,-1.47328 -1.718607,-2.20196 0.986695,0.0264 1.967806,-0.15661 2.878668,-0.53707 0.455001,-0.19098 0.866822,-0.47219 1.210114,-0.82665 0.343507,-0.35446 0.611395,-0.77488 0.787767,-1.23568 0.676702,-1.82602 0,-4.38245 -2.169742,-7.30408 -2.159001,-2.93238 -5.821783,-6.22995 -11.203173,-9.53827 -3.952798,-2.4705 -6.165505,-5.478069 -7.19667,-8.743418 -1.041906,-3.276096 -0.902269,-6.820724 -0.107413,-10.311646 1.536006,-6.713311 5.478062,-13.24402 7.980784,-17.336454 0.676702,-0.4941 0.24705,0.923751 -2.534946,6.090315 -2.491981,4.726171 -7.164445,15.628588 -0.773373,24.146437 0.17186,-6.058092 1.611194,-12.245079 4.049469,-18.013156 3.533887,-8.023749 10.934641,-21.922988 11.514671,-33.008007 0.311497,0.214826 1.342662,0.923752 1.815279,1.181543 1.353403,0.805597 2.373827,1.976399 3.695006,3.039787 1.722904,1.454157 3.922937,2.219367 6.176246,2.14826 2.577912,0 4.586534,-0.848563 6.251436,-1.804538 1.82602,-1.031165 3.265354,-2.191225 4.650981,-2.631618 2.900151,-0.913011 5.220271,-2.524205 6.530709,-4.403932 2.255673,8.915277 7.518908,21.77261 10.891676,28.045527 1.793797,3.329803 5.370649,10.408318 6.906654,18.926167 0.977458,-0.02148 2.051588,0.107413 3.211648,0.408169 4.027981,-10.451282 -3.426474,-21.718904 -6.831465,-24.855362 -1.374886,-1.331921 -1.450075,-1.933434 -0.751891,-1.90121 3.684265,3.265354 8.539332,9.84977 10.311646,17.272006 0.805591,3.383509 0.966711,6.938878 0.107413,10.451283 0.429648,0.182602 0.859298,0.365204 1.288958,0.58003 6.477,3.1472 8.87231,5.886227 7.72299,9.634947 z"
     fill="#ffffff"
     id="path5"
     style="stroke-width:1" />
  <path
     d="m 62.505645,75.683172 c -5.972162,0.02148 -11.804686,2.696065 -16.734942,7.690769 -4.940996,4.983962 -8.743416,12.051735 -10.93464,20.279569 l 0.655219,0.40817 v 0.043 c 5.04841,3.20091 8.646744,6.4233 10.870193,9.43086 2.352344,3.17943 3.39425,6.27292 2.395309,8.95825 -0.527398,1.35641 -1.569948,2.44923 -2.90015,3.03978 l -0.440393,0.16112 c 0.794856,1.04191 1.568229,2.11604 2.287896,3.22239 10.139785,6.74554 21.933729,4.25355 30.7953,-1.8475 0.859304,-2.98608 1.643418,-5.75734 1.750831,-7.49743 0.225568,-4.45764 0.451135,-8.50711 1.331921,-12.03025 0.880787,-3.54463 2.599394,-6.76702 5.843266,-8.539331 0.182602,-0.107413 0.365204,-0.16112 0.547806,-0.24705 0.05714,-0.341359 0.135985,-0.678421 0.236309,-1.009682 C 85.610176,91.06471 81.861463,85.500718 77.360859,81.63385 72.849514,77.766983 67.725915,75.715396 62.516386,75.683172 Z m 25.456875,23.147496 -0.02148,0.05371 v -0.02148 l 0.01074,-0.04297 z"
     fill="#e6e6e6"
     id="path6"
     style="stroke-width:1" />
  <path
     d="m 75.803371,30.258225 c 0.0464,2.54182 -0.767358,5.024993 -2.309379,7.046291 -0.771225,-0.344581 -1.551902,-0.66682 -2.341603,-0.966717 l -1.364144,-0.483358 c 0.311497,-0.375946 0.91301,-0.805598 1.149318,-1.364145 0.340285,-0.829014 0.522242,-1.714311 0.537065,-2.610136 l 0.01074,-0.107413 c 0.02664,-0.860592 -0.100754,-1.719037 -0.375946,-2.534946 -0.216115,-0.745016 -0.615046,-1.424296 -1.16006,-1.976398 -0.216115,-0.229435 -0.47541,-0.41397 -0.762847,-0.542866 -0.287652,-0.12911 -0.59786,-0.200003 -0.912795,-0.209025 h -0.07519 c -0.601513,0.0084 -1.17875,0.237812 -1.621936,0.644478 -0.586475,0.507848 -1.03675,1.15383 -1.310439,1.879727 -0.338565,0.829443 -0.520523,1.714311 -0.537065,2.610135 v 0.107413 c -0.01697,0.503122 0.01547,1.006889 0.09667,1.503782 -1.218493,-0.562415 -2.493055,-0.99443 -3.802419,-1.288956 -0.0623,-0.473906 -0.09818,-0.95082 -0.107413,-1.428593 v -0.139637 c -0.04554,-1.650722 0.277555,-3.290918 0.945234,-4.80136 0.568644,-1.390568 1.495189,-2.606053 2.685324,-3.523145 1.052648,-0.850088 2.363516,-1.31611 3.716489,-1.32118 h 0.06445 c 1.342662,0 2.491981,0.386687 3.673524,1.245991 1.216559,0.890453 2.170172,2.092834 2.760513,3.48018 0.676702,1.482299 1.009682,2.932374 1.041906,4.650982 l 0.01074,0.128896 z m -20.301052,1.761572 c -1.051573,0.300971 -2.053951,0.75318 -2.975339,1.342663 0.07197,-0.534273 0.07927,-1.075204 0.02148,-1.611195 v -0.08593 c -0.06574,-0.709784 -0.239531,-1.405176 -0.515582,-2.062329 -0.221056,-0.578311 -0.57423,-1.096901 -1.031165,-1.514523 -0.167994,-0.164771 -0.368211,-0.292807 -0.588408,-0.375945 -0.219982,-0.08335 -0.454787,-0.119873 -0.689806,-0.107413 -0.451135,0.04296 -0.82708,0.257791 -1.181543,0.698184 -0.377234,0.492596 -0.634811,1.066396 -0.751891,1.675643 -0.167564,0.721385 -0.214611,1.465328 -0.139637,2.201966 v 0.08593 c 0.06166,0.713867 0.235665,1.413555 0.515583,2.073071 0.257146,0.660375 0.687658,1.23933 1.24599,1.675642 l -1.095612,0.859304 -0.837821,0.601512 C 46.734413,36.744464 46.149227,35.8669 45.759962,34.898465 45.190673,33.609509 44.879176,32.320554 44.793245,30.806031 v -0.01074 c -0.09839,-1.414199 0.06552,-2.834413 0.483359,-4.189106 0.32052,-1.181328 0.938145,-2.261043 1.793796,-3.136458 0.358975,-0.396354 0.79636,-0.713652 1.28466,-0.931915 0.488084,-0.218264 1.016341,-0.332336 1.551043,-0.335559 0.902269,0 1.697125,0.300757 2.524205,0.966717 0.945019,0.776166 1.679939,1.77704 2.137518,2.910892 0.569289,1.288956 0.859304,2.577911 0.955976,4.103175 0.03222,0.644478 0.03222,1.245991 -0.02148,1.836762 z"
     fill="#ffffff"
     id="path7"
     style="stroke-width:1" />
  <path
     d="m 59.992181,35.650356 c 0.107413,0.365204 0.698185,0.311497 1.041906,0.483358 0.290015,0.150378 0.537065,0.483359 0.859304,0.4941 0.322239,0.01074 0.816339,-0.107413 0.859304,-0.429652 0.05371,-0.408169 -0.558548,-0.676702 -0.945234,-0.82708 -0.504841,-0.204085 -1.149319,-0.300756 -1.621936,-0.03222 -0.107413,0.05371 -0.225568,0.182602 -0.193344,0.311498 z m -3.458698,0 c -0.107412,0.365204 -0.698184,0.311497 -1.031164,0.483358 -0.300756,0.150378 -0.537065,0.483359 -0.870045,0.4941 -0.322239,0.01074 -0.816339,-0.107413 -0.859304,-0.429652 -0.05371,-0.408169 0.558548,-0.676702 0.945234,-0.82708 0.504841,-0.204085 1.16006,-0.300756 1.632677,-0.03222 0.107413,0.05371 0.214826,0.182602 0.182602,0.311498 z"
     fill="#202020"
     id="path8"
     style="stroke-width:1" />
</svg>
