<svg width="577" height="700" viewBox="0 0 577 700" fill="none" xmlns="http://www.w3.org/2000/svg">
<path d="M555.9 551.65C550.9 546.05 548.6 535.7 546.05 524.65C543.55 513.65 540.7 501.8 531.65 494.15V494.1C528.348 491.239 524.576 488.972 520.5 487.4C533.1 450.15 528.15 413.05 515.5 379.55C499.9 338.4 472.75 302.55 452 278.05C428.8 248.75 406.1 220.95 406.5 179.9C407.2 117.2 413.4 0.950049 303.1 0.800049C298.6 0.800049 293.95 1.00005 289.1 1.40005C165.8 11.3 198.5 141.55 196.65 185.15C194.4 217.05 187.95 242.15 166 273.35C140.25 304 104 353.55 86.8001 405.2C78.7001 429.55 74.8001 454.4 78.4001 477.9C77.2501 478.9 76.2001 479.95 75.2001 481.05C67.6501 489.1 62.0501 498.9 55.8001 505.5C50.0001 511.3 41.7001 513.5 32.6001 516.75C23.4501 520.05 13.4501 524.85 7.40009 536.5V536.55C4.71597 541.788 3.39203 547.617 3.55008 553.5C3.55008 558.9 4.35008 564.35 5.15008 569.6C6.85008 580.6 8.55008 590.95 6.30008 597.95C-0.899918 617.7 -1.84991 631.3 3.25009 641.2C8.35009 651.15 18.7501 655.5 30.6001 657.95C54.2501 662.95 86.3001 661.7 111.55 675.05C138.55 689.2 166 694.2 187.85 689.25C195.49 687.75 202.668 684.469 208.802 679.673C214.935 674.877 219.851 668.703 223.15 661.65C240.25 661.55 259 654.35 289.05 652.65C309.45 651.05 334.95 659.9 364.2 658.3C364.958 661.477 366.1 664.549 367.6 667.45L367.65 667.5C379 690.25 400.15 700.6 422.65 698.85C445.15 697.05 469.05 683.8 488.4 660.75C506.9 638.35 537.5 629.1 557.8 616.85C567.95 610.7 576.2 603.05 576.8 591.9C577.45 580.8 570.9 568.35 555.9 551.65Z" fill="#073B3A"/>
<path d="M567.55 591.4C567.2 598.25 562.2 603.4 553.05 608.9C534.65 620 502.1 629.6 481.35 654.8C463.25 676.3 441.25 688.05 421.85 689.6C402.5 691.1 385.8 683.1 375.9 663.3V663.2C369.75 651.55 372.3 633.2 377.45 613.85C382.6 594.5 390 574.6 391 558.45C392 537.7 393.2 519.6 396.7 505.65C400.2 491.65 405.65 482.25 415.35 476.9C415.796 476.659 416.246 476.426 416.7 476.2C417.8 494.15 426.7 512.45 442.4 516.4C459.55 520.9 484.3 506.2 494.75 494.15L500.85 493.95C510.05 493.7 517.7 494.25 525.6 501.1C531.65 506.2 534.55 515.95 537.05 526.75C539.55 537.6 541.55 549.4 549 557.8C563.35 573.8 568 584.5 567.55 591.4ZM218.6 642.15V642.3C216.9 664.05 204.6 675.9 185.8 680.2C166.95 684.5 141.4 680.2 115.9 666.9C87.6499 651.9 54.0499 653.4 32.5499 648.9C21.7499 646.65 14.6999 643.25 11.4999 637C8.29992 630.7 8.19992 619.75 15.0499 601V600.95L15.0999 600.85C18.4999 590.4 15.9999 578.95 14.3499 568.2C12.6999 557.5 11.8999 547.7 15.5499 540.9L15.5999 540.85C20.2999 531.8 27.1999 528.55 35.7499 525.5C44.2499 522.4 54.3999 520 62.3999 512L62.4499 511.95C69.8499 504.1 75.4999 494.3 81.9999 487.35C87.4999 481.5 92.9999 477.6 101.25 477.55H101.5C103.058 477.564 104.612 477.698 106.15 477.95C117.15 479.6 126.7 487.3 135.95 499.8L162.6 548.35V548.4C169.7 563.2 184.65 579.5 197.35 596.1C210.05 612.75 219.85 629.4 218.6 642.15Z" fill="#009868"/>
<path d="M351.5 189.4C349.35 185.2 345 181.2 337.5 178.15C322 171.5 315.3 171.05 306.65 165.45C292.65 156.4 281 153.25 271.35 153.25C266.717 153.272 262.121 154.067 257.75 155.6C245.95 159.6 238.15 168.1 233.25 172.7C232.25 173.65 231.05 174.45 228.05 176.7C225.05 178.85 220.55 182.2 214.05 187.1C208.2 191.4 206.35 197.1 208.35 203.7C210.35 210.3 216.7 217.95 228.35 224.55C235.6 228.8 240.6 234.55 246.3 239.1C249.163 241.48 252.343 243.449 255.75 244.95C259.35 246.5 263.55 247.55 268.75 247.85C281.15 248.6 290.25 244.85 298.25 240.3C306.25 235.7 313.05 230.1 320.85 227.55C336.85 222.55 348.3 212.5 351.9 202.9C352.808 200.753 353.243 198.436 353.174 196.106C353.105 193.776 352.534 191.489 351.5 189.4Z" fill="#009868"/>
<path d="M310.9 213C298.15 219.65 283.3 227.7 267.45 227.7C251.65 227.7 239.15 220.4 230.2 213.25C225.7 209.75 222.05 206.15 219.3 203.6C214.5 199.85 215.1 194.55 217.05 194.7C220.35 195.1 220.85 199.45 222.9 201.4C225.7 204 229.2 207.4 233.45 210.75C241.95 217.5 253.3 224.05 267.45 224.05C281.65 224.05 298.15 215.75 308.25 210.05C314 206.85 321.25 201.1 327.2 196.75C331.7 193.4 331.55 189.4 335.3 189.85C339.05 190.3 336.3 194.3 331.05 198.85C325.8 203.45 317.55 209.55 310.9 213Z" fill="#202020"/>
<path d="M505.85 484.7C504.117 484.648 502.383 484.648 500.65 484.7H500.15C504.55 470.85 494.85 460.7 469.1 449.05C442.4 437.3 421.1 438.45 417.5 462.3C417.25 463.55 417.05 464.8 416.95 466.1C414.879 466.834 412.873 467.737 410.95 468.8C398.35 475.65 391.5 488.1 387.7 503.4C383.9 518.65 382.8 537.1 381.75 557.9C381.1 568.3 376.8 582.4 372.45 597.4C328.7 628.6 267.95 642.1 216.35 606.9C212.85 601.4 208.85 595.9 204.7 590.5C202.066 587.058 199.399 583.642 196.7 580.25C201.293 580.373 205.86 579.521 210.1 577.75C212.218 576.861 214.135 575.552 215.733 573.902C217.332 572.252 218.579 570.295 219.4 568.15C222.55 559.65 219.4 547.75 209.3 534.15C199.25 520.5 182.2 505.15 157.15 489.75C138.75 478.25 128.45 464.25 123.65 449.05C118.8 433.8 119.45 417.3 123.15 401.05C130.3 369.8 148.65 339.4 160.3 320.35C163.45 318.05 161.45 324.65 148.5 348.7C136.9 370.7 115.15 421.45 144.9 461.1C145.7 432.9 152.4 404.1 163.75 377.25C180.2 339.9 214.65 275.2 217.35 223.6C218.8 224.6 223.6 227.9 225.8 229.1C232.1 232.85 236.85 238.3 243 243.25C251.02 250.019 261.261 253.581 271.75 253.25C283.75 253.25 293.1 249.3 300.85 244.85C309.35 240.05 316.05 234.65 322.5 232.6C336 228.35 346.8 220.85 352.9 212.1C363.4 253.6 387.9 313.45 403.6 342.65C411.95 358.15 428.6 391.1 435.75 430.75C440.3 430.65 445.3 431.25 450.7 432.65C469.45 384 434.75 331.55 418.9 316.95C412.5 310.75 412.15 307.95 415.4 308.1C432.55 323.3 455.15 353.95 463.4 388.5C467.15 404.25 467.9 420.8 463.9 437.15C465.9 438 467.9 438.85 469.9 439.85C500.05 454.5 511.2 467.25 505.85 484.7Z" fill="white"/>
<path d="M291 353.1C263.2 353.2 236.05 365.65 213.1 388.9C190.1 412.1 172.4 445 162.2 483.3L165.25 485.2V485.4C188.75 500.3 205.5 515.3 215.85 529.3C226.8 544.1 231.65 558.5 227 571C224.545 577.314 219.692 582.401 213.5 585.15L211.45 585.9C215.15 590.75 218.75 595.75 222.1 600.9C269.3 632.3 324.2 620.7 365.45 592.3C369.45 578.4 373.1 565.5 373.6 557.4C374.65 536.65 375.7 517.8 379.8 501.4C383.9 484.9 391.9 469.9 407 461.65C407.85 461.15 408.7 460.9 409.55 460.5C409.816 458.911 410.183 457.342 410.65 455.8C398.55 424.7 381.1 398.8 360.15 380.8C339.15 362.8 315.3 353.25 291.05 353.1H291ZM409.5 460.85L409.4 461.1V461L409.45 460.8L409.5 460.85Z" fill="#E6E6E6"/>
<path d="M352.9 141.65C353.116 153.482 349.328 165.041 342.15 174.45C338.56 172.846 334.926 171.346 331.25 169.95L324.9 167.7C326.35 165.95 329.15 163.95 330.25 161.35C331.834 157.491 332.681 153.37 332.75 149.2L332.8 148.7C332.924 144.694 332.331 140.698 331.05 136.9C330.044 133.432 328.187 130.27 325.65 127.7C324.644 126.632 323.437 125.773 322.099 125.173C320.76 124.572 319.316 124.242 317.85 124.2H317.5C314.7 124.239 312.013 125.307 309.95 127.2C307.22 129.564 305.124 132.571 303.85 135.95C302.274 139.811 301.427 143.93 301.35 148.1V148.6C301.271 150.942 301.422 153.287 301.8 155.6C296.128 152.982 290.195 150.971 284.1 149.6C283.81 147.394 283.643 145.174 283.6 142.95V142.3C283.388 134.616 284.892 126.981 288 119.95C290.647 113.477 294.96 107.819 300.5 103.55C305.4 99.5929 311.502 97.4236 317.8 97.4H318.1C324.35 97.4 329.7 99.2 335.2 103.2C340.863 107.345 345.302 112.942 348.05 119.4C351.2 126.3 352.75 133.05 352.9 141.05L352.95 141.65H352.9ZM258.4 149.85C253.505 151.251 248.839 153.356 244.55 156.1C244.885 153.613 244.919 151.095 244.65 148.6V148.2C244.344 144.896 243.535 141.659 242.25 138.6C241.221 135.908 239.577 133.494 237.45 131.55C236.668 130.783 235.736 130.187 234.711 129.8C233.687 129.412 232.594 129.242 231.5 129.3C229.4 129.5 227.65 130.5 226 132.55C224.244 134.843 223.045 137.514 222.5 140.35C221.72 143.708 221.501 147.171 221.85 150.6V151C222.137 154.323 222.947 157.58 224.25 160.65C225.447 163.724 227.451 166.419 230.05 168.45L224.95 172.45L221.05 175.25C217.586 171.843 214.862 167.758 213.05 163.25C210.4 157.25 208.95 151.25 208.55 144.2V144.15C208.092 137.567 208.855 130.956 210.8 124.65C212.292 119.151 215.167 114.125 219.15 110.05C220.821 108.205 222.857 106.728 225.13 105.712C227.402 104.696 229.861 104.165 232.35 104.15C236.55 104.15 240.25 105.55 244.1 108.65C248.499 112.263 251.92 116.922 254.05 122.2C256.7 128.2 258.05 134.2 258.5 141.3C258.65 144.3 258.65 147.1 258.4 149.85Z" fill="white"/>
<path d="M279.3 166.75C279.8 168.45 282.55 168.2 284.15 169C285.5 169.7 286.65 171.25 288.15 171.3C289.65 171.35 291.95 170.8 292.15 169.3C292.4 167.4 289.55 166.15 287.75 165.45C285.4 164.5 282.4 164.05 280.2 165.3C279.7 165.55 279.15 166.15 279.3 166.75ZM263.2 166.75C262.7 168.45 259.95 168.2 258.4 169C257 169.7 255.9 171.25 254.35 171.3C252.85 171.35 250.55 170.8 250.35 169.3C250.1 167.4 252.95 166.15 254.75 165.45C257.1 164.5 260.15 164.05 262.35 165.3C262.85 165.55 263.35 166.15 263.2 166.75Z" fill="#202020"/>
</svg>
