<?xml version="1.0" encoding="UTF-8" standalone="no"?>
<svg
   width="512"
   height="512"
   viewBox="0 0 512 512"
   fill="none"
   version="1.1"
   id="svg3"
   sodipodi:docname="lisp.svg"
   inkscape:version="1.4.3 (0d15f75, 2025-12-25)"
   xmlns:inkscape="http://www.inkscape.org/namespaces/inkscape"
   xmlns:sodipodi="http://sodipodi.sourceforge.net/DTD/sodipodi-0.dtd"
   xmlns="http://www.w3.org/2000/svg"
   xmlns:svg="http://www.w3.org/2000/svg">
  <defs
     id="defs3" />
  <sodipodi:namedview
     id="namedview3"
     pagecolor="#505050"
     bordercolor="#eeeeee"
     borderopacity="1"
     inkscape:showpageshadow="0"
     inkscape:pageopacity="0"
     inkscape:pagecheckerboard="0"
     inkscape:deskcolor="#d1d1d1"
     inkscape:zoom="0.79118191"
     inkscape:cx="390.55494"
     inkscape:cy="195.27747"
     inkscape:window-width="1920"
     inkscape:window-height="994"
     inkscape:window-x="1440"
     inkscape:window-y="30"
     inkscape:window-maximized="0"
     inkscape:current-layer="svg3"
     showguides="true" />
  <path
     d="M256 491C385.787 491 491 385.787 491 256C491 126.213 385.787 21 256 21C126.213 21 21 126.213 21 256C21 385.787 126.213 491 256 491Z"
     fill="#0F966C"
     id="path1"
     style="fill:#89a257;fill-opacity:1" />
  <path
     d="M 255.56,20.008 C 193.186,20.1249 133.39,44.93 89.26,89 -2.97599,181.091 -3.09299,330.52 88.9983,422.75 181.088,514.986 330.518,515.103 422.748,423.012 514.984,330.921 515.101,181.492 423.01,89.262 378.633,44.815 318.37,19.891 255.56,20.008 Z"
     fill="#073B3A"
     stroke="#073B3A"
     stroke-width="5"
     id="path2"
     style="fill:#4d8061;fill-opacity:1;stroke:#112318;stroke-width:4;stroke-dasharray:none;stroke-opacity:1"
     sodipodi:nodetypes="cccccc" />
  <path
     sodipodi:nodetypes="ccccsccsscscccscsccccccccsscsccssscscccsccccccsscsssssscccccsccsccccscccccccccscccs"
     inkscape:connector-curvature="0"
     id="path919-9"
     d="m 126.04833,363.21232 c 0.0223,-0.027 0.0721,-0.0518 0.15486,-0.0719 1.32398,-0.32111 9.8837,-1.3048 19.02098,-2.18603 9.13728,-0.88121 16.82426,-1.73987 17.08095,-1.90956 0.25669,-0.16969 -2.63341,-4.432 -6.42036,-9.47182 -3.78695,-5.03983 -6.64568,-9.36029 -6.35444,-9.60077 0.29123,-0.24047 5.94475,3.57369 12.56245,8.47664 6.61776,4.90297 12.48339,8.95908 13.03693,9.01199 0.55354,0.0529 3.24284,-4.89142 5.97667,-10.9869 2.73369,-6.09548 5.40541,-11.6557 5.93648,-12.3561 0.72493,-0.95608 3.2045,-0.61935 9.94671,1.35141 4.93924,1.44377 9.15016,2.4843 9.36005,2.31108 0.20976,-0.17326 -0.65527,-3.04082 -1.92482,-6.37268 -4.74849,-12.46291 -5.0169,-36.13137 -0.56911,-50.17647 2.71379,-8.56974 8.2103,-19.4301 20.06878,-39.64423 12.25427,-20.88894 16.2651,-28.72664 21.46257,-41.94822 3.72813,-9.48397 4.19726,-11.84008 4.92059,-24.71574 1.23366,-21.96222 2.0538,-21.49618 -16.47303,-9.39401 -8.61191,5.62767 -16.18134,10.18464 -16.82241,10.12631 -0.64105,-0.0586 -3.3836,-3.09837 -6.09326,-6.75324 l -4.92493,-6.64415 -4.09381,3.72514 c -2.25167,2.04853 -6.07818,5.56705 -8.50349,7.81819 -2.42545,2.25115 -4.61529,3.84394 -4.8648,3.54171 -0.24939,-0.30223 1.76557,-4.3551 4.47864,-9.0068 2.71294,-4.65174 4.98262,-8.96843 5.04234,-9.59349 0.0597,-0.62499 -3.63266,-2.13231 -8.20455,-3.34903 -13.92144,-3.70487 -23.87471,-6.68279 -24.37916,-7.29397 -0.2634,-0.31915 7.01972,-0.23599 16.18687,0.18442 9.16713,0.4204 16.89741,0.57614 17.17681,0.3454 0.2794,-0.23073 -1.22014,-3.38968 -3.33286,-7.01767 -2.11273,-3.62797 -5.38683,-9.25604 -7.2757,-12.50884 -1.889,-3.25279 -2.97385,-5.87066 -2.41168,-5.81692 0.56213,0.0537 5.55712,4.99393 11.10135,10.97832 7.8737,8.49905 10.36816,10.56138 11.39542,9.42165 0.72332,-0.8025 3.62513,-4.51316 6.44946,-8.24421 2.82419,-3.73106 5.37415,-6.4938 5.6665,-6.13959 0.29236,0.3542 -1.39257,5.79041 -3.74396,12.08076 l -4.2746,11.43797 2.78003,4.47149 c 1.52878,2.45898 3.22664,4.35282 3.77466,4.20928 0.54801,-0.14356 6.81506,-5.47909 13.92614,-11.85782 l 12.92915,-11.59838 -2.91519,-7.00835 -2.91556,-7.00587 -9.69069,-0.31889 C 217.25034,123.28208 210.78046,120.42995 204.59,112.37937 193.35713,97.771078 193.22837,87.880787 203.8906,58.571667 214.50867,29.384535 215.87312,26.110325 217.21879,26.58746 c 1.98721,0.704528 13.39035,16.734266 22.88053,32.165841 29.67571,48.254369 42.43086,91.328749 37.37622,126.213379 -4.04631,27.92542 -16.21799,51.61178 -42.4814,82.67048 -10.91938,12.913 -14.12654,19.74451 -16.28322,34.68508 -3.05853,21.18841 -0.4656,28.47276 22.93049,64.43604 21.98673,33.79675 27.89224,44.02297 32.34931,56.01118 4.7387,12.74582 7.58338,30.33253 7.30921,45.19345 -0.33185,3.89706 -0.89881,7.64219 -1.67648,11.37753 l -2.46516,9.67138 -0.18353,0.42652 0.6374,-6.67136 c 1.44574,-15.13168 -2.5058,-40.44659 -8.81775,-56.61764 -7.30965,-18.72751 -19.26107,-36.91484 -36.51511,-55.56466 l -10.75836,-11.6295 -13.51547,-4.53805 c -7.43315,-2.49584 -14.04075,-4.58204 -14.6824,-4.63431 -0.64167,-0.0523 -5.35307,5.45685 -10.46974,12.24178 l -9.30258,12.33549 0.71476,10.35815 c 0.39275,5.69694 0.37895,10.32603 -0.0285,10.28708 -0.40751,-0.039 -2.36202,-4.70352 -4.34479,-10.36571 l -3.60654,-10.29512 -17.33734,10.04138 c -9.53664,5.52136 -17.54745,9.78685 -17.8016,9.47891 -0.25413,-0.3079 5.64639,-6.21906 13.11428,-13.13487 l 13.57871,-12.57497 -17.02123,-2.21393 c -8.77598,-1.14204 -15.10177,-2.32099 -14.76758,-2.72841 z m 151.1101,125.79947 c 0.97931,-3.2739 1.79857,-6.46965 2.46502,-9.67137 l 2.67714,-10.50097 -2.22897,9.81647 z"
     style="color:#000000;clip-rule:nonzero;display:inline;overflow:visible;visibility:visible;isolation:auto;mix-blend-mode:normal;color-interpolation:sRGB;color-interpolation-filters:linearRGB;solid-color:#000000;solid-opacity:1;fill:#89a257;fill-opacity:1;fill-rule:evenodd;stroke:#112318;stroke-width:2.00001;stroke-linecap:square;stroke-linejoin:miter;stroke-miterlimit:4;stroke-dasharray:none;stroke-dashoffset:0;stroke-opacity:1;paint-order:fill markers stroke;color-rendering:auto;image-rendering:auto;shape-rendering:auto;text-rendering:auto;enable-background:accumulate" />
  <path
     sodipodi:nodetypes="cssccccccccccscccccscscccsscsssccsccsccscccscscsssssscscsccccsssssscc"
     inkscape:connector-curvature="0"
     id="path921-6"
     d="m 217.21892,26.587439 c 1.11241,-0.221822 8.96591,1.354193 18.30389,3.796312 20.25397,5.296864 36.55526,10.409251 41.3329,12.964586 6.41745,3.432422 13.81186,12.776431 16.75623,21.17069 2.27782,6.494076 2.52139,9.012034 1.69436,17.490292 -0.81822,8.386125 -1.49012,10.663173 -4.39292,14.866822 l -3.42911,4.965159 5.10475,9.48899 c 2.80759,5.21934 6.72962,13.79568 8.71413,19.0596 1.98438,5.26392 6.79792,14.7284 10.697,21.03044 l 7.09045,11.45755 10.54784,-4.48633 c 5.80266,-2.46717 11.59033,-4.97046 12.86041,-5.56426 2.21527,-1.03573 2.19725,-1.48705 -0.47765,-11.05003 -1.53364,-5.48311 -2.45713,-10.24248 -2.05109,-10.57775 0.40606,-0.33531 3.03317,2.12696 5.83788,5.47323 l 5.09839,6.08396 4.6878,-7.27184 c 2.57767,-4.00029 5.07979,-7.23712 5.56067,-7.19351 1.174,0.10695 1.06091,0.67525 -1.79637,9.1075 -1.35744,4.00618 -2.22467,7.57554 -1.92916,7.93362 0.29551,0.35811 8.15685,-0.84422 17.47005,-2.67114 9.31333,-1.82689 17.16413,-3.04193 17.445,-2.70161 0.4462,0.54057 -15.14397,7.09612 -29.67443,12.47836 -2.68149,0.99326 -5.09459,1.94212 -5.36067,2.10855 -0.26607,0.16644 1.42823,3.95573 3.76513,8.42177 2.33692,4.46606 3.99526,8.32951 3.68565,8.58517 -0.3096,0.25566 -3.83245,-2.21378 -7.82922,-5.48748 -3.99678,-3.27373 -7.61333,-5.98492 -8.03819,-6.02553 -0.42474,-0.0405 -8.91188,5.31765 -18.86024,11.90681 -13.70099,9.07475 -18.38366,11.62081 -19.30767,10.50125 -2.06065,-2.49667 -3.06816,-1.82897 -3.46219,2.29511 -0.4451,4.65857 -6.90059,22.6055 -11.29152,31.39029 -6.54113,13.0869 -17.13488,27.81625 -30.47065,42.36321 -22.69322,24.75392 -29.11522,37.45269 -29.97412,59.2771 -0.27177,6.90528 -0.028,7.97122 1.75102,7.68311 1.13609,-0.18396 8.90853,-4.03009 17.27375,-8.54685 8.3652,-4.51676 15.42065,-7.95604 15.67928,-7.6427 0.25864,0.31337 0.70658,3.96818 0.9946,8.12379 0.28801,4.15562 0.62094,8.36071 0.74036,9.34231 0.11941,0.9816 0.23291,2.03744 0.25289,2.34654 0.0201,0.30915 4.3256,-2.95587 9.56724,-7.2546 5.24163,-4.29873 9.82198,-7.46511 10.1765,-7.03557 0.35454,0.4295 -2.89457,5.11846 -7.21859,10.41903 -4.32401,5.30057 -8.37291,10.33453 -8.99635,11.18826 -0.96371,1.31953 1.18716,1.65784 14.34657,2.24666 10.28998,0.46044 15.19888,1.06362 14.64225,1.79769 -0.46051,0.6074 -1.80252,1.01186 -2.98443,0.89889 -2.65523,-0.2538 -25.03115,2.02174 -25.75488,2.61934 -0.46192,0.38145 7.94025,20.07553 13.30003,31.17352 4.17178,8.63804 -0.58314,3.02972 -11.12147,-13.11633 -6.07837,-9.31264 -11.48795,-16.9743 -12.0213,-17.02528 -0.53335,-0.051 -3.09702,4.07082 -5.69473,9.15852 -7.92255,15.51614 -8.85342,14.59271 -2.71286,-2.69139 3.11836,-8.77743 3.80287,-12.09564 3.37673,-16.35482 -0.29402,-2.93865 -0.5068,-5.85817 -0.47483,-6.48673 0.075,-1.48262 -20.31931,15.24161 -20.4666,16.78333 -0.19281,2.01797 6.83483,15.45506 15.94921,30.4978 22.55512,37.22587 29.57291,62.15432 26.16995,92.9406 -1.25707,9.11541 -3.18865,15.30363 -5.32582,20.59885 1.75212,-5.91116 3.34315,-12.4702 4.32516,-21.47542 0.27417,-14.8609 -2.57051,-32.44763 -7.30921,-45.19345 -4.45707,-11.98821 -10.36258,-22.21443 -32.34931,-56.01118 -23.39609,-35.96328 -25.98901,-43.24763 -22.93049,-64.43604 2.15668,-14.94056 5.36384,-21.77208 16.28309,-34.68509 26.26354,-31.05869 38.43522,-54.74505 42.48153,-82.67047 5.05464,-34.88463 -7.70051,-77.95901 -37.37622,-126.213383 C 230.60914,43.321693 219.206,27.291969 217.21879,26.587427 Z"
     style="fill:#112318;fill-opacity:1;stroke-width:1.00001" />
  <path
     style="fill:#4d8061;stroke:#112318;stroke-width:2;stroke-linecap:square;paint-order:markers stroke fill"
     d="M 213.20866,25.407633 C 154.40893,36.407327 100.23109,70.477371 65.505163,119.2845 51.923617,138.41957 41.298304,159.69153 33.49132,181.79556 13.862066,240.26598 18.46419,306.39133 46.58905,361.34627 c 15.333963,31.74271 39.490666,58.40827 66.52804,80.64733 45.36631,34.72514 103.75428,52.90496 160.8266,47.49667 4.79811,-0.31338 2.58525,-6.73349 3.23837,-9.81826 0.91863,-31.65458 -9.37177,-63.32008 -28.6531,-88.43224 -8.38819,-11.36358 -17.89109,-21.90337 -27.55181,-32.1521 -9.21302,-2.6309 -18.35633,-6.7197 -27.61129,-8.46266 -7.33465,7.11488 -13.19914,15.73007 -19.1732,23.90959 -0.14353,6.71127 1.01805,14.07018 0.0361,20.47313 -4.2349,-5.33489 -4.47648,-13.02275 -8.29731,-18.52159 -7.79974,2.16672 -14.66599,7.50408 -21.93337,11.14993 -4.27917,2.04187 -8.3036,5.4527 -12.98145,6.2862 6.55296,-8.86354 16.40186,-14.99023 22.74063,-23.98982 -0.0962,-3.42899 -5.38241,-1.93595 -7.58446,-2.93317 -6.79972,-1.1204 -14.32085,-1.59379 -20.63587,-3.50265 11.23038,-2.72229 22.93618,-2.75548 34.3107,-4.67746 2.05572,-2.34355 -2.43072,-5.0851 -3.16633,-7.35101 -2.4182,-3.83926 -6.14139,-7.63819 -7.37393,-11.80418 8.87145,4.45159 16.14908,11.58154 24.89356,16.29173 3.48612,-1.33832 4.13944,-6.52346 6.27864,-9.39259 2.8009,-4.24699 3.64212,-10.85471 8.6231,-13.07791 5.09591,-0.0105 9.81402,2.72888 14.86246,3.01571 1.9399,-2.89568 -1.29476,-6.97261 -1.3903,-10.22869 -2.88291,-12.19534 -2.28142,-25.25659 -0.78226,-37.72803 4.35731,-20.81208 17.51389,-38.24447 27.2105,-56.77122 10.17154,-18.42633 21.10323,-37.78123 21.07336,-59.46986 -0.206,-4.61944 1.45334,-10.06472 -0.89197,-14.23355 -4.81661,-0.21081 -8.64663,4.48488 -12.86255,6.39432 -6.58625,3.58722 -12.47923,9.22334 -19.80931,11.14167 -4.47611,-2.85951 -6.45798,-9.14117 -10.77275,-11.7305 -6.02291,3.89923 -11.07726,10.44364 -17.0743,13.57071 0.9217,-6.85808 7.46847,-12.10532 7.81105,-19.00293 -5.72386,-3.15256 -12.90068,-3.84619 -19.13063,-6.06908 -4.05096,-1.29627 -8.21935,-2.1497 -11.94169,-4.16994 10.60983,-0.9786 21.57324,0.66247 32.10703,-0.23084 -1.44677,-6.07567 -6.05916,-11.49722 -8.88997,-17.23475 -0.99824,-2.22956 -3.23446,-5.15457 -2.83071,-7.41322 7.77231,5.7807 13.67964,13.71944 21.28681,19.69382 4.07811,-1.82087 5.82971,-7.08816 9.13719,-10.09986 1.23083,-1.14629 3.10834,-3.90752 4.49246,-3.71153 -1.59519,8.24982 -5.7573,16.0539 -7.47707,24.19775 1.85763,1.90087 3.79748,8.39501 7.47707,6.07564 8.13966,-7.17189 17.06874,-14.05688 24.29516,-21.87135 -1.74901,-4.34447 -3.10773,-9.6483 -6.00606,-13.29233 -11.29681,0.074 -24.88771,-0.057 -32.68169,-9.73313 -8.52982,-8.38795 -12.2437,-20.79416 -9.78226,-32.414828 3.73246,-16.757307 10.4437,-32.702279 16.277,-48.812976 0.13887,-2.35536 4.68969,-6.413069 1.26227,-7.919114 -0.28624,-0.03048 -0.5751,-0.04237 -0.8628,-0.02947 z"
     id="path3" />
  <path
     style="fill:#112318;stroke:#112318;stroke-width:2;stroke-linecap:square;paint-order:markers stroke fill;fill-opacity:1"
     d="M 212.64382,25.239002 C 185.39427,29.709727 159.40054,40.563932 135.63207,54.448341 89.871414,81.271413 54.367256,124.45406 35.872056,174.08696 25.730813,200.294 20.738597,228.41153 21.37423,256.51248 c -0.954397,61.8808 25.374826,123.2636 69.763751,166.21131 39.028529,39.87551 93.285359,63.80217 148.746979,67.84205 11.44858,-0.24378 23.08552,0.90073 34.42219,-0.87092 5.71992,-1.93556 3.15868,-9.53101 3.68122,-13.98799 -0.3661,-34.53395 -13.96595,-68.29952 -36.53809,-94.2961 -6.83026,-7.76645 -13.28551,-16.3178 -20.96639,-23.04061 -9.29368,-2.62368 -18.56152,-7.05536 -28.02995,-8.0612 -6.63953,7.71571 -12.99977,15.78577 -18.6804,24.18138 -0.0708,6.10847 0.15187,12.29755 -0.15717,18.35296 -3.25124,-4.85883 -3.15219,-11.94016 -7.76194,-15.77438 -5.37726,-0.62156 -9.9293,4.02078 -14.69177,5.92175 -5.98916,3.29204 -11.81884,6.81392 -18.02758,9.59068 6.52744,-7.94879 14.97703,-14.32418 20.82512,-22.7914 -0.29057,-3.88717 -5.99355,-2.67931 -8.60798,-3.64025 -5.74975,-0.85596 -11.53233,-1.45337 -17.19749,-2.52542 10.40453,-2.48529 21.454,-1.80859 31.71739,-4.78389 2.40778,-2.61679 -2.35689,-5.75765 -3.14939,-8.2546 -2.10991,-3.17143 -4.26999,-6.24018 -6.20391,-9.5106 8.43905,4.14968 15.08203,11.67735 23.99146,14.7675 3.63862,-0.50379 3.82792,-5.80169 5.92875,-8.1471 3.02197,-4.33724 3.98633,-11.57391 9.59022,-13.27233 4.84683,-0.21912 9.6312,2.98683 14.36802,1.92698 1.67776,-3.77212 -1.37509,-8.25635 -1.54551,-12.18564 -3.39932,-19.38076 -1.97393,-40.09573 7.65096,-57.55743 12.41761,-25.02841 29.1088,-48.22366 37.31952,-75.17981 1.87395,-10.27932 4.03292,-20.96831 2.66536,-31.40141 -1.929,-4.36522 -7.24351,-0.59861 -9.83628,1.05108 -7.92503,4.44782 -15.07373,11.07083 -23.93251,13.50359 -4.57793,-2.57781 -6.3426,-8.92071 -11.15422,-10.82677 -5.65617,3.09681 -10.82214,9.60767 -15.93318,11.98918 1.63503,-5.78883 7.00289,-10.52127 6.87295,-16.69121 -2.50044,-4.2738 -8.82358,-3.51975 -12.83339,-5.50416 -5.12756,-1.52725 -10.3066,-2.90707 -15.35093,-4.6972 9.64893,-0.42099 19.68784,0.71751 29.26159,-0.072 -0.51713,-7.22863 -6.27733,-13.10844 -8.98165,-19.65289 -0.59935,-1.30938 -2.99134,-5.91537 -0.10478,-2.82744 6.30138,5.41272 11.71323,12.04085 18.57725,16.75997 4.76587,-1.923 6.8985,-7.76617 10.76129,-11.04615 2.4717,-3.44918 1.94263,-0.71715 1.09365,1.56188 -1.65979,6.57843 -5.26367,12.91385 -5.61886,19.70037 1.34262,2.59787 2.95845,7.4832 6.44236,7.22658 8.93428,-6.92532 17.57869,-14.34092 25.41091,-22.5098 -0.92496,-4.44172 -2.31938,-9.95853 -5.84152,-13.33659 -5.92857,-2.53682 -12.73611,-0.25213 -18.86511,-2.49462 -14.78129,-3.52638 -24.73196,-19.23654 -23.66266,-34.024656 0.58269,-14.161923 7.33383,-27.16963 11.39135,-40.528932 2.1706,-6.96476 5.44006,-13.700836 7.55918,-20.594114 -0.15663,-1.508553 -1.85691,-1.852279 -3.09922,-1.773083 z"
     id="path4" />
  <path
     style="fill:#89a257;fill-opacity:1;stroke:#112318;stroke-width:2;stroke-linecap:square;paint-order:markers stroke fill"
     d="m 253.29375,21.399779 c -11.368,0.587007 -23.01786,0.694891 -34.09459,3.352976 -1.54174,3.215953 4.21983,3.069761 6.19842,3.796656 17.20314,4.404346 34.70398,8.408178 51.00682,15.581186 10.00854,5.66411 16.91438,16.97181 18.40862,28.261264 0.72498,10.042803 -0.89082,20.834531 -7.43778,28.935789 3.50754,9.5819 9.19741,18.71094 13.12034,28.3282 5.1089,11.35541 10.72234,22.71595 17.96017,32.83741 7.00533,-0.73266 13.50807,-4.81671 20.07202,-7.38211 3.93952,-1.2175 7.13793,-5.14113 5.23739,-9.31728 -1.03944,-4.25578 -2.95701,-9.27434 -2.9224,-13.24654 3.90263,2.64899 6.04905,8.11466 10.47315,9.62343 3.89773,-3.52558 5.4854,-9.07247 9.49409,-12.57857 -0.63448,5.20242 -3.3261,10.06066 -3.88016,15.15879 6.75702,1.84473 13.98713,-1.38983 20.84687,-1.9773 3.60829,-0.63728 7.22432,-1.23749 10.85742,-1.71622 -10.29977,5.30335 -21.62884,8.50658 -31.93185,13.50523 1.61504,5.11054 5.82982,11.26815 6.78126,15.66796 -5.30171,-2.87233 -9.44381,-8.95977 -15.57628,-10.19809 -12.08481,6.93935 -23.18303,15.79158 -35.7809,21.76815 -1.71439,-0.33591 -4.65422,-2.51785 -5.0704,0.722 -5.13606,24.02665 -16.85488,46.40949 -32.88306,64.8886 -14.69476,18.26951 -34.37056,35.18382 -38.01567,59.63811 -0.46518,5.96303 -2.18093,12.43653 -0.47315,18.23017 3.46033,1.46043 7.04975,-2.66263 10.40744,-3.48409 7.84164,-3.69888 15.56432,-8.26248 23.62493,-11.17045 1.26657,5.79701 0.57883,11.95868 2.2315,17.64242 3.1052,1.02666 5.65779,-3.32994 8.33538,-4.57636 3.32164,-2.47372 6.98196,-5.77543 10.32046,-7.45375 -4.47443,7.28878 -11.0849,13.19976 -15.23574,20.60574 1.69616,2.78556 6.51247,1.16441 9.39914,2.05304 5.82652,0.43357 11.67077,0.71143 17.43122,1.36869 -8.6508,1.49793 -17.60981,1.11467 -26.16238,3.28913 -1.2303,3.85163 3.26184,8.54219 4.22724,12.67844 2.76548,6.69438 6.45795,14.28882 8.87359,20.46657 -7.97489,-10.25709 -14.42075,-21.6827 -22.54417,-31.79432 -3.08664,0.25106 -3.56153,5.00432 -5.46286,7.00438 -1.93085,3.26953 -4.39028,8.269 -6.28075,10.5267 2.82532,-11.0493 9.69987,-22.77812 5.48952,-34.34672 -4.88708,2.09214 -8.86706,6.89195 -13.3104,10.14734 -3.00445,2.93956 -9.58639,6.64209 -5.83005,11.57824 14.70233,29.70071 36.64208,57.22751 40.18888,91.22704 1.40949,14.71557 1.93164,29.75176 -2.64144,44.02658 -0.49688,1.30805 -0.24746,2.32746 0.40163,3.04144 1.11846,1.23028 3.42357,1.55373 5.14191,0.88455 52.03278,-6.70981 102.11642,-30.49294 138.42491,-68.6576 51.94117,-50.74648 76.07198,-127.14815 65.23722,-198.67751 C 478.36637,152.02745 434.68456,88.60929 373.99106,53.496991 337.63976,32.040509 295.44907,21.159814 253.29375,21.399779 Z"
     id="path5"
     sodipodi:nodetypes="cccccccccccccccccccccccccccccccccccccccccccsccccc" />
  <circle
     style="fill:#89a257;fill-opacity:1;stroke:#112318;stroke-width:2;stroke-linecap:square;paint-order:markers stroke fill"
     id="path6"
     cx="269.82526"
     cy="67.214828"
     r="9.9102907" />
  <circle
     style="fill:#112318;fill-opacity:1;stroke:#112318;stroke-width:2;stroke-linecap:square;paint-order:markers stroke fill"
     id="path6-9"
     cx="226.64778"
     cy="90.60775"
     r="9.9102907" />
  <path
     style="fill:#112318;fill-opacity:1;stroke:none;stroke-width:2;stroke-linecap:square;paint-order:markers stroke fill"
     d="m 217.96165,24.118469 c -0.26212,0.02582 -0.52039,0.08183 -0.78068,0.121473 -0.4262,0.07401 -0.85412,0.139478 -1.27876,0.221713 -0.38594,0.08813 -0.69908,0.425794 -0.75407,0.818319 -0.0497,0.290893 0.0473,0.593497 0.23382,0.818765 0.1,0.133843 0.1884,0.281287 0.3296,0.377116 0.28334,0.219127 0.68142,0.264115 1.01202,0.131324 0.15926,-0.07728 0.34802,-0.08322 0.51191,-0.01678 0.15615,0.06399 0.29396,0.171791 0.4629,0.203851 0.3851,0.09674 0.81755,-0.06544 1.04406,-0.391636 0.13839,-0.187293 0.19228,-0.42243 0.19132,-0.65238 0.003,-0.172963 0.0373,-0.342587 0.0652,-0.512517 0.0503,-0.384398 -0.14712,-0.786492 -0.48337,-0.980012 -0.16601,-0.09922 -0.36094,-0.14653 -0.55397,-0.139238 z"
     id="path7" />
  <path
     style="fill:#112318;fill-opacity:1;stroke:none;stroke-width:2;stroke-linecap:square;paint-order:markers stroke fill"
     d="m 278.26582,487.67305 c -0.28884,0.0101 -0.56959,0.15258 -0.74722,0.38074 -0.0953,0.11865 -0.15686,0.26054 -0.19482,0.40713 -0.0433,0.15295 -0.10126,0.30506 -0.10151,0.46619 -0.0101,0.31167 0.13725,0.62302 0.38436,0.81314 0.21014,0.16588 0.48847,0.23927 0.75333,0.20252 0.17249,-0.0193 0.35028,-0.0201 0.51443,-0.0831 0.27748,-0.10055 0.50373,-0.33062 0.59928,-0.6099 0.0975,-0.27504 0.0654,-0.5918 -0.085,-0.84185 -0.0791,-0.1414 -0.20412,-0.24725 -0.30743,-0.36975 -0.14406,-0.16842 -0.34017,-0.2936 -0.55752,-0.34125 -0.0845,-0.0189 -0.17133,-0.0266 -0.2579,-0.0238 z"
     id="path8" />
</svg>
