<?xml version="1.0" encoding="UTF-8" standalone="no"?>
<svg
   width="512"
   height="512"
   viewBox="0 0 512 512"
   fill="none"
   version="1.1"
   id="svg3"
   sodipodi:docname="lisp.svg"
   inkscape:version="1.4.3 (0d15f75, 2025-12-25)"
   xmlns:inkscape="http://www.inkscape.org/namespaces/inkscape"
   xmlns:sodipodi="http://sodipodi.sourceforge.net/DTD/sodipodi-0.dtd"
   xmlns="http://www.w3.org/2000/svg"
   xmlns:svg="http://www.w3.org/2000/svg">
  <defs
     id="defs3" />
  <sodipodi:namedview
     id="namedview3"
     pagecolor="#505050"
     bordercolor="#eeeeee"
     borderopacity="1"
     inkscape:showpageshadow="0"
     inkscape:pageopacity="0"
     inkscape:pagecheckerboard="0"
     inkscape:deskcolor="#d1d1d1"
     inkscape:zoom="1.7050781"
     inkscape:cx="256"
     inkscape:cy="141.04926"
     inkscape:window-width="1920"
     inkscape:window-height="994"
     inkscape:window-x="1440"
     inkscape:window-y="30"
     inkscape:window-maximized="0"
     inkscape:current-layer="svg3" />
  <path
     d="M256 491C385.787 491 491 385.787 491 256C491 126.213 385.787 21 256 21C126.213 21 21 126.213 21 256C21 385.787 126.213 491 256 491Z"
     fill="#0F966C"
     id="path1"
     style="fill:#89a257;fill-opacity:1" />
  <path
     d="M255.56 20.008C193.186 20.1249 133.39 44.93 89.26 89C-2.97599 181.091 -3.09299 330.52 88.9983 422.75C181.088 514.986 330.518 515.103 422.748 423.012C514.984 330.921 515.101 181.492 423.01 89.262C378.633 44.815 318.37 19.891 255.56 20.008ZM257.841 21.0139C317.775 21.4985 377.231 44.8229 422.301 89.9669C514.002 181.812 513.886 330.607 422.042 422.307C376.12 468.158 301.722 468.1 255.872 422.178C210.021 376.256 210.079 301.858 256.001 256.008C302.413 209.669 302.472 134.478 256.131 88.0679C219.047 50.9269 161.674 41.5149 115.471 66.4099C157.887 34.8689 208.182 20.6119 257.841 21.0139ZM67.001 151.274H107.001C116.944 193.421 132.205 230.692 147.751 267.704C163.651 226.378 180.954 186.455 203.001 151.274H243.001C194.073 248.638 140.811 315.334 219.001 401.274H179.001C131.434 324.031 96.562 253.604 67.001 151.274Z"
     fill="#073B3A"
     stroke="#073B3A"
     stroke-width="5"
     id="path2"
     style="fill:#1e3a29;fill-opacity:1;stroke:#112318;stroke-opacity:1;stroke-width:4;stroke-dasharray:none" />
  <path
     d="M293 110.72C371.194 196.656 317.928 263.36 269 360.72H309C331.047 325.541 348.35 285.618 364.25 244.29C379.796 281.3 395.057 318.572 405 360.72H445C415.439 258.39 380.567 187.96 333 110.72H293Z"
     fill="#073B3A"
     id="path3"
     style="fill:#1e3a29;fill-opacity:1;stroke:#112318;stroke-opacity:1" />
</svg>
