<?xml version="1.0" encoding="UTF-8" standalone="no"?>
<!-- Created with Inkscape (http://www.inkscape.org/) -->

<svg
   version="1.1"
   id="svg1"
   width="682.66669"
   height="682.66669"
   viewBox="0 0 682.66669 682.66669"
   sodipodi:docname="map.svg"
   inkscape:version="1.4.3 (0d15f75, 2025-12-25)"
   xmlns:inkscape="http://www.inkscape.org/namespaces/inkscape"
   xmlns:sodipodi="http://sodipodi.sourceforge.net/DTD/sodipodi-0.dtd"
   xmlns="http://www.w3.org/2000/svg"
   xmlns:svg="http://www.w3.org/2000/svg">
  <defs
     id="defs1">
    <inkscape:path-effect
       effect="offset"
       id="path-effect2"
       is_visible="true"
       lpeversion="1.3"
       linejoin_type="miter"
       unit="mm"
       offset="-1.1"
       miter_limit="4"
       attempt_force_join="false"
       update_on_knot_move="true" />
  </defs>
  <sodipodi:namedview
     id="namedview1"
     pagecolor="#505050"
     bordercolor="#eeeeee"
     borderopacity="1"
     inkscape:showpageshadow="0"
     inkscape:pageopacity="0"
     inkscape:pagecheckerboard="0"
     inkscape:deskcolor="#d1d1d1"
     inkscape:zoom="0.81526137"
     inkscape:cx="210.97529"
     inkscape:cy="362.46045"
     inkscape:window-width="1920"
     inkscape:window-height="994"
     inkscape:window-x="1440"
     inkscape:window-y="30"
     inkscape:window-maximized="0"
     inkscape:current-layer="g1" />
  <g
     inkscape:groupmode="layer"
     inkscape:label="Image"
     id="g1">
    <g
       id="g2"
       inkscape:path-effect="#path-effect2">
      <path
         id="path1"
         style="fill:#112318;fill-opacity:1;stroke:#112318;stroke-width:3.3;stroke-dasharray:none;stroke-opacity:1"
         d="m 197.79297,90.236328 c -2.94155,0.0018 -5.8819,0.0041 -8.82227,0.0059 -37.61971,0.08685 -75.22845,0.07326 -112.81445,0.486329 -20.043049,0.303111 -40.091591,0.657469 -60.144531,0.990234 h -0.002 l -5.421875,5.423828 c 0.219723,93.965462 0.397873,187.929452 0.673828,281.890622 0.204543,52.39171 0.386348,104.77603 0.941406,157.14844 0.08848,6.90533 0.148549,13.86855 0.373047,20.62891 0.0099,0.0214 0.03515,0.0672 0.09375,0.13281 0.107884,0.12082 0.3171,0.24687 0.4375,0.28125 l 0.1875,0.0547 0.179687,0.0703 c 1.391049,0.54161 3.466214,0.87012 5.441407,1.08398 4.688308,0.45934 9.500312,0.56167 14.503906,0.78321 h 0.03125 c 3.091285,0.11443 6.187819,0.24746 9.255859,0.37109 l 3.966797,0.16016 0.0332,3.96875 c 0.04485,5.31374 -0.05313,10.67135 0.05859,15.70703 0.167295,4.4996 0.520563,8.64995 2.033203,11.95508 l 0.03125,0.0684 0.0293,0.0703 c 0.622939,1.50267 2.103688,2.81996 3.822266,3.38476 l 0.05664,0.0176 0.05469,0.0195 c 0.814604,0.29317 1.816831,0.4465 3.064453,0.51367 1.053942,0.0567 2.795964,0.0573 4.216797,0.13672 0.02413,6e-4 0.04814,0.001 0.07227,0.002 17.88194,0.44272 35.807137,0.42944 53.765626,0.42578 h 0.0117 c 17.13448,-0.048 34.27256,0.004 51.41211,0.19336 h 0.0117 c 13.38641,0.11307 26.70832,0.3129 39.95312,-0.0625 3.86625,-0.14444 7.84804,-0.34248 11.59766,-0.78907 l 0.0391,-0.004 0.041,-0.004 c 0.91709,-0.091 3.57616,-0.73343 6.02148,-0.35156 6.21267,0.36993 12.49668,0.41701 18.92383,0.55273 h 0.0215 c 31.72317,0.50086 63.47105,0.57737 95.23633,0.67579 75.09299,0.17057 150.20171,-0.10525 225.32031,-0.22461 36.66001,-0.0718 73.31903,-0.14301 109.98047,-0.21485 1.52068,-1.65943 3.04182,-3.31907 4.5625,-4.97851 V 133.12891 c -0.65213,-0.79225 -1.23878,-1.50919 -1.79687,-2.08985 -0.8268,-0.86023 -1.53818,-1.3949 -2.25782,-1.69531 l -0.041,-0.0176 -0.041,-0.0176 c -3.10725,-1.37625 -7.04596,-1.65389 -11.36523,-1.80664 -4.10824,-0.10648 -8.33413,-0.0129 -12.65625,-0.0449 -3.01715,0.32689 -6.20863,-1.36454 -7.2168,-4.62109 l -0.15039,-0.48438 -0.0293,-0.50781 c -0.36797,-6.3618 -0.52211,-12.53049 -1.06054,-18.5957 -0.46136,-3.923038 -1.06542,-7.300772 -2.68164,-9.464847 -0.5845,-0.684444 -1.08503,-1.110967 -1.3418,-1.289062 -2.31427,-0.434034 -5.01709,-0.466836 -8.02734,-0.640625 -0.0117,-4.84e-4 -0.0234,-0.0015 -0.0352,-0.002 -10.29615,-0.423907 -20.71128,-0.49261 -31.16602,-0.628906 h -0.006 c -0.002,-3e-5 -0.005,3.1e-5 -0.008,0 C 556.72977,90.831864 516.28065,90.762012 475.81836,90.626953 383.14065,90.36609 290.46413,90.133955 197.79297,90.236328 Z M 14.376953,95.115234 h 6.167969 616.833988 l 0.002,4.167969 c 0.006,36.673017 -0.0195,73.342287 0.0215,110.007817 4e-5,0.005 -3e-5,0.011 0,0.0156 v 0.0137 c 0.0667,8.63005 0.003,17.13287 0.66016,25.45899 l 0.004,0.043 c 0.0236,0.23633 0.0487,0.46838 0.0723,0.6914 0.13381,-1.35064 0.23441,-2.77178 0.35156,-4.24609 7.5e-4,-0.0119 0.003,-0.0233 0.004,-0.0352 9.6e-4,-0.012 9.9e-4,-0.025 0.002,-0.0371 0.77008,-12.3843 0.98676,-24.82648 1.37891,-37.38476 0.52965,-17.62819 0.97056,-35.34439 1.66797,-53.02539 3.4e-4,-0.009 0.002,-0.0168 0.002,-0.0254 v -0.0176 c 0.0311,-1.35348 0.26941,-3.19698 1.35547,-4.91797 l 0.32031,-0.50781 0.44922,-0.39649 c 1.1177,-0.98386 2.85667,-1.43159 2.94141,-1.42773 h 0.002 v 0.002 0.002 l 0.21289,-0.0859 0.23438,-0.0645 c 3.13618,-0.85384 6.59722,-1.10348 9.05664,-1.46875 l 0.043,-0.006 0.0449,-0.006 c 4.16743,-0.52729 8.34202,-1.03875 12.49609,-1.55273 l 4.67969,-0.57813 v 463.04102 l -4.16602,0.004 c -117.97268,0.0734 -235.94703,0.15368 -353.92187,0.15039 -27.7119,0.0319 -55.39961,-0.0614 -83.05469,0.31836 l -0.0234,0.002 c -5.07881,0.12445 -10.0309,0.16544 -14.8164,0.59766 -1.14591,0.13466 -1.63816,0.27114 -1.66016,0.2832 l -0.31445,0.17187 -0.33789,0.11524 c -2.22109,0.76154 -4.96502,0.55826 -5.77735,0.60742 l -0.11523,0.006 -0.11328,0.002 c -5.49523,0.0309 -10.62351,-0.43251 -15.36719,-0.0644 -0.0101,0.001 -0.0211,9.1e-4 -0.0312,0.002 -1.90305,0.19575 -4.27736,-0.3542 -4.72852,-0.39062 l -0.125,-0.01 -0.12304,-0.0176 c -4.51463,-0.63966 -8.89007,-1.18479 -13.12891,-1.1582 h -0.0586 l -0.0586,-0.002 c -19.07168,-0.41817 -38.44335,-0.49627 -57.64257,-1.15235 l -0.0566,-0.004 -0.0586,-0.002 c -1.44262,-0.0893 -4.03493,-0.13528 -6.13086,-0.60742 l -0.32031,-0.0723 -0.30664,-0.12305 c -1.56338,-0.62265 -3.53647,-2.16882 -3.86719,-2.35547 l -3.05078,-1.7207 1.17188,-3.30274 c 0.21972,-0.61892 0.7495,-3.46353 1.75586,-5.28711 l 0.5039,-0.91406 0.875,-0.56836 c 1.10459,-0.71698 2.26431,-1.16223 3.37891,-1.44531 V 559.125 l 4.16406,-0.006 c 143.92625,-0.16303 287.85009,-0.3153 431.77539,-0.50391 26.25543,-0.0672 52.49396,-0.0244 78.70313,-0.3457 h 0.0156 c 1.69763,-0.0337 3.43929,-0.0768 5.00195,-0.13476 0.28503,-0.0238 0.55715,-0.0337 0.74805,-0.0391 0.0898,-0.003 0.186,-0.006 0.25781,-0.008 0.069,-0.002 0.13044,-0.002 0.1836,-0.004 0.009,-2.9e-4 0.0187,-0.002 0.0273,-0.002 h 0.002 l 0.14063,-0.0684 c 1.75412,-0.84572 3.61688,-1.25026 5.41015,-1.34765 0.17164,-0.48159 0.32518,-0.8239 0.37696,-0.86915 9.2e-4,-6.5e-4 0.005,-0.003 0.006,-0.004 h 0.002 0.002 0.002 0.002 v 0.002 h 0.002 v 0.002 0.002 l 0.002,0.002 -0.002,-0.24609 0.0312,-0.25977 c 0.16949,-1.45067 -0.064,-6.37327 0.33594,-9.05273 0.006,-0.0481 0.014,-0.0977 0.0215,-0.14649 0,0 0,-0.002 0,-0.002 0,0 0,-0.002 0,-0.002 0,0 0.002,-0.002 0.002,-0.002 0,0 0,-0.002 0,-0.002 0.13361,-0.8661 0.51718,-1.83471 0.71289,-2.24219 0.33247,-13.53904 0.30923,-27.13164 0.38867,-40.76758 10e-6,-0.002 -10e-6,-0.004 0,-0.006 10e-6,-0.002 -10e-6,-0.002 0,-0.004 0.16557,-52.84759 0.046,-105.69723 -0.26758,-158.54883 -0.12047,-17.4051 -0.22042,-34.79355 -0.60547,-52.15039 -0.0654,-2.20545 -0.16953,-4.44665 -0.35547,-6.65039 -0.40465,12.3623 -0.51481,24.88702 -0.66406,37.37891 v 0.004 c -0.33852,36.39586 -0.41033,72.80551 -0.52929,109.22656 -0.11745,39.65474 -0.22939,79.31024 -0.34375,118.9668 l -0.0117,4.15625 H 14.376953 Z M 126.01758,139.97461 c -6.46355,0.16652 -12.94753,2.67684 -19.11133,6.02539 -0.005,0.003 -0.0105,0.005 -0.0156,0.008 -1.49216,0.82958 -3.20482,1.96625 -4.53516,2.94531 -5.869987,4.34119 -10.603782,10.2622 -13.48047,16.95899 l -0.0059,0.0137 -0.0059,0.0137 c -3.86733,8.83231 -5.129452,18.89415 -2.914062,28.1211 l 0.002,0.01 0.002,0.008 c 0.961463,4.0868 2.534986,8.03782 4.648437,11.66407 7.34e-4,0.001 0.0012,0.003 0.002,0.004 l 0.01758,0.0273 c 0.260839,0.43142 0.647373,1.07635 0.902343,1.47461 l 0.002,0.004 c 0.0025,0.004 0.0053,0.008 0.0078,0.0117 l 0.0098,0.0137 c 0.45971,0.70144 0.813791,1.22115 1.320312,1.91797 l 0.0078,0.0117 0.0078,0.01 c 5.678729,7.91376 14.182224,13.8037 23.539064,16.94922 l 0.0527,0.0195 0.0527,0.0176 c 2.48628,0.91034 4.96886,1.82107 7.45312,2.73047 l 2.73633,1.00196 v 73.51562 H 79.861328 l -2.466797,2.57227 c 0,0 0,0.002 0,0.002 0.06292,10.94282 -0.04871,21.80624 0.310547,32.57813 l 0.002,0.0312 c 0.187991,3.88447 0.388145,7.48019 1.302735,10.57031 0.02403,0.0734 0.05131,0.14224 0.08008,0.20117 0.01256,0.0257 0.02499,0.0491 0.03711,0.0703 0.0109,0.0191 0.0215,0.0378 0.03125,0.0527 0.0049,0.007 0.0092,0.0132 0.01367,0.0195 l 0.103516,0.0391 c 1.444684,0.53391 3.638022,0.5951 6.447265,0.91211 9.859177,0.75036 19.937014,0.49034 30.234374,0.60352 h 0.0293 c 2.19245,0.009 4.38413,0.0188 6.57422,0.0273 l 4.15234,0.0176 v 82.96875 H 79.859375 c -0.88854,0.92738 -1.77747,1.85386 -2.666016,2.78125 0.195518,8.38485 0.387758,16.8465 0.607422,25.13867 v 0.0234 c 0.152498,4.0416 0.28721,8.05168 0.517578,11.96484 0.106397,1.75248 0.244876,3.61619 0.41211,5.44531 1.526757,0.7099 3.41631,1.16255 5.5,1.48438 3.550711,0.22122 7.268185,0.17645 11.132812,0.25976 h 0.02148 c 17.786544,0.19896 35.597344,0.0957 53.431644,-0.004 h 0.0215 c 7.93288,-0.0862 15.76391,-0.0893 23.45117,-0.64063 0.83641,-0.0685 1.65664,-0.15461 2.45899,-0.26562 0.30029,-0.0419 1.08583,-0.16708 1.47461,-0.24414 l 0.10156,-0.0195 0.10351,-0.0156 c 1.2886,-0.18908 1.84287,-0.58105 1.89258,-0.63281 l 0.002,-0.002 v -0.002 l 0.13476,-0.22461 0.16211,-0.20703 c 0.74131,-0.94847 1.10155,-1.82165 1.14258,-2.4668 l 0.008,-0.14648 0.0195,-0.14453 c 0.54078,-4.0252 0.47071,-8.27215 0.55078,-12.84961 6e-5,-0.007 -5e-5,-0.0128 0,-0.0195 0.0687,-8.62174 0.0272,-17.26955 0.0352,-25.94336 -1.22727,-1.09154 -2.45391,-2.19745 -3.65234,-3.26953 h -46.34571 v -82.97266 l 4.14453,-0.0234 c 10.69966,-0.0599 21.32378,0.0851 31.86524,-0.16015 3.19106,-0.12042 6.38136,-0.25286 9.28515,-0.68946 l 0.0918,-0.0137 0.0918,-0.01 c 0.38577,-0.0405 0.68061,-0.16898 0.94922,-0.39844 l 0.0664,-0.0586 0.0703,-0.0527 c 2.14487,-1.68152 3.48441,-4.78339 3.83203,-8.10351 l 0.006,-0.0547 0.006,-0.0547 c 0.29621,-2.25511 0.53099,-5.19155 0.89648,-7.79687 l 0.0195,-0.14454 0.0293,-0.14062 c 0.74306,-3.51071 4.18077,-5.52864 7.43359,-5.0332 33.11129,0.24406 66.22321,0.48952 99.33399,0.73242 l 4.05468,0.0312 0.0801,4.05469 c 0.30005,15.21702 0.59609,30.4345 0.89453,45.65039 l 0.082,4.16015 -4.16015,0.0879 c -14.46767,0.30675 -28.93563,0.61096 -43.40235,0.91602 -1.16321,1.30218 -2.32703,2.60408 -3.49023,3.90625 0.25241,13.2758 0.5054,26.55036 0.75781,39.82617 0.89185,0.89048 1.78394,1.7814 2.67578,2.67188 h 97.11524 c 0.5503,-0.53479 1.0338,-1.00574 1.40234,-1.43165 0.63025,-0.72834 0.89293,-1.22753 0.9961,-1.68554 l 0.0195,-0.0859 0.0234,-0.0859 c 0.66491,-2.46104 0.67433,-5.58912 1.13477,-9.22265 0.002,-0.0223 0.004,-0.0461 0.006,-0.0684 0.13856,-1.4398 0.2778,-2.87759 0.41602,-4.31641 l 0.36132,-3.76953 h 60.54883 l 0.0312,4.13672 c 0.0524,7.15531 -0.10475,14.20004 0.10742,21.12305 7e-5,0.001 -6e-5,0.003 0,0.004 0.28242,5.69804 0.91918,11.14587 3.00586,15.71289 1.00706,2.12617 2.55179,3.75922 4.19336,4.33594 l 0.0937,0.0332 0.0918,0.0371 c 3.00529,1.21843 6.72398,1.6338 10.66601,2.03321 2.92299,0.24149 5.81609,0.37752 8.82618,0.46289 h 0.0234 c 1.41951,0.024 3.01788,0.0655 4.42579,0.0723 h 0.0273 l 0.0254,0.002 c 6.04915,0.10615 12.95563,-0.0784 19.44336,0.51954 l 0.11719,0.0117 0.11718,0.0176 c 1.89248,0.28305 5.97119,0.63333 8.625,3.75782 0.006,0.007 0.0118,0.0127 0.0176,0.0195 0.0132,0.0156 0.0259,0.0311 0.0391,0.0469 l -0.0312,-0.0351 c 1.97822,2.28349 2.36742,5.56038 2.61719,6.44726 l 0.0332,0.12109 0.0273,0.125 c 0.42648,1.96679 0.82966,3.34183 1.37109,4.0879 l 0.0918,0.125 0.0801,0.13085 c 0.3509,0.56795 0.94558,1.21065 1.71679,1.9961 23.44226,-0.0756 46.85581,-0.005 70.23633,-0.29492 8.19349,-0.14263 16.31682,-0.21078 24.34961,-0.64258 2.13427,-0.14637 3.54544,-0.70028 3.99024,-1.32422 l 0.10156,-0.14063 0.11133,-0.13476 c 0.35576,-0.41966 0.65797,-1.20826 0.71289,-2.29492 l 0.006,-0.11133 0.0117,-0.10938 c 0.13849,-1.32938 0.22945,-2.87076 0.27539,-4.14257 0.10931,-3.8728 0.10341,-7.99718 0.10937,-12.0586 -1e-5,-0.003 10e-6,-0.007 0,-0.01 10e-6,-0.003 0,-0.005 0,-0.008 -0.0176,-6.84221 0.0235,-13.52166 -0.73828,-19.95117 -0.30261,-2.12417 -0.65117,-3.7311 -1.15625,-4.67383 -5.21158,-0.56974 -10.60999,-0.691 -16.14258,-0.91601 -0.005,-2.1e-4 -0.0104,2.1e-4 -0.0156,0 -18.72214,-0.62207 -37.56041,-0.81553 -56.34375,-0.66602 h -0.006 c -0.002,2e-5 -0.005,-2e-5 -0.008,0 -5.06439,0.0579 -10.14194,0.13722 -15.07032,0.35352 h -0.0117 -0.01 c -3.54159,0.13749 -7.04823,0.47077 -10.46875,1.07422 -0.13535,0.0284 -0.25348,0.0571 -0.34961,0.084 -0.0428,0.012 -0.0814,0.0223 -0.11524,0.0332 -0.0227,0.007 -0.0421,0.0149 -0.0605,0.0215 -1.23144,1.61184 -2.01656,3.10769 -2.18555,4.38281 l -0.004,0.0332 -0.004,0.0312 c -0.44501,2.9993 -0.22852,6.46552 -0.29883,10.33399 v 11.50781 l -4.19336,-0.0254 c -10.24722,-0.0621 -20.82589,0.0913 -31.23828,-0.16601 h -0.0176 -0.0195 c -4.31962,-0.14535 -9.11219,-0.25928 -13.81445,-1.11133 l -0.0762,-0.0137 -0.0742,-0.0176 c -3.39741,-0.745 -6.21958,-3.35048 -7.17383,-6.7461 -0.005,-0.018 -0.0126,-0.0347 -0.0176,-0.0527 -0.007,-0.0205 -0.009,-0.0419 -0.0156,-0.0625 -1.08963,-3.48338 -1.12082,-7.31295 -1.30079,-9.94727 l -0.002,-0.041 -0.002,-0.041 c -0.51537,-10.66316 -0.5281,-21.38496 -0.6543,-31.89648 v -0.008 -0.006 c -0.21546,-24.2358 -0.3671,-48.4754 -0.54492,-72.70118 l -0.0293,-4.19921 h 59.09961 l 0.0684,4.09765 c 0.0763,4.57827 -0.12891,8.9181 0.12891,12.99805 0.0669,0.46964 0.29123,1.04437 0.76562,1.78515 0.49876,0.77884 1.25079,1.67781 2.08008,2.6836 l 0.006,0.006 0.006,0.006 c 0.34114,0.41709 0.68349,0.83416 1.02734,1.25195 25.66015,-0.23524 51.30152,-0.3665 76.92188,-0.74609 h 0.0156 c 6.13589,-0.14213 12.04052,-0.20534 17.89258,-0.75196 0.93368,-0.12356 1.66772,-0.22732 2.08203,-0.34765 0.28653,-0.0832 0.37476,-0.13388 0.39649,-0.15039 l 0.002,-0.002 0.002,-0.002 0.002,-0.002 0.0586,-0.0703 0.0703,-0.0723 c 0.38535,-0.40244 0.69511,-0.97695 0.96485,-1.93945 0.26426,-0.94297 0.4401,-2.19079 0.6582,-3.60157 0.59662,-5.36538 0.48373,-10.98402 0.43945,-16.7832 -0.0943,-6.6313 -0.30649,-13.30164 -0.43554,-20.01562 -1.24641,-1.11312 -2.49188,-2.22672 -3.73829,-3.33985 h -96.66796 c -0.54863,0.70078 -1.04125,1.33641 -1.42579,1.92383 -0.6682,1.02075 -0.9903,1.80617 -1.07226,2.55273 l -0.004,0.0391 -0.006,0.0391 c -0.32031,2.48068 -0.0607,5.4619 -0.16406,8.91406 v 7.86328 H 411.625 l 0.0273,-4.19531 c 0.25059,-38.86514 0.50005,-77.73057 0.74805,-116.5957 l 0.0176,-2.61524 c -1.23931,1.80289 -2.38086,3.9217 -3.71485,6.16992 -0.26269,64.80654 -0.52487,129.61347 -0.7871,194.41993 l -0.0176,4.15039 h -60.33399 l -0.43945,-3.67383 c -0.61692,-5.1678 -0.7916,-10.06594 -1.61523,-14.55274 -0.29508,-1.39447 -0.81782,-2.03169 -0.97657,-2.09765 l -0.11523,-0.0469 -0.11133,-0.0547 c -2.03633,-0.99306 -4.90084,-1.27529 -8.28711,-1.63672 h -0.002 c 0,0 -0.002,0 -0.002,0 0,0 -0.002,0 -0.002,0 -1.72453,-0.14338 -3.42748,-0.23921 -5.09375,-0.29492 -9.28326,-0.29649 -18.65866,-0.22759 -28.10742,-0.31446 h -0.006 c -0.002,-2e-5 -0.006,2e-5 -0.008,0 -0.98114,-0.006 -1.96352,-0.0118 -2.94531,-0.0176 l -4.14258,-0.0254 V 271.82031 l 3.99414,-0.16797 c 11.02087,-0.46057 21.96462,-0.68771 32.80078,-1.36523 h 0.006 c 2.75335,-0.17939 5.48209,-0.41992 8.16992,-0.71484 h 0.008 c 1.28735,-0.17188 2.34231,-0.25657 3.04102,-0.41016 0.42224,-0.0928 0.67213,-0.18412 0.83203,-0.26758 0.0709,-0.32618 0.31382,-1.37465 0.41211,-1.79883 0.58595,-4.023 0.60781,-8.32314 0.68359,-12.81836 5e-5,-0.004 -4e-5,-0.008 0,-0.0117 0.0722,-6.40273 0.094,-12.77767 -0.0762,-19.11718 -0.0535,-2.16905 -0.16094,-4.49462 -0.35351,-6.66016 -0.19925,-1.81664 -0.43431,-3.30873 -0.82813,-4.34766 -0.30094,-0.10472 -0.95466,-0.25601 -1.82227,-0.42773 -3.17483,-0.33631 -6.59456,-0.32626 -10.21875,-0.47461 -19.9385,-0.52467 -39.92542,-0.47603 -59.94726,-0.41406 h -0.0215 c -0.007,2e-5 -0.0126,-2e-5 -0.0195,0 -7.42329,0.0963 -14.71653,0.0714 -21.83593,0.6543 -2.52504,0.27926 -4.64717,0.49741 -6.20508,1.07031 -0.0134,0.0295 -0.0279,0.0633 -0.043,0.0996 -0.1236,0.29738 -0.27904,0.80909 -0.48633,1.46875 -0.63221,2.33239 -0.67866,5.20254 -0.8418,8.46875 -0.22663,6.43455 -0.12768,12.93365 0.12696,19.39062 0.26486,5.17996 0.43843,10.15084 1.3125,14.78125 0.013,0.009 0.0269,0.0177 0.043,0.0274 0.14019,0.0843 0.40235,0.18802 0.64453,0.23437 l 0.12304,0.0234 0.12305,0.0312 c 3.21745,0.81989 6.92198,0.95846 10.94531,1.24414 0.0132,6.9e-4 0.0278,0.001 0.041,0.002 9.96981,0.51991 19.99428,0.84185 30.03906,1.23633 3.50185,-0.24083 7.04889,2.42278 7.03711,6.37305 -0.0344,14.2128 -0.006,28.44836 -0.0156,42.6875 l -0.004,4.16601 H 181.26172 l -0.17188,-3.98828 c -0.14689,-3.41708 0.0589,-6.48091 -0.15429,-9.16015 -0.52677,-2.67858 -1.8563,-5.28428 -3.71485,-7.30469 l -0.0176,-0.002 c -4.3722,-0.41149 -8.84962,-0.52273 -13.39843,-0.64843 h -0.0195 c -0.007,-1.9e-4 -0.0145,1.9e-4 -0.0215,0 -9.71259,-0.17113 -19.46752,-0.16636 -29.25781,-0.25586 l -4.12891,-0.0391 v -73.6504 l 2.76953,-0.98632 c 6.41327,-2.28381 12.55886,-3.94892 17.55664,-6.95899 l 0.0293,-0.0176 0.0293,-0.0176 c 6.01301,-3.48802 11.19802,-8.4569 14.9414,-14.31641 0.003,-0.005 0.005,-0.009 0.008,-0.0137 l 0.008,-0.01 c 0.005,-0.008 0.009,-0.0157 0.0137,-0.0234 0.26458,-0.42814 0.67769,-1.09894 0.91992,-1.51953 1.24943,-2.16516 2.3098,-4.45454 3.1875,-6.82422 6.6e-4,-0.002 0.001,-0.004 0.002,-0.006 l 0.006,-0.0137 c 0.002,-0.006 0.004,-0.0113 0.006,-0.0176 0.1318,-0.36832 0.37443,-1.05248 0.47656,-1.38086 l 0.008,-0.0293 0.0117,-0.0312 c 3.33444,-10.1644 2.72604,-21.68247 -1.75195,-31.37695 l -0.006,-0.0117 -0.004,-0.0117 c -3.48594,-7.66353 -9.33274,-14.28775 -16.30273,-19.31641 -4.09005,-2.87725 -8.98233,-4.72136 -14.10547,-5.66992 l -0.0117,-0.002 -0.01,-0.002 c -4.13844,-0.78794 -8.20734,-1.31284 -12.14062,-1.20312 z m 2.89453,3.55664 c 9.16118,-0.11425 18.01348,3.52182 24.82422,9.22266 0.007,0.005 0.013,0.0103 0.0195,0.0156 l 0.008,0.008 c 6.43586,5.23048 11.65693,12.37306 13.9961,20.63086 0.001,0.004 0.003,0.008 0.004,0.0117 l 0.002,0.0137 c 2.96412,10.27504 1.35162,21.65577 -4.19531,30.74414 -3.75838,6.3024 -9.20956,11.35063 -15.27148,15.04102 -0.0175,0.0106 -0.0333,0.0245 -0.0508,0.0352 -0.0155,0.01 -0.0333,0.0174 -0.0488,0.0273 l -0.006,0.004 c -3.48924,2.23923 -7.64397,3.79819 -12.07227,3.95117 -0.0126,4.3e-4 -0.0245,0.003 -0.0371,0.004 -0.0105,6.6e-4 -0.0208,-6.4e-4 -0.0312,0 -4.44784,0.27604 -8.89872,0.19476 -13.2871,-0.15429 l -0.0312,-0.002 -0.0293,-0.004 C 116.9452,222.53799 110.9472,220.73458 106,216.94336 c 0,0 -0.002,0 -0.002,0 0,0 0,-0.002 0,-0.002 0,0 0,-0.002 0,-0.002 0,0 -0.002,0 -0.002,0 -0.0164,-0.0126 -0.0325,-0.0245 -0.0488,-0.0371 -4.50218,-3.3677 -8.168142,-7.59005 -11.339848,-11.69531 l -0.03516,-0.0469 -0.03516,-0.0488 c -2.931727,-4.02543 -4.825623,-8.88518 -5.207031,-13.95313 -3.47e-4,-0.005 -0.0016,-0.009 -0.002,-0.0137 -9.81e-4,-0.0131 -9.92e-4,-0.0259 -0.002,-0.0391 -0.488673,-5.3915 -0.390895,-10.93804 0.582031,-16.40235 l 0.0039,-0.0195 0.0039,-0.0176 c 1.301646,-6.944 4.479205,-13.83642 9.8125,-18.99219 0.0042,-0.004 0.0075,-0.008 0.01172,-0.0117 5.482446,-5.37381 12.466096,-8.87485 19.550786,-10.82227 l 0.0273,-0.008 0.0273,-0.008 c 3.10735,-0.80916 6.32552,-1.25835 9.56641,-1.29297 z m 166.05469,18.61719 c -12.03932,0.054 -24.05492,0.13132 -36.03125,0.51367 -1.58753,0.0619 -3.2929,0.1127 -4.73243,0.18945 -1.35133,0.0741 -2.70284,0.12868 -3.8164,0.20899 -1.87964,0.13719 -2.86524,0.3997 -3.1582,0.63867 l -0.14063,0.11523 -0.15039,0.10157 c -0.004,0.003 -0.0141,0.01 -0.0273,0.0215 -0.006,0.005 -0.0111,0.0111 -0.0176,0.0176 0.2698,0.22445 0.83795,0.50689 1.48047,0.51562 l 0.12695,0.002 0.12891,0.01 c 8.073,0.60624 16.16682,0.74393 24.41992,0.92774 h 0.0215 c 25.30765,0.43804 50.61695,0.49873 75.90821,0.0332 h 0.0234 c 4.9257,-0.11826 9.66669,-0.20758 14.45117,-0.49805 0.009,-8.8e-4 0.0199,-0.001 0.0293,-0.002 l 0.0469,-0.004 c 1.02374,-0.0928 2.55747,-0.14673 3.1582,-0.20898 0.84459,-0.0875 1.33687,-0.24422 1.5918,-0.39063 l 0.0859,-0.0488 0.0859,-0.0449 c 0.1299,-0.0667 0.29895,-0.213 0.41406,-0.33203 -0.0281,-0.0236 -0.0625,-0.0496 -0.10546,-0.0801 -0.23191,-0.16465 -0.66926,-0.32846 -0.97852,-0.36328 -8.47185,-0.67905 -17.02016,-0.79395 -25.7207,-0.99218 h -0.008 c -0.003,-7e-5 -0.007,6e-5 -0.01,0 -15.68264,-0.29287 -31.37563,-0.37338 -47.07617,-0.33008 z m -73.01563,0.92773 c -0.27339,0.22713 -0.58101,0.49714 -0.92383,0.79883 0.22861,0.28519 0.49318,0.59736 0.78907,0.93555 0.29633,-0.23392 0.60645,-0.50107 0.93164,-0.79493 -0.23823,-0.30651 -0.50394,-0.61908 -0.79688,-0.93945 z m 266.44727,15.50977 c -1.88769,0.048 -3.83303,0.0931 -5.51172,0.16406 -3.37443,0.15462 -6.62699,0.43044 -9.6582,1.09766 -0.0144,0.0159 -0.0296,0.0345 -0.0469,0.0547 -0.0252,0.0295 -0.0534,0.0631 -0.084,0.10157 -0.18918,0.23842 -0.45696,0.64657 -0.8125,1.17187 -1.0808,1.86342 -1.66056,3.22226 -1.63868,4.02734 l 0.006,0.22657 -0.0176,0.22656 c -0.39147,4.7826 -4.37142,8.16354 -8.56055,8.84766 l 0.0371,-0.006 c -0.0333,0.007 -0.0662,0.0149 -0.0996,0.0215 -0.0408,0.006 -0.0822,0.0117 -0.12305,0.0176 -4.25532,0.81649 -8.99255,0.77112 -12.53906,0.95703 l -0.0371,0.002 h -0.0352 c -7.4127,0.26056 -14.72166,0.33492 -21.80078,0.86524 h -0.002 c -3.97469,0.33879 -7.6481,0.65993 -10.78906,1.70312 l -0.0176,0.006 -0.0156,0.004 c -1.15305,0.37237 -2.20784,1.01109 -3.04882,1.83008 l 2.89062,-0.0508 c 16.6578,-0.2935 33.31746,-0.58379 49.97461,-0.875 l 4.18945,-0.0742 0.0508,4.1914 c 0.0714,6.0657 -0.13158,11.9578 0.14454,17.65821 0.0956,1.33543 0.53919,2.49519 1.20117,3.26757 l 0.10742,0.12696 0.0977,0.13476 c 0.35459,0.48739 0.72913,0.98245 1.11718,1.49024 22.19668,-0.0494 44.36633,0.0359 66.50196,-0.21875 h 0.0137 c 9.21378,-0.13884 18.37075,-0.25463 27.45312,-0.74024 1.97135,-0.17009 3.81584,-0.52609 5.37696,-1.15039 0,0 0.002,-0.002 0.002,-0.002 3.1e-4,-8.7e-4 -3.2e-4,-0.005 0,-0.006 0,0 0.002,-0.002 0.002,-0.002 0.0123,-0.0236 0.0264,-0.0503 0.041,-0.082 0.0162,-0.0353 0.0348,-0.0762 0.0527,-0.1211 0.11975,-0.29949 0.25276,-0.80433 0.35742,-1.38086 l 0.002,-0.0156 0.002,-0.0156 c 0.22691,-1.19851 0.40007,-2.64796 0.5,-3.84765 l 0.002,-0.0234 0.002,-0.0215 c 0.0655,-0.69544 0.10608,-1.43927 0.16406,-2.24609 0.2949,-5.93721 0.43506,-11.89874 0.4082,-17.87891 -0.10347,-5.25623 -0.21796,-10.27392 -1.26367,-14.85156 -0.4814,-1.90191 -1.05289,-2.9977 -1.46289,-3.34961 -1.2674,-0.3887 -3.02897,-0.51988 -5.16406,-0.68554 -0.0109,-6.8e-4 -0.0204,-0.001 -0.0312,-0.002 -6.01075,-0.36998 -12.06744,-0.41739 -18.29492,-0.54101 -0.005,-1e-4 -0.009,1e-4 -0.0137,0 -19.91356,-0.25397 -39.79156,-0.45657 -59.61914,-0.006 h -0.006 c -0.002,4e-5 -0.002,-5e-5 -0.004,0 z m -14.02149,3.19531 h 6.16797 90.16797 v 41.66992 h -96.33594 z m -131.66406,43.8125 v 6.26367 35.60547 l -4.18164,-0.0117 c -13.18505,-0.0403 -26.58257,0.0974 -39.87695,-0.11328 h -0.0293 -0.0312 c -3.66349,-0.1117 -8.16189,-0.0969 -12.46875,-1.15625 l -0.0742,-0.0195 -0.0762,-0.0195 c -3.34544,-0.95652 -6.6911,-3.88631 -7.06055,-8.07031 -7.1e-4,-0.006 -0.001,-0.0118 -0.002,-0.0176 -0.003,-0.0343 -0.009,-0.0671 -0.0117,-0.10157 -0.004,-0.0479 -0.007,-0.0964 -0.01,-0.14453 -0.55064,-4.73996 -0.2963,-9.66658 -0.19726,-13.86523 v -0.0273 l 0.002,-0.0254 c 0.16042,-4.45818 0.33179,-8.92384 0.4961,-13.37109 l 0.14453,-3.95117 3.95508,-0.0606 c 18.39647,-0.28292 36.79322,-0.56493 55.18945,-0.84765 z m 298.34375,12.70312 c 0.0113,0.003 0.0217,0.006 0.0312,0.008 0.0195,0.005 0.0352,0.007 0.0469,0.01 -0.0164,-0.005 -0.0389,-0.011 -0.0781,-0.0176 z M 79.710937,307.11523 h 6.167969 91.500004 v 40.33594 H 79.710937 Z m 394.666013,0 h 6.16797 90.16797 v 40.33594 h -96.33594 z m -228,80 h 6.16797 90.16797 v 41.94141 l -4.24609,-0.0801 c -17.49002,-0.32411 -35.07309,-0.60271 -52.63086,-1.33789 -9.99772,-0.39665 -20.12347,-0.75706 -30.2168,-1.45508 l -0.14453,-0.01 -0.14453,-0.0215 c -4.47963,-0.62502 -7.71827,-4.38552 -8.34961,-8.49414 l 0.01,0.0645 c -0.007,-0.0375 -0.0143,-0.0738 -0.0215,-0.11133 -0.005,-0.0322 -0.009,-0.0654 -0.0137,-0.0977 -0.73469,-3.92977 -0.50826,-8.20074 -0.57031,-11.28711 l -0.002,-0.0371 v -0.0371 c -0.0119,-4.95833 -0.006,-9.92423 -0.006,-14.86914 z m 228,44 h 6.16797 90.16797 v 41.66797 h -96.33594 z m -361.33398,5.33204 h 6.16797 58.16797 v 41.66992 h -64.33594 z m 181.92383,41.70117 c -12.03475,0.054 -24.04577,0.13169 -36.01758,0.51367 -0.005,1.9e-4 -0.009,-1.9e-4 -0.0137,0 -1.58753,0.0619 -3.2929,0.1127 -4.73243,0.18945 -1.35133,0.0741 -2.70284,0.12868 -3.8164,0.20899 -1.87772,0.13933 -2.85854,0.40031 -3.14258,0.63086 l -0.14844,0.11914 -0.15625,0.10547 c -0.004,0.002 -0.0142,0.01 -0.0273,0.0215 -0.006,0.005 -0.0124,0.0104 -0.0195,0.0176 0.26987,0.22443 0.83809,0.5069 1.48047,0.51562 l 0.12695,0.002 0.12891,0.01 c 8.07622,0.60648 16.17316,0.74382 24.42968,0.92774 h 0.0117 c 25.30765,0.43804 50.61695,0.49873 75.90821,0.0332 h 0.0234 c 4.9257,-0.11826 9.66669,-0.20758 14.45117,-0.49805 0.009,-8.8e-4 0.0199,-0.001 0.0293,-0.002 l 0.0469,-0.004 c 1.02374,-0.0928 2.55747,-0.14673 3.1582,-0.20898 0.84459,-0.0875 1.33687,-0.24422 1.5918,-0.39063 l 0.0859,-0.0488 0.0859,-0.0449 c 0.1299,-0.0667 0.29895,-0.213 0.41406,-0.33203 -0.0281,-0.0236 -0.0625,-0.0496 -0.10546,-0.0801 -0.23191,-0.16465 -0.66926,-0.32846 -0.97852,-0.36328 -8.47185,-0.67905 -17.02016,-0.79395 -25.7207,-0.99218 h -0.008 c -0.003,-7e-5 -0.007,6e-5 -0.01,0 -15.68264,-0.29287 -31.37563,-0.37338 -47.07617,-0.33008 z m -73.01563,0.92773 c -0.27339,0.22713 -0.58101,0.49714 -0.92383,0.79883 0.22861,0.28519 0.49318,0.59736 0.78907,0.93555 0.29633,-0.23392 0.60645,-0.50107 0.93164,-0.79493 -0.23823,-0.30651 -0.50394,-0.61908 -0.79688,-0.93945 z"
         inkscape:original-d="m 188.96875,86.074219 c -37.61934,0.08684 -75.23994,0.07207 -112.857502,0.485485 -20.61892,0.311787 -41.236937,0.679592 -61.855389,1.020374 -2.613281,2.613281 -5.2265621,5.226563 -7.8398434,7.839844 0.221592,94.541528 0.4006089,189.083168 0.678268,283.624548 0.2045518,52.39452 0.3855391,104.7898 0.9408067,157.18202 0.089295,6.96966 0.1506109,14.02721 0.3828785,20.91999 0.1559276,1.93604 1.7111432,3.56225 3.5445702,4.08581 2.062785,0.80316 4.461436,1.12501 6.525742,1.34779 4.918104,0.48296 9.822,0.58044 14.777169,0.8003 3.091578,0.11433 6.182433,0.24701 9.273612,0.37157 0.04429,5.2479 -0.05489,10.63232 0.06055,15.79493 0.169676,4.58813 0.471401,9.33199 2.409305,13.56632 1.139844,2.74956 3.566839,4.82567 6.371825,5.74752 2.754727,0.99141 5.72014,0.71918 8.589654,0.89465 17.980653,0.44641 35.968782,0.43461 53.953824,0.43095 17.12588,-0.048 34.25191,0.003 51.37688,0.1922 13.37795,0.11295 26.76097,0.31555 40.1364,-0.0641 3.90544,-0.14574 7.9985,-0.34452 11.95216,-0.81541 1.70594,-0.16926 3.41172,-0.6897 5.13054,-0.35277 6.44247,0.39199 12.86341,0.435 19.33668,0.57189 31.76786,0.50176 63.54038,0.5793 95.31146,0.67773 75.11295,0.17062 150.22587,-0.1043 225.33868,-0.22365 37.2711,-0.073 74.5422,-0.14608 111.81329,-0.21912 2.29753,-2.50716 4.59505,-5.01432 6.89258,-7.52148 0,-153.60351 0,-307.20703 0,-460.81055 -1.94273,-2.28708 -3.74556,-4.92404 -6.61762,-6.12295 -4.04809,-1.79297 -8.56223,-2.00892 -12.92464,-2.16278 -4.34788,-0.11336 -8.70573,-0.01 -13.04945,-0.0482 -1.24337,0.22524 -2.58554,-0.43923 -2.97079,-1.68365 -0.36384,-6.29025 -0.5149,-12.52331 -1.07327,-18.78408 -0.47172,-4.028488 -1.03144,-8.325854 -3.57434,-11.642682 -0.89633,-1.067275 -1.93182,-2.151682 -3.24866,-2.660151 -3.01969,-0.65519 -6.13127,-0.647504 -9.20354,-0.826941 -10.40846,-0.429359 -20.87789,-0.498673 -31.33095,-0.635001 -40.46132,-0.391132 -80.9248,-0.460824 -121.38754,-0.595884 -92.68075,-0.260872 -185.36183,-0.492239 -278.04302,-0.389855 -2.94011,0.0018 -5.88021,0.0035 -8.82032,0.0053 z M 20.544922,99.283203 c 204.222658,0 408.445308,0 612.667968,0 0.006,36.680447 -0.019,73.360987 0.022,110.041367 0.0668,8.61016 -0.002,17.23616 0.67799,25.82554 0.20275,2.03678 0.33595,4.15292 1.20434,6.03348 1.37159,0.56221 2.90807,0.59324 4.3291,1.02099 0.52968,0.0888 1.17734,0.34717 1.65137,0.22511 1.10174,-3.52095 1.26121,-7.24752 1.55261,-10.90206 0.78148,-12.53229 0.99834,-25.04249 1.39006,-37.58702 0.53119,-17.6793 0.97116,-35.36213 1.66865,-53.03436 0.0165,-0.99808 0.17168,-1.99497 0.71534,-2.85646 0.43684,-0.38453 1.16709,-0.45614 1.73191,-0.68342 2.79892,-0.76202 5.71178,-0.94093 8.5723,-1.36577 4.1603,-0.52639 8.32261,-1.03645 12.48436,-1.55138 0,151.38737 0,302.77474 0,454.16211 -117.9733,0.0734 -235.9466,0.15438 -353.91992,0.15109 -27.7119,0.0319 -55.42551,-0.0609 -83.13551,0.31982 -5.06456,0.1246 -10.14034,0.15894 -15.18829,0.61796 -1.10946,0.1282 -2.23808,0.23003 -3.23396,0.77589 -1.49736,0.5134 -3.12204,0.29529 -4.67841,0.38948 -5.24701,0.0295 -10.5038,-0.46108 -15.74383,-0.0451 -1.34609,0.17008 -2.68152,-0.28545 -4.02297,-0.39375 -4.55346,-0.64517 -9.13078,-1.22911 -13.73843,-1.2002 -19.19643,-0.4209 -38.40123,-0.49566 -57.59184,-1.15144 -1.82598,-0.11299 -3.68498,-0.11162 -5.4734,-0.51449 -1.24035,-0.494 -2.20652,-1.46154 -3.36133,-2.11328 0.54742,-1.54195 0.6769,-3.21894 1.47656,-4.66797 1.56947,-1.01874 3.45665,-1.20727 5.27735,-1.29688 0,-5.39844 0,-10.79687 0,-16.19531 143.92604,-0.16303 287.8521,-0.3145 431.7781,-0.50311 26.25959,-0.0672 52.52044,-0.0263 78.77854,-0.34845 1.75475,-0.0348 3.56479,-0.0788 5.20117,-0.14063 0.98485,-0.099 2.05755,0.0871 2.90491,-0.5279 1.548,-0.74634 3.29429,-1.01939 4.99939,-0.94671 0.73652,-0.36532 1.45073,-0.77591 2.13086,-1.23828 0.12081,-1.33332 1.0428,-2.44065 1.03101,-3.80329 0.35075,-3.00217 -0.1667,-6.05484 0.33609,-9.0405 0.087,-0.7249 0.57123,-1.34129 0.7433,-2.00849 0.35492,-13.87633 0.32976,-27.75862 0.41068,-41.63832 0.16566,-52.86575 0.0465,-105.7322 -0.26719,-158.59718 -0.12055,-17.4164 -0.22051,-34.83435 -0.60714,-52.24723 -0.11193,-3.77319 -0.33516,-7.72509 -0.90066,-11.53218 -0.0877,-0.30471 -0.0808,-1.12276 -0.40257,-1.43651 -0.95392,-0.36187 -1.89146,-0.83104 -2.63649,-1.54005 -1.50585,0.29551 -2.97176,0.77607 -4.38868,1.36133 -0.15025,2.07442 -0.26494,4.07997 -0.3496,6.20065 -0.41452,12.52321 -0.52484,25.1734 -0.67514,37.75263 -0.33879,36.41938 -0.41169,72.84055 -0.53065,109.26113 -0.11745,39.65639 -0.22868,79.31279 -0.34304,118.96918 -204.84896,0 -409.69792,0 -614.546878,0 0,-150.66666 0,-301.33333 0,-451.999997 0.666667,0 1.333333,0 2,0 z M 125.90234,135.80859 c -7.45367,0.19202 -14.54948,3.02861 -21.02041,6.54766 -1.71394,0.95142 -3.53505,2.16341 -4.997164,3.23945 -6.469245,4.78435 -11.661534,11.27451 -14.839199,18.67196 -4.197444,9.58623 -5.606992,20.5321 -3.149737,30.7664 1.059381,4.503 2.792783,8.8461 5.125654,12.84094 0.248615,0.41076 0.681068,1.13614 1.015625,1.65625 0.490767,0.74942 0.901411,1.35324 1.455171,2.11505 6.251425,8.71186 15.47863,15.06992 25.59668,18.47134 2.48533,0.90999 4.97057,1.8202 7.45596,2.73002 0,22.14518 0,44.29036 0,66.43554 -14.82096,0 -29.641925,0 -44.462889,0 -1.621745,1.69271 -3.243489,3.38542 -4.865234,5.07813 0.08668,11.47078 -0.05827,22.94629 0.325122,34.4127 0.188894,3.90853 0.360115,7.88319 1.484441,11.6552 0.429653,1.37203 1.376629,2.64248 2.803723,3.06599 2.393348,0.8845 4.991597,0.86847 7.498857,1.15452 10.177484,0.77999 20.38232,0.50951 30.61129,0.62262 2.20156,0.009 4.40313,0.0179 6.60469,0.0265 0,24.88346 0,49.76693 0,74.65039 -14.82161,0 -29.643227,0 -44.464842,0 -1.697917,1.77213 -3.395833,3.54427 -5.09375,5.3164 0.209795,8.95458 0.413079,18.02409 0.648438,26.90626 0.152771,4.04536 0.287967,8.09783 0.523437,12.09765 0.141358,2.32844 0.337949,4.83548 0.582031,7.22656 -0.07675,0.69578 0.816052,0.86046 1.232422,1.24024 2.387573,1.35073 5.120824,1.96356 7.81032,2.36771 3.830094,0.24874 7.675295,0.19448 11.512196,0.27767 17.854888,0.20021 35.711588,0.0977 53.566828,-0.002 7.91689,-0.0862 15.84491,-0.0852 23.7454,-0.65283 0.90617,-0.0739 1.81038,-0.16891 2.71096,-0.29352 0.40097,-0.0559 1.17562,-0.1778 1.71574,-0.28486 1.85137,-0.27166 3.8539,-0.92451 4.86824,-2.62529 1.07813,-1.37941 1.90507,-2.99654 2.01782,-4.76926 0.59825,-4.45301 0.50839,-8.88159 0.58776,-13.37056 0.0742,-9.29111 0.0197,-18.58258 0.037,-27.87385 -2.09347,-1.83478 -4.15125,-3.71281 -6.23437,-5.56055 -14.58854,0 -29.17709,0 -43.76563,0 0,-24.88672 0,-49.77344 0,-74.66016 10.65608,-0.0597 21.31459,0.0865 31.96875,-0.16211 3.2031,-0.1208 6.55203,-0.24983 9.7772,-0.73474 1.19351,-0.12525 2.30812,-0.59518 3.22132,-1.37529 3.33559,-2.61501 4.97397,-6.83349 5.40489,-10.94925 0.33704,-2.56595 0.52721,-5.16417 0.89151,-7.76103 0.27505,-1.29951 1.69707,-2.05178 2.94766,-1.73168 33.23685,0.24497 66.47369,0.49177 99.71055,0.73559 0.30004,15.21676 0.59607,30.4336 0.89453,45.65039 -15.07158,0.31955 -30.14324,0.63512 -45.21485,0.95312 -1.92903,2.15951 -3.85807,4.31901 -5.7871,6.47852 0.27343,14.38151 0.54687,28.76302 0.82031,43.14453 1.69531,1.69271 3.39062,3.38542 5.08593,5.07812 33.51628,0 67.03256,0 100.54883,0 1.85373,-1.881 4.1439,-3.65448 4.75515,-6.3682 0.873,-3.23129 0.83276,-6.61069 1.26056,-9.91235 0.14068,-1.46182 0.28136,-2.92363 0.42179,-4.38546 17.54167,0 35.08334,0 52.625,0 0.0519,7.08644 -0.10758,14.17635 0.11101,21.26032 0.28945,5.87559 0.91372,11.89922 3.39095,17.30608 1.34226,2.84742 3.55089,5.44232 6.59232,6.51084 3.76817,1.52772 7.90956,1.92215 11.84918,2.32106 3.04198,0.25225 6.0344,0.39157 9.11514,0.47865 1.39837,0.0233 3.03313,0.0669 4.52335,0.0741 6.37766,0.11191 12.77459,-0.0819 19.13357,0.50416 2.1472,0.32115 4.6104,0.58494 6.09503,2.36901 1.19279,1.34623 1.31075,3.21557 1.77812,4.87509 0.42637,1.96626 0.86374,3.99091 2.06887,5.65152 0.94127,1.52345 2.28581,2.71765 3.52996,3.97925 24.01011,-0.0852 48.02154,-0.003 72.03038,-0.3011 8.18133,-0.14248 16.36868,-0.20923 24.5405,-0.64939 2.60871,-0.17448 5.51918,-0.80375 7.13048,-3.06401 1.13007,-1.33305 1.60917,-3.06311 1.69594,-4.78017 0.15327,-1.47117 0.24775,-3.08854 0.29623,-4.43946 0.11242,-3.97071 0.10597,-8.14188 0.11197,-12.20572 -0.0177,-6.83519 0.0363,-13.6983 -0.77334,-20.49584 -0.35852,-2.53075 -0.71578,-5.28339 -2.42432,-7.3037 -0.46124,-0.61961 -1.16572,-0.95233 -1.93466,-0.9196 -5.61594,-0.64414 -11.27543,-0.7617 -16.91913,-0.99142 -18.80069,-0.62516 -37.71193,-0.82047 -56.56091,-0.67027 -5.08078,0.058 -10.20704,0.13877 -15.22075,0.35881 -3.7153,0.14423 -7.42851,0.49476 -11.08948,1.14397 -1.14523,0.23282 -2.33078,0.63629 -3.01482,1.65253 -1.4509,1.88952 -2.72491,4.01183 -3.04344,6.4154 -0.53532,3.60802 -0.27634,7.27238 -0.34418,10.90622 0,2.45117 0,4.90234 0,7.35351 -10.38632,-0.0629 -20.77542,0.0924 -31.15961,-0.16422 -4.41339,-0.1485 -8.85976,-0.25832 -13.21346,-1.04721 -1.95225,-0.4281 -3.58119,-1.96257 -4.08383,-3.9043 -0.95138,-2.93644 -0.95008,-6.06523 -1.1585,-9.11605 -0.51104,-10.57368 -0.52046,-21.16353 -0.64752,-31.74693 -0.21542,-24.23144 -0.36781,-48.46338 -0.54567,-72.69512 16.93489,0 33.86979,0 50.80469,0 0.074,4.43791 -0.14608,8.88429 0.14391,13.31589 0.29583,2.66638 2.19762,4.8088 3.78258,6.73109 0.76416,0.93429 1.5288,1.86155 2.30202,2.79873 26.32267,-0.24704 52.64684,-0.37564 78.96791,-0.76583 6.1319,-0.14218 12.1691,-0.19971 18.28091,-0.77509 1.81696,-0.23973 3.87018,-0.42751 5.15593,-1.90633 2.01029,-2.09945 2.32202,-5.13635 2.74657,-7.87354 0.65012,-5.77139 0.51752,-11.59442 0.47348,-17.39204 -0.10361,-7.28542 -0.34685,-14.5694 -0.46855,-21.85358 -2.0944,-1.87044 -4.1888,-3.74088 -6.2832,-5.61133 -33.4336,0 -66.86719,0 -100.30078,0 -1.87671,2.49264 -4.24076,4.93719 -4.59775,8.18889 -0.4018,3.11173 -0.10144,6.25775 -0.19913,9.38455 0,1.25287 0,2.50573 0,3.75859 -16.9082,0 -33.8164,0 -50.72461,0 0.25059,-38.86522 0.50005,-77.73046 0.74805,-116.5957 16.65752,-0.29349 33.3151,-0.58378 49.97266,-0.875 0.07,5.95056 -0.13906,11.90759 0.15141,17.85332 0.13946,2.07982 0.82867,4.13802 2.19818,5.73593 0.79005,1.0859 1.62028,2.1416 2.43166,3.21153 22.87282,-0.0601 45.74678,0.0412 68.61856,-0.22211 9.2333,-0.13915 18.47206,-0.25502 27.69408,-0.74991 2.33572,-0.1967 4.69019,-0.62615 6.85952,-1.53197 1.84637,-0.75134 2.45823,-2.84021 2.78261,-4.62697 0.26741,-1.41245 0.44887,-2.97123 0.55767,-4.27745 0.0769,-0.81626 0.11904,-1.60956 0.17506,-2.3826 0.30061,-6.03563 0.44432,-12.09964 0.4164,-18.18398 -0.10378,-5.27474 -0.19248,-10.61044 -1.37929,-15.77501 -0.58777,-2.34205 -1.44423,-4.99838 -3.74944,-6.1749 -2.12377,-0.7845 -4.43412,-0.8716 -6.67333,-1.04549 -6.17586,-0.38136 -12.30602,-0.42496 -18.51525,-0.54834 -19.93382,-0.25427 -39.87397,-0.46035 -59.80651,-0.007 -1.88242,0.0479 -3.84831,0.0928 -5.59141,0.1665 -3.56315,0.16287 -7.14356,0.45636 -10.62696,1.24804 -1.60648,0.34702 -2.47478,1.86486 -3.3279,3.12027 -1.13597,1.94313 -2.33956,4.03678 -2.27635,6.36199 -0.21881,2.67326 -2.61766,4.72607 -5.18446,5.09566 -4.00136,0.79957 -8.10588,0.70815 -12.16403,0.92088 -7.34973,0.25834 -14.71974,0.32867 -21.98866,0.87425 -3.95701,0.33726 -7.97982,0.64232 -11.77161,1.90167 -2.43977,0.78791 -4.60635,2.34312 -6.0708,4.4548 -1.77626,2.48433 -3.16623,5.21664 -4.75915,7.81736 -0.26424,65.18945 -0.52919,130.3789 -0.79297,195.56836 -17.49479,0 -34.98959,0 -52.48438,0 -0.5908,-4.949 -0.75693,-9.9539 -1.66321,-14.86109 -0.42629,-2.06509 -1.39327,-4.28149 -3.46735,-5.14323 -3.01637,-1.47099 -6.43607,-1.68801 -9.72115,-2.0389 -1.81391,-0.15174 -3.6037,-0.25339 -5.35363,-0.3119 -9.40305,-0.30032 -18.81331,-0.23048 -28.21986,-0.3171 -0.98653,-0.006 -1.97304,-0.0114 -2.95956,-0.0172 0,-34.48112 0,-68.96224 0,-103.44336 10.96622,-0.45829 21.9438,-0.68621 32.89935,-1.37151 2.83659,-0.18473 5.64521,-0.43097 8.41445,-0.73569 2.22386,-0.29956 4.76625,-0.31511 6.48502,-1.96898 0.9268,-1.0576 1.08315,-2.54545 1.3939,-3.86808 0.67055,-4.48018 0.67861,-9.02805 0.755,-13.54864 0.0726,-6.42862 0.0939,-12.85911 -0.0786,-19.2864 -0.0552,-2.23811 -0.16795,-4.65871 -0.37396,-6.96067 -0.2382,-2.18306 -0.48996,-4.46117 -1.53229,-6.42605 -1.05941,-1.4579 -2.98755,-1.74171 -4.63672,-2.0625 -3.55241,-0.39141 -7.13615,-0.36813 -10.70435,-0.51504 -20.04272,-0.528 -40.09498,-0.47889 -60.14286,-0.41682 -7.40935,0.0966 -14.83293,0.066 -22.22282,0.67458 -2.62577,0.29069 -5.34073,0.47529 -7.79521,1.52681 -1.60976,0.70419 -2.05709,2.56143 -2.53668,4.0841 -0.85161,3.07552 -0.85011,6.30153 -1.00882,9.46724 -0.2333,6.59383 -0.13099,13.21409 0.12743,19.7568 0.26883,5.25261 0.43177,10.54448 1.44879,15.71841 0.4261,1.81832 2.20276,2.89762 3.9329,3.22878 3.83771,0.97795 7.82518,1.08631 11.75671,1.36719 10.13335,0.52898 20.28652,0.85365 30.41891,1.25296 1.3216,-0.19447 2.75078,0.78939 2.74662,2.18487 -0.0344,14.22745 -0.005,28.46581 -0.0148,42.69746 -34.65235,0 -69.30469,0 -103.95703,0 -0.13667,-3.17919 0.0964,-6.37192 -0.1829,-9.54271 -0.6732,-3.68722 -2.47639,-7.17565 -5.07446,-9.87246 -0.61625,-0.68063 -1.48232,-1.06942 -2.40266,-1.02013 -4.5782,-0.43088 -9.16324,-0.54026 -13.71536,-0.66613 -9.77684,-0.17277 -19.5558,-0.16855 -29.33361,-0.25794 0,-22.19401 0,-44.38802 0,-66.58203 6.18741,-2.20338 12.63688,-3.89744 18.30878,-7.31351 6.6147,-3.83704 12.28591,-9.28198 16.39435,-15.73141 0.25895,-0.41894 0.70398,-1.13666 1.01562,-1.67774 1.38035,-2.39205 2.54318,-4.90796 3.5,-7.49805 0.12755,-0.35586 0.38825,-1.08084 0.54537,-1.58606 3.66818,-11.18176 3.01042,-23.72986 -1.92908,-34.42348 -3.83905,-8.43981 -10.18846,-15.59007 -17.67581,-20.98742 -4.68372,-3.30028 -10.15606,-5.33386 -15.76732,-6.37279 -4.29228,-0.81723 -8.65623,-1.39691 -13.03449,-1.27478 z m 3.05469,11.89063 c 8.08405,-0.10081 15.99617,3.12193 22.14562,8.28472 5.89909,4.78437 10.57549,11.22778 12.65321,18.58247 2.64641,9.14844 1.20637,19.3436 -3.75438,27.4598 -3.37852,5.67342 -8.34232,10.28978 -13.96719,13.69537 -3.02264,1.95954 -6.52306,3.2481 -10.14655,3.3538 -4.25815,0.26937 -8.53999,0.19479 -12.79161,-0.14338 -5.21163,-0.49049 -10.42007,-2.10556 -14.60582,-5.33033 -4.08953,-3.04849 -7.4794,-6.92499 -10.58406,-10.94347 -2.516801,-3.45571 -4.111237,-7.58389 -4.423828,-11.85742 -0.468787,-5.11318 -0.371953,-10.30544 0.529297,-15.36719 1.174651,-6.2665 4.009555,-12.324 8.634321,-16.78453 4.88815,-4.79587 11.18716,-7.98671 17.75119,-9.79101 2.7934,-0.72741 5.67253,-1.12799 8.5598,-1.15883 z m 165.99805,10.28125 c -12.05705,0.0541 -24.11617,0.13257 -36.16797,0.51758 -1.55979,0.0609 -3.28528,0.11034 -4.80676,0.19146 -1.31657,0.0722 -2.68174,0.12835 -3.89342,0.21573 -1.90833,0.13929 -3.94687,0.30413 -5.49257,1.56498 -1.62587,1.10633 -2.58201,3.39844 -1.56311,5.21728 0.98785,1.92939 3.18736,2.92175 5.28531,2.95025 8.23973,0.61876 16.41646,0.75481 24.6607,0.93849 25.3642,0.43924 50.73721,0.5011 76.10145,0.0339 4.9449,-0.1188 9.77241,-0.20844 14.70521,-0.51005 2.11675,-0.21358 4.58148,-0.004 6.57155,-1.14692 1.75689,-0.9023 3.23828,-2.8962 2.66134,-4.94471 -0.53696,-2.14387 -2.76166,-3.48737 -4.85861,-3.6881 -8.67609,-0.69739 -17.32497,-0.80959 -26.0187,-1.00777 -15.72622,-0.29384 -31.4557,-0.37545 -47.18442,-0.33207 z m -72.60547,0.17969 c -1.92823,0.47639 -3.35679,1.98764 -4.82031,3.23437 -0.62755,0.69113 -1.7607,1.52744 -1.30274,2.58789 0.6912,1.76594 2.06438,3.15268 3.31411,4.53628 0.65491,0.61588 1.54482,1.6072 2.52378,1.02232 1.8528,-0.81979 3.35136,-2.26136 4.77669,-3.66434 0.53826,-0.57367 1.14551,-1.41901 0.59688,-2.19299 -0.88472,-1.87689 -2.33609,-3.43367 -3.82083,-4.85361 -0.37434,-0.28385 -0.77145,-0.65513 -1.26758,-0.66992 z m 258.19531,27.78906 c 28.66667,0 57.33334,0 86,0 0,11.11133 0,22.22266 0,33.33398 -29.33333,0 -58.66666,0 -88,0 0,-11.11132 0,-22.22265 0,-33.33398 0.66667,0 1.33334,0 2,0 z m -142,45.9082 c 0,10.47526 0,20.95052 0,31.42578 -13.27447,-0.0406 -26.55048,0.0981 -39.82378,-0.11221 -3.87657,-0.1182 -7.81313,-0.10472 -11.60005,-1.03622 -2.06906,-0.59158 -3.9446,-2.32857 -4.06999,-4.57118 -0.55048,-4.48517 -0.29823,-9.01902 -0.19199,-13.5229 0.16033,-4.45581 0.33174,-8.91121 0.49636,-13.36686 18.39648,-0.28292 36.79297,-0.56493 55.18945,-0.84766 0,0.67709 0,1.35417 0,2.03125 z M 85.878906,311.2832 c 29.110674,0 58.221354,0 87.332034,0 0,10.66667 0,21.33334 0,32 -29.77735,0 -59.55469,0 -89.332034,0 0,-10.66666 0,-21.33333 0,-32 0.666667,0 1.333334,0 2,0 z m 394.666014,0 c 28.66667,0 57.33334,0 86,0 0,10.66667 0,21.33334 0,32 -29.33333,0 -58.66666,0 -88,0 0,-10.66666 0,-21.33333 0,-32 0.66667,0 1.33334,0 2,0 z m -228,80 c 28.66667,0 57.33334,0 86,0 0,11.17578 0,22.35157 0,33.52735 -17.51443,-0.32456 -35.03157,-0.60304 -52.53447,-1.33592 -10.03763,-0.39825 -20.08287,-0.75687 -30.10326,-1.44984 -2.53947,-0.35432 -4.49221,-2.61733 -4.82657,-5.10542 -0.69647,-3.5462 -0.45753,-7.18465 -0.52975,-10.77679 -0.0119,-4.95312 -0.006,-9.90625 -0.006,-14.85938 0.66667,0 1.33334,0 2,0 z m 228,44 c 28.66667,0 57.33334,0 86,0 0,11.11068 0,22.22136 0,33.33203 -29.33333,0 -58.66666,0 -88,0 0,-11.11067 0,-22.22135 0,-33.33203 0.66667,0 1.33334,0 2,0 z m -361.33398,5.33203 c 18,0 36,0 54,0 0,11.11133 0,22.22266 0,33.33399 -18.66667,0 -37.33334,0 -56,0 0,-11.11133 0,-22.22266 0,-33.33399 0.66666,0 1.33333,0 2,0 z m 175.74414,33.36524 c -12.05705,0.0541 -24.11617,0.13257 -36.16797,0.51758 -1.55979,0.0609 -3.28528,0.11034 -4.80676,0.19146 -1.31657,0.0722 -2.68174,0.12835 -3.89342,0.21573 -1.89852,0.14087 -3.92826,0.29834 -5.46928,1.54915 -1.64037,1.10082 -2.61002,3.40561 -1.5864,5.23311 0.98785,1.92939 3.18736,2.92175 5.28531,2.95025 8.23973,0.61876 16.41646,0.75481 24.6607,0.93849 25.3642,0.43924 50.73721,0.5011 76.10145,0.0339 4.9449,-0.1188 9.77241,-0.20844 14.70521,-0.51005 2.11675,-0.21358 4.58148,-0.004 6.57155,-1.14692 1.75689,-0.9023 3.23828,-2.8962 2.66134,-4.94471 -0.53696,-2.14387 -2.76166,-3.48737 -4.85861,-3.6881 -8.67609,-0.69739 -17.32497,-0.80959 -26.0187,-1.00777 -15.72622,-0.29384 -31.4557,-0.37545 -47.18442,-0.33207 z m -72.60547,0.17969 c -1.92823,0.47639 -3.35679,1.98764 -4.82031,3.23437 -0.62755,0.69113 -1.7607,1.52744 -1.30274,2.58789 0.6912,1.76594 2.06438,3.15268 3.31411,4.53628 0.65491,0.61588 1.54482,1.6072 2.52378,1.02232 1.8528,-0.81979 3.35136,-2.26136 4.77669,-3.66434 0.53826,-0.57367 1.14551,-1.41901 0.59688,-2.19299 -0.88472,-1.87689 -2.33609,-3.43367 -3.82083,-4.85361 -0.37434,-0.28385 -0.77145,-0.65513 -1.26758,-0.66992 z" />
    </g>
    <path
       id="path2"
       style="fill:#eeffcc;fill-opacity:1;stroke:#112318;stroke-width:3.3;stroke-linecap:square;stroke-dasharray:none;stroke-opacity:1;paint-order:markers stroke fill"
       d="M 563.5332 182.9082 C 562.16418 182.85667 560.56395 183.07417 558.7168 183.60352 L 476.53516 183.60352 L 475.66602 184.47266 L 475.53516 184.60352 C 476.1089 197.04075 474.38454 210.43046 476.40234 222.26953 C 507.00229 222.57644 537.83868 222.31232 568.5293 222.40039 C 570.91714 214.33232 568.82229 204.40687 569.5293 195.64258 C 571.05262 188.43924 569.46563 183.13151 563.5332 182.9082 z M 337.09766 225.94336 C 336.00388 225.90126 334.65626 226.13975 332.99805 226.72852 L 311.22266 227.31641 C 301.37363 227.64003 291.51351 227.78152 281.67578 228.3418 C 279.04707 233.79801 281.01776 241.27745 280.1543 247.42188 C 279.87862 253.81391 279.28719 264.31057 288.04492 265.05078 C 305.37102 267.17336 322.94963 266.09884 340.375 266.55859 C 342.76797 258.69961 340.69106 248.98014 341.38086 240.41211 C 341.49714 234.59631 343.00402 226.17071 337.09766 225.94336 z M 169.64648 308.04883 C 168.29542 308.01849 166.73979 308.23188 164.97852 308.7168 L 81.568359 308.7168 L 80.701172 309.58398 L 80.570312 309.7168 L 80.570312 345.28711 C 88.638379 347.67495 98.563838 345.5801 107.32812 346.28711 L 174.79102 346.28711 C 177.17291 338.42101 175.09631 328.70834 175.78906 320.14258 C 177.51446 312.90794 175.50109 308.1803 169.64648 308.04883 z " />
    <path
       id="path3"
       style="fill:#bedc7f;fill-opacity:1;stroke:#112318;stroke-width:3.3;stroke-linecap:square;stroke-dasharray:none;stroke-opacity:1;paint-order:markers stroke fill"
       d="M 563.38477 308.04883 C 562.0337 308.01849 560.47807 308.23188 558.7168 308.7168 L 476.53516 308.7168 L 475.66602 309.58398 L 475.53516 309.7168 L 475.53516 345.28711 C 483.60323 347.67495 493.52868 345.5801 502.29297 346.28711 L 568.5293 346.28711 C 570.91118 338.42101 568.83655 328.70834 569.5293 320.14258 C 571.2547 312.90794 569.23938 308.1803 563.38477 308.04883 z M 335.38477 387.75 C 334.01574 387.69847 332.41551 387.91792 330.56836 388.44727 L 248.17969 388.44727 L 247.32617 389.32617 L 247.18164 389.47461 C 248.55584 399.87452 245.62404 411.40429 250.05078 421.18164 C 256.42767 427.39028 266.83443 424.57142 274.82031 425.96094 C 296.65721 426.95637 318.51942 427.10751 340.375 427.24219 C 342.77922 419.18427 340.66935 409.24701 341.38086 400.48438 C 342.90418 393.28103 341.3172 387.97331 335.38477 387.75 z " />
    <path
       id="path4"
       style="fill:#89a257;fill-opacity:1;stroke:#112318;stroke-width:3.3;stroke-linecap:square;stroke-dasharray:none;stroke-opacity:1;paint-order:markers stroke fill"
       d="M 131.50781 145.05469 C 130.66159 145.02689 129.80547 145.03614 128.94141 145.08203 C 110.62273 145.02613 92.370985 158.82633 91.072266 177.83594 C 88.474698 189.81061 91.765815 202.81285 101.40039 210.83398 C 109.51025 219.50023 121.35897 223.54566 133.0918 221.89648 C 160.12172 221.57826 177.34823 185.97731 161.8418 164.16797 C 154.83432 153.96659 144.20111 145.47162 131.50781 145.05469 z M 563.5332 431.90625 C 562.16418 431.85472 560.56395 432.07418 558.7168 432.60352 L 476.53516 432.60352 L 475.66602 433.4707 L 475.53516 433.60352 C 476.1089 446.04075 474.38454 459.43046 476.40234 471.26953 C 507.00229 471.57644 537.83868 471.31242 568.5293 471.40039 C 570.91714 463.33232 568.82229 453.40687 569.5293 444.64258 C 571.05262 437.43924 569.46563 432.12956 563.5332 431.90625 z M 169.79492 436.81445 C 168.4259 436.76292 166.82567 436.98042 164.97852 437.50977 L 114.6875 437.50977 L 113.82031 438.37891 L 113.6875 438.50977 C 114.26124 450.94699 112.53689 464.33671 114.55469 476.17578 C 134.52418 476.4825 154.73098 476.21847 174.79102 476.30664 C 177.17886 468.23857 175.08206 458.31312 175.78906 449.54883 C 177.31239 442.34549 175.72735 437.03776 169.79492 436.81445 z " />
    <path
       style="fill:#1e3a29;fill-opacity:1;stroke:#112318;stroke-width:3.3;stroke-linecap:square;stroke-dasharray:none;stroke-opacity:1;paint-order:markers stroke fill"
       d="m 316.82468,160.43791 c -23.5795,0.37928 -47.28852,-0.30427 -70.78587,1.47815 -3.55084,3.6574 4.10764,4.56438 6.43007,4.4033 38.2348,1.47499 76.60261,1.9052 114.8237,0.1701 3.04777,0.49666 5.09083,-3.68063 1.344,-4.14457 -17.03049,-3.10717 -34.58516,-1.37441 -51.8119,-1.90698 z"
       id="path6" />
    <path
       style="fill:#1e3a29;fill-opacity:1;stroke:#112318;stroke-width:3.3;stroke-linecap:square;stroke-dasharray:none;stroke-opacity:1;paint-order:markers stroke fill"
       d="m 306.73158,476.34264 c -19.79936,0.43057 -39.78379,-0.46695 -59.47096,1.47335 -4.17355,1.69983 -0.0766,5.26841 2.87724,4.58538 34.16401,1.58937 68.46294,0.61873 102.67233,0.4135 5.42696,-1.07023 12.7336,1.43077 17.19433,-2.28694 0.54403,-4.86397 -7.49424,-3.1012 -10.3631,-3.72408 -17.63085,-0.50459 -35.2733,-0.47432 -52.90984,-0.46121 z"
       id="path7" />
  </g>
</svg>
