<?xml version="1.0" encoding="UTF-8" standalone="no"?>
<svg
   width="276"
   height="276"
   viewBox="0 0 276 276"
   fill="none"
   version="1.1"
   id="svg6"
   sodipodi:docname="nix.svg"
   inkscape:version="1.4.2 (ebf0e940d0, 2025-05-08)"
   xmlns:inkscape="http://www.inkscape.org/namespaces/inkscape"
   xmlns:sodipodi="http://sodipodi.sourceforge.net/DTD/sodipodi-0.dtd"
   xmlns="http://www.w3.org/2000/svg"
   xmlns:svg="http://www.w3.org/2000/svg">
  <defs
     id="defs6" />
  <sodipodi:namedview
     id="namedview6"
     pagecolor="#ffffff"
     bordercolor="#000000"
     borderopacity="0.25"
     inkscape:showpageshadow="2"
     inkscape:pageopacity="0.0"
     inkscape:pagecheckerboard="0"
     inkscape:deskcolor="#d1d1d1"
     showguides="true"
     inkscape:zoom="2.9062089"
     inkscape:cx="133.16317"
     inkscape:cy="144.17408"
     inkscape:window-width="1920"
     inkscape:window-height="1031"
     inkscape:window-x="0"
     inkscape:window-y="0"
     inkscape:window-maximized="1"
     inkscape:current-layer="svg6">
    <sodipodi:guide
       position="177.5509,257.37636"
       orientation="0,-1"
       id="guide6"
       inkscape:locked="false" />
  </sodipodi:namedview>
  <path
     fill-rule="evenodd"
     clip-rule="evenodd"
     d="M 108.73467,90.603205 41.450089,209.72999 25.726996,182.5037 43.878139,150.59525 7.8423492,150.50106 0.16339975,136.89735 8.0594917,122.98273 59.38409,123.15231 77.821463,90.678602 Z"
     fill="#0b6e4f"
     id="path1"
     style="stroke-width:0.385715" />
  <path
     fill-rule="evenodd"
     clip-rule="evenodd"
     d="m 113.93622,185.82927 h 134.62837 l -15.20986,27.52776 -36.10487,-0.10363 17.934,31.9273 -7.68884,13.65082 h -15.72307 l -25.50438,-45.45566 -36.73658,-0.0753 z"
     fill="#0b6e4f"
     id="path2"
     style="stroke-width:0.385715" />
  <path
     fill-rule="evenodd"
     clip-rule="evenodd"
     d="M 192.30493,133.62827 124.99075,14.501488 155.92369,14.20002 173.87742,46.183843 191.9792,14.350754 h 15.36778 l 7.84674,13.933454 -25.78074,45.28608 18.29919,32.549072 z"
     fill="#0b6e4f"
     id="path3"
     style="stroke-width:0.385715" />
  <path
     fill-rule="evenodd"
     clip-rule="evenodd"
     d="m 84.47392,139.67647 67.32406,119.12679 -30.93295,0.29205 -17.97348,-32.03093 -18.101785,31.84251 H 69.412126 L 61.516034,245.0017 87.326385,199.74389 69.017322,167.17595 Z"
     fill="#073b3a"
     id="path4"
     style="stroke-width:0.385715" />
  <path
     fill-rule="evenodd"
     clip-rule="evenodd"
     d="M 162.66497,87.174012 H 28.026734 L 43.246453,59.646256 79.351332,59.749885 61.427203,27.822586 69.116022,14.152916 h 15.713224 l 25.504364,45.455655 36.73658,0.07537 z"
     fill="#073b3a"
     id="path5"
     style="stroke-width:0.385715" />
  <path
     fill-rule="evenodd"
     clip-rule="evenodd"
     d="m 167.95537,182.67328 67.28455,-119.117368 15.7231,27.226289 -18.15114,31.899039 36.03578,0.0942 7.67894,13.65083 -7.89607,13.9146 -51.32459,-0.16957 -18.43739,32.47371 z"
     fill="#073b3a"
     id="path6"
     style="stroke-width:0.385715" />
</svg>
