<?xml version="1.0" encoding="UTF-8" standalone="no"?>
<svg
   width="169.26285"
   height="150"
   viewBox="0 0 169.26285 150"
   fill="none"
   version="1.1"
   id="svg6"
   sodipodi:docname="nix.svg"
   inkscape:version="1.4.3 (0d15f75, 2025-12-25)"
   xmlns:inkscape="http://www.inkscape.org/namespaces/inkscape"
   xmlns:sodipodi="http://sodipodi.sourceforge.net/DTD/sodipodi-0.dtd"
   xmlns="http://www.w3.org/2000/svg"
   xmlns:svg="http://www.w3.org/2000/svg">
  <defs
     id="defs6" />
  <sodipodi:namedview
     id="namedview6"
     pagecolor="#ffffff"
     bordercolor="#000000"
     borderopacity="0.25"
     inkscape:showpageshadow="2"
     inkscape:pageopacity="0.0"
     inkscape:pagecheckerboard="0"
     inkscape:deskcolor="#d1d1d1"
     showguides="true"
     inkscape:zoom="1.1708845"
     inkscape:cx="-36.724374"
     inkscape:cy="231.87599"
     inkscape:window-width="1920"
     inkscape:window-height="994"
     inkscape:window-x="1440"
     inkscape:window-y="30"
     inkscape:window-maximized="0"
     inkscape:current-layer="svg6">
    <sodipodi:guide
       position="178.53653,270.52927"
       orientation="0,-1"
       id="guide6"
       inkscape:locked="false" />
  </sodipodi:namedview>
  <path
     fill-rule="evenodd"
     clip-rule="evenodd"
     d="M 66.742538,47.191348 26.092449,119.16788 16.593317,102.71773 27.559359,83.438606 5.7882789,83.381696 1.1490291,75.16232 5.9194659,66.755092 36.927305,66.857552 48.066273,47.236903 Z"
     fill="#0b6e4f"
     id="path1"
     style="fill:#4d8061;fill-opacity:1;stroke:#112318;stroke-width:2;stroke-dasharray:none;stroke-opacity:1" />
  <path
     fill-rule="evenodd"
     clip-rule="evenodd"
     d="m 69.885062,104.72704 h 81.335948 l -9.18906,16.6323 -21.81282,-0.0626 10.83486,19.29051 -4.64523,8.24784 h -9.49911 l -15.40852,-27.46436 -22.194462,-0.0455 z"
     fill="#0b6e4f"
     id="path2"
     style="fill:#1e3a29;fill-opacity:1;stroke:#112318;stroke-width:2;stroke-dasharray:none;stroke-opacity:1" />
  <path
     fill-rule="evenodd"
     clip-rule="evenodd"
     d="M 117.23165,73.187139 76.563675,1.21061 95.25186,1.028462 106.09864,20.353122 117.03486,1.119536 h 9.28447 l 4.74062,8.418608 -15.57548,27.361898 11.05549,19.666184 z"
     fill="#0b6e4f"
     id="path3"
     style="fill:#89a257;fill-opacity:1;stroke:#112318;stroke-width:2;stroke-dasharray:none;stroke-opacity:1" />
  <path
     fill-rule="evenodd"
     clip-rule="evenodd"
     d="m 52.085366,76.841468 40.67394,71.976542 -18.688192,0.17645 -10.858707,-19.35312 -10.936223,19.23928 h -9.290425 l -4.770437,-8.40153 15.593365,-27.34482 -11.06145,-19.677584 z"
     fill="#073b3a"
     id="path4"
     style="fill:#89a257;fill-opacity:1;stroke:#112318;stroke-width:2;stroke-dasharray:none;stroke-opacity:1" />
  <path
     fill-rule="evenodd"
     clip-rule="evenodd"
     d="M 99.324616,45.119426 H 17.982707 L 27.177725,28.487127 48.990546,28.549737 38.161655,9.259229 42.806867,1 h 9.49317 l 15.408503,27.464355 22.194464,0.04554 z"
     fill="#073b3a"
     id="path5"
     style="fill:#1e3a29;fill-opacity:1;stroke:#112318;stroke-width:2;stroke-dasharray:none;stroke-opacity:1" />
  <path
     fill-rule="evenodd"
     clip-rule="evenodd"
     d="m 102.52082,102.82019 40.65007,-71.970845 9.49914,16.450153 -10.96604,19.273433 21.77107,0.05692 4.63924,8.247846 -4.77042,8.407217 -31.00783,-0.102455 -11.13898,19.620651 z"
     fill="#073b3a"
     id="path6"
     style="fill:#4d8061;fill-opacity:1;stroke:#112318;stroke-width:2;stroke-dasharray:none;stroke-opacity:1" />
</svg>
