<?xml version="1.0" encoding="UTF-8" standalone="no"?>
<svg
   width="800"
   height="800"
   viewBox="0 0 800 800"
   fill="none"
   version="1.1"
   id="svg3"
   sodipodi:docname="postgres.svg"
   inkscape:version="1.4.3 (0d15f75, 2025-12-25)"
   xmlns:inkscape="http://www.inkscape.org/namespaces/inkscape"
   xmlns:sodipodi="http://sodipodi.sourceforge.net/DTD/sodipodi-0.dtd"
   xmlns="http://www.w3.org/2000/svg"
   xmlns:svg="http://www.w3.org/2000/svg">
  <defs
     id="defs3">
    <inkscape:path-effect
       effect="offset"
       id="path-effect1"
       is_visible="true"
       lpeversion="1.3"
       linejoin_type="miter"
       unit="mm"
       offset="-1.4"
       miter_limit="4"
       attempt_force_join="false"
       update_on_knot_move="true" />
  </defs>
  <sodipodi:namedview
     id="namedview3"
     pagecolor="#505050"
     bordercolor="#eeeeee"
     borderopacity="1"
     inkscape:showpageshadow="0"
     inkscape:pageopacity="0"
     inkscape:pagecheckerboard="0"
     inkscape:deskcolor="#d1d1d1"
     inkscape:zoom="0.60733146"
     inkscape:cx="461.85653"
     inkscape:cy="519.48568"
     inkscape:window-width="1920"
     inkscape:window-height="994"
     inkscape:window-x="1440"
     inkscape:window-y="30"
     inkscape:window-maximized="0"
     inkscape:current-layer="svg3" />
  <path
     d="M 746.026,485.932 C 655.905,504.523 649.708,474.011 649.708,474.011 744.86,332.82 784.639,153.599 750.314,109.735 656.666,-9.91647 494.56,46.6714 491.854,48.1381 l -0.87,0.1576 c -17.806,-3.697 -37.73,-5.897 -60.127,-6.2637 -40.776,-0.6667 -71.709,10.6909 -95.182,28.4909 0,0 -289.1819,-119.1333 -275.7304,149.8301 2.8606,57.218 82.0124,432.949 176.4184,319.461 34.506,-41.5 67.848,-76.588 67.848,-76.588 16.558,11 36.382,16.612 57.164,14.597 l 1.615,-1.37 c -0.503,5.152 -0.273,10.191 0.646,16.158 -24.322,27.173 -17.173,31.942 -65.791,41.951 -49.197,10.14 -20.297,28.188 -1.428,32.909 22.876,5.719 75.797,13.822 111.555,-36.236 l -1.424,5.712 c 9.527,7.634 9.15787,48.76348 8.03687,86.85148 -1.122,38.084 5.19013,65.11552 12.69613,85.53952 7.512,20.424 14.994,66.379 78.909,52.685 53.403,-11.446 81.079,-41.103 84.93,-90.576 2.731,-35.17 8.916,-29.97 9.303,-61.415 l 4.961,-14.885 c 5.718,-47.676 0.909,-63.057 33.809,-55.903 l 8,0.703 c 24.212,1.1 55.909,-3.897 74.512,-12.542 40.055,-18.588 63.812,-49.628 24.315,-41.473 z"
     fill="#0B6E4F"
     id="path1"
     style="fill:#305d42;fill-opacity:1"
     sodipodi:nodetypes="cccccccccccccccccccccccccccc" />
  <path
     style="fill:#1e3a29;fill-opacity:1;stroke:none;stroke-width:2;stroke-linecap:square;stroke-opacity:1;paint-order:markers stroke fill"
     d="m 382.45142,486.00978 c -12.97728,2.06372 -19.40814,16.14479 -28.1838,24.47145 -8.71807,13.55851 -23.54005,20.53497 -38.61935,24.34539 -14.19389,4.84404 -30.60045,5.65694 -43.29722,14.02742 -0.72135,5.96543 8.68924,7.36978 12.64079,9.98936 36.59246,15.14128 83.53645,9.46594 110.74181,-21.09196 9.39748,-7.82309 16.28022,-20.74504 10.50284,-32.75927 -3.84744,-9.61626 -12.63349,-19.32474 -23.78507,-18.98239 z"
     id="path2" />
  <path
     style="fill:#1e3a29;fill-opacity:1;stroke:none;stroke-width:2;stroke-linecap:square;stroke-opacity:1;paint-order:markers stroke fill"
     d="m 646.4879,480.7376 c -14.07259,1.97174 -29.0613,12.09898 -28.86118,28.61636 0.119,7.13001 -3.01622,19.18454 6.41466,21.08836 31.53213,8.90379 65.62491,3.01203 95.74638,-8.83156 17.43081,-8.59591 34.88213,-19.96413 46.71538,-35.99663 -15.04746,-0.13024 -31.21743,6.16758 -46.92758,6.53536 -23.52254,0.71591 -50.0216,4.32301 -70.36437,-10.95555 -0.85958,-0.36678 -1.79858,-0.51185 -2.72329,-0.45634 z"
     id="path4" />
  <path
     d="m 586.04883,26.539062 c -24.3361,-0.273567 -46.87311,2.710194 -64.27344,6.201172 -17.40033,3.490979 -30.06695,7.691473 -33.17383,9.056641 l -1.65625,0.728516 -1.75586,-0.4375 c -16.72635,-4.159445 -34.97005,-6.716252 -54.875,-7.042969 -36.33958,-0.588483 -67.32597,8.056613 -93,25.564453 l -2.26562,1.544922 -2.57031,-0.957031 C 321.12133,56.969254 291.48848,46.802508 255.41016,40.990234 193.01177,30.945366 144.31729,38.67402 109.94336,63.025391 89.446796,77.546979 74.507548,97.670012 65.011719,123.7168 c -9.495829,26.04678 -13.454235,58.03822 -11.566407,95.80664 0.485825,9.71799 3.111814,28.57668 7.574219,52.23242 6.693608,35.48361 17.504759,82.08668 31.332031,127.39062 18.204508,59.63886 37.381938,103.57346 56.812498,131.14649 12.95371,18.38202 25.9278,29.3153 38.30274,33.44336 3.62295,1.20795 7.75822,2.03906 12.30273,2.03906 5.56436,0 11.74456,-1.22183 18.53125,-4.7168 6.7867,-3.49497 14.19478,-9.30455 21.9375,-18.61328 19.8619,-23.82666 40.40366,-47.07044 61.60352,-69.70703 l 2.78515,-2.97461 3.5918,1.92578 c 13.00797,6.98174 27.25503,10.86268 41.80859,11.25196 l 4.78907,0.12695 0.35546,4.7793 c 0.0239,0.32131 0.0592,0.69788 0.0977,1.125 l 0.19727,2.19336 -1.41407,1.6875 c -2.61273,3.11635 -5.17252,6.27606 -7.67382,9.47851 l -0.006,0.008 -0.008,0.01 c -11.20311,14.22196 -14.04307,17.88168 -50.34375,25.35547 -5.86334,1.2107 -16.97082,3.69664 -24.17578,8.5 -2.40165,1.60112 -4.33004,3.4083 -5.62304,5.35156 -1.293,1.94326 -2.02099,3.98949 -2.07618,6.625 -0.11901,5.72868 3.30971,10.2354 8.69141,14.20117 8.07256,5.94867 19.71177,9.20667 21.51367,9.65625 11.96932,2.99694 23.43075,4.45899 34.29883,4.45899 26.42328,0 49.26279,-8.56423 67.70508,-25.24024 l 8.95703,-8.10156 -0.10156,12.07812 c -0.35731,42.41358 0.56815,84.46802 3.17578,115.68946 1.73842,20.81429 4.4401,37.08734 7.3125,44.26953 3.48488,8.70871 9.24865,22.93429 20.30469,34.89453 5.52801,5.98012 12.34059,11.38044 20.90234,15.31836 8.56175,3.93792 18.89799,6.43821 31.64258,6.4375 7.48023,0 15.78904,-0.87062 25.01758,-2.84961 27.48606,-5.89155 46.47561,-14.73234 59.80273,-28.29687 13.32712,-13.56454 21.40144,-32.22279 26.00781,-58.94532 4.9785,-28.83601 13.67018,-98.78976 17.73242,-136.12695 l 0.69727,-6.40625 6.15039,1.91992 c 7.79867,2.43289 18.44088,3.66893 30.03711,3.66602 24.19636,0 52.67629,-5.35506 69.55078,-13.1875 11.68945,-5.42883 29.44829,-15.98869 39.60938,-26.92578 6.77406,-7.2914 9.59985,-13.8411 7.82617,-19.20704 -0.61925,-1.87271 -1.47382,-3.20382 -2.61719,-4.28906 -1.14336,-1.08524 -2.63086,-1.95919 -4.7168,-2.58984 -4.17186,-1.2613 -10.75235,-1.32527 -19.43164,0.4668 -55.06549,11.36512 -76.4527,3.90923 -84.73047,-2.18555 l -4.04687,-2.97852 2.75781,-4.20117 c 42.06635,-64.08249 76.76132,-141.7661 95.41602,-213.98242 8.83442,-34.20302 13.68046,-65.92513 14.07422,-91.45313 C 768.12059,136.23696 763.15404,116.3167 754.29883,105 714.67153,54.364248 656.86844,27.28866 586.04883,26.539062 Z m 2.96094,11.777344 c 66.10087,1.459354 118.79737,26.304051 156.05273,73.912114 16.1141,20.59205 13.61047,73.74252 -1.08203,133.73046 -15.36854,62.74813 -45.38363,138.51657 -89.95117,208.65039 l -4.01368,6.31446 -4.62695,-5.87891 c -0.8828,-1.12158 -1.76933,-2.23803 -2.66015,-3.35156 l -3.4336,-4.29102 1.91797,-3.16797 c 21.91397,-36.19086 17.67511,-71.78007 13.69336,-104.91796 -1.62408,-13.49267 -3.23376,-26.7754 -2.82422,-39.31836 0.4172,-13.14075 2.15653,-24.40189 3.79102,-34.99805 2.0073,-13.05897 3.97782,-26.15684 3.43359,-41.54102 l -0.0254,-0.75195 0.18359,-0.73047 c 0.26159,-1.0389 0.40367,-2.38338 0.23243,-4.20117 -0.2892,-3.07226 -1.54713,-8.59261 -3.85938,-15.43555 -2.31225,-6.84293 -5.66166,-15.10085 -10.06641,-24.17773 C 636.962,160.00834 623.92273,138.57634 606.48437,118.27734 587.4107,96.075432 559.63049,71.2779 521.77734,54.576172 l -15.14257,-6.681641 16.20703,-3.359375 c 16.94944,-3.51304 40.15949,-6.796342 66.16797,-6.21875 z m -158.88868,8.457031 c 84.18103,1.377121 138.23589,44.597417 168.70313,80.601563 26.07008,30.80473 40.31399,61.97505 46.05664,79.03516 l 2.625,7.79882 -8.18555,-0.83398 c -40.75425,-4.14563 -66.64644,3.89271 -79.51953,22.29883 -11.17836,15.97915 -11.28707,38.91207 -5.19141,63.94531 9.14351,37.54987 31.87916,78.53991 45.82618,103.55273 3.73095,6.68493 8.01348,14.32158 9.36914,17.60938 7.27138,17.62133 16.60994,29.30353 23.76367,38.24219 2.12434,2.65203 4.42663,5.52533 6.15039,7.99804 l 4.23437,6.07422 -7.11523,2.05078 c -6.07969,1.75302 -13.68122,4.42067 -19.64258,11.08399 -5.96136,6.66332 -10.74961,17.5952 -9.76367,37.64453 l 0.0176,0.33789 -0.0273,0.33984 c -1.69324,21.42303 -13.58919,120.371 -19.60156,155.20899 -8.32342,48.2681 -26.89855,67.08304 -76.71094,77.76562 l -6.4121,1.375 v -0.16601 c -48.01668,7.80704 -66.45137,-18.76765 -78.10547,-47.90039 -8.5031,-21.26403 -11.27462,-112.08692 -8.88477,-197.41016 0.0174,-0.63156 -0.0707,-1.24696 -0.25586,-1.85742 l -0.12305,-0.40234 -0.0566,-0.41797 c -0.26857,-1.96243 -0.67834,-3.90572 -1.22461,-5.81055 -3.45003,-12.05501 -12.02642,-22.09391 -21.49218,-26.01758 -4.48406,-1.85761 -11.16254,-4.56858 -19.26172,-2.49609 l -8.54688,2.18554 2.08008,-8.57226 c 2.18974,-9.0237 6.01332,-19.27566 9.91797,-29.73828 l 1.66211,-4.46485 c 1.94467,-5.23182 4.37697,-10.6292 6.8418,-16.11132 6.71737,-14.92344 14.37258,-31.92101 18.04882,-56.69727 3.67625,-24.77626 3.34653,-57.38401 -6.53125,-103.06836 -3.51954,-16.27676 -10.88659,-27.7351 -21.55273,-34.94922 -10.66614,-7.21411 -24.9975,-10.32434 -43.0332,-8.45508 -21.62287,2.23794 -41.94721,11.12951 -51.97266,16.21289 -2.162,1.09412 -4.13175,2.15091 -5.98047,3.18165 l -8.6875,4.84375 0.82227,-9.91211 C 271.28107,195.68344 282.3061,129.0051 324.54492,86.402344 351.41743,59.305868 387.08125,46.061022 430.12109,46.773437 Z m -233.49023,1.923829 c 47.01665,-1.790889 94.57771,11.143091 119.08008,19.126953 l 8.27148,2.695312 -6.1875,6.117188 c -0.60557,0.598516 -1.299,1.230652 -1.63476,1.572265 l -0.008,0.0059 -0.006,0.0078 c -30.7961,31.100174 -46.13271,73.718614 -53.58007,109.511714 -7.44736,35.79311 -7.03492,64.63778 -6.96289,67.72266 v 0.0664 0.0684 c -0.005,2.28703 0.20296,5.94345 0.5,10.99609 1.09574,18.47889 3.17667,53.41043 -2.35743,92.9668 -4.85323,34.7044 5.81765,68.47872 29.21875,92.89648 2.39413,2.49301 4.91143,4.87096 7.54297,7.11719 l 4.2168,3.59766 -3.7832,4.05078 c -10.87548,11.64824 -34.5549,37.45269 -59.72266,67.72851 -20.34266,24.45921 -35.66614,19.11962 -40.03711,17.66406 C 160.86024,542.49575 129.62454,481.07624 103.57227,395.7207 80.400176,319.80729 66.304921,241.80633 65.158203,218.9375 61.684412,149.4068 78.573764,99.652006 116.68555,72.623047 139.83439,56.207446 168.36551,49.773907 196.63086,48.697266 Z M 613.78125,224.13086 c 8.29961,-0.35241 17.97235,0.0594 29.23047,1.45703 l 4.72851,0.58789 -0.0801,4.76172 c -0.19148,11.43913 -1.77001,21.83715 -3.37696,32.27734 -1.73716,11.26406 -3.48416,22.6274 -3.92383,36.40821 -0.42795,13.20125 1.23645,27.26045 2.89649,41.09375 3.35148,27.88572 7.04818,58.07938 -6.99609,87.96875 l -4.36719,9.29297 -5.04883,-8.94141 c -2.32211,-4.11295 -4.39045,-8.36262 -6.19336,-12.73047 -1.3899,-3.36828 -4.98602,-9.91227 -9.9707,-18.8457 -15.10451,-27.08778 -48.33435,-86.27437 -48.69336,-127.01563 -0.092,-10.44071 1.9472,-20.22003 7.42383,-28.04883 6.32119,-9.02988 19.25262,-17.19908 44.37109,-18.26562 z m -269.81641,3.57617 c 4.46711,0.0286 8.90019,0.47012 13.18164,1.45117 16.24626,3.71968 26.21079,15.03816 30.1543,33.27344 18.79192,86.91826 2.2163,123.67395 -10.74609,152.47656 -2.64545,5.87699 -5.09229,11.32252 -7.14258,16.84571 l -1.65625,4.44531 c -4.18899,11.23265 -8.01113,21.51966 -10.31836,30.99219 l -0.98828,4.05859 -4.17774,-0.0117 c -18.59799,-0.054 -36.68641,-6.61042 -51.71093,-18.57031 v 1.19336 l -9.12891,-9.52539 c -20.96115,-21.8727 -30.40078,-52.16525 -26.06836,-83.16016 5.67484,-40.59315 3.59217,-76.01301 2.44922,-95.28516 -0.1573,-2.65143 -0.30477,-5.09873 -0.38867,-7.00585 l -0.11133,-2.52344 1.89062,-1.67578 c 9.72377,-8.62212 45.08322,-27.16854 74.76172,-26.97852 z m 305.03125,255.91992 2.29688,1.86914 c 0.8106,0.66011 1.70649,1.32171 2.69922,1.97657 7.9739,5.26282 19.6949,8.49621 35.21289,9.11523 15.51799,0.61902 34.73445,-1.35409 57.38281,-6.0293 l 0.0195,-0.004 18.74805,-3.72071 -13.57227,12.68946 c -6.63688,6.20465 -17.72424,14.28089 -33.17578,21.45703 -13.82146,6.41447 -36.22806,10.95794 -57.01562,11.9375 -19.85222,0.92837 -35.21251,-1.61369 -40.52149,-5.94336 l -1.83008,-1.49219 -0.11523,-2.35742 c -1.45888,-30.04236 11.39429,-34.02546 22.65625,-37.1875 1.61791,-0.45286 3.09384,-0.87405 4.41797,-1.33594 z m -268.00781,3.78125 c 3.4425,-0.0605 6.59309,1.3204 9.07813,2.35157 6.88032,2.84345 12.48822,10.67102 14.70117,18.40039 1.08264,3.7739 2.55836,11.86227 -2.20313,18.53711 -30.15659,42.22326 -74.2373,41.75297 -105.36523,33.96289 -6.59912,-1.64898 -12.80321,-4.58211 -16.59766,-7.16993 l -7.66601,-5.22656 8.39648,-3.94922 c 3.19531,-1.50319 8.47966,-3.35426 17.05859,-5.12304 20.02083,-4.12058 31.19224,-7.61285 38.66211,-11.8086 7.46988,-4.19574 11.77876,-9.20239 18.53125,-17.77539 3.13,-3.97762 6.75576,-8.58413 11.78711,-14.20312 l 0.0977,-0.10743 0.006,-0.006 c 0.0353,-0.0393 0.0683,-0.0645 0.10351,-0.10352 4.57706,-5.07009 8.61404,-7.69504 13.41016,-7.7793 z"
     fill="#073B3A"
     id="path3"
     style="fill:#040c06;fill-opacity:1"
     inkscape:path-effect="#path-effect1"
     inkscape:original-d="m 776.014,483.82 c -3.436,-10.391 -14.497,-13.734 -32.872,-9.94 -54.561,11.261 -74.1,3.461 -80.516,-1.263 42.41,-64.606 77.297,-142.703 96.119,-215.567 8.915,-34.515 13.839,-66.57 14.242,-92.697 0.445,-28.676 -4.439,-49.748 -14.512,-62.621 C 717.863,49.838 658.257,22.0017 586.105,21.238 536.502,20.6804 494.593,33.3744 486.469,36.9441 469.36,32.6895 450.708,30.0774 430.402,29.7441 393.166,29.1411 360.978,38.0562 334.329,56.2289 322.754,51.9198 292.839,41.6501 256.254,35.7562 193.005,25.5744 142.745,33.2895 106.878,58.6986 64.081,89.0198 44.3234,143.22 48.1507,219.79 c 1.2878,25.76 15.9666,105.009 39.1303,180.903 30.491,99.89 63.636,156.439 98.509,168.072 4.082,1.361 8.788,2.312 13.979,2.312 12.721,0 28.318,-5.733 44.545,-25.242 19.793,-23.744 40.267,-46.911 61.397,-69.473 13.709,7.358 28.77,11.467 44.173,11.879 0.03,0.403 0.07,0.806 0.106,1.206 -2.651,3.162 -5.248,6.369 -7.788,9.621 -10.673,13.549 -12.894,16.37 -47.248,23.443 -9.773,2.018 -35.728,7.366 -36.109,25.56 -0.413,19.879 30.681,28.228 34.224,29.112 12.345,3.091 24.239,4.616 35.582,4.616 27.585,0 51.86,-9.067 71.26,-26.609 -0.597,70.866 2.358,140.696 10.867,161.972 6.97,17.418 23.994,59.985 77.77,59.982 7.891,0 16.575,-0.918 26.13,-2.967 56.124,-12.03 80.497,-36.836 89.924,-91.524 5.046,-29.227 13.703,-99.018 17.776,-136.454 8.594,2.681 19.658,3.909 31.618,3.906 24.946,0 53.73,-5.3 71.782,-13.679 20.279,-9.418 56.873,-32.527 50.236,-52.606 z M 642.36,230.85 c -0.185,11.052 -1.706,21.085 -3.318,31.558 -1.737,11.263 -3.531,22.909 -3.982,37.045 -0.446,13.758 1.273,28.061 2.933,41.894 3.358,27.94 6.803,56.703 -6.533,85.085 -2.216,-3.925 -4.189,-7.982 -5.909,-12.149 -1.658,-4.018 -5.258,-10.472 -10.243,-19.406 -19.391,-34.775 -64.8,-116.212 -41.554,-149.442 6.924,-9.891 24.497,-20.061 68.606,-14.585 z M 588.893,43.6168 c 64.649,1.4273 115.788,25.6121 151.994,71.8792 27.77,35.487 -2.809,196.963 -91.333,336.269 -0.891,-1.132 -1.785,-2.26 -2.685,-3.385 l -1.121,-1.4 c 22.875,-37.778 18.403,-75.157 14.421,-108.297 -1.637,-13.6 -3.182,-26.445 -2.788,-38.512 0.406,-12.788 2.097,-23.757 3.733,-34.363 2.009,-13.07 4.055,-26.594 3.491,-42.537 0.421,-1.672 0.591,-3.648 0.37,-5.994 -1.439,-15.287 -18.894,-61.042 -54.47,-102.454 -19.46,-22.6516 -47.839,-48.0001 -86.588,-65.0971 16.667,-3.4545 39.458,-6.6758 64.976,-6.1091 z M 227.142,531.556 C 209.263,553.053 196.917,548.932 192.857,547.58 166.402,538.756 135.705,482.841 108.642,394.174 85.2234,317.453 71.5385,240.305 70.4537,218.671 67.0355,150.253 83.6204,102.571 119.751,76.9471 c 58.8,-41.697 155.472,-16.7394 194.318,-4.0818 -0.558,0.5515 -1.14,1.0667 -1.691,1.6273 -63.746,64.3754 -62.233,174.3634 -62.076,181.0874 -0.006,2.594 0.212,6.267 0.509,11.319 1.097,18.5 3.14,52.93 -2.315,91.921 -5.067,36.233 6.103,71.697 30.64,97.3 2.518,2.622 5.164,5.118 7.93,7.479 -10.921,11.697 -34.658,37.563 -59.924,67.957 z m 68.118,-90.888 c -19.776,-20.636 -28.758,-49.339 -24.646,-78.757 5.758,-41.188 3.634,-77.061 2.491,-96.334 -0.16,-2.697 -0.303,-5.06 -0.385,-6.924 9.312,-8.257 52.467,-31.379 83.243,-24.327 14.042,3.215 22.6,12.779 26.157,29.227 18.412,85.161 2.437,120.655 -10.4,149.179 -2.645,5.876 -5.145,11.43 -7.278,17.176 l -1.655,4.442 c -4.188,11.23 -8.085,21.673 -10.5,31.588 -21.024,-0.061 -41.476,-9.042 -57.027,-25.273 z m 3.227,114.849 c -6.139,-1.534 -11.661,-4.197 -14.9,-6.406 2.706,-1.273 7.521,-3.006 15.873,-4.728 40.415,-8.318 46.657,-14.19 60.288,-31.496 3.124,-3.97 6.666,-8.467 11.572,-13.946 l 0.006,-0.006 c 7.306,-8.182 10.649,-6.794 16.71,-4.279 4.912,2.03 9.696,8.188 11.636,14.964 0.918,3.2 1.948,9.273 -1.424,14 -28.473,39.866 -69.964,39.354 -99.761,31.897 z m 211.512,196.824 c -49.442,10.594 -66.948,-14.633 -78.485,-43.473 -7.445,-18.618 -11.106,-102.575 -8.509,-195.294 0.034,-1.233 -0.142,-2.424 -0.482,-3.545 -0.303,-2.214 -0.765,-4.404 -1.381,-6.552 -3.861,-13.491 -13.27,-24.775 -24.558,-29.454 -4.485,-1.858 -12.715,-5.267 -22.606,-2.736 2.109,-8.691 5.767,-18.507 9.733,-29.134 l 1.664,-4.47 c 1.873,-5.039 4.224,-10.26 6.709,-15.787 13.433,-29.843 31.83,-70.719 11.864,-163.061 -7.479,-34.588 -32.455,-51.479 -70.316,-47.555 -22.696,2.349 -43.463,11.506 -53.821,16.758 -2.227,1.127 -4.263,2.218 -6.166,3.279 2.891,-34.849 13.812,-99.976 54.666,-141.182 25.725,-25.9394 59.982,-38.7515 101.722,-38.0606 82.242,1.3454 134.981,43.5515 164.745,78.7246 25.648,30.306 39.536,60.836 45.079,77.303 -41.682,-4.24 -70.031,3.988 -84.4,24.533 -31.264,44.691 17.103,131.43 40.348,173.118 4.264,7.64 7.943,14.243 9.1,17.049 7.57,18.345 17.37,30.594 24.524,39.533 2.194,2.739 4.322,5.397 5.94,7.718 -12.624,3.64 -35.3,12.049 -33.233,54.082 -1.667,21.091 -13.519,119.836 -19.54,154.724 -7.948,46.091 -24.909,63.258 -72.597,73.485 z m 206.376,-236.17 c -12.909,5.991 -34.512,10.485 -55.033,11.452 -22.667,1.06 -34.206,-2.54 -36.922,-4.755 -1.272,-26.194 8.476,-28.93 18.794,-31.827 1.622,-0.454 3.203,-0.9 4.731,-1.433 0.948,0.772 1.987,1.539 3.127,2.291 18.218,12.024 50.712,13.321 96.588,3.851 l 0.503,-0.1 c -6.188,5.785 -16.776,13.549 -31.788,20.521 z" />
  <path
     style="clip-rule:nonzero;fill:#040c06;fill-opacity:1;fill-rule:nonzero;stroke:#040c06;stroke-width:5.54;stroke-linecap:butt;stroke-linejoin:miter;stroke-miterlimit:4;stroke-opacity:1"
     d="m 320.20063,251.79434 c -0.72459,5.4529 9.39185,20.00377 22.58274,21.948 13.16824,1.95224 24.43948,-9.41889 25.154,-14.86645 0.71451,-5.45291 -9.38935,-11.45939 -22.58527,-13.41163 -13.17576,-1.95493 -24.45205,0.89055 -25.14897,6.33008 z"
     id="path9" />
  <path
     style="clip-rule:nonzero;fill:#040c06;fill-opacity:1;fill-rule:nonzero;stroke:#040c06;stroke-width:2.77;stroke-linecap:butt;stroke-linejoin:miter;stroke-miterlimit:4;stroke-opacity:1"
     d="m 630.19383,245.78893 c 0.68641,5.09066 -9.01981,18.67487 -21.69394,20.48992 -12.65964,1.82253 -23.48728,-8.79316 -24.18092,-13.87881 -0.66947,-5.09066 9.03914,-10.6981 21.70119,-12.52065 12.66205,-1.82254 23.48727,0.83138 24.17367,5.91205 z"
     id="path10" />
</svg>
