<svg width="800" height="800" viewBox="0 0 800 800" fill="none" xmlns="http://www.w3.org/2000/svg">
<path d="M746.026 485.932C655.905 504.523 649.708 474.011 649.708 474.011C744.86 332.82 784.639 153.599 750.314 109.735C656.666 -9.91647 494.56 46.6714 491.854 48.1381L490.984 48.2957C473.178 44.5987 453.254 42.3987 430.857 42.032C390.081 41.3653 359.148 52.7229 335.675 70.5229C335.675 70.5229 46.4931 -48.6104 59.9446 220.353C62.8052 277.571 141.957 653.302 236.363 539.814C270.869 498.314 304.211 463.226 304.211 463.226C320.769 474.226 340.593 479.838 361.375 477.823L362.99 476.453C362.487 481.605 362.717 486.644 363.636 492.611C339.314 519.784 346.463 524.553 297.845 534.562C248.648 544.702 277.548 562.75 296.417 567.471C319.293 573.19 372.214 581.293 407.972 531.235L406.548 536.947C416.075 544.581 422.766 586.593 421.645 624.681C420.523 662.765 419.775 688.914 427.281 709.338C434.793 729.762 442.275 775.717 506.19 762.023C559.593 750.577 587.269 720.92 591.12 671.447C593.851 636.277 600.036 641.477 600.423 610.032L605.384 595.147C611.102 547.471 606.293 532.09 639.193 539.244L647.193 539.947C671.405 541.047 703.102 536.05 721.705 527.405C761.76 508.817 785.517 477.777 746.02 485.932H746.026Z" fill="#0B6E4F"/>
<path d="M352.602 245.941C344.481 244.811 337.126 245.856 333.405 248.674C331.314 250.259 330.666 252.095 330.49 253.359C330.023 256.708 332.369 260.411 333.811 262.32C337.89 267.726 343.848 271.441 349.745 272.259C350.599 272.38 351.451 272.435 352.296 272.435C362.129 272.435 371.072 264.777 371.86 259.126C372.845 252.047 362.569 247.326 352.602 245.941ZM621.645 246.165C620.869 240.617 610.996 239.035 601.626 240.338C592.269 241.641 583.196 245.865 583.954 251.426C584.56 255.75 592.369 263.132 601.611 263.132C602.393 263.132 603.181 263.08 603.975 262.968C610.145 262.114 614.672 258.195 616.823 255.938C620.096 252.495 621.993 248.659 621.645 246.165Z" fill="#073B3A"/>
<path d="M776.014 483.82C772.578 473.429 761.517 470.086 743.142 473.88C688.581 485.141 669.042 477.341 662.626 472.617C705.036 408.011 739.923 329.914 758.745 257.05C767.66 222.535 772.584 190.48 772.987 164.353C773.432 135.677 768.548 114.605 758.475 101.732C717.863 49.838 658.257 22.0017 586.105 21.238C536.502 20.6804 494.593 33.3744 486.469 36.9441C469.36 32.6895 450.708 30.0774 430.402 29.7441C393.166 29.1411 360.978 38.0562 334.329 56.2289C322.754 51.9198 292.839 41.6501 256.254 35.7562C193.005 25.5744 142.745 33.2895 106.878 58.6986C64.081 89.0198 44.3234 143.22 48.1507 219.79C49.4385 245.55 64.1173 324.799 87.281 400.693C117.772 500.583 150.917 557.132 185.79 568.765C189.872 570.126 194.578 571.077 199.769 571.077C212.49 571.077 228.087 565.344 244.314 545.835C264.107 522.091 284.581 498.924 305.711 476.362C319.42 483.72 334.481 487.829 349.884 488.241C349.914 488.644 349.954 489.047 349.99 489.447C347.339 492.609 344.742 495.816 342.202 499.068C331.529 512.617 329.308 515.438 294.954 522.511C285.181 524.529 259.226 529.877 258.845 548.071C258.432 567.95 289.526 576.299 293.069 577.183C305.414 580.274 317.308 581.799 328.651 581.799C356.236 581.799 380.511 572.732 399.911 555.19C399.314 626.056 402.269 695.886 410.778 717.162C417.748 734.58 434.772 777.147 488.548 777.144C496.439 777.144 505.123 776.226 514.678 774.177C570.802 762.147 595.175 737.341 604.602 682.653C609.648 653.426 618.305 583.635 622.378 546.199C630.972 548.88 642.036 550.108 653.996 550.105C678.942 550.105 707.726 544.805 725.778 536.426C746.057 527.008 782.651 503.899 776.014 483.82ZM642.36 230.85C642.175 241.902 640.654 251.935 639.042 262.408C637.305 273.671 635.511 285.317 635.06 299.453C634.614 313.211 636.333 327.514 637.993 341.347C641.351 369.287 644.796 398.05 631.46 426.432C629.244 422.507 627.271 418.45 625.551 414.283C623.893 410.265 620.293 403.811 615.308 394.877C595.917 360.102 550.508 278.665 573.754 245.435C580.678 235.544 598.251 225.374 642.36 230.85ZM588.893 43.6168C653.542 45.0441 704.681 69.2289 740.887 115.496C768.657 150.983 738.078 312.459 649.554 451.765C648.663 450.633 647.769 449.505 646.869 448.38L645.748 446.98C668.623 409.202 664.151 371.823 660.169 338.683C658.532 325.083 656.987 312.238 657.381 300.171C657.787 287.383 659.478 276.414 661.114 265.808C663.123 252.738 665.169 239.214 664.605 223.271C665.026 221.599 665.196 219.623 664.975 217.277C663.536 201.99 646.081 156.235 610.505 114.823C591.045 92.1714 562.666 66.8229 523.917 49.7259C540.584 46.2714 563.375 43.0501 588.893 43.6168ZM227.142 531.556C209.263 553.053 196.917 548.932 192.857 547.58C166.402 538.756 135.705 482.841 108.642 394.174C85.2234 317.453 71.5385 240.305 70.4537 218.671C67.0355 150.253 83.6204 102.571 119.751 76.9471C178.551 35.2501 275.223 60.2077 314.069 72.8653C313.511 73.4168 312.929 73.932 312.378 74.4926C248.632 138.868 250.145 248.856 250.302 255.58C250.296 258.174 250.514 261.847 250.811 266.899C251.908 285.399 253.951 319.829 248.496 358.82C243.429 395.053 254.599 430.517 279.136 456.12C281.654 458.742 284.3 461.238 287.066 463.599C276.145 475.296 252.408 501.162 227.142 531.556ZM295.26 440.668C275.484 420.032 266.502 391.329 270.614 361.911C276.372 320.723 274.248 284.85 273.105 265.577C272.945 262.88 272.802 260.517 272.72 258.653C282.032 250.396 325.187 227.274 355.963 234.326C370.005 237.541 378.563 247.105 382.12 263.553C400.532 348.714 384.557 384.208 371.72 412.732C369.075 418.608 366.575 424.162 364.442 429.908L362.787 434.35C358.599 445.58 354.702 456.023 352.287 465.938C331.263 465.877 310.811 456.896 295.26 440.665V440.668ZM298.487 555.517C292.348 553.983 286.826 551.32 283.587 549.111C286.293 547.838 291.108 546.105 299.46 544.383C339.875 536.065 346.117 530.193 359.748 512.887C362.872 508.917 366.414 504.42 371.32 498.941L371.326 498.935C378.632 490.753 381.975 492.141 388.036 494.656C392.948 496.686 397.732 502.844 399.672 509.62C400.59 512.82 401.62 518.893 398.248 523.62C369.775 563.486 328.284 562.974 298.487 555.517ZM509.999 752.341C460.557 762.935 443.051 737.708 431.514 708.868C424.069 690.25 420.408 606.293 423.005 513.574C423.039 512.341 422.863 511.15 422.523 510.029C422.22 507.815 421.758 505.625 421.142 503.477C417.281 489.986 407.872 478.702 396.584 474.023C392.099 472.165 383.869 468.756 373.978 471.287C376.087 462.596 379.745 452.78 383.711 442.153L385.375 437.683C387.248 432.644 389.599 427.423 392.084 421.896C405.517 392.053 423.914 351.177 403.948 258.835C396.469 224.247 371.493 207.356 333.632 211.28C310.936 213.629 290.169 222.786 279.811 228.038C277.584 229.165 275.548 230.256 273.645 231.317C276.536 196.468 287.457 131.341 328.311 90.135C354.036 64.1956 388.293 51.3835 430.033 52.0744C512.275 53.4198 565.014 95.6259 594.778 130.799C620.426 161.105 634.314 191.635 639.857 208.102C598.175 203.862 569.826 212.09 555.457 232.635C524.193 277.326 572.56 364.065 595.805 405.753C600.069 413.393 603.748 419.996 604.905 422.802C612.475 441.147 622.275 453.396 629.429 462.335C631.623 465.074 633.751 467.732 635.369 470.053C622.745 473.693 600.069 482.102 602.136 524.135C600.469 545.226 588.617 643.971 582.596 678.859C574.648 724.95 557.687 742.117 509.999 752.344V752.341ZM716.375 516.171C703.466 522.162 681.863 526.656 661.342 527.623C638.675 528.683 627.136 525.083 624.42 522.868C623.148 496.674 632.896 493.938 643.214 491.041C644.836 490.587 646.417 490.141 647.945 489.608C648.893 490.38 649.932 491.147 651.072 491.899C669.29 503.923 701.784 505.22 747.66 495.75L748.163 495.65C741.975 501.435 731.387 509.199 716.375 516.171Z" fill="#073B3A"/>
</svg>
