<?xml version="1.0" encoding="UTF-8" standalone="no"?>
<svg
   width="266"
   height="256"
   viewBox="0 0 266 256"
   fill="none"
   version="1.1"
   id="svg3"
   sodipodi:docname="react1.svg"
   inkscape:version="1.4.2 (ebf0e940d0, 2025-05-08)"
   xmlns:inkscape="http://www.inkscape.org/namespaces/inkscape"
   xmlns:sodipodi="http://sodipodi.sourceforge.net/DTD/sodipodi-0.dtd"
   xmlns="http://www.w3.org/2000/svg"
   xmlns:svg="http://www.w3.org/2000/svg">
  <defs
     id="defs3" />
  <sodipodi:namedview
     id="namedview3"
     pagecolor="#ffffff"
     bordercolor="#000000"
     borderopacity="0.25"
     inkscape:showpageshadow="2"
     inkscape:pageopacity="0.0"
     inkscape:pagecheckerboard="0"
     inkscape:deskcolor="#d1d1d1"
     showguides="true"
     inkscape:zoom="2.2993007"
     inkscape:cx="111.77311"
     inkscape:cy="127.86496"
     inkscape:window-width="1920"
     inkscape:window-height="1031"
     inkscape:window-x="0"
     inkscape:window-y="0"
     inkscape:window-maximized="1"
     inkscape:current-layer="svg3" />
  <path
     d="m 218.342,86.272138 c -2.81915,-0.975353 -5.66193,-1.878821 -8.52611,-2.709648 0.47486,-1.946922 0.91409,-3.902167 1.3173,-5.865357 6.45414,-31.600589 2.2344,-57.058079 -12.1761,-65.438242 -13.81597,-8.037275 -36.41277,0.342887 -59.2346,20.374537 -2.24865,1.978322 -4.44778,4.013775 -6.59442,6.104465 -1.43771,-1.390009 -2.90093,-2.753158 -4.38852,-4.088686 C 104.8217,13.228379 80.847961,4.2026992 66.452469,12.60768 52.649238,20.667427 48.560783,44.60098 54.371266,74.548613 c 0.578012,2.965783 1.230662,5.916055 1.957583,8.848165 -3.392295,0.971947 -6.66831,2.007455 -9.802918,3.10955 -28.039987,9.860593 -45.94810034,25.315642 -45.94810034,41.345012 0,16.55717 19.22324634,33.16351 48.43080534,43.23219 2.368304,0.81267 4.75649,1.56555 7.161926,2.2583 -0.781683,3.15911 -1.47522,6.3394 -2.080612,9.53748 -5.53967,29.42742 -1.213032,52.79351 12.553812,60.80364 14.219201,8.27008 38.084168,-0.23078 61.323098,-20.71998 1.83681,-1.61966 3.68074,-3.33769 5.52692,-5.13819 2.32517,2.26283 4.71259,4.46022 7.1593,6.58873 22.51014,19.5377 44.74121,27.42716 58.49607,19.39582 14.20644,-8.29503 18.82265,-33.39655 12.82798,-63.93667 -0.45686,-2.33245 -0.99022,-4.71482 -1.58811,-7.1411 1.67627,-0.49902 3.32066,-1.01431 4.92528,-1.55118 30.36334,-10.14663 50.11773,-26.55093 50.11773,-43.32904 0,-16.08762 -18.48469,-31.646718 -47.09003,-41.579202 z"
     fill="#0b6e4f"
     id="path1"
     style="stroke-width:0.37671" />
  <path
     d="m 211.4569,160.31909 c -1.44783,0.48351 -2.93394,0.95037 -4.44854,1.40324 -3.35217,-10.70313 -7.87686,-22.0854 -13.41165,-33.84336 5.28312,-11.48026 9.63151,-22.71534 12.89028,-33.350379 2.70888,0.792226 5.33898,1.625715 7.87309,2.506479 24.50973,8.50917 39.45923,21.09227 39.45923,30.78714 0,10.32746 -16.14753,23.73498 -42.36241,32.49688 z m -10.87753,21.74151 c 2.64997,13.50397 3.02882,25.71366 1.27304,35.25834 -1.57801,8.57651 -4.74974,14.29432 -8.67166,16.58439 -8.34684,4.87338 -26.19762,-1.46151 -45.44674,-18.16962 -2.20704,-1.91552 -4.43055,-3.96081 -6.66008,-6.12452 7.46312,-8.23337 14.92136,-17.80529 22.2007,-28.43429 12.80437,-1.1456 24.90095,-3.0195 35.87114,-5.57705 0.539,2.19927 1.01986,4.35466 1.4336,6.46275 z M 90.572861,233.06154 c -8.154409,2.90486 -14.649427,2.98773 -18.574721,0.70445 -8.35508,-4.85897 -11.827267,-23.62221 -7.090658,-48.78766 0.563381,-2.97411 1.208532,-5.93156 1.934326,-8.86974 10.848289,2.42023 22.856723,4.16171 35.691852,5.21161 7.32696,10.40084 15.00126,19.96104 22.73521,28.33288 -1.64402,1.60376 -3.3263,3.16631 -5.04644,4.68646 -10.27629,9.06117 -20.573569,15.48836 -29.64807,18.722 z m -38.203813,-72.8064 c -12.914645,-4.45263 -23.579893,-10.23855 -30.890729,-16.55223 -6.568648,-5.67505 -9.885813,-11.30849 -9.885813,-15.8807 0,-9.72665 14.378614,-22.13497 38.359852,-30.568472 3.009704,-1.053662 6.04979,-2.018427 9.115758,-2.893138 3.314651,10.87378 7.66229,22.24279 12.908643,33.7397 -5.314243,11.66791 -9.72415,23.21777 -13.069182,34.21942 -2.196138,-0.63408 -4.37615,-1.32228 -6.538529,-2.06458 z M 65.176044,72.327398 c -4.978164,-25.659563 -1.672517,-45.014899 6.64618,-49.871837 8.861449,-5.173719 28.453776,2.203814 49.104626,20.698657 1.31992,1.182303 2.64587,2.420222 3.97367,3.700515 -7.6938,8.334006 -15.29758,17.821938 -22.56153,28.162261 -12.456292,1.1649 -24.380707,3.035019 -35.342645,5.540365 -0.67516,-2.727809 -1.282051,-5.47113 -1.820301,-8.229961 z M 179.42177,100.78174 c -2.58885,-4.510916 -5.27409,-8.965452 -8.0535,-13.359837 8.4511,1.07599 16.54698,2.506483 24.14965,4.257425 -2.28204,7.378697 -5.12707,15.094492 -8.47698,23.004002 -2.44783,-4.68455 -4.98792,-9.31919 -7.61917,-13.90159 z M 132.8325,55.010164 c 5.21859,5.702293 10.44507,12.07008 15.58603,18.978512 -10.42857,-0.497136 -20.87439,-0.499405 -31.30333,-0.0072 5.14583,-6.844492 10.41693,-13.202821 15.7173,-18.971323 z M 85.944278,100.86005 c -2.598233,4.54571 -5.091066,9.15196 -7.475872,13.81497 -3.295148,-7.88227 -6.113934,-15.632122 -8.416221,-23.11638 7.556893,-1.705923 15.615278,-3.099716 24.011617,-4.157924 -2.810533,4.421628 -5.517917,8.909087 -8.119524,13.459334 z m 8.360706,68.19862 c -8.673531,-0.97649 -16.854192,-2.29954 -24.40846,-3.95854 2.338298,-7.61631 5.219344,-15.533 8.584633,-23.58439 2.395311,4.66641 4.898646,9.27569 7.508882,13.8233 2.663123,4.63918 5.43577,9.21364 8.314945,13.71963 z m 38.840346,32.38223 c -5.36226,-5.83737 -10.71101,-12.29255 -15.93523,-19.23616 5.07081,0.20089 10.24102,0.30267 15.496,0.30267 5.39864,0 10.73537,-0.12183 15.98811,-0.35828 -5.15745,7.07035 -10.36555,13.53499 -15.54888,19.29177 z m 54.00326,-60.33527 c 3.54008,8.13877 6.52427,16.01311 8.89445,23.50039 -7.67992,1.76759 -15.97049,3.19128 -24.70666,4.24797 2.79967,-4.47648 5.51042,-9.00858 8.13116,-13.59402 2.66424,-4.65997 5.22534,-9.37936 7.68105,-14.15434 z m -17.48247,8.45317 c -4.01194,7.02988 -8.24968,13.92658 -12.70608,20.67876 -7.85811,0.566 -15.97876,0.85807 -24.25394,0.85807 -8.24143,0 -16.25893,-0.25878 -23.98011,-0.76348 -4.57194,-6.73667 -8.88959,-13.6451 -12.943911,-20.71054 -4.035193,-7.02799 -7.804451,-14.20843 -11.299518,-21.52509 3.486066,-7.31892 7.244069,-14.50279 11.265385,-21.53683 v 0.002 c 4.020567,-7.03517 8.304074,-13.914096 12.842254,-20.621627 7.87686,-0.60042 15.95286,-0.915196 24.11703,-0.915196 8.20016,0 16.28707,0.317046 24.16127,0.922385 4.49205,6.696943 8.74855,13.552016 12.76121,20.551998 4.0356,7.01815 7.84348,14.16721 11.41807,21.43506 -3.53783,7.34201 -7.33485,14.555 -11.38166,21.62423 z M 193.00708,22.116268 c 8.86858,5.159569 12.31826,25.964656 6.74596,53.248418 -0.36534,1.777427 -0.76256,3.548043 -1.19092,5.311093 -10.9878,-2.557558 -22.92046,-4.460969 -35.41315,-5.643274 -7.27784,-10.452689 -14.81821,-19.957267 -22.38787,-28.183824 1.98347,-1.928765 4.01419,-3.807584 6.09032,-5.634573 19.55369,-17.164765 37.8287,-23.941762 46.15566,-19.09784 z"
     fill="#ffffff"
     id="path2"
     style="stroke-width:0.37671" />
  <path
     d="m 133.00504,103.99607 c 13.06244,0 23.65039,10.68084 23.65039,23.85527 0,13.17558 -10.58795,23.8568 -23.65039,23.8568 -13.06131,0 -23.65078,-10.68122 -23.65078,-23.8568 0,-13.17443 10.58947,-23.85527 23.65078,-23.85527 z"
     fill="#073b3a"
     id="path3"
     style="stroke-width:0.37671" />
</svg>
