<?xml version="1.0" encoding="UTF-8" standalone="no"?>
<!-- Uploaded to: SVG Repo, www.svgrepo.com, Transformed by: SVG Repo Mixer Tools -->

<svg
   width="256px"
   height="256px"
   viewBox="0 0 32 32"
   fill="#000000"
   version="1.1"
   id="svg1"
   sodipodi:docname="Ts.svg"
   inkscape:version="1.4.2 (ebf0e940d0, 2025-05-08)"
   xmlns:inkscape="http://www.inkscape.org/namespaces/inkscape"
   xmlns:sodipodi="http://sodipodi.sourceforge.net/DTD/sodipodi-0.dtd"
   xmlns="http://www.w3.org/2000/svg"
   xmlns:svg="http://www.w3.org/2000/svg">
  <defs
     id="defs1" />
  <sodipodi:namedview
     id="namedview1"
     pagecolor="#ffffff"
     bordercolor="#000000"
     borderopacity="0.25"
     inkscape:showpageshadow="2"
     inkscape:pageopacity="0.0"
     inkscape:pagecheckerboard="0"
     inkscape:deskcolor="#d1d1d1"
     inkscape:zoom="2.2704757"
     inkscape:cx="48.007561"
     inkscape:cy="117.5965"
     inkscape:window-width="1920"
     inkscape:window-height="1031"
     inkscape:window-x="0"
     inkscape:window-y="0"
     inkscape:window-maximized="1"
     inkscape:current-layer="svg1" />
  <g
     id="SVGRepo_bgCarrier"
     stroke-width="0" />
  <g
     id="SVGRepo_tracerCarrier"
     stroke-linecap="round"
     stroke-linejoin="round" />
  <g
     id="SVGRepo_iconCarrier"
     transform="matrix(1.1432047,0,0,1.1404241,-2.2432222,-2.2273202)">
    <title
       id="title1">file_type_typescriptdef_official</title>
    <rect
       x="2"
       y="2"
       width="28"
       height="28"
       rx="1.312"
       style="fill:#0b6e4f"
       id="rect1" />
    <path
       d="m 18.245,23.759 v 3.068 a 6.492,6.492 0 0 0 1.764,0.575 11.56,11.56 0 0 0 2.146,0.192 9.968,9.968 0 0 0 2.088,-0.211 5.11,5.11 0 0 0 1.735,-0.7 3.542,3.542 0 0 0 1.181,-1.266 4.469,4.469 0 0 0 0.186,-3.394 3.409,3.409 0 0 0 -0.717,-1.117 5.236,5.236 0 0 0 -1.123,-0.877 12.027,12.027 0 0 0 -1.477,-0.734 q -0.6,-0.249 -1.08,-0.484 a 5.5,5.5 0 0 1 -0.813,-0.479 2.089,2.089 0 0 1 -0.516,-0.518 1.091,1.091 0 0 1 -0.181,-0.618 1.039,1.039 0 0 1 0.162,-0.571 1.4,1.4 0 0 1 0.459,-0.436 2.439,2.439 0 0 1 0.726,-0.283 4.211,4.211 0 0 1 0.956,-0.1 5.942,5.942 0 0 1 0.808,0.058 6.292,6.292 0 0 1 0.856,0.177 5.994,5.994 0 0 1 0.836,0.3 4.657,4.657 0 0 1 0.751,0.422 V 13.9 a 7.509,7.509 0 0 0 -1.525,-0.4 12.426,12.426 0 0 0 -1.9,-0.129 8.767,8.767 0 0 0 -2.064,0.235 5.239,5.239 0 0 0 -1.716,0.733 3.655,3.655 0 0 0 -1.171,1.271 3.731,3.731 0 0 0 -0.431,1.845 3.588,3.588 0 0 0 0.789,2.34 6,6 0 0 0 2.395,1.639 q 0.63,0.26 1.175,0.509 a 6.458,6.458 0 0 1 0.942,0.517 2.463,2.463 0 0 1 0.626,0.585 1.2,1.2 0 0 1 0.23,0.719 1.1,1.1 0 0 1 -0.144,0.552 1.269,1.269 0 0 1 -0.435,0.441 2.381,2.381 0 0 1 -0.726,0.292 4.377,4.377 0 0 1 -1.018,0.105 5.773,5.773 0 0 1 -1.969,-0.35 5.874,5.874 0 0 1 -1.805,-1.045 z m -5.154,-7.638 h 4 V 13.594 H 5.938 v 2.527 H 9.92 v 11.254 h 3.171 z"
       style="fill:#ffffff;fill-rule:evenodd"
       id="path1" />
  </g>
</svg>
