<svg 
width="150" height="150" 
viewBox="0 0 150 150" 
fill="none" 
xmlns="http://www.w3.org/2000/svg">
<path d="M75.316 116.367C75.05 116.527 74.753 116.609 74.461 116.609C74.165 116.609 73.868 116.527 73.606 116.367L18.9232 82.7285C17.9596 82.1357 16.7443 82.1355 15.7804 82.728L9.96843 86.3003C8.06342 87.4712 8.06289 90.2397 9.96745 91.4113L72.8891 130.119C73.8531 130.712 75.0689 130.712 76.0329 130.119L138.951 91.4108C140.855 90.2393 140.855 87.4712 138.95 86.3001L133.142 82.7285C132.178 82.1357 130.962 82.1358 129.998 82.7287L75.316 116.367Z" fill="black"/>
<path d="M75.316 98.352C75.05 98.512 74.758 98.59 74.461 98.59C74.165 98.59 73.868 98.512 73.606 98.352L18.9022 64.7272C17.939 64.1351 16.7248 64.1349 15.7613 64.7266L9.97175 68.282C8.06597 69.4524 8.06478 72.2215 9.96956 73.3935L18.168 78.438L72.8849 112.095C73.849 112.688 75.0649 112.688 76.0289 112.095L130.703 78.453L138.94 73.3917C140.846 72.2205 140.846 69.4501 138.939 68.2793L133.153 64.7256C132.189 64.1339 130.975 64.1342 130.012 64.7264L75.316 98.352Z" fill="#0B6E4F"/>
<path d="M9.96414 50.284C8.05963 51.4556 8.05996 54.2239 9.96476 55.3949L72.8898 94.081C73.8535 94.6735 75.0685 94.6735 76.0322 94.081L138.954 55.3949C140.859 54.2238 140.86 51.4556 138.955 50.2841L76.0328 11.5769C75.0688 10.9839 73.8531 10.9839 72.8891 11.5769L9.96414 50.284Z" fill="black"/>
</svg>
