<?xml version="1.0" encoding="UTF-8" standalone="no"?>
<svg
   width="500"
   zoomAndPan="magnify"
   viewBox="0 0 375 374.999991"
   height="500"
   preserveAspectRatio="xMidYMid meet"
   version="1.2"
   id="svg54"
   sodipodi:docname="veda.svg"
   inkscape:export-filename="veda.png"
   inkscape:export-xdpi="600"
   inkscape:export-ydpi="600"
   inkscape:version="1.4 (e7c3feb1, 2024-10-09)"
   xmlns:inkscape="http://www.inkscape.org/namespaces/inkscape"
   xmlns:sodipodi="http://sodipodi.sourceforge.net/DTD/sodipodi-0.dtd"
   xmlns="http://www.w3.org/2000/svg"
   xmlns:svg="http://www.w3.org/2000/svg">
  <sodipodi:namedview
     id="namedview54"
     pagecolor="#505050"
     bordercolor="#eeeeee"
     borderopacity="1"
     inkscape:showpageshadow="0"
     inkscape:pageopacity="0"
     inkscape:pagecheckerboard="0"
     inkscape:deskcolor="#d1d1d1"
     showgrid="false"
     inkscape:zoom="1.1655627"
     inkscape:cx="263.82107"
     inkscape:cy="294.27846"
     inkscape:window-width="1920"
     inkscape:window-height="1027"
     inkscape:window-x="1280"
     inkscape:window-y="25"
     inkscape:window-maximized="0"
     inkscape:current-layer="aa92a0cdb3" />
  <defs
     id="defs3">
    <filter
       x="0"
       y="0"
       width="1"
       filterUnits="objectBoundingBox"
       id="e7f0bc149d"
       height="1">
      <feColorMatrix
         values="0 0 0 0 1 0 0 0 0 1 0 0 0 0 1 0 0 0 1 0"
         type="matrix"
         in="SourceGraphic"
         id="feColorMatrix1" />
    </filter>
    <clipPath
       id="99c24a6030">
      <path
         d="M 0.753906 71 L 138.003906 71 L 138.003906 121.140625 L 0.753906 121.140625 Z M 0.753906 71 "
         id="path1" />
    </clipPath>
    <clipPath
       id="1f2c14cfc6">
      <path
         d="M 0.753906 53 L 138.003906 53 L 138.003906 104 L 0.753906 104 Z M 0.753906 53 "
         id="path2" />
    </clipPath>
    <clipPath
       id="f2e738a0f1">
      <path
         d="M 0.753906 0.390625 L 138.003906 0.390625 L 138.003906 86 L 0.753906 86 Z M 0.753906 0.390625 "
         id="path3" />
    </clipPath>
    <clipPath
       id="34dab31004">
      <rect
         x="0"
         width="139"
         y="0"
         height="122"
         id="rect3" />
    </clipPath>
  </defs>
  <g
     id="aa92a0cdb3">
    <rect
       x="0"
       width="375"
       y="0"
       height="375"
       style="display:inline;fill:#ffffff;fill-opacity:1;stroke:none"
       id="rect4" />
    <g
       mask="url(#56f5ec10cf)"
       transform="matrix(1,0,0,1,118,66)"
       id="g10"
       style="fill:#000000;fill-opacity:1">
      <g
         clip-path="url(#34dab31004)"
         id="g8"
         style="fill:#000000;fill-opacity:1">
        <g
           clip-rule="nonzero"
           clip-path="url(#99c24a6030)"
           id="g5"
           style="fill:#000000;fill-opacity:1">
          <path
             style="stroke:none;fill-rule:nonzero;fill:#000000;fill-opacity:1"
             d="M 70.316406 106.367188 C 70.050781 106.527344 69.753906 106.609375 69.460938 106.609375 C 69.164062 106.609375 68.867188 106.527344 68.605469 106.367188 L 12.351562 71.761719 L 0.8125 78.855469 L 69.460938 121.085938 L 138.105469 78.855469 L 126.570312 71.761719 Z M 70.316406 106.367188 "
             id="path5" />
        </g>
        <g
           clip-rule="nonzero"
           clip-path="url(#1f2c14cfc6)"
           id="g6"
           style="fill:#000000;fill-opacity:1">
          <path
             style="stroke:none;fill-rule:nonzero;fill:#000000;fill-opacity:1"
             d="M 70.316406 88.351562 C 70.050781 88.511719 69.757812 88.589844 69.460938 88.589844 C 69.164062 88.589844 68.867188 88.511719 68.605469 88.351562 L 12.332031 53.761719 L 0.8125 60.835938 L 13.167969 68.4375 C 13.183594 68.445312 13.199219 68.445312 13.210938 68.453125 L 69.457031 103.0625 L 125.703125 68.453125 C 125.71875 68.445312 125.734375 68.441406 125.746094 68.4375 L 138.101562 60.835938 L 126.582031 53.761719 L 70.3125 88.351562 Z M 70.316406 88.351562 "
             id="path6" />
        </g>
        <g
           clip-rule="nonzero"
           clip-path="url(#f2e738a0f1)"
           id="g7"
           style="fill:#000000;fill-opacity:1">
          <path
             style="stroke:none;fill-rule:nonzero;fill:#000000;fill-opacity:1"
             d="M 0.808594 42.839844 L 69.460938 85.046875 L 138.109375 42.839844 L 69.460938 0.609375 Z M 0.808594 42.839844 "
             id="path7" />
        </g>
      </g>
      <mask
         id="56f5ec10cf">
        <g
           filter="url(#e7f0bc149d)"
           id="g9">
          <rect
             x="0"
             width="375"
             y="0"
             height="374.999991"
             style="fill:#000000;fill-opacity:0.8;stroke:none;"
             id="rect8" />
        </g>
      </mask>
    </g>
    <g
       style="fill:#000000;fill-opacity:1"
       id="g12">
      <g
         transform="translate(34.230471, 255.938186)"
         id="g11"
         style="fill:#000000;fill-opacity:1">
        <path
           style="stroke:none;fill:#000000;fill-opacity:1"
           d="M 59.195312 -57.4375 L 48.957031 -17.519531 C 47.757812 -12.800781 45.277344 -10.480469 41.597656 -10.480469 L 30.15625 -10.480469 C 26.558594 -10.480469 24.160156 -12.800781 22.957031 -17.519531 L 12.640625 -57.4375 L 1.121094 -57.4375 L 11.839844 -15.597656 C 14.480469 -5.28125 20 -0.078125 28.558594 -0.078125 L 43.199219 -0.078125 C 51.757812 -0.078125 57.195312 -5.28125 59.917969 -15.597656 L 70.796875 -57.4375 Z M 59.195312 -57.4375 "
           id="path10" />
      </g>
    </g>
    <g
       style="fill:#000000;fill-opacity:1"
       id="g14">
      <g
         transform="translate(108.463266, 255.938186)"
         id="g13"
         style="fill:#000000;fill-opacity:1">
        <path
           style="stroke:none;fill:#000000;fill-opacity:1"
           d="M 71.195312 -10.480469 L 20.71875 -10.480469 C 16.800781 -10.480469 14.800781 -12.160156 14.800781 -15.597656 L 14.800781 -23.4375 L 71.195312 -23.4375 L 71.195312 -33.996094 L 14.800781 -33.996094 L 14.800781 -41.996094 C 14.800781 -44.796875 17.839844 -47.195312 20.71875 -47.195312 L 71.195312 -47.195312 L 71.195312 -57.4375 L 20.71875 -57.4375 C 12.238281 -57.4375 3.917969 -50.558594 3.917969 -41.996094 L 3.917969 -15.597656 C 3.917969 -6.480469 11.4375 -0.078125 20.71875 -0.078125 L 71.195312 -0.078125 Z M 71.195312 -10.480469 "
           id="path12" />
      </g>
    </g>
    <g
       style="fill:#000000;fill-opacity:1"
       id="g16">
      <g
         transform="translate(185.3358, 255.938186)"
         id="g15"
         style="fill:#000000;fill-opacity:1">
        <path
           style="stroke:none;fill:#000000;fill-opacity:1"
           d="M 73.59375 -41.996094 C 73.59375 -50.316406 65.277344 -57.4375 56.875 -57.4375 L 3.519531 -57.4375 L 3.519531 -0.078125 L 56.875 -0.078125 C 65.914062 -0.078125 73.59375 -6.480469 73.59375 -15.597656 Z M 62.796875 -15.597656 C 62.796875 -12.160156 60.796875 -10.480469 56.875 -10.480469 L 14.320312 -10.480469 L 14.320312 -47.195312 L 56.875 -47.195312 C 59.757812 -47.195312 62.796875 -44.796875 62.796875 -41.996094 Z M 62.796875 -15.597656 "
           id="path14" />
      </g>
    </g>
    <g
       style="fill:#000000;fill-opacity:1"
       id="g18">
      <g
         transform="translate(265.328028, 255.938186)"
         id="g17"
         style="fill:#000000;fill-opacity:1">
        <path
           style="stroke:none;fill:#000000;fill-opacity:1"
           d="M 60.234375 -41.917969 C 57.597656 -52.238281 51.996094 -57.355469 43.4375 -57.355469 L 28.878906 -57.355469 C 20.320312 -57.355469 14.800781 -52.238281 12.160156 -41.917969 L 1.359375 0 L 12.878906 0 L 23.679688 -41.917969 C 24.558594 -45.355469 26.558594 -47.117188 29.597656 -47.117188 L 42.796875 -47.117188 C 45.675781 -47.117188 47.597656 -45.355469 48.558594 -41.917969 L 50.71875 -33.996094 L 25.917969 -33.996094 L 23.4375 -23.4375 L 53.515625 -23.4375 L 59.515625 0 L 71.035156 0 Z M 60.234375 -41.917969 "
           id="path16" />
      </g>
    </g>
    <g
       style="fill:#000000;fill-opacity:1"
       id="g20">
      <g
         transform="translate(80.033203, 282.813176)"
         id="g19"
         style="fill:#000000;fill-opacity:1">
        <path
           style="stroke:none;fill:#000000;fill-opacity:1"
           d="M 5 -12.71875 L 0.078125 -12.71875 L 0.078125 -14 L 11.40625 -14 L 11.40625 -12.71875 L 6.484375 -12.71875 L 6.484375 0 L 5 0 Z M 5 -12.71875 "
           id="path18" />
      </g>
    </g>
    <g
       style="fill:#000000;fill-opacity:1"
       id="g22">
      <g
         transform="translate(91.508674, 282.813176)"
         id="g21"
         style="fill:#000000;fill-opacity:1">
        <path
           style="stroke:none;fill:#000000;fill-opacity:1"
           d="M 12.1875 -1.28125 L 12.1875 0 L 2.28125 0 L 2.28125 -14 L 11.875 -14 L 11.875 -12.71875 L 3.765625 -12.71875 L 3.765625 -7.734375 L 11 -7.734375 L 11 -6.484375 L 3.765625 -6.484375 L 3.765625 -1.28125 Z M 12.1875 -1.28125 "
           id="path20" />
      </g>
    </g>
    <g
       style="fill:#000000;fill-opacity:1"
       id="g24">
      <g
         transform="translate(104.803412, 282.813176)"
         id="g23"
         style="fill:#000000;fill-opacity:1">
        <path
           style="stroke:none;fill:#000000;fill-opacity:1"
           d="M 8.359375 0.125 C 6.972656 0.125 5.722656 -0.179688 4.609375 -0.796875 C 3.492188 -1.410156 2.617188 -2.257812 1.984375 -3.34375 C 1.359375 -4.4375 1.046875 -5.65625 1.046875 -7 C 1.046875 -8.34375 1.359375 -9.554688 1.984375 -10.640625 C 2.617188 -11.734375 3.492188 -12.585938 4.609375 -13.203125 C 5.734375 -13.816406 6.988281 -14.125 8.375 -14.125 C 9.414062 -14.125 10.375 -13.945312 11.25 -13.59375 C 12.132812 -13.25 12.882812 -12.742188 13.5 -12.078125 L 12.5625 -11.140625 C 11.46875 -12.242188 10.085938 -12.796875 8.421875 -12.796875 C 7.316406 -12.796875 6.3125 -12.539062 5.40625 -12.03125 C 4.5 -11.53125 3.785156 -10.835938 3.265625 -9.953125 C 2.753906 -9.078125 2.5 -8.09375 2.5 -7 C 2.5 -5.90625 2.753906 -4.914062 3.265625 -4.03125 C 3.785156 -3.15625 4.5 -2.460938 5.40625 -1.953125 C 6.3125 -1.453125 7.316406 -1.203125 8.421875 -1.203125 C 10.097656 -1.203125 11.476562 -1.757812 12.5625 -2.875 L 13.5 -1.9375 C 12.882812 -1.269531 12.132812 -0.757812 11.25 -0.40625 C 10.363281 -0.0507812 9.398438 0.125 8.359375 0.125 Z M 8.359375 0.125 "
           id="path22" />
      </g>
    </g>
    <g
       style="fill:#000000;fill-opacity:1"
       id="g26">
      <g
         transform="translate(119.177739, 282.813176)"
         id="g25"
         style="fill:#000000;fill-opacity:1">
        <path
           style="stroke:none;fill:#000000;fill-opacity:1"
           d="M 13.984375 -14 L 13.984375 0 L 12.515625 0 L 12.515625 -6.453125 L 3.765625 -6.453125 L 3.765625 0 L 2.28125 0 L 2.28125 -14 L 3.765625 -14 L 3.765625 -7.765625 L 12.515625 -7.765625 L 12.515625 -14 Z M 13.984375 -14 "
           id="path24" />
      </g>
    </g>
    <g
       style="fill:#000000;fill-opacity:1"
       id="g28">
      <g
         transform="translate(135.431324, 282.813176)"
         id="g27"
         style="fill:#000000;fill-opacity:1">
        <path
           style="stroke:none;fill:#000000;fill-opacity:1"
           d="M 13.984375 -14 L 13.984375 0 L 12.765625 0 L 3.765625 -11.359375 L 3.765625 0 L 2.28125 0 L 2.28125 -14 L 3.5 -14 L 12.515625 -2.640625 L 12.515625 -14 Z M 13.984375 -14 "
           id="path26" />
      </g>
    </g>
    <g
       style="fill:#000000;fill-opacity:1"
       id="g30">
      <g
         transform="translate(151.684909, 282.813176)"
         id="g29"
         style="fill:#000000;fill-opacity:1">
        <path
           style="stroke:none;fill:#000000;fill-opacity:1"
           d="M 8.40625 0.125 C 7.007812 0.125 5.75 -0.179688 4.625 -0.796875 C 3.5 -1.421875 2.617188 -2.273438 1.984375 -3.359375 C 1.359375 -4.441406 1.046875 -5.65625 1.046875 -7 C 1.046875 -8.34375 1.359375 -9.554688 1.984375 -10.640625 C 2.617188 -11.722656 3.5 -12.570312 4.625 -13.1875 C 5.75 -13.8125 7.007812 -14.125 8.40625 -14.125 C 9.789062 -14.125 11.035156 -13.816406 12.140625 -13.203125 C 13.253906 -12.585938 14.128906 -11.734375 14.765625 -10.640625 C 15.410156 -9.554688 15.734375 -8.34375 15.734375 -7 C 15.734375 -5.65625 15.410156 -4.4375 14.765625 -3.34375 C 14.128906 -2.257812 13.253906 -1.410156 12.140625 -0.796875 C 11.035156 -0.179688 9.789062 0.125 8.40625 0.125 Z M 8.40625 -1.203125 C 9.507812 -1.203125 10.503906 -1.453125 11.390625 -1.953125 C 12.285156 -2.453125 12.988281 -3.144531 13.5 -4.03125 C 14.007812 -4.914062 14.265625 -5.90625 14.265625 -7 C 14.265625 -8.09375 14.007812 -9.082031 13.5 -9.96875 C 12.988281 -10.851562 12.285156 -11.546875 11.390625 -12.046875 C 10.503906 -12.546875 9.507812 -12.796875 8.40625 -12.796875 C 7.289062 -12.796875 6.285156 -12.546875 5.390625 -12.046875 C 4.492188 -11.546875 3.785156 -10.851562 3.265625 -9.96875 C 2.753906 -9.082031 2.5 -8.09375 2.5 -7 C 2.5 -5.90625 2.753906 -4.914062 3.265625 -4.03125 C 3.785156 -3.144531 4.492188 -2.453125 5.390625 -1.953125 C 6.285156 -1.453125 7.289062 -1.203125 8.40625 -1.203125 Z M 8.40625 -1.203125 "
           id="path28" />
      </g>
    </g>
    <g
       style="fill:#000000;fill-opacity:1"
       id="g32">
      <g
         transform="translate(168.458296, 282.813176)"
         id="g31"
         style="fill:#000000;fill-opacity:1">
        <path
           style="stroke:none;fill:#000000;fill-opacity:1"
           d="M 2.28125 -14 L 3.765625 -14 L 3.765625 -1.28125 L 11.59375 -1.28125 L 11.59375 0 L 2.28125 0 Z M 2.28125 -14 "
           id="path30" />
      </g>
    </g>
    <g
       style="fill:#000000;fill-opacity:1"
       id="g34">
      <g
         transform="translate(179.953713, 282.813176)"
         id="g33"
         style="fill:#000000;fill-opacity:1">
        <path
           style="stroke:none;fill:#000000;fill-opacity:1"
           d="M 8.40625 0.125 C 7.007812 0.125 5.75 -0.179688 4.625 -0.796875 C 3.5 -1.421875 2.617188 -2.273438 1.984375 -3.359375 C 1.359375 -4.441406 1.046875 -5.65625 1.046875 -7 C 1.046875 -8.34375 1.359375 -9.554688 1.984375 -10.640625 C 2.617188 -11.722656 3.5 -12.570312 4.625 -13.1875 C 5.75 -13.8125 7.007812 -14.125 8.40625 -14.125 C 9.789062 -14.125 11.035156 -13.816406 12.140625 -13.203125 C 13.253906 -12.585938 14.128906 -11.734375 14.765625 -10.640625 C 15.410156 -9.554688 15.734375 -8.34375 15.734375 -7 C 15.734375 -5.65625 15.410156 -4.4375 14.765625 -3.34375 C 14.128906 -2.257812 13.253906 -1.410156 12.140625 -0.796875 C 11.035156 -0.179688 9.789062 0.125 8.40625 0.125 Z M 8.40625 -1.203125 C 9.507812 -1.203125 10.503906 -1.453125 11.390625 -1.953125 C 12.285156 -2.453125 12.988281 -3.144531 13.5 -4.03125 C 14.007812 -4.914062 14.265625 -5.90625 14.265625 -7 C 14.265625 -8.09375 14.007812 -9.082031 13.5 -9.96875 C 12.988281 -10.851562 12.285156 -11.546875 11.390625 -12.046875 C 10.503906 -12.546875 9.507812 -12.796875 8.40625 -12.796875 C 7.289062 -12.796875 6.285156 -12.546875 5.390625 -12.046875 C 4.492188 -11.546875 3.785156 -10.851562 3.265625 -9.96875 C 2.753906 -9.082031 2.5 -8.09375 2.5 -7 C 2.5 -5.90625 2.753906 -4.914062 3.265625 -4.03125 C 3.785156 -3.144531 4.492188 -2.453125 5.390625 -1.953125 C 6.285156 -1.453125 7.289062 -1.203125 8.40625 -1.203125 Z M 8.40625 -1.203125 "
           id="path32" />
      </g>
    </g>
    <g
       style="fill:#000000;fill-opacity:1"
       id="g36">
      <g
         transform="translate(196.7271, 282.813176)"
         id="g35"
         style="fill:#000000;fill-opacity:1">
        <path
           style="stroke:none;fill:#000000;fill-opacity:1"
           d="M 12.140625 -7 L 13.5625 -7 L 13.5625 -1.65625 C 12.90625 -1.082031 12.128906 -0.640625 11.234375 -0.328125 C 10.347656 -0.0234375 9.410156 0.125 8.421875 0.125 C 7.015625 0.125 5.75 -0.179688 4.625 -0.796875 C 3.507812 -1.410156 2.632812 -2.257812 2 -3.34375 C 1.363281 -4.4375 1.046875 -5.65625 1.046875 -7 C 1.046875 -8.34375 1.363281 -9.554688 2 -10.640625 C 2.632812 -11.734375 3.507812 -12.585938 4.625 -13.203125 C 5.75 -13.816406 7.019531 -14.125 8.4375 -14.125 C 9.507812 -14.125 10.488281 -13.953125 11.375 -13.609375 C 12.269531 -13.265625 13.023438 -12.757812 13.640625 -12.09375 L 12.71875 -11.15625 C 11.613281 -12.25 10.207031 -12.796875 8.5 -12.796875 C 7.363281 -12.796875 6.335938 -12.546875 5.421875 -12.046875 C 4.515625 -11.546875 3.800781 -10.851562 3.28125 -9.96875 C 2.757812 -9.082031 2.5 -8.09375 2.5 -7 C 2.5 -5.90625 2.757812 -4.914062 3.28125 -4.03125 C 3.800781 -3.15625 4.515625 -2.460938 5.421875 -1.953125 C 6.328125 -1.453125 7.347656 -1.203125 8.484375 -1.203125 C 9.921875 -1.203125 11.140625 -1.5625 12.140625 -2.28125 Z M 12.140625 -7 "
           id="path34" />
      </g>
    </g>
    <g
       style="fill:#000000;fill-opacity:1"
       id="g38">
      <g
         transform="translate(212.181006, 282.813176)"
         id="g37"
         style="fill:#000000;fill-opacity:1">
        <path
           style="stroke:none;fill:#000000;fill-opacity:1"
           d="M 2.28125 -14 L 3.765625 -14 L 3.765625 0 L 2.28125 0 Z M 2.28125 -14 "
           id="path36" />
      </g>
    </g>
    <g
       style="fill:#000000;fill-opacity:1"
       id="g40">
      <g
         transform="translate(218.218622, 282.813176)"
         id="g39"
         style="fill:#000000;fill-opacity:1">
        <path
           style="stroke:none;fill:#000000;fill-opacity:1"
           d="M 12.1875 -1.28125 L 12.1875 0 L 2.28125 0 L 2.28125 -14 L 11.875 -14 L 11.875 -12.71875 L 3.765625 -12.71875 L 3.765625 -7.734375 L 11 -7.734375 L 11 -6.484375 L 3.765625 -6.484375 L 3.765625 -1.28125 Z M 12.1875 -1.28125 "
           id="path38" />
      </g>
    </g>
    <g
       style="fill:#000000;fill-opacity:1"
       id="g42">
      <g
         transform="translate(231.593343, 282.813176)"
         id="g41"
         style="fill:#000000;fill-opacity:1">
        <path
           style="stroke:none;fill:#000000;fill-opacity:1"
           d="M 6.140625 0.125 C 5.097656 0.125 4.097656 -0.0390625 3.140625 -0.375 C 2.191406 -0.707031 1.457031 -1.148438 0.9375 -1.703125 L 1.515625 -2.84375 C 2.023438 -2.332031 2.695312 -1.921875 3.53125 -1.609375 C 4.375 -1.296875 5.242188 -1.140625 6.140625 -1.140625 C 7.390625 -1.140625 8.328125 -1.367188 8.953125 -1.828125 C 9.585938 -2.285156 9.90625 -2.882812 9.90625 -3.625 C 9.90625 -4.175781 9.734375 -4.617188 9.390625 -4.953125 C 9.046875 -5.285156 8.628906 -5.539062 8.140625 -5.71875 C 7.648438 -5.90625 6.960938 -6.101562 6.078125 -6.3125 C 5.023438 -6.582031 4.1875 -6.835938 3.5625 -7.078125 C 2.9375 -7.328125 2.398438 -7.707031 1.953125 -8.21875 C 1.503906 -8.726562 1.28125 -9.414062 1.28125 -10.28125 C 1.28125 -10.988281 1.46875 -11.628906 1.84375 -12.203125 C 2.21875 -12.785156 2.789062 -13.25 3.5625 -13.59375 C 4.332031 -13.945312 5.289062 -14.125 6.4375 -14.125 C 7.238281 -14.125 8.019531 -14.007812 8.78125 -13.78125 C 9.550781 -13.5625 10.21875 -13.257812 10.78125 -12.875 L 10.28125 -11.703125 C 9.695312 -12.085938 9.070312 -12.375 8.40625 -12.5625 C 7.738281 -12.757812 7.082031 -12.859375 6.4375 -12.859375 C 5.207031 -12.859375 4.28125 -12.617188 3.65625 -12.140625 C 3.039062 -11.671875 2.734375 -11.0625 2.734375 -10.3125 C 2.734375 -9.757812 2.90625 -9.3125 3.25 -8.96875 C 3.59375 -8.625 4.019531 -8.363281 4.53125 -8.1875 C 5.039062 -8.007812 5.726562 -7.8125 6.59375 -7.59375 C 7.625 -7.34375 8.457031 -7.09375 9.09375 -6.84375 C 9.726562 -6.601562 10.265625 -6.234375 10.703125 -5.734375 C 11.140625 -5.234375 11.359375 -4.554688 11.359375 -3.703125 C 11.359375 -2.992188 11.164062 -2.347656 10.78125 -1.765625 C 10.40625 -1.191406 9.820312 -0.734375 9.03125 -0.390625 C 8.25 -0.046875 7.285156 0.125 6.140625 0.125 Z M 6.140625 0.125 "
           id="path40" />
      </g>
    </g>
    <g
       style="fill:#000000;fill-opacity:1"
       id="g44">
      <g
         transform="translate(244.288399, 282.813176)"
         id="g43"
         style="fill:#000000;fill-opacity:1">
        <path
           style="stroke:none;fill:#000000;fill-opacity:1"
           d="M 2.140625 -2.078125 C 2.441406 -2.078125 2.691406 -1.972656 2.890625 -1.765625 C 3.097656 -1.554688 3.203125 -1.300781 3.203125 -1 C 3.203125 -0.84375 3.175781 -0.671875 3.125 -0.484375 C 3.082031 -0.296875 3.015625 -0.0820312 2.921875 0.15625 L 2.078125 2.921875 L 1.125 2.921875 L 1.796875 0.015625 C 1.585938 -0.046875 1.414062 -0.164062 1.28125 -0.34375 C 1.144531 -0.53125 1.078125 -0.75 1.078125 -1 C 1.078125 -1.300781 1.175781 -1.554688 1.375 -1.765625 C 1.582031 -1.972656 1.835938 -2.078125 2.140625 -2.078125 Z M 2.140625 -2.078125 "
           id="path42" />
      </g>
    </g>
    <g
       style="fill:#000000;fill-opacity:1"
       id="g46">
      <g
         transform="translate(248.52673, 282.813176)"
         id="g45"
         style="fill:#000000;fill-opacity:1">
        <path
           style="stroke:none;fill:#000000;fill-opacity:1"
           d=""
           id="path44" />
      </g>
    </g>
    <g
       style="fill:#000000;fill-opacity:1"
       id="g48">
      <g
         transform="translate(253.764667, 282.813176)"
         id="g47"
         style="fill:#000000;fill-opacity:1">
        <path
           style="stroke:none;fill:#000000;fill-opacity:1"
           d="M 2.28125 -14 L 3.765625 -14 L 3.765625 0 L 2.28125 0 Z M 2.28125 -14 "
           id="path46" />
      </g>
    </g>
    <g
       style="fill:#000000;fill-opacity:1"
       id="g50">
      <g
         transform="translate(259.802284, 282.813176)"
         id="g49"
         style="fill:#000000;fill-opacity:1">
        <path
           style="stroke:none;fill:#000000;fill-opacity:1"
           d="M 13.984375 -14 L 13.984375 0 L 12.765625 0 L 3.765625 -11.359375 L 3.765625 0 L 2.28125 0 L 2.28125 -14 L 3.5 -14 L 12.515625 -2.640625 L 12.515625 -14 Z M 13.984375 -14 "
           id="path48" />
      </g>
    </g>
    <g
       style="fill:#000000;fill-opacity:1"
       id="g52">
      <g
         transform="translate(276.05588, 282.813176)"
         id="g51"
         style="fill:#000000;fill-opacity:1">
        <path
           style="stroke:none;fill:#000000;fill-opacity:1"
           d="M 8.359375 0.125 C 6.972656 0.125 5.722656 -0.179688 4.609375 -0.796875 C 3.492188 -1.410156 2.617188 -2.257812 1.984375 -3.34375 C 1.359375 -4.4375 1.046875 -5.65625 1.046875 -7 C 1.046875 -8.34375 1.359375 -9.554688 1.984375 -10.640625 C 2.617188 -11.734375 3.492188 -12.585938 4.609375 -13.203125 C 5.734375 -13.816406 6.988281 -14.125 8.375 -14.125 C 9.414062 -14.125 10.375 -13.945312 11.25 -13.59375 C 12.132812 -13.25 12.882812 -12.742188 13.5 -12.078125 L 12.5625 -11.140625 C 11.46875 -12.242188 10.085938 -12.796875 8.421875 -12.796875 C 7.316406 -12.796875 6.3125 -12.539062 5.40625 -12.03125 C 4.5 -11.53125 3.785156 -10.835938 3.265625 -9.953125 C 2.753906 -9.078125 2.5 -8.09375 2.5 -7 C 2.5 -5.90625 2.753906 -4.914062 3.265625 -4.03125 C 3.785156 -3.15625 4.5 -2.460938 5.40625 -1.953125 C 6.3125 -1.453125 7.316406 -1.203125 8.421875 -1.203125 C 10.097656 -1.203125 11.476562 -1.757812 12.5625 -2.875 L 13.5 -1.9375 C 12.882812 -1.269531 12.132812 -0.757812 11.25 -0.40625 C 10.363281 -0.0507812 9.398438 0.125 8.359375 0.125 Z M 8.359375 0.125 "
           id="path50" />
      </g>
    </g>
    <g
       style="fill:#000000;fill-opacity:1"
       id="g54">
      <g
         transform="translate(290.71013, 282.813176)"
         id="g53"
         style="fill:#000000;fill-opacity:1">
        <path
           style="stroke:none;fill:#000000;fill-opacity:1"
           d="M 2.125 0.09375 C 1.832031 0.09375 1.582031 -0.0078125 1.375 -0.21875 C 1.164062 -0.4375 1.0625 -0.695312 1.0625 -1 C 1.0625 -1.300781 1.164062 -1.554688 1.375 -1.765625 C 1.582031 -1.972656 1.832031 -2.078125 2.125 -2.078125 C 2.414062 -2.078125 2.664062 -1.972656 2.875 -1.765625 C 3.09375 -1.554688 3.203125 -1.300781 3.203125 -1 C 3.203125 -0.695312 3.09375 -0.4375 2.875 -0.21875 C 2.664062 -0.0078125 2.414062 0.09375 2.125 0.09375 Z M 2.125 0.09375 "
           id="path52" />
      </g>
    </g>
  </g>
</svg>
