<svg width="256" height="256" viewBox="0 0 256 256" fill="none" xmlns="http://www.w3.org/2000/svg">
<g clip-path="url(#clip0_101_24)">
<path d="M128 0C116.605 27.9371 109.687 46.2372 97 73.3438C104.779 81.589 114.338 91.1555 129.844 102C113.174 95.1404 101.81 88.2715 93.3125 81.125C77.076 115.005 51.6216 163.246 0 256C40.5627 232.582 72.0076 218.138 101.312 212.625C100.059 207.221 99.389 201.347 99.4375 195.25L99.4688 193.969C100.113 167.975 113.638 147.987 129.656 149.344C145.674 150.701 158.144 172.881 157.5 198.875C157.379 203.771 156.809 208.476 155.844 212.844C184.833 218.517 215.982 232.897 256 256C248.108 241.47 241.039 228.38 234.312 215.906C223.716 207.694 212.669 197.009 190.125 185.438C205.621 189.464 216.727 194.12 225.375 199.312C156.98 71.9727 151.454 55.0404 128 0Z" fill="#0B6E4F"/>
</g>
<defs>
<clipPath id="clip0_101_24">
<rect width="256" height="256" fill="white"/>
</clipPath>
</defs>
</svg>
