<svg width="1440" height="700" viewBox="0 0 1440 700" fill="none" xmlns="http://www.w3.org/2000/svg">
<g clip-path="url(#clip0_6_2)">
<path d="M1440 0H0V700H1440V0Z" fill="#ECEEEC"/>
<path d="M1090 700C1111 669.2 1132 638.4 1139.5 602.4C1146.9 566.3 1140.8 525 1156.8 494.3C1172.9 463.6 1211.1 443.5 1246.6 433.8C1282.1 424.2 1314.9 425 1346.7 412.8C1378.5 400.6 1409.2 375.3 1440 350V700H1090Z" fill="#0B6E4F"/>
<path d="M1206.7 700C1220.7 679.5 1234.7 658.9 1239.6 634.9C1244.6 610.9 1240.5 583.3 1251.2 562.9C1261.9 542.4 1287.4 529 1311.1 522.6C1334.7 516.1 1356.6 516.7 1377.8 508.5C1399 500.4 1419.5 483.5 1440 466.7V700H1206.7Z" fill="#00614D"/>
<path d="M1323.3 700C1330.3 689.7 1337.3 679.5 1339.8 667.5C1342.3 655.4 1340.3 641.7 1345.6 631.4C1351 621.2 1363.7 614.5 1375.5 611.3C1387.4 608.1 1398.3 608.3 1408.9 604.3C1419.5 600.2 1429.7 591.8 1440 583.3V700H1323.3Z" fill="#005A4B"/>
<path d="M350 0C346.2 36 342.3 71.9 332.9 108.2C323.4 144.4 308.4 180.9 281.5 204.5C254.7 228.2 216 238.9 184.6 254C153.1 269.1 128.8 288.6 99.2 305.3C69.6 322 34.8 336 0 350V0H350Z" fill="#0B6E4F"/>
<path d="M233.3 0C230.8 24 228.2 47.9 221.9 72.1C215.6 96.3 205.6 120.6 187.7 136.4C169.8 152.1 144 159.3 123 169.4C102.1 179.4 85.8 192.4 66.1 203.5C46.4 214.7 23.2 224 0 233.3V0H233.3Z" fill="#00614D"/>
<path d="M116.7 0C115.4 12 114.1 24 111 36.1C107.8 48.1 102.8 60.3 93.8 68.2C84.9 76.1 72 79.6 61.5 84.7C51 89.7 42.9 96.2 33.1 101.8C23.2 107.3 11.6 112 0 116.7V0H116.7Z" fill="#005A4B"/>
</g>
<defs>
<clipPath id="clip0_6_2">
<rect width="1440" height="700" fill="white"/>
</clipPath>
</defs>
</svg>
