<svg width="350" height="350" viewBox="0 0 350 350" fill="none" xmlns="http://www.w3.org/2000/svg">
<path d="M0 350C21 319.2 42 288.4 49.5 252.4C56.9 216.3 50.8 175 66.8 144.3C82.9 113.6 121.1 93.5 156.6 83.8C192.1 74.2 224.9 75 256.7 62.8C288.5 50.6 319.2 25.3 350 0V350H0Z" fill="#0B6E4F"/>
<path d="M116.7 350C130.7 329.5 144.7 308.9 149.6 284.9C154.6 260.9 150.5 233.3 161.2 212.9C171.9 192.4 197.4 179 221.1 172.6C244.7 166.1 266.6 166.7 287.8 158.5C309 150.4 329.5 133.5 350 116.7V350H116.7Z" fill="#00614D"/>
<path d="M233.3 350C240.3 339.7 247.3 329.5 249.8 317.5C252.3 305.4 250.3 291.7 255.6 281.4C261 271.2 273.7 264.5 285.5 261.3C297.4 258.1 308.3 258.3 318.9 254.3C329.5 250.2 339.7 241.8 350 233.3V350H233.3Z" fill="#005A4B"/>
</svg>
