<svg width="840" height="840" viewBox="0 0 840 840" fill="none" xmlns="http://www.w3.org/2000/svg">
<path fill-rule="evenodd" clip-rule="evenodd" d="M840 100C840 44.7715 795.228 0 740 0H100C44.7715 0 0 44.7715 0 100V740C0 795.228 44.7715 840 100 840H740C795.228 840 840 795.228 840 740V100ZM394.267 126C383.333 126.933 383.334 126.933 366.667 120.133C357.467 116.533 343.733 111.733 336.267 109.467C335.64 109.291 335.021 109.116 334.412 108.943C325.991 106.548 323.407 100.809 327.96 93.3313C333.439 84.3331 341.23 72.5352 345.467 67.2002C357.867 51.8671 367.2 47.2001 373.333 53.333C376.666 56.6663 384.4 72.2665 393.333 93.333C397.066 102.533 401.733 112.8 403.467 116.4C405.333 119.866 406.399 123.332 406 123.866C405.6 124.533 400.4 125.467 394.267 126ZM554 780.4C539.6 787.734 517.599 790.933 501.866 788C492.4 786.267 475.202 780.667 472.4 778.4C470.267 776.667 465.734 758.933 463.2 742.533C460.4 724 459.2 647.334 461.2 616.667C464 575.867 469.2 540.8 480.134 490.667C505.6 373.201 505.866 371.867 505.866 342.667C505.733 317.867 503.733 307.333 495.866 291.866C487.6 275.2 479.6 264.533 462.934 247.6C412.267 196 312.933 156.133 254 163.866C231.6 166.8 207.334 174.934 198.667 182.4C195.867 184.8 198 184.4 210.667 179.866C240.267 169.2 242 168.933 270 168.8C293.2 168.8 296.667 169.067 311.2 172.533C326.533 176.133 344.266 181.866 351.6 185.866C355.066 187.6 354.933 187.6 347.2 188.533C317.734 192.133 288.533 200.933 268.533 212.267C260.133 217.067 252.4 220.4 247.333 221.333C235.867 223.6 230.8 226 224.134 232.4C212.934 243.2 203.6 259.867 195.866 282.667C193.866 288.8 191.467 294.133 190.667 294.4C187.734 295.467 180.267 285.2 172.267 269.2C158.4 241.334 153.066 221.067 153.066 196C153.066 166.267 160.933 146.8 177.6 134.667C188.266 126.934 214.533 118.133 240 114C257.333 111.067 304.666 112.266 321.333 115.866C374.133 127.333 420.8 154.534 467.2 200.667C503.6 236.934 529.733 275.2 549.866 321.733C553.599 330.4 560 338.8 558.267 332.667C557.867 331.2 556.8 327.467 556 324.267C552 308.933 537.733 281.2 520.533 255.333C491.6 211.733 451.733 171.466 410 143.333C408.341 142.217 406.744 141.122 405.262 140.089C399.122 135.808 399.828 132.165 407.239 131.116C409.585 130.785 412.189 130.449 414.934 130.133C470.133 123.733 517.734 125.333 548.667 134.8C580.8 144.533 628.4 179.466 658.4 215.333C680.934 242.266 700 278.667 706 306.4V306.4C706.376 308.12 704.596 309.511 703.018 308.731L695.066 304.8C688.666 301.6 680.133 298 676.267 296.8C668.8 294.666 653.333 292.533 653.333 293.733C653.334 294 657.734 295.467 663.066 296.667C672.933 299.067 689.867 305.334 688.934 306.134C688.665 306.401 683.733 307.867 677.867 309.333C660.934 313.733 649.467 320 640.267 330C625.733 345.867 619.333 363.734 620.267 385.2C620.8 395.333 621.734 400 624.667 407.2C634.267 430.533 661.334 446.134 696.934 448.934C705.199 449.467 708 450.133 708 451.6C708 455.2 702.533 475.2 699.066 484.667C691.866 504.134 680.133 523.6 669.2 534.4C655.867 547.6 604.667 577.867 560.667 598.667L547.858 604.712C546.065 605.559 544 604.25 544 602.267V602.267C544.133 599.867 544.933 591.333 545.866 583.333C546.448 578.895 546.911 574.854 547.147 572.055C547.367 569.437 546.255 569.007 545.333 571.467V571.467C536.533 594.534 535.466 636.267 542.8 670.4C548.4 696.534 561.733 729.467 575.733 752.134L578.648 757.015C580.057 759.376 579.62 762.402 577.6 764.267V764.267C573.466 768.133 560 777.2 554 780.4ZM721.467 436C704.133 441.467 675.6 438.266 658.267 429.066C647.467 423.2 638 413.734 633.733 404.4C629.467 395.2 628.134 378.267 630.667 366.267C634.4 348 647.6 330.267 663.333 322.533C676 316.267 685.733 315.2 707.6 317.333C740.933 320.666 756 319.2 782 310.134C797.6 304.8 798.134 304.667 799.2 307.467C799.6 308.667 800 314 800 319.333C800 367.333 762.267 423.467 721.467 436ZM240.4 718.533C232.134 722.667 221.466 722.4 211.333 717.6C196.133 710.4 175.467 691.333 162.667 672.667C156.534 663.867 156.8 658.8 164 642C169.067 630.133 169.866 627.067 170.8 614C171.333 605.867 171.866 597.867 171.866 596.267C172 593.067 172 593.067 180.4 597.733L181.76 598.479C185.984 600.795 188.511 605.323 188.267 610.134V610.134C188 615.201 185.6 624.534 181.333 636.934L177.804 647.374C175.981 652.768 176.587 658.688 179.467 663.6V663.6C191.067 682.933 210.934 696 228.667 696C246.8 696 275.467 680.133 302.934 654.934C309.867 648.534 321.734 638.267 329.2 632C349.866 614.934 395.062 581.336 397.333 581.333C402 581.466 403.2 583.867 403.733 593.467C404.4 604.4 406.667 603.467 406.667 592.267C406.667 575.067 391.467 561.733 370 560.267C361.467 559.733 360.8 559.866 362.667 561.866C363.867 563.066 368.267 564.667 372.667 565.467C380.267 566.8 389.6 570.933 395.333 575.066C397.733 576.933 396.8 577.6 381.6 585.2C360.8 595.6 355.2 597.733 333.333 603.333C290 614.533 254.933 615.734 220 607.2C180.4 597.6 137.334 564.667 106.667 520.667C92.5337 500.4 77.6002 483.867 56.4004 464.667C52.0006 460.801 52 460.8 52 463.866C52 466 55.8667 471.067 63.7334 479.2C80.5331 496.667 80.9333 497.467 70.1338 491.467C46.6674 478.667 29.3334 459.467 29.333 446.134C29.333 440.534 35.0666 431.467 40.2666 428.934C45.9998 426 54.3997 426.133 58.7998 429.066C63.0665 431.866 82.5331 450.667 123.066 490.934C139.733 507.6 153.067 520.533 152.533 519.6C150 515.199 141.6 505.466 124.4 486.8C113.867 475.466 105.333 465.866 105.333 465.333C105.336 464.8 112.668 464 121.733 463.6C142.8 462.533 155.734 460 177.2 452.667C198 445.467 210.4 444.667 223.6 449.467C231.866 452.533 234.4 454.8 282 504.267C296 518.667 304.134 526 308.667 528.4C317.2 532.667 331.467 536.133 364 542C404.8 549.333 420 555.2 427.6 566.533C433.2 574.8 430.8 587.866 421.733 599.333C412.8 610.666 387.2 627.066 334.667 655.333C311.867 667.6 301.2 674.533 278.667 692C260.001 706.4 248.667 714.266 240.4 718.533Z" fill="#0B6E4F"/>
</svg>
