<?xml version="1.0" encoding="UTF-8" standalone="no"?>
<svg
   width="256"
   height="256"
   viewBox="0 0 256 256"
   fill="none"
   version="1.1"
   id="svg1"
   sodipodi:docname="darwin.svg"
   inkscape:version="1.4.2 (ebf0e940d0, 2025-05-08)"
   xmlns:inkscape="http://www.inkscape.org/namespaces/inkscape"
   xmlns:sodipodi="http://sodipodi.sourceforge.net/DTD/sodipodi-0.dtd"
   xmlns="http://www.w3.org/2000/svg"
   xmlns:svg="http://www.w3.org/2000/svg">
  <defs
     id="defs1" />
  <sodipodi:namedview
     id="namedview1"
     pagecolor="#ffffff"
     bordercolor="#000000"
     borderopacity="0.25"
     inkscape:showpageshadow="2"
     inkscape:pageopacity="0.0"
     inkscape:pagecheckerboard="0"
     inkscape:deskcolor="#d1d1d1"
     showguides="true"
     inkscape:zoom="0.97857143"
     inkscape:cx="389.34307"
     inkscape:cy="420"
     inkscape:window-width="1920"
     inkscape:window-height="1031"
     inkscape:window-x="0"
     inkscape:window-y="0"
     inkscape:window-maximized="1"
     inkscape:current-layer="svg1">
    <sodipodi:guide
       position="-287.15728,50.891309"
       orientation="-0.70710678,-0.70710678"
       id="guide1"
       inkscape:locked="false" />
  </sodipodi:namedview>
  <path
     fill-rule="evenodd"
     clip-rule="evenodd"
     d="M 256.49635,32.291971 C 256.49635,15.56217 242.8251,2 225.96107,2 H 30.53528 C 13.671103,2 0,15.56217 0,32.291971 V 226.16058 c 0,16.72965 13.671103,30.29198 30.53528,30.29198 h 195.42579 c 16.86403,0 30.53528,-13.56233 30.53528,-30.29198 z m -136.10582,7.875912 c -3.33873,0.282624 -3.33842,0.282624 -8.42774,-1.77723 -2.80924,-1.090511 -7.00296,-2.544525 -9.28272,-3.230941 -0.19146,-0.05331 -0.38047,-0.106325 -0.56643,-0.15873 -2.571376,-0.725493 -3.360407,-2.463949 -1.97014,-4.729092 1.67303,-2.725732 4.05204,-6.299548 5.34582,-7.915625 3.78637,-4.644698 6.63623,-6.058424 8.50896,-4.200648 1.01774,1.009722 3.37934,5.73533 6.10705,12.116788 1.13988,2.786862 2.56497,5.896938 3.09445,6.987449 0.56979,1.04992 0.89529,2.09984 0.77346,2.261599 -0.12214,0.202047 -1.70998,0.484974 -3.58271,0.64643 z m 48.77492,198.230657 c -4.39708,2.22161 -11.11515,3.19065 -15.91926,2.30219 -2.89047,-0.52496 -8.14193,-2.22131 -8.99753,-2.90803 -0.65132,-0.52496 -2.03548,-5.89694 -2.80924,-10.86482 -0.85499,-5.61401 -1.22141,-28.83765 -0.61071,-38.12729 0.85499,-12.35913 2.44282,-22.98161 5.78155,-38.16789 7.77612,-35.58276 7.85734,-35.98686 7.85734,-44.83211 C 154.427,98.288179 153.81628,95.097223 151.41407,90.411964 148.89002,85.363504 146.4472,82.132259 141.35819,77.00292 125.88688,61.372263 95.554967,49.295763 77.559611,51.638241 c -6.839903,0.888766 -14.249594,3.352715 -16.896086,5.614314 -0.854988,0.727007 -0.203671,0.605839 3.664233,-0.767599 9.038443,-3.230941 9.567619,-3.311821 18.117498,-3.352109 7.084185,0 8.142843,0.08088 12.580535,1.130799 4.681975,1.090511 10.096799,2.82715 12.336249,4.038829 1.05836,0.525262 1.01775,0.525262 -1.34355,0.807887 -8.997524,1.09051 -17.914131,3.756204 -24.021187,7.189496 -2.564963,1.454014 -4.926257,2.463646 -6.473479,2.74627 -3.501175,0.686719 -5.048398,1.413726 -7.08388,3.352412 -3.419951,3.271533 -6.270114,8.320296 -8.631713,15.226865 -0.610705,1.857807 -1.343247,3.473278 -1.587529,3.554157 -0.8956,0.323216 -3.175669,-2.786861 -5.618491,-7.633576 -4.234328,-8.441161 -5.863079,-14.580435 -5.863079,-22.173723 0,-9.006712 2.40221,-14.90365 7.491525,-18.578975 3.256893,-2.342478 11.277595,-5.008474 19.054015,-6.260441 5.29268,-0.888464 19.745944,-0.525263 24.835259,0.565248 16.122629,3.47358 30.372529,11.713299 44.540899,25.687894 11.11484,10.985989 19.09462,22.577515 25.24229,36.673278 1.13988,2.625403 3.09445,5.169933 2.56527,3.312123 -0.12214,-0.44438 -0.44795,-1.57518 -0.69223,-2.54452 -1.22141,-4.644976 -5.57788,-13.045848 -10.82995,-20.881472 -8.83477,-13.207299 -21.00827,-25.404967 -33.75156,-33.927007 -0.50658,-0.338059 -0.99423,-0.669756 -1.44676,-0.982672 -1.87487,-1.296799 -1.65929,-2.400336 0.60368,-2.718098 0.71636,-0.100267 1.51149,-0.202048 2.34969,-0.297771 16.85517,-1.938686 31.39027,-1.454014 40.83574,1.413727 9.81191,2.948317 24.3467,13.530212 33.50728,24.395033 6.88082,8.158536 12.70268,19.185117 14.5348,27.585989 v 0 c 0.11481,0.521022 -0.42872,0.942383 -0.91057,0.706106 l -2.42816,-1.190778 c -1.95426,-0.969343 -4.55983,-2.059854 -5.74033,-2.423357 -2.28007,-0.646431 -7.00296,-1.292559 -7.00296,-0.929055 3.1e-4,0.08088 1.34386,0.525263 2.972,0.888766 3.01292,0.727008 8.18376,2.625405 7.89887,2.867741 -0.0821,0.08088 -1.58814,0.52496 -3.37934,0.96904 -5.17054,1.332847 -8.67202,3.231245 -11.48127,6.260438 -4.438,4.80643 -6.39225,10.2187 -6.10706,16.72117 0.16276,3.06949 0.44796,4.48321 1.34356,6.66424 2.93138,7.06802 11.19637,11.79387 22.06693,12.64205 2.52374,0.16145 3.37903,0.3632 3.37903,0.80758 0,1.09051 -1.66936,7.14891 -2.72802,10.01665 -2.19854,5.89693 -5.78124,11.79357 -9.11967,15.0651 -4.07127,3.99854 -19.70533,13.16701 -33.14085,19.46774 l -3.91127,1.83115 c -0.54749,0.25658 -1.17805,-0.13995 -1.17805,-0.74064 v 0 c 0.0406,-0.727 0.2849,-3.31212 0.56979,-5.73548 0.17772,-1.34436 0.31909,-2.56845 0.39116,-3.41633 0.0672,-0.79304 -0.27238,-0.9233 -0.55391,-0.17811 v 0 c -2.68711,6.98745 -3.01292,19.62919 -0.77346,29.96875 1.70998,7.91651 5.78124,17.89256 10.05618,24.75884 l 0.89011,1.47855 c 0.43024,0.7152 0.2968,1.63183 -0.32001,2.19678 v 0 c -1.26233,1.17108 -5.37421,3.91766 -7.20633,4.887 z m 51.13652,-104.32555 c -5.29299,1.65607 -14.00562,0.68642 -19.2983,-2.10044 -3.29781,-1.77693 -6.18858,-4.64437 -7.49152,-7.47182 -1.30264,-2.78686 -1.70967,-7.9162 -0.93622,-11.55124 1.13989,-5.53343 5.17054,-10.90511 9.97466,-13.247887 3.8679,-1.898095 6.8399,-2.221311 13.51705,-1.575183 10.17833,1.009631 14.77908,0.565551 22.71825,-2.180719 4.7635,-1.615774 4.92656,-1.656062 5.25207,-0.807887 0.12214,0.363504 0.24428,1.978975 0.24428,3.594445 0,14.540151 -11.52188,31.544241 -23.98027,35.340731 z M 73.406813,219.65781 c -2.524046,1.25227 -5.78155,1.17139 -8.87569,-0.28263 -4.641362,-2.18102 -10.951783,-7.95679 -14.860299,-13.61109 -1.872729,-2.66569 -1.791505,-4.20059 0.407035,-9.28964 1.547223,-3.59474 1.7912,-4.5235 2.076399,-8.48175 0.162753,-2.46364 0.325506,-4.887 0.325506,-5.37167 0.04092,-0.96935 0.04092,-0.96935 2.605881,0.44408 l 0.41528,0.22597 c 1.28981,0.70157 2.061437,2.07319 1.98693,3.53053 v 0 c -0.08153,1.5349 -0.814375,4.36205 -2.117316,8.11825 l -1.07759,3.16248 c -0.556658,1.63395 -0.371614,3.42724 0.507802,4.91518 v 0 c 3.542092,5.85635 9.608536,9.8146 15.023358,9.8146 5.536962,0 14.290511,-4.80643 22.677636,-12.4397 2.117011,-1.93869 5.740632,-5.04877 8.020395,-6.94716 6.31042,-5.16963 20.11115,-15.34713 20.8046,-15.34804 1.42509,0.0403 1.79151,0.7676 1.95426,3.67563 0.20367,3.31182 0.89591,3.0292 0.89591,-0.3635 0,-5.21022 -4.64137,-9.24935 -11.19637,-9.69343 -2.60558,-0.16176 -2.80925,-0.12147 -2.23916,0.48437 0.36643,0.3635 1.70998,0.84847 3.05353,1.09081 2.32068,0.40379 5.17054,1.65576 6.92113,2.90773 0.73284,0.56555 0.44795,0.76759 -4.19341,3.06978 -6.35134,3.15037 -8.06132,3.7965 -14.73847,5.49285 -13.231848,3.3927 -23.939655,3.7565 -34.606544,1.17139 -12.091971,-2.90803 -25.242295,-12.88409 -34.606549,-26.21255 -4.315643,-6.13928 -8.875629,-11.14745 -15.349047,-16.96351 -1.343491,-1.17109 -1.343674,-1.17139 -1.343674,-0.24264 0,0.64643 1.180707,2.18133 3.582826,4.64497 5.129836,5.2911 5.252038,5.53344 1.95438,3.71592 -7.165531,-3.87737 -12.4585162,-9.69343 -12.4586383,-13.73226 0,-1.69635 1.7507703,-4.44292 3.3386053,-5.21022 1.750649,-0.88876 4.315582,-0.84848 5.659165,0.04 1.302848,0.84817 7.247029,6.54337 19.623864,18.74103 5.089315,5.04846 9.160889,8.96612 8.997831,8.6835 -0.773459,-1.33315 -3.338423,-4.28147 -8.590491,-9.93577 -3.216281,-3.43329 -5.822162,-6.34132 -5.822162,-6.50277 9.16e-4,-0.16146 2.239763,-0.4038 5.007786,-0.52496 6.432868,-0.32322 10.382301,-1.09051 16.937004,-3.31182 6.351338,-2.18103 10.137713,-2.42336 14.16837,-0.96935 2.524046,0.92875 3.29781,1.61547 17.832603,16.6 4.27494,4.36205 6.758679,6.58336 8.142843,7.31036 2.605576,1.29256 6.962048,2.34248 16.896088,4.11971 12.45839,2.22131 17.09976,3.99854 19.42044,7.43153 1.70997,2.50424 0.97713,6.46219 -1.79151,9.93577 -2.72771,3.43299 -10.54475,8.40087 -26.58584,16.9635 -6.962049,3.71592 -10.219247,5.81606 -17.099762,11.10716 -5.699715,4.36204 -9.160584,6.74481 -11.684935,8.03737 z"
     fill="#0b6e4f"
     id="path1"
     style="stroke-width:0.304134" />
</svg>
