<svg width="550" height="700" viewBox="0 0 550 700" fill="none" xmlns="http://www.w3.org/2000/svg">
<path d="M0 700C0 700 16.8312 648.5 67.3248 648.5C117.818 648.5 133.986 610.8 144.423 577.5C154.859 544.2 228.579 546 228.579 500C228.579 454 237.809 460.5 273.643 423.5C309.477 386.5 293.169 333.3 288 300C282.733 266.7 260.615 233.3 271.344 200C282.073 166.7 298.525 146.3 299.5 113C300.475 79.7 261.005 33.3 255.251 16.7L249.594 0H550V16.7C550 33.3 550 66.7 550 100C550 133.3 550 166.7 550 200C550 233.3 550 266.7 550 300C550 333.3 550 366.7 550 400C550 433.3 550 466.7 550 500C550 533.3 550 566.7 550 600C550 633.3 550 666.7 550 683.3V700H0Z" fill="#0B6E4F"/>
<path d="M108.5 700C108.5 700 127.806 674.549 146 670C162 666 182.821 661.199 202 647.5C219.5 635 254.563 603.3 256 570C257.437 536.7 259.768 530.431 310.5 489C340.5 464.5 334.162 433.3 325.269 400C316.467 366.7 318.263 333.3 328.413 300C338.653 266.7 357.156 233.3 356.617 200C355.988 166.7 336.228 133.3 334.88 100C333.533 66.7 350.599 33.3 359.132 16.7L367.665 0H550V16.7C550 33.3 550 66.7 550 100C550 133.3 550 166.7 550 200C550 233.3 550 266.7 550 300C550 333.3 550 366.7 550 400C550 433.3 550 466.7 550 500C550 533.3 550 566.7 550 600C550 633.3 550 666.7 550 683.3V700H108.5Z" fill="#005448"/>
<path d="M228.5 700C228.5 700 255.5 657 298.5 651C333.516 646.114 340.862 602.3 337 569C333.048 535.7 378.222 517.3 374 484C369.778 450.7 417 439 395.5 372.5C384.5 338.477 434.114 333.3 436 300C437.976 266.7 412.551 233.3 413 200C413.449 166.7 429.641 133.3 429.371 100C429.012 66.7 425.778 33.3 424.072 16.7L422.455 0H550V16.7C550 33.3 550 66.7 550 100C550 133.3 550 166.7 550 200C550 233.3 550 266.7 550 300C550 333.3 550 366.7 550 400C550 433.3 550 466.7 550 500C550 533.3 550 566.7 550 600C550 633.3 550 666.7 550 683.3V700H228.5Z" fill="#073B3A"/>
</svg>
