<svg width="1440" height="700" viewBox="0 0 1440 700" fill="none" xmlns="http://www.w3.org/2000/svg">
<rect width="1440" height="700" fill="#ECEEEC"/>
<path d="M0 413.215L34.4 412.508C68.8 411.713 137.6 410.299 206.08 408.179C274.72 406.147 342.88 403.496 411.52 401.464C480 399.343 548.8 397.93 617.28 409.062C685.92 420.283 754.08 444.138 822.72 449.616C891.2 455.006 960 442.106 1028.48 439.014C1097.12 435.922 1165.28 442.636 1233.92 439.456C1302.4 436.187 1371.2 422.934 1405.6 416.307L1440 409.681V613.777H1405.6C1371.2 613.777 1302.4 613.777 1233.92 613.777C1165.28 613.777 1097.12 613.777 1028.48 613.777C960 613.777 891.2 613.777 822.72 613.777C754.08 613.777 685.92 613.777 617.28 613.777C548.8 613.777 480 613.777 411.52 613.777C342.88 613.777 274.72 613.777 206.08 613.777C137.6 613.777 68.8 613.777 34.4 613.777H0L0 413.215Z" fill="#0B6E4F"/>
<path d="M0 449.881L34.4 456.107C68.8 462.45 137.6 474.9 206.08 481.361C274.72 487.821 342.88 488.291 411.52 483.005C480 477.719 548.8 466.678 617.28 465.738C685.92 464.799 754.08 473.726 822.72 487.116C891.2 500.389 960 518.008 1028.48 513.545C1097.12 508.964 1165.28 482.418 1233.92 481.595C1302.4 480.773 1371.2 505.91 1405.6 518.36L1440 530.929V663.658H1405.6C1371.2 663.658 1302.4 663.658 1233.92 663.658C1165.28 663.658 1097.12 663.658 1028.48 663.658C960 663.658 891.2 663.658 822.72 663.658C754.08 663.658 685.92 663.658 617.28 663.658C548.8 663.658 480 663.658 411.52 663.658C342.88 663.658 274.72 663.658 206.08 663.658C137.6 663.658 68.8 663.658 34.4 663.658H0L0 449.881Z" fill="#005D4B"/>
<path d="M0 509.63L34.4 514.779C68.8 520.084 137.6 530.383 206.08 537.405C274.72 544.427 342.88 548.172 411.52 552.853C480 557.534 548.8 563.152 617.28 559.875C685.92 556.442 754.08 543.959 822.72 543.178C891.2 542.398 960 553.321 1028.48 546.611C1097.12 539.746 1165.28 515.403 1233.92 502.296C1302.4 489.344 1371.2 487.784 1405.6 487.004L1440 486.223V700H1405.6C1371.2 700 1302.4 700 1233.92 700C1165.28 700 1097.12 700 1028.48 700C960 700 891.2 700 822.72 700C754.08 700 685.92 700 617.28 700C548.8 700 480 700 411.52 700C342.88 700 274.72 700 206.08 700C137.6 700 68.8 700 34.4 700H0L0 509.63Z" fill="#004C44"/>
</svg>
