<svg width="799" height="546" viewBox="0 0 799 546" fill="none" xmlns="http://www.w3.org/2000/svg">
<path d="M503.755 214.587H382.884C325.036 214.587 324.248 298.363 382.884 298.363C463.43 300.584 506.042 355.763 506.042 420.681C506.042 490.266 454.639 543 391.188 543L124.359 545.573C61.7281 544 4.26875 497.898 0 417.133L0.707813 129.902C0.707813 69.4203 83.0734 68.4531 83.0734 130.578L84.6328 407.589C84.6328 446.789 108.778 464.248 140.856 464.248H377.861C434.144 464.248 435.423 380.922 377.308 380.922C302.591 380.922 255.098 320.897 254.423 251.716C253.755 182.534 311.389 129.02 374.806 129.02L503.753 127.461C557.348 127.459 558.733 214.587 503.755 214.587ZM678.05 0C678.05 0 359.603 0 267.166 0C176.302 0 128.309 73.5156 128.309 134.452C128.309 196.947 129.875 381.923 129.875 381.923C129.875 438.206 211.973 439.078 211.973 381.923V139.117C211.194 109.409 229.27 85.5687 269.673 85.5687H679.906C735.547 85.5687 733.87 169.344 679.906 169.344C607.211 170.175 553.683 225.608 553.683 276.439L552.117 422.82C552.117 479.441 634.222 476.764 634.222 419.689L635.339 306.616C635.339 272.919 650.603 252.684 686.653 252.684C735.189 252.684 798.153 203.355 798.427 121.263C799.213 61.8141 757.783 0.779688 678.05 0Z" fill="#0B6E4F"/>
</svg>
