<svg width="800" height="800" viewBox="0 0 800 800" fill="none" xmlns="http://www.w3.org/2000/svg">
<path fill-rule="evenodd" clip-rule="evenodd" d="M325 277.875L154.575 594L114.75 521.75L160.725 437.075L69.45 436.825L50 400.725L70 363.8L200 364.25L246.7 278.075L325 277.875Z" fill="#0B6E4F"/>
<path fill-rule="evenodd" clip-rule="evenodd" d="M338.175 530.575H679.175L640.65 603.625L549.2 603.35L594.625 688.075L575.15 724.3H535.325L470.725 603.675L377.675 603.475L338.175 530.575Z" fill="#0B6E4F"/>
<path fill-rule="evenodd" clip-rule="evenodd" d="M536.675 392.05L366.175 75.925L444.525 75.125L490 160L535.85 75.525H574.775L594.65 112.5L529.35 232.675L575.7 319.05L536.675 392.05Z" fill="#0B6E4F"/>
<path fill-rule="evenodd" clip-rule="evenodd" d="M263.55 408.1L434.075 724.225L355.725 725L310.2 640L264.35 724.5H225.4L205.4 687.6L270.775 567.5L224.4 481.075L263.55 408.1Z" fill="#073B3A"/>
<path fill-rule="evenodd" clip-rule="evenodd" d="M461.6 268.775H120.575L159.125 195.725L250.575 196L205.175 111.275L224.65 75H264.45L329.05 195.625L422.1 195.825L461.6 268.775Z" fill="#073B3A"/>
<path fill-rule="evenodd" clip-rule="evenodd" d="M475 522.2L645.425 206.1L685.25 278.35L639.275 363L730.55 363.25L750 399.475L730 436.4L600 435.95L553.3 522.125L475 522.2Z" fill="#073B3A"/>
</svg>
