<svg width="796" height="715" viewBox="0 0 796 715" fill="none" xmlns="http://www.w3.org/2000/svg">
<path d="M0.356262 356.219C0.356262 416.266 58.9906 472.319 151.428 503.916C132.969 596.844 148.122 671.747 198.728 700.931C250.744 730.931 328.238 710.166 401.791 645.869C473.488 707.569 545.947 731.85 596.509 702.581C648.478 672.497 664.281 592.516 645.312 496.684C741.594 464.853 795.45 417.056 795.45 356.219C795.45 297.566 736.709 246.825 645.516 215.431C665.938 115.641 648.634 42.5563 595.931 12.1656C545.122 -17.1344 471.819 8.40313 399.069 71.7156C323.381 4.51564 250.803 -16 198.156 14.475C147.394 43.8594 132.909 120.125 151.428 214.772C62.1094 245.913 0.356262 297.803 0.356262 356.219Z" fill="#ECEEEC"/>
<path d="M626.203 246.606C618.687 244.028 611.108 241.64 603.472 239.444C604.738 234.298 605.909 229.13 606.984 223.941C624.191 140.416 612.941 73.1281 574.522 50.9781C537.688 29.7344 477.444 51.8844 416.6 104.831C410.605 110.06 404.742 115.44 399.019 120.966C395.186 117.292 391.285 113.689 387.319 110.159C323.553 53.5406 259.638 29.6844 221.259 51.9C184.459 73.2031 173.559 136.463 189.05 215.619C190.591 223.458 192.331 231.256 194.269 239.006C185.225 241.575 176.491 244.312 168.134 247.225C93.3782 273.288 45.6344 314.138 45.6344 356.506C45.6344 400.269 96.8844 444.162 174.753 470.775C181.067 472.923 187.434 474.913 193.847 476.744C191.763 485.094 189.914 493.5 188.3 501.953C173.531 579.734 185.066 641.494 221.769 662.666C259.678 684.525 323.303 662.056 385.259 607.9C390.156 603.619 395.072 599.078 399.994 594.319C406.193 600.3 412.558 606.108 419.081 611.734C479.094 663.375 538.363 684.228 575.034 663C612.909 641.075 625.216 574.728 609.234 494.006C608.016 487.841 606.594 481.544 605 475.131C609.469 473.812 613.853 472.45 618.131 471.031C699.081 444.212 751.747 400.853 751.747 356.506C751.747 313.984 702.466 272.859 626.203 246.606Z" fill="#0B6E4F"/>
<path d="M608.644 442.4C604.784 443.678 600.822 444.912 596.784 446.109C587.847 417.819 575.784 387.734 561.028 356.656C575.113 326.312 586.706 296.616 595.394 268.506C602.616 270.6 609.628 272.803 616.384 275.131C681.728 297.622 721.584 330.881 721.584 356.506C721.584 383.803 678.534 419.241 608.644 442.4ZM579.644 499.866C586.709 535.559 587.719 567.831 583.038 593.059C578.831 615.728 570.375 630.841 559.919 636.894C537.666 649.775 490.075 633.031 438.756 588.869C432.872 583.806 426.944 578.4 421 572.681C440.897 550.919 460.781 525.619 480.188 497.525C514.325 494.497 546.575 489.544 575.822 482.784C577.259 488.597 578.541 494.294 579.644 499.866ZM286.362 634.669C264.622 642.347 247.306 642.566 236.841 636.531C214.566 623.688 205.309 574.094 217.937 507.578C219.439 499.717 221.159 491.9 223.094 484.134C252.016 490.531 284.031 495.134 318.25 497.909C337.784 525.4 358.244 550.669 378.863 572.797C374.48 577.036 369.995 581.166 365.409 585.184C338.012 609.134 310.559 626.122 286.366 634.669H286.362ZM184.509 442.231C150.078 430.462 121.644 415.169 102.153 398.481C84.6406 383.481 75.7969 368.591 75.7969 356.506C75.7969 330.797 114.131 298 178.066 275.709C186.09 272.924 194.195 270.374 202.369 268.062C211.206 296.803 222.797 326.853 236.784 357.241C222.616 388.081 210.859 418.609 201.941 447.688C196.086 446.012 190.274 444.193 184.509 442.231ZM218.653 209.825C205.381 142.003 214.194 90.8438 236.372 78.0062C259.997 64.3313 312.231 83.8312 367.287 132.716C370.806 135.841 374.341 139.113 377.881 142.497C357.369 164.525 337.097 189.603 317.731 216.934C284.522 220.013 252.731 224.956 223.506 231.578C221.706 224.368 220.088 217.117 218.653 209.825ZM523.237 285.034C516.335 273.111 509.176 261.337 501.766 249.722C524.297 252.566 545.881 256.347 566.15 260.975C560.066 280.478 552.481 300.872 543.55 321.778C537.024 309.396 530.252 297.146 523.237 285.034ZM399.028 164.053C412.941 179.125 426.875 195.956 440.581 214.216C412.778 212.902 384.929 212.896 357.125 214.197C370.844 196.106 384.897 179.3 399.028 164.053ZM274.022 285.241C267.095 297.256 260.449 309.431 254.091 321.756C245.306 300.922 237.791 280.438 231.653 260.656C251.8 256.147 273.284 252.463 295.669 249.666C288.176 261.353 280.958 273.214 274.022 285.241ZM296.312 465.5C273.188 462.919 251.378 459.422 231.238 455.037C237.472 434.906 245.153 413.981 254.125 392.7C260.511 405.034 267.185 417.217 274.144 429.237C281.244 441.499 288.636 453.59 296.312 465.5ZM399.862 551.091C385.566 535.662 371.306 518.6 357.378 500.247C370.897 500.778 384.681 501.047 398.691 501.047C413.084 501.047 427.312 500.725 441.316 500.1C427.566 518.788 413.681 535.875 399.862 551.091ZM543.837 391.616C553.275 413.128 561.231 433.941 567.55 453.731C547.075 458.403 524.972 462.166 501.681 464.959C509.145 453.127 516.372 441.148 523.359 429.028C530.462 416.711 537.29 404.237 543.837 391.616ZM497.228 413.959C486.532 432.54 475.234 450.769 463.353 468.616C442.403 470.112 420.753 470.884 398.691 470.884C376.719 470.884 355.344 470.2 334.759 468.866C322.57 451.06 311.059 432.8 300.25 414.125C289.492 395.549 279.443 376.57 270.125 357.231C279.419 337.886 289.438 318.898 300.159 300.306V300.312C310.878 281.717 322.298 263.535 334.397 245.806C355.397 244.219 376.928 243.387 398.694 243.387C420.556 243.387 442.116 244.225 463.109 245.825C475.085 263.526 486.433 281.645 497.131 300.147C507.89 318.697 518.042 337.593 527.572 356.803C518.14 376.209 508.017 395.274 497.228 413.959ZM559.456 77.1094C583.1 90.7469 592.297 145.738 577.441 217.853C576.467 222.551 575.408 227.231 574.266 231.891C544.972 225.131 513.159 220.1 479.853 216.975C460.45 189.347 440.347 164.225 420.166 142.481C425.454 137.383 430.868 132.417 436.403 127.588C488.534 82.2188 537.256 64.3062 559.456 77.1094Z" fill="white"/>
<path d="M398.691 293.453C433.516 293.453 461.744 321.684 461.744 356.506C461.744 391.331 433.516 419.563 398.691 419.563C363.869 419.563 335.637 391.331 335.637 356.506C335.637 321.684 363.869 293.453 398.691 293.453Z" fill="#073B3A"/>
</svg>
