<svg width="796" height="715" viewBox="0 0 796 715" fill="none" xmlns="http://www.w3.org/2000/svg">
<path d="M626.203 246.606C618.687 244.028 611.108 241.64 603.472 239.444C604.738 234.298 605.909 229.13 606.984 223.941C624.191 140.416 612.941 73.1281 574.522 50.9781C537.688 29.7344 477.444 51.8844 416.6 104.831C410.605 110.06 404.742 115.44 399.019 120.966C395.186 117.292 391.285 113.689 387.319 110.159C323.553 53.5406 259.638 29.6844 221.259 51.9C184.459 73.2031 173.559 136.463 189.05 215.619C190.591 223.458 192.331 231.256 194.269 239.006C185.225 241.575 176.491 244.312 168.134 247.225C93.3782 273.288 45.6344 314.138 45.6344 356.506C45.6344 400.269 96.8844 444.162 174.753 470.775C181.067 472.923 187.434 474.913 193.847 476.744C191.763 485.094 189.914 493.5 188.3 501.953C173.531 579.734 185.066 641.494 221.769 662.666C259.678 684.525 323.303 662.056 385.259 607.9C390.156 603.619 395.072 599.078 399.994 594.319C406.193 600.3 412.558 606.108 419.081 611.734C479.094 663.375 538.363 684.228 575.034 663C612.909 641.075 625.216 574.728 609.234 494.006C608.016 487.841 606.594 481.544 605 475.131C609.469 473.812 613.853 472.45 618.131 471.031C699.081 444.212 751.747 400.853 751.747 356.506C751.747 313.984 702.466 272.859 626.203 246.606Z" fill="#0B6E4F"/>
<path d="M607.847 442.323C603.987 443.601 600.025 444.835 595.987 446.032C587.05 417.742 574.987 387.657 560.231 356.579C574.316 326.235 585.909 296.539 594.597 268.429C601.819 270.523 608.831 272.726 615.587 275.054C680.931 297.545 720.787 330.804 720.787 356.429C720.787 383.726 677.737 419.164 607.847 442.323ZM578.847 499.789C585.912 535.482 586.922 567.754 582.241 592.982C578.034 615.651 569.578 630.764 559.122 636.817C536.869 649.698 489.278 632.954 437.959 588.792C432.075 583.729 426.147 578.323 420.203 572.604C440.1 550.842 459.984 525.542 479.391 497.448C513.528 494.42 545.778 489.467 575.025 482.707C576.462 488.52 577.744 494.217 578.847 499.789ZM285.565 634.592C263.825 642.27 246.509 642.489 236.044 636.454C213.769 623.611 204.512 574.017 217.14 507.501C218.642 499.64 220.362 491.823 222.297 484.057C251.219 490.454 283.234 495.057 317.453 497.832C336.987 525.323 357.447 550.592 378.066 572.72C373.683 576.959 369.198 581.089 364.612 585.107C337.215 609.057 309.762 626.045 285.569 634.592H285.565ZM183.712 442.154C149.281 430.385 120.847 415.092 101.356 398.404C83.8437 383.404 75 368.514 75 356.429C75 330.72 113.334 297.923 177.269 275.632C185.293 272.847 193.398 270.297 201.572 267.985C210.409 296.726 222 326.776 235.987 357.164C221.819 388.004 210.062 418.532 201.144 447.611C195.289 445.935 189.477 444.116 183.712 442.154ZM217.856 209.748C204.584 141.926 213.397 90.767 235.575 77.9294C259.2 64.2545 311.434 83.7544 366.49 132.639C370.009 135.764 373.544 139.036 377.084 142.42C356.572 164.448 336.3 189.526 316.934 216.857C283.725 219.936 251.934 224.879 222.709 231.501C220.909 224.291 219.291 217.04 217.856 209.748ZM522.44 284.957C515.538 273.034 508.379 261.26 500.969 249.645C523.5 252.489 545.084 256.27 565.353 260.898C559.269 280.401 551.684 300.795 542.753 321.701C536.227 309.319 529.455 297.069 522.44 284.957ZM398.231 163.976C412.144 179.048 426.078 195.879 439.784 214.139C411.981 212.825 384.132 212.819 356.328 214.12C370.047 196.029 384.1 179.223 398.231 163.976ZM273.225 285.164C266.298 297.179 259.652 309.354 253.294 321.679C244.509 300.845 236.994 280.361 230.856 260.579C251.003 256.07 272.487 252.386 294.872 249.589C287.379 261.276 280.161 273.137 273.225 285.164ZM295.515 465.423C272.391 462.842 250.581 459.345 230.441 454.96C236.675 434.829 244.356 413.904 253.328 392.623C259.714 404.957 266.388 417.14 273.347 429.16C280.447 441.422 287.839 453.513 295.515 465.423ZM399.065 551.014C384.769 535.585 370.509 518.523 356.581 500.17C370.1 500.701 383.884 500.97 397.894 500.97C412.287 500.97 426.515 500.648 440.519 500.023C426.769 518.711 412.884 535.798 399.065 551.014ZM543.04 391.539C552.478 413.051 560.434 433.864 566.753 453.654C546.278 458.326 524.175 462.089 500.884 464.882C508.348 453.05 515.575 441.071 522.562 428.951C529.665 416.634 536.493 404.16 543.04 391.539ZM496.431 413.882C485.735 432.463 474.437 450.692 462.556 468.539C441.606 470.035 419.956 470.807 397.894 470.807C375.922 470.807 354.547 470.123 333.962 468.789C321.773 450.983 310.262 432.723 299.453 414.048C288.695 395.472 278.646 376.493 269.328 357.154C278.622 337.809 288.641 318.821 299.362 300.229V300.235C310.081 281.64 321.501 263.458 333.6 245.729C354.6 244.142 376.131 243.31 397.897 243.31C419.759 243.31 441.319 244.148 462.312 245.748C474.288 263.449 485.636 281.568 496.334 300.07C507.093 318.62 517.245 337.516 526.775 356.726C517.343 376.132 507.22 395.197 496.431 413.882ZM558.659 77.0326C582.303 90.6701 591.5 145.661 576.644 217.776C575.67 222.474 574.611 227.154 573.469 231.814C544.175 225.054 512.362 220.023 479.056 216.898C459.653 189.27 439.55 164.148 419.369 142.404C424.657 137.306 430.071 132.34 435.606 127.511C487.737 82.142 536.459 64.2294 558.659 77.0326Z" fill="white"/>
<path d="M398.691 293.453C433.516 293.453 461.744 321.684 461.744 356.506C461.744 391.331 433.516 419.563 398.691 419.563C363.869 419.563 335.637 391.331 335.637 356.506C335.637 321.684 363.869 293.453 398.691 293.453Z" fill="#073B3A"/>
</svg>
