<svg width="350" height="350" viewBox="0 0 350 350" fill="none" xmlns="http://www.w3.org/2000/svg">
<path d="M350 0C346.2 36 342.3 71.9 332.9 108.2C323.4 144.4 308.4 180.9 281.5 204.5C254.7 228.2 216 238.9 184.6 254C153.1 269.1 128.8 288.6 99.2 305.3C69.6 322 34.8 336 0 350V0H350Z" fill="#0B6E4F"/>
<path d="M233.3 0C230.8 24 228.2 47.9 221.9 72.1C215.6 96.3 205.6 120.6 187.7 136.4C169.8 152.1 144 159.3 123 169.4C102.1 179.4 85.8 192.4 66.1 203.5C46.4 214.7 23.2 224 0 233.3V0H233.3Z" fill="#00614D"/>
<path d="M116.7 0C115.4 12 114.1 24 111 36.1C107.8 48.1 102.8 60.3 93.8 68.2C84.9 76.1 72 79.6 61.5 84.7C51 89.7 42.9 96.2 33.1 101.8C23.2 107.3 11.6 112 0 116.7V0H116.7Z" fill="#005A4B"/>
</svg>
