<svg width="500" height="500" viewBox="0 0 500 500" fill="none" xmlns="http://www.w3.org/2000/svg">
<rect width="500" height="500" rx="5" fill="white"/>
<path d="M157.879 290L147.675 335.759C146.48 341.169 144.008 343.829 140.341 343.829H128.938C125.352 343.829 122.962 341.169 121.763 335.759L111.481 290H100L110.683 337.963C113.314 349.789 118.815 355.753 127.345 355.753H141.937C150.467 355.753 155.886 349.789 158.599 337.963L169.442 290H157.879Z" fill="#073B3A"/>
<path d="M243.822 343.829H193.515C189.61 343.829 187.617 341.903 187.617 337.963V328.975H243.822V316.872H187.617V307.701C187.617 304.49 190.646 301.741 193.515 301.741H243.822V290H193.515C185.063 290 176.771 297.886 176.771 307.701V337.963C176.771 348.414 184.265 355.753 193.515 355.753H243.822V343.829Z" fill="#073B3A"/>
<path d="M322.827 307.701C322.827 298.163 314.538 290 306.164 290H252.988V355.753H306.164C315.173 355.753 322.827 348.414 322.827 337.963V307.701ZM312.066 337.963C312.066 341.903 310.073 343.829 306.164 343.829H263.752V301.741H306.164C309.037 301.741 312.066 304.49 312.066 307.701V337.963Z" fill="#073B3A"/>
<path d="M389.236 307.791C386.608 295.96 381.025 290.094 372.495 290.094H357.985C349.456 290.094 343.955 295.96 341.323 307.791L330.558 355.843H342.039L352.804 307.791C353.68 303.85 355.673 301.831 358.702 301.831H371.857C374.726 301.831 376.641 303.85 377.599 307.791L379.752 316.872H355.034L352.562 328.975H382.539L388.519 355.843H400L389.236 307.791Z" fill="#073B3A"/>
<path d="M149.515 372.071H144.609V370.602H155.899V372.071H150.994V386.651H149.515V372.071Z" fill="#073B3A"/>
<path d="M168.115 385.182V386.651H158.242V370.602H167.803V372.071H159.721V377.784H166.931V379.217H159.721V385.182H168.115Z" fill="#073B3A"/>
<path d="M177.55 386.794C176.168 386.794 174.922 386.445 173.812 385.737C172.699 385.034 171.827 384.062 171.196 382.817C170.573 381.564 170.262 380.167 170.262 378.626C170.262 377.086 170.573 375.698 171.196 374.453C171.827 373.199 172.699 372.223 173.812 371.515C174.934 370.812 176.183 370.459 177.565 370.459C178.601 370.459 179.559 370.664 180.431 371.068C181.31 371.462 182.058 372.044 182.673 372.805L181.739 373.88C180.649 372.617 179.27 371.981 177.612 371.981C176.51 371.981 175.51 372.277 174.607 372.859C173.703 373.432 172.991 374.229 172.473 375.241C171.963 376.244 171.71 377.372 171.71 378.626C171.71 379.88 171.963 381.017 172.473 382.029C172.991 383.032 173.703 383.829 174.607 384.412C175.51 384.985 176.51 385.271 177.612 385.271C179.282 385.271 180.656 384.635 181.739 383.355L182.673 384.429C182.058 385.195 181.31 385.782 180.431 386.185C179.547 386.592 178.585 386.794 177.55 386.794Z" fill="#073B3A"/>
<path d="M197.482 370.602V386.651H196.018V379.253H187.297V386.651H185.818V370.602H187.297V377.749H196.018V370.602H197.482Z" fill="#073B3A"/>
<path d="M213.681 370.602V386.651H212.466L203.496 373.629V386.651H202.017V370.602H203.232L212.217 383.623V370.602H213.681Z" fill="#073B3A"/>
<path d="M224.32 386.794C222.927 386.794 221.673 386.445 220.552 385.737C219.431 385.021 218.551 384.044 217.92 382.8C217.297 381.559 216.986 380.167 216.986 378.626C216.986 377.086 217.297 375.698 217.92 374.453C218.551 373.212 219.431 372.241 220.552 371.533C221.673 370.817 222.927 370.459 224.32 370.459C225.698 370.459 226.94 370.812 228.042 371.515C229.152 372.223 230.024 373.199 230.658 374.453C231.301 375.698 231.624 377.086 231.624 378.626C231.624 380.167 231.301 381.564 230.658 382.817C230.024 384.062 229.152 385.034 228.042 385.737C226.94 386.445 225.698 386.794 224.32 386.794ZM224.32 385.271C225.418 385.271 226.411 384.985 227.295 384.412C228.186 383.838 228.887 383.046 229.397 382.029C229.903 381.017 230.16 379.88 230.16 378.626C230.16 377.372 229.903 376.239 229.397 375.223C228.887 374.211 228.186 373.414 227.295 372.841C226.411 372.268 225.418 371.981 224.32 371.981C223.207 371.981 222.206 372.268 221.315 372.841C220.419 373.414 219.715 374.211 219.197 375.223C218.687 376.239 218.434 377.372 218.434 378.626C218.434 379.88 218.687 381.017 219.197 382.029C219.715 383.046 220.419 383.838 221.315 384.412C222.206 384.985 223.207 385.271 224.32 385.271Z" fill="#073B3A"/>
<path d="M234.933 370.602H236.412V385.182H244.214V386.651H234.933V370.602Z" fill="#073B3A"/>
<path d="M252.494 386.794C251.1 386.794 249.847 386.445 248.726 385.737C247.604 385.021 246.725 384.044 246.094 382.8C245.471 381.559 245.16 380.167 245.16 378.626C245.16 377.086 245.471 375.698 246.094 374.453C246.725 373.212 247.604 372.241 248.726 371.533C249.847 370.817 251.1 370.459 252.494 370.459C253.872 370.459 255.114 370.812 256.216 371.515C257.326 372.223 258.198 373.199 258.832 374.453C259.475 375.698 259.798 377.086 259.798 378.626C259.798 380.167 259.475 381.564 258.832 382.817C258.198 384.062 257.326 385.034 256.216 385.737C255.114 386.445 253.872 386.794 252.494 386.794ZM252.494 385.271C253.592 385.271 254.585 384.985 255.469 384.412C256.36 383.838 257.061 383.046 257.571 382.029C258.077 381.017 258.334 379.88 258.334 378.626C258.334 377.372 258.077 376.239 257.571 375.223C257.061 374.211 256.36 373.414 255.469 372.841C254.585 372.268 253.592 371.981 252.494 371.981C251.381 371.981 250.38 372.268 249.489 372.841C248.593 373.414 247.889 374.211 247.371 375.223C246.861 376.239 246.608 377.372 246.608 378.626C246.608 379.88 246.861 381.017 247.371 382.029C247.889 383.046 248.593 383.838 249.489 384.412C250.38 384.985 251.381 385.271 252.494 385.271Z" fill="#073B3A"/>
<path d="M272.933 378.626H274.35V384.752C273.696 385.41 272.921 385.916 272.03 386.274C271.146 386.624 270.212 386.794 269.227 386.794C267.825 386.794 266.564 386.445 265.443 385.737C264.329 385.034 263.457 384.062 262.826 382.817C262.192 381.564 261.877 380.167 261.877 378.626C261.877 377.086 262.192 375.698 262.826 374.453C263.457 373.199 264.329 372.223 265.443 371.515C266.564 370.812 267.829 370.459 269.242 370.459C270.309 370.459 271.286 370.656 272.17 371.05C273.062 371.444 273.813 372.026 274.428 372.787L273.509 373.862C272.407 372.608 271.006 371.981 269.305 371.981C268.172 371.981 267.148 372.268 266.237 372.841C265.334 373.414 264.621 374.211 264.103 375.223C263.582 376.239 263.325 377.372 263.325 378.626C263.325 379.88 263.582 381.017 264.103 382.029C264.621 383.032 265.334 383.829 266.237 384.412C267.14 384.985 268.156 385.271 269.289 385.271C270.722 385.271 271.936 384.859 272.933 384.035V378.626Z" fill="#073B3A"/>
<path d="M278.509 370.602H279.988V386.651H278.509V370.602Z" fill="#073B3A"/>
<path d="M294.399 385.182V386.651H284.526V370.602H294.087V372.071H286.005V377.784H293.215V379.217H286.005V385.182H294.399Z" fill="#073B3A"/>
<path d="M301.702 386.794C300.663 386.794 299.666 386.606 298.712 386.221C297.766 385.84 297.034 385.334 296.516 384.698L297.093 383.391C297.599 383.977 298.268 384.447 299.102 384.806C299.942 385.164 300.807 385.343 301.702 385.343C302.948 385.343 303.882 385.083 304.505 384.555C305.136 384.031 305.455 383.346 305.455 382.495C305.455 381.864 305.284 381.358 304.941 380.973C304.599 380.592 304.182 380.301 303.695 380.095C303.205 379.88 302.52 379.656 301.64 379.414C300.589 379.105 299.756 378.814 299.133 378.537C298.51 378.25 297.973 377.816 297.529 377.229C297.081 376.647 296.859 375.859 296.859 374.865C296.859 374.054 297.046 373.32 297.42 372.662C297.793 371.994 298.362 371.462 299.133 371.068C299.9 370.664 300.853 370.459 301.998 370.459C302.796 370.459 303.575 370.593 304.334 370.853C305.101 371.103 305.767 371.453 306.327 371.891L305.829 373.235C305.245 372.796 304.622 372.465 303.96 372.25C303.294 372.026 302.64 371.909 301.998 371.909C300.772 371.909 299.849 372.187 299.226 372.733C298.611 373.271 298.307 373.969 298.307 374.829C298.307 375.465 298.479 375.975 298.821 376.369C299.164 376.763 299.588 377.063 300.098 377.265C300.604 377.471 301.289 377.695 302.154 377.946C303.182 378.232 304.011 378.519 304.645 378.805C305.276 379.083 305.813 379.504 306.249 380.077C306.685 380.65 306.903 381.429 306.903 382.405C306.903 383.22 306.709 383.959 306.327 384.627C305.953 385.285 305.369 385.809 304.583 386.203C303.804 386.597 302.843 386.794 301.702 386.794Z" fill="#073B3A"/>
<path d="M310.368 384.268C310.668 384.268 310.917 384.389 311.115 384.627C311.322 384.868 311.427 385.159 311.427 385.504C311.427 385.683 311.4 385.88 311.349 386.095C311.306 386.31 311.24 386.556 311.147 386.83L310.306 390H309.356L310.025 386.668C309.815 386.597 309.644 386.462 309.511 386.256C309.375 386.042 309.309 385.791 309.309 385.504C309.309 385.159 309.406 384.868 309.605 384.627C309.811 384.389 310.064 384.268 310.368 384.268Z" fill="#073B3A"/>
<path d="M319.953 370.602H321.432V386.651H319.953V370.602Z" fill="#073B3A"/>
<path d="M337.634 370.602V386.651H336.419L327.449 373.629V386.651H325.97V370.602H327.185L336.17 383.623V370.602H337.634Z" fill="#073B3A"/>
<path d="M348.226 386.794C346.844 386.794 345.599 386.445 344.489 385.737C343.376 385.034 342.504 384.062 341.873 382.817C341.25 381.564 340.939 380.167 340.939 378.626C340.939 377.086 341.25 375.698 341.873 374.453C342.504 373.199 343.376 372.223 344.489 371.515C345.61 370.812 346.86 370.459 348.242 370.459C349.278 370.459 350.235 370.664 351.107 371.068C351.987 371.462 352.735 372.044 353.35 372.805L352.415 373.88C351.325 372.617 349.947 371.981 348.289 371.981C347.187 371.981 346.186 372.277 345.283 372.859C344.38 373.432 343.668 374.229 343.15 375.241C342.64 376.244 342.387 377.372 342.387 378.626C342.387 379.88 342.64 381.017 343.15 382.029C343.668 383.032 344.38 383.829 345.283 384.412C346.186 384.985 347.187 385.271 348.289 385.271C349.959 385.271 351.333 384.635 352.415 383.355L353.35 384.429C352.735 385.195 351.987 385.782 351.107 386.185C350.224 386.592 349.262 386.794 348.226 386.794Z" fill="#073B3A"/>
<path d="M356.618 386.758C356.326 386.758 356.077 386.642 355.871 386.4C355.66 386.149 355.559 385.853 355.559 385.504C355.559 385.159 355.66 384.868 355.871 384.627C356.077 384.389 356.326 384.268 356.618 384.268C356.906 384.268 357.155 384.389 357.366 384.627C357.584 384.868 357.693 385.159 357.693 385.504C357.693 385.853 357.584 386.149 357.366 386.4C357.155 386.642 356.906 386.758 356.618 386.758Z" fill="#073B3A"/>
<path d="M251.123 249.452C250.775 249.665 250.385 249.774 250.002 249.774C249.614 249.774 249.225 249.665 248.881 249.452L176.719 204.483C175.748 203.878 174.518 203.878 173.547 204.482L164.093 210.369C162.207 211.543 162.207 214.287 164.092 215.462L248.416 268.011C249.387 268.616 250.618 268.616 251.589 268.011L335.908 215.461C337.792 214.287 337.792 211.543 335.907 210.369L326.458 204.483C325.487 203.878 324.256 203.878 323.285 204.483L251.123 249.452Z" fill="black"/>
<path d="M251.123 225.527C250.774 225.74 250.392 225.843 250.002 225.843C249.614 225.843 249.225 225.74 248.881 225.527L176.692 180.576C175.721 179.972 174.492 179.972 173.521 180.576L164.096 186.439C162.21 187.613 162.209 190.357 164.094 191.532L176.203 199.08L248.41 244.074C249.381 244.679 250.612 244.679 251.584 244.074L323.735 199.1L335.896 191.53C337.782 190.356 337.782 187.61 335.895 186.436L326.473 180.574C325.502 179.971 324.272 179.971 323.302 180.575L251.123 225.527Z" fill="#0B6E4F"/>
<path d="M164.087 162.537C162.202 163.712 162.203 166.456 164.088 167.63L248.416 220.15C249.387 220.755 250.617 220.755 251.588 220.15L335.913 167.63C337.798 166.456 337.798 163.712 335.913 162.537L251.589 109.989C250.617 109.384 249.387 109.384 248.415 109.989L164.087 162.537Z" fill="black"/>
</svg>
