<svg id="visual" viewBox="0 0 900 770" width="900" height="770" xmlns="http://www.w3.org/2000/svg" xmlns:xlink="http://www.w3.org/1999/xlink" version="1.1"><rect x="0" y="0" width="900" height="770" fill="#001220"></rect><path d="M570 770L562.7 751.7C555.3 733.3 540.7 696.7 547.3 660C554 623.3 582 586.7 587.3 550C592.7 513.3 575.3 476.7 567.2 440C559 403.3 560 366.7 561.7 330C563.3 293.3 565.7 256.7 580.5 220C595.3 183.3 622.7 146.7 632.5 110C642.3 73.3 634.7 36.7 630.8 18.3L627 0L900 0L900 18.3C900 36.7 900 73.3 900 110C900 146.7 900 183.3 900 220C900 256.7 900 293.3 900 330C900 366.7 900 403.3 900 440C900 476.7 900 513.3 900 550C900 586.7 900 623.3 900 660C900 696.7 900 733.3 900 751.7L900 770Z" fill="#0b6e4f"></path><path d="M674 770L676.2 751.7C678.3 733.3 682.7 696.7 684.3 660C686 623.3 685 586.7 690 550C695 513.3 706 476.7 711.8 440C717.7 403.3 718.3 366.7 699 330C679.7 293.3 640.3 256.7 639 220C637.7 183.3 674.3 146.7 676.2 110C678 73.3 645 36.7 628.5 18.3L612 0L900 0L900 18.3C900 36.7 900 73.3 900 110C900 146.7 900 183.3 900 220C900 256.7 900 293.3 900 330C900 366.7 900 403.3 900 440C900 476.7 900 513.3 900 550C900 586.7 900 623.3 900 660C900 696.7 900 733.3 900 751.7L900 770Z" fill="#00614d"></path><path d="M666 770L672.3 751.7C678.7 733.3 691.3 696.7 702.3 660C713.3 623.3 722.7 586.7 727.3 550C732 513.3 732 476.7 733.5 440C735 403.3 738 366.7 729 330C720 293.3 699 256.7 693 220C687 183.3 696 146.7 697.2 110C698.3 73.3 691.7 36.7 688.3 18.3L685 0L900 0L900 18.3C900 36.7 900 73.3 900 110C900 146.7 900 183.3 900 220C900 256.7 900 293.3 900 330C900 366.7 900 403.3 900 440C900 476.7 900 513.3 900 550C900 586.7 900 623.3 900 660C900 696.7 900 733.3 900 751.7L900 770Z" fill="#005448"></path><path d="M800 770L794.2 751.7C788.3 733.3 776.7 696.7 771.8 660C767 623.3 769 586.7 764 550C759 513.3 747 476.7 748 440C749 403.3 763 366.7 770.5 330C778 293.3 779 256.7 781.5 220C784 183.3 788 146.7 784.7 110C781.3 73.3 770.7 36.7 765.3 18.3L760 0L900 0L900 18.3C900 36.7 900 73.3 900 110C900 146.7 900 183.3 900 220C900 256.7 900 293.3 900 330C900 366.7 900 403.3 900 440C900 476.7 900 513.3 900 550C900 586.7 900 623.3 900 660C900 696.7 900 733.3 900 751.7L900 770Z" fill="#014742"></path><path d="M840 770L834.3 751.7C828.7 733.3 817.3 696.7 813.5 660C809.7 623.3 813.3 586.7 812.7 550C812 513.3 807 476.7 806.5 440C806 403.3 810 366.7 815.3 330C820.7 293.3 827.3 256.7 824.5 220C821.7 183.3 809.3 146.7 803.5 110C797.7 73.3 798.3 36.7 798.7 18.3L799 0L900 0L900 18.3C900 36.7 900 73.3 900 110C900 146.7 900 183.3 900 220C900 256.7 900 293.3 900 330C900 366.7 900 403.3 900 440C900 476.7 900 513.3 900 550C900 586.7 900 623.3 900 660C900 696.7 900 733.3 900 751.7L900 770Z" fill="#073b3a"></path></svg>